<svg width="20" height="18" viewBox="0 0 20 18" fill="none" xmlns="http://www.w3.org/2000/svg">
    <g clip-path="url(#clip0_614_462)">
        <path d="M4.03961 2.77933H5.36608V4.15681H4.03961V2.77933Z" fill="white" />
        <path d="M14.6514 2.77933H15.9778V4.15681H14.6514V2.77933Z" fill="white" />
        <path d="M4.03961 4.15681H5.36608V5.53433H4.03961V4.15681Z" fill="white" />
        <path d="M5.36609 4.15681H6.69256V5.53433H5.36609V4.15681Z" fill="white" />
        <path d="M13.3249 4.15681H14.6514V5.53433H13.3249V4.15681Z" fill="white" />
        <path d="M14.6514 4.15681H15.9778V5.53433H14.6514V4.15681Z" fill="white" />
        <path d="M4.03961 5.53433H5.36608V6.91182H4.03961V5.53433Z" fill="white" />
        <path d="M14.6514 5.53433H15.9778V6.91182H14.6514V5.53433Z" fill="white" />
        <path d="M4.03961 8.28934H5.36608V9.66682H4.03961V8.28934Z" fill="#F37E0D" />
        <path d="M4.03961 1.40182H5.36608V2.77931H4.03961V1.40182Z" fill="#F37E0D" />
        <path d="M14.6514 1.40182H15.9778V2.77931H14.6514V1.40182Z" fill="#F37E0D" />
        <path d="M5.36609 2.77931H6.69256V4.1568H5.36609V2.77931Z" fill="#F37E0D" />
        <path d="M13.3249 2.77931H14.6514V4.1568H13.3249V2.77931Z" fill="#F37E0D" />
        <path d="M6.6925 4.1568H8.01898V5.53432H6.6925V4.1568Z" fill="#F37E0D" />
        <path d="M11.9984 4.1568H13.3249V5.53432H11.9984V4.1568Z" fill="#F37E0D" />
        <path d="M8.01898 5.53433H9.34545V6.91182H8.01898V5.53433Z" fill="#F37E0D" />
        <path d="M9.34546 5.53433H10.6719V6.91182H9.34546V5.53433Z" fill="#F37E0D" />
        <path d="M10.6719 5.53433H11.9984V6.91182H10.6719V5.53433Z" fill="#F37E0D" />
        <path d="M5.36609 6.91182H6.69256V8.28934H5.36609V6.91182Z" fill="#F37E0D" />
        <path d="M6.6925 6.91182H8.01898V8.28934H6.6925V6.91182Z" fill="#F37E0D" />
        <path d="M8.01898 6.91182H9.34545V8.28934H8.01898V6.91182Z" fill="#F37E0D" />
        <path d="M9.34546 6.91182H10.6719V8.28934H9.34546V6.91182Z" fill="#F37E0D" />
        <path d="M10.6719 6.91182H11.9984V8.28934H10.6719V6.91182Z" fill="#F37E0D" />
        <path d="M11.9984 6.91182H13.3249V8.28934H11.9984V6.91182Z" fill="#F37E0D" />
        <path d="M13.3249 6.91182H14.6514V8.28934H13.3249V6.91182Z" fill="#F37E0D" />
        <path d="M5.36609 8.28934H6.69256V9.66682H5.36609V8.28934Z" fill="#F37E0D" />
        <path d="M6.6925 8.28934H8.01898V9.66682H6.6925V8.28934Z" fill="#F37E0D" />
        <path d="M8.01898 8.28934H9.34545V9.66682H8.01898V8.28934Z" fill="#F37E0D" />
        <path d="M9.34546 8.28934H10.6719V9.66682H9.34546V8.28934Z" fill="#F37E0D" />
        <path d="M10.6719 8.28934H11.9984V9.66682H10.6719V8.28934Z" fill="#F37E0D" />
        <path d="M11.9984 8.28934H13.3249V9.66682H11.9984V8.28934Z" fill="#F37E0D" />
        <path d="M13.3249 8.28934H14.6514V9.66682H13.3249V8.28934Z" fill="#F37E0D" />
        <path d="M14.6514 8.28934H15.9778V9.66682H14.6514V8.28934Z" fill="#F37E0D" />
        <path d="M4.03961 9.66682H5.36608V11.0443H4.03961V9.66682Z" fill="#F37E0D" />
        <path d="M6.6925 9.66682H8.01898V11.0443H6.6925V9.66682Z" fill="#F37E0D" />
        <path d="M8.01898 9.66682H9.34545V11.0443H8.01898V9.66682Z" fill="#F37E0D" />
        <path d="M9.34546 9.66682H10.6719V11.0443H9.34546V9.66682Z" fill="#F37E0D" />
        <path d="M10.6719 9.66682H11.9984V11.0443H10.6719V9.66682Z" fill="#F37E0D" />
        <path d="M11.9984 9.66682H13.3249V11.0443H11.9984V9.66682Z" fill="#F37E0D" />
        <path d="M14.6514 9.66682H15.9778V11.0443H14.6514V9.66682Z" fill="#F37E0D" />
        <path d="M2.71313 11.0443H4.03961V12.4218H2.71313V11.0443Z" fill="#F37E0D" />
        <path d="M4.03961 11.0443H5.36608V12.4218H4.03961V11.0443Z" fill="#F37E0D" />
        <path d="M6.6925 11.0443H8.01898V12.4218H6.6925V11.0443Z" fill="#F37E0D" />
        <path d="M11.9984 11.0443H13.3249V12.4218H11.9984V11.0443Z" fill="#F37E0D" />
        <path d="M14.6514 11.0443H15.9778V12.4218H14.6514V11.0443Z" fill="#F37E0D" />
        <path d="M15.9778 11.0443H17.3043V12.4218H15.9778V11.0443Z" fill="#F37E0D" />
        <path d="M2.71313 12.4218H4.03961V13.7993H2.71313V12.4218Z" fill="#F37E0D" />
        <path d="M4.03961 12.4218H5.36608V13.7993H4.03961V12.4218Z" fill="#F37E0D" />
        <path d="M5.36609 12.4218H6.69256V13.7993H5.36609V12.4218Z" fill="#F37E0D" />
        <path d="M6.6925 12.4218H8.01898V13.7993H6.6925V12.4218Z" fill="#F37E0D" />
        <path d="M11.9984 12.4218H13.3249V13.7993H11.9984V12.4218Z" fill="#F37E0D" />
        <path d="M13.3249 12.4218H14.6514V13.7993H13.3249V12.4218Z" fill="#F37E0D" />
        <path d="M14.6514 12.4218H15.9778V13.7993H14.6514V12.4218Z" fill="#F37E0D" />
        <path d="M15.9778 12.4218H17.3043V13.7993H15.9778V12.4218Z" fill="#F37E0D" />
        <path d="M1.28461 13.7993H2.61108V15.1768H1.28461V13.7993Z" fill="#F37E0D" />
        <path d="M2.71313 13.7993H4.03961V15.1768H2.71313V13.7993Z" fill="#F37E0D" />
        <path d="M4.03961 13.7993H5.36608V15.1768H4.03961V13.7993Z" fill="#F37E0D" />
        <path d="M5.36609 13.7993H6.69256V15.1768H5.36609V13.7993Z" fill="#F37E0D" />
        <path d="M13.3249 13.7993H14.6514V15.1768H13.3249V13.7993Z" fill="#F37E0D" />
        <path d="M14.6514 13.7993H15.9778V15.1768H14.6514V13.7993Z" fill="#F37E0D" />
        <path d="M15.9778 13.7993H17.3043V15.1768H15.9778V13.7993Z" fill="#F37E0D" />
        <path d="M17.3043 13.7993H18.6308V15.1768H17.3043V13.7993Z" fill="#F37E0D" />
        <path d="M8.01904 12.4218H9.34552V13.7993H8.01904V12.4218Z" fill="white" />
        <path d="M10.672 12.4218H11.9985V13.7993H10.672V12.4218Z" fill="white" />
        <path d="M6.69257 13.7993H8.01904V15.1768H6.69257V13.7993Z" fill="white" />
        <path d="M8.01904 13.7993H9.34552V15.1768H8.01904V13.7993Z" fill="white" />
        <path d="M9.34552 13.7993H10.672V15.1768H9.34552V13.7993Z" fill="white" />
        <path d="M10.672 13.7993H11.9985V15.1768H10.672V13.7993Z" fill="white" />
        <path d="M11.9985 13.7993H13.3249V15.1768H11.9985V13.7993Z" fill="white" />
        <path d="M4.03961 15.2828H5.36608V16.6603H4.03961V15.2828Z" fill="white" />
        <path d="M5.36609 15.2828H6.69256V16.6603H5.36609V15.2828Z" fill="white" />
        <path d="M6.69257 15.2828H8.01904V16.6603H6.69257V15.2828Z" fill="white" />
        <path d="M8.01904 15.2828H9.34552V16.6603H8.01904V15.2828Z" fill="white" />
        <path d="M9.34552 15.2828H10.672V16.6603H9.34552V15.2828Z" fill="white" />
        <path d="M10.672 15.2828H11.9985V16.6603H10.672V15.2828Z" fill="white" />
        <path d="M11.9985 15.2828H13.3249V16.6603H11.9985V15.2828Z" fill="white" />
        <path d="M13.3249 15.2828H14.6514V16.6603H13.3249V15.2828Z" fill="white" />
        <path d="M14.6514 15.2828H15.9778V16.6603H14.6514V15.2828Z" fill="white" />
        <path d="M4.03961 0.0243073H5.36608V1.40183H4.03961V0.0243073Z" fill="black" />
        <path d="M14.6514 0.0243073H15.9778V1.40183H14.6514V0.0243073Z" fill="black" />
        <path d="M2.71313 1.40182H4.03961V2.77931H2.71313V1.40182Z" fill="black" />
        <path d="M5.36603 1.40182H6.6925V2.77931H5.36603V1.40182Z" fill="black" />
        <path d="M13.3249 1.40182H14.6514V2.77931H13.3249V1.40182Z" fill="black" />
        <path d="M15.9778 1.40182H17.3043V2.77931H15.9778V1.40182Z" fill="black" />
        <path d="M2.71313 2.77933H4.03961V4.15681H2.71313V2.77933Z" fill="black" />
        <path d="M6.6925 2.77933H8.01898V4.15681H6.6925V2.77933Z" fill="black" />
        <path d="M11.9984 2.77933H13.3249V4.15681H11.9984V2.77933Z" fill="black" />
        <path d="M15.9778 2.77933H17.3043V4.15681H15.9778V2.77933Z" fill="black" />
        <path d="M2.71313 4.15681H4.03961V5.53433H2.71313V4.15681Z" fill="black" />
        <path d="M8.01898 4.15681H9.34545V5.53433H8.01898V4.15681Z" fill="black" />
        <path d="M9.34546 4.15681H10.6719V5.53433H9.34546V4.15681Z" fill="black" />
        <path d="M10.6719 4.15681H11.9984V5.53433H10.6719V4.15681Z" fill="black" />
        <path d="M15.9778 4.15681H17.3043V5.53433H15.9778V4.15681Z" fill="black" />
        <path d="M2.71313 5.53433H4.03961V6.91182H2.71313V5.53433Z" fill="black" />
        <path d="M5.36603 5.53433H6.6925V6.91182H5.36603V5.53433Z" fill="black" />
        <path d="M6.6925 5.53433H8.01898V6.91182H6.6925V5.53433Z" fill="black" />
        <path d="M11.9984 5.53433H13.3249V6.91182H11.9984V5.53433Z" fill="black" />
        <path d="M13.3249 5.53433H14.6514V6.91182H13.3249V5.53433Z" fill="black" />
        <path d="M15.9778 5.53433H17.3043V6.91182H15.9778V5.53433Z" fill="black" />
        <path d="M2.71313 6.91182H4.03961V8.28934H2.71313V6.91182Z" fill="black" />
        <path d="M4.03961 6.91182H5.36608V8.28934H4.03961V6.91182Z" fill="black" />
        <path d="M14.6514 6.91182H15.9778V8.28934H14.6514V6.91182Z" fill="black" />
        <path d="M15.9778 6.91182H17.3043V8.28934H15.9778V6.91182Z" fill="black" />
        <path d="M2.71313 8.28934H4.03961V9.66682H2.71313V8.28934Z" fill="black" />
        <path d="M15.9778 8.28934H17.3043V9.66682H15.9778V8.28934Z" fill="black" />
        <path d="M2.71313 9.66684H4.03961V11.0443H2.71313V9.66684Z" fill="black" />
        <path d="M5.36603 9.66684H6.6925V11.0443H5.36603V9.66684Z" fill="black" />
        <path d="M13.3249 9.66684H14.6514V11.0443H13.3249V9.66684Z" fill="black" />
        <path d="M15.9778 9.66684H17.3043V11.0443H15.9778V9.66684Z" fill="black" />
        <path d="M1.28461 11.0443H2.61108V12.4218H1.28461V11.0443Z" fill="black" />
        <path d="M5.36603 11.0443H6.6925V12.4218H5.36603V11.0443Z" fill="black" />
        <path d="M8.01898 11.0443H9.34545V12.4218H8.01898V11.0443Z" fill="black" />
        <path d="M9.34546 11.0443H10.6719V12.4218H9.34546V11.0443Z" fill="black" />
        <path d="M10.6719 11.0443H11.9984V12.4218H10.6719V11.0443Z" fill="black" />
        <path d="M13.3249 11.0443H14.6514V12.4218H13.3249V11.0443Z" fill="black" />
        <path d="M17.3043 11.0443H18.6308V12.4218H17.3043V11.0443Z" fill="black" />
        <path d="M1.28461 12.4218H2.61108V13.7993H1.28461V12.4218Z" fill="black" />
        <path d="M9.34546 12.4218H10.6719V13.7993H9.34546V12.4218Z" fill="black" />
        <path d="M17.3043 12.4218H18.6308V13.7993H17.3043V12.4218Z" fill="black" />
        <path d="M-0.0418701 13.7993H1.2846V15.1768H-0.0418701V13.7993Z" fill="black" />
        <path d="M18.6308 13.7993H19.9573V15.1768H18.6308V13.7993Z" fill="black" />
        <path d="M1.28461 15.2828H2.61108V16.6603H1.28461V15.2828Z" fill="black" />
        <path d="M2.71313 15.2828H4.03961V16.6603H2.71313V15.2828Z" fill="black" />
        <path d="M15.9778 15.2828H17.3043V16.6603H15.9778V15.2828Z" fill="black" />
        <path d="M17.3043 15.2828H18.6308V16.6603H17.3043V15.2828Z" fill="black" />
        <path d="M4.03961 16.6603H5.36608V18.0378H4.03961V16.6603Z" fill="black" />
        <path d="M5.36603 16.6603H6.6925V18.0378H5.36603V16.6603Z" fill="black" />
        <path d="M6.6925 16.6603H8.01898V18.0378H6.6925V16.6603Z" fill="black" />
        <path d="M8.01898 16.6603H9.34545V18.0378H8.01898V16.6603Z" fill="black" />
        <path d="M9.34546 16.6603H10.6719V18.0378H9.34546V16.6603Z" fill="black" />
        <path d="M10.6719 16.6603H11.9984V18.0378H10.6719V16.6603Z" fill="black" />
        <path d="M11.9984 16.6603H13.3249V18.0378H11.9984V16.6603Z" fill="black" />
        <path d="M13.3249 16.6603H14.6514V18.0378H13.3249V16.6603Z" fill="black" />
        <path d="M14.6514 16.6603H15.9778V18.0378H14.6514V16.6603Z" fill="black" />
    </g>
    <defs>
        <clipPath id="clip0_614_462">
            <rect width="20" height="18" fill="white" />
        </clipPath>
    </defs>
</svg>
    