<svg width="155" height="200" viewBox="0 0 155 200" fill="none" xmlns="http://www.w3.org/2000/svg">
    <g clip-path="url(#clip0_368_3142)">
        <path
            d="M142.263 58.1103H148.497C148.562 58.1103 148.595 58.143 148.595 58.2084L148.588 64.4775C148.588 64.5405 148.556 64.572 148.493 64.572H142.281C142.186 64.572 142.138 64.6201 142.138 64.7164L142.14 90.2975C142.14 90.3197 142.131 90.341 142.115 90.3567C142.1 90.3724 142.078 90.3813 142.056 90.3813L135.804 90.3902C135.773 90.3902 135.744 90.4024 135.722 90.4241C135.701 90.4458 135.688 90.4753 135.688 90.506L135.687 103.189C135.686 103.217 135.674 103.244 135.654 103.264C135.634 103.284 135.606 103.296 135.578 103.296H129.271C129.258 103.296 129.247 103.301 129.238 103.309C129.229 103.318 129.224 103.33 129.224 103.342L129.226 116.043C129.226 116.078 129.24 116.112 129.265 116.137C129.29 116.162 129.324 116.176 129.36 116.176L135.61 116.182C135.625 116.182 135.639 116.176 135.65 116.165C135.661 116.154 135.667 116.14 135.667 116.125L135.669 109.847C135.669 109.816 135.681 109.787 135.702 109.766C135.724 109.744 135.753 109.732 135.783 109.732L148.5 109.729C148.559 109.729 148.588 109.758 148.588 109.816L148.59 135.305C148.59 135.454 148.664 135.529 148.812 135.529L154.988 135.552C155.003 135.552 155.018 135.559 155.029 135.57C155.04 135.581 155.046 135.596 155.046 135.611V180.649C155.046 180.702 155.02 180.729 154.966 180.729L148.754 180.734C148.711 180.734 148.67 180.751 148.64 180.781C148.61 180.81 148.593 180.851 148.593 180.893L148.59 187.117C148.59 187.131 148.584 187.144 148.574 187.154C148.565 187.164 148.552 187.169 148.538 187.169L142.25 187.185C142.222 187.186 142.195 187.197 142.175 187.218C142.155 187.238 142.143 187.265 142.143 187.294L142.138 193.549C142.138 193.601 142.111 193.627 142.058 193.627L129.358 193.629C129.323 193.63 129.289 193.644 129.265 193.669C129.24 193.694 129.226 193.728 129.226 193.763L129.224 200C129.224 200.023 129.215 200.045 129.199 200.062C129.182 200.078 129.16 200.087 129.137 200.087H19.5293C19.5056 200.087 19.4829 200.078 19.4662 200.061C19.4495 200.044 19.4401 200.022 19.4401 199.998V193.761C19.4401 193.725 19.4262 193.691 19.4014 193.666C19.3767 193.641 19.3431 193.627 19.3081 193.627H13.0921C13.0207 193.627 12.985 193.592 12.985 193.52V174.376C12.985 174.312 12.9523 174.28 12.8869 174.28L6.60488 174.281C6.58407 174.281 6.56411 174.273 6.54939 174.258C6.53467 174.244 6.5264 174.224 6.5264 174.203L6.52819 142.092C6.52819 142.066 6.5389 142.04 6.55796 142.021C6.57703 142.002 6.60289 141.991 6.62986 141.991H12.796C12.8456 141.991 12.8933 141.971 12.9284 141.936C12.9635 141.9 12.9833 141.852 12.9833 141.802V109.848C12.9833 109.815 12.9966 109.783 13.0203 109.76C13.0441 109.737 13.0763 109.724 13.1099 109.724L19.3313 109.734C19.3602 109.734 19.3878 109.723 19.4082 109.702C19.4286 109.682 19.4401 109.654 19.4401 109.625V103.385C19.4401 103.361 19.4307 103.339 19.414 103.322C19.3973 103.305 19.3746 103.296 19.3509 103.296H13.0243C13.0134 103.296 13.003 103.292 12.9953 103.284C12.9876 103.277 12.9833 103.267 12.9833 103.256V90.5042C12.9833 90.4716 12.9703 90.4404 12.9472 90.4173C12.9241 90.3942 12.8928 90.3813 12.8602 90.3813L6.63699 90.383C6.56564 90.383 6.52997 90.348 6.52997 90.2779L6.5264 64.6682C6.5264 64.6427 6.51625 64.6182 6.49819 64.6002C6.48013 64.5821 6.45563 64.572 6.43008 64.572H0.130203C0.117904 64.572 0.106105 64.5669 0.0974076 64.5579C0.0887106 64.5489 0.0838266 64.5366 0.0838266 64.5239L0.0802612 58.2048C0.0802612 58.143 0.111176 58.1121 0.17301 58.1121L6.34269 58.1085C6.39236 58.1085 6.43999 58.0888 6.47512 58.0537C6.51024 58.0186 6.52997 57.971 6.52997 57.9214L6.53532 51.7502C6.53532 51.6849 6.56802 51.6522 6.63342 51.6522L12.8423 51.6576C12.8802 51.6576 12.9165 51.6425 12.9432 51.6158C12.97 51.589 12.985 51.5528 12.985 51.5149L12.9833 6.58447C12.9833 6.55988 12.993 6.53631 13.0104 6.51893C13.0278 6.50154 13.0514 6.49178 13.076 6.49178L19.2582 6.48465C19.3759 6.48465 19.4347 6.42582 19.4347 6.30818L19.4419 0.129921C19.4419 0.0681267 19.4728 0.0372314 19.5346 0.0372314H32.2985C32.3174 0.0372314 32.3356 0.0449314 32.3489 0.0586373C32.3623 0.0723431 32.3698 0.0909301 32.3698 0.110313L32.3734 6.38661C32.3734 6.4008 32.3762 6.41486 32.3817 6.42795C32.3872 6.44105 32.3953 6.45292 32.4054 6.46287C32.4155 6.47283 32.4275 6.48067 32.4407 6.48594C32.4539 6.4912 32.468 6.49379 32.4822 6.49356L38.7339 6.48821C38.7609 6.48821 38.7868 6.49873 38.8058 6.51745C38.8249 6.53617 38.8356 6.56156 38.8356 6.58803L38.8267 12.7467C38.8267 12.7977 38.847 12.8467 38.8831 12.8828C38.9192 12.9189 38.9682 12.9392 39.0193 12.9392L51.6922 12.9374C51.7196 12.9374 51.7332 12.9511 51.7332 12.9784L51.7475 19.2404C51.7475 19.2797 51.7629 19.3173 51.7904 19.3451C51.8178 19.3728 51.855 19.3884 51.8938 19.3884H96.801C96.835 19.3884 96.8677 19.3747 96.8918 19.3503C96.9159 19.3259 96.9294 19.2928 96.9294 19.2583V13.0016C96.9294 12.9841 96.9365 12.9673 96.9492 12.9549C96.962 12.9426 96.9792 12.9356 96.9972 12.9356L109.711 12.941C109.744 12.941 109.775 12.928 109.798 12.905C109.821 12.8819 109.834 12.8506 109.834 12.818L109.836 6.56129C109.836 6.51376 109.86 6.48999 109.907 6.48999L116.125 6.48643C116.17 6.48643 116.212 6.46878 116.244 6.43735C116.275 6.40593 116.293 6.36331 116.293 6.31887V0.129921C116.293 0.105338 116.303 0.0817621 116.32 0.064379C116.338 0.046996 116.362 0.0372314 116.387 0.0372314L129.133 0.039013C129.157 0.039013 129.181 0.0485896 129.198 0.0656384C129.215 0.0826871 129.224 0.105811 129.224 0.129921L129.226 6.31709C129.226 6.39433 129.265 6.43889 129.342 6.45078C129.505 6.47573 129.689 6.48881 129.895 6.48999C131.801 6.49475 133.707 6.49356 135.612 6.48643C135.632 6.48643 135.651 6.49432 135.666 6.50836C135.68 6.5224 135.688 6.54144 135.688 6.56129L135.687 51.6041C135.687 51.6168 135.692 51.6291 135.701 51.6381C135.711 51.6471 135.723 51.6522 135.736 51.6522L142.06 51.6504C142.08 51.6504 142.099 51.6587 142.114 51.6734C142.128 51.6881 142.136 51.7081 142.136 51.7289L142.145 57.9927C142.145 58.0711 142.184 58.1103 142.263 58.1103ZM19.4579 12.9766L19.4561 38.7609L19.4508 45.228L19.4347 58.0141C19.4336 58.0735 19.4032 58.1032 19.3438 58.1032L13.0296 58.1174L6.63342 58.1281C6.61166 58.1281 6.5908 58.1368 6.57541 58.1522C6.56002 58.1675 6.55138 58.1884 6.55138 58.2101L6.54781 64.4365C6.54781 64.4729 6.56228 64.5078 6.58803 64.5336C6.61379 64.5593 6.64873 64.5738 6.68515 64.5738H12.9708L13.0029 83.9392L12.994 90.2101C12.994 90.323 13.051 90.3795 13.1652 90.3795L19.317 90.3848C19.3525 90.3848 19.3865 90.3989 19.4116 90.424C19.4367 90.4491 19.4508 90.4831 19.4508 90.5185L19.4561 96.7092C19.4561 96.7936 19.4984 96.8358 19.5828 96.8358H25.7757C25.8116 96.8358 25.8461 96.8501 25.8715 96.8755C25.8969 96.9009 25.9112 96.9353 25.9112 96.9713V103.214C25.9112 103.234 25.9193 103.254 25.9337 103.268C25.9481 103.282 25.9676 103.29 25.9879 103.29L38.8017 103.294L45.2925 103.299L45.3032 109.699L32.3788 109.75L26.0379 109.754C26.0043 109.754 25.9721 109.767 25.9483 109.79C25.9246 109.814 25.9112 109.845 25.9112 109.879V116.119C25.9112 116.173 25.8845 116.199 25.8309 116.199H19.5507C19.527 116.199 19.5043 116.209 19.4876 116.225C19.4709 116.241 19.4615 116.264 19.4615 116.287L19.4579 122.647L19.4722 129.002C19.4722 129.067 19.5055 129.1 19.5721 129.1H25.7971C25.872 129.1 25.9094 129.137 25.9094 129.212L25.9148 135.449C25.9148 135.518 25.9493 135.552 26.0182 135.552L32.2789 135.56C32.3035 135.56 32.3271 135.569 32.3445 135.587C32.3619 135.604 32.3716 135.628 32.3716 135.652L32.3734 141.982C32.3651 141.987 32.358 141.991 32.352 141.996C32.3342 142.009 32.3169 142.016 32.3003 142.016C30.2122 142.015 28.1105 142.013 25.995 142.012C25.984 142.012 25.9731 142.01 25.963 142.006C25.9528 142.001 25.9436 141.995 25.9358 141.987C25.928 141.979 25.9218 141.97 25.9176 141.959C25.9134 141.949 25.9112 141.938 25.9112 141.927L25.9076 135.691C25.9076 135.655 25.8934 135.621 25.8679 135.596C25.8425 135.57 25.808 135.556 25.7721 135.556L19.5596 135.558C19.4883 135.558 19.4526 135.594 19.4526 135.666L19.4561 141.921C19.4561 141.945 19.4466 141.969 19.4295 141.986C19.4124 142.003 19.3893 142.012 19.3652 142.012L13.0706 142.016C13.0555 142.016 13.041 142.022 13.0303 142.033C13.0196 142.044 13.0136 142.059 13.0136 142.075L12.9993 148.449L13.0082 167.766C13.0082 167.78 13.0139 167.794 13.0239 167.804C13.0339 167.814 13.0475 167.82 13.0617 167.82H32.2789C32.3025 167.82 32.3252 167.829 32.3419 167.846C32.3587 167.863 32.3681 167.885 32.3681 167.909L32.3734 174.192C32.3734 174.217 32.3636 174.24 32.3462 174.258C32.3288 174.275 32.3053 174.285 32.2807 174.285L25.8738 174.287L19.5382 174.303C19.4823 174.303 19.4544 174.331 19.4544 174.387L19.4526 193.543C19.4526 193.566 19.4614 193.587 19.4771 193.603C19.4929 193.618 19.5142 193.627 19.5364 193.627L38.7161 193.629C38.7863 193.629 38.8219 193.593 38.8231 193.522L38.8338 187.16V154.907H45.1462C45.1855 154.907 45.2231 154.923 45.2509 154.95C45.2786 154.978 45.2942 155.016 45.2942 155.055L45.2907 180.74L45.3085 187.082C45.3085 187.144 45.3394 187.175 45.4013 187.175L51.6476 187.171C51.6598 187.171 51.6719 187.173 51.6831 187.178C51.6944 187.183 51.7046 187.19 51.7132 187.199C51.7218 187.207 51.7287 187.218 51.7333 187.229C51.738 187.241 51.7404 187.253 51.7404 187.265L51.7457 193.549C51.7457 193.57 51.7542 193.591 51.7692 193.606C51.7843 193.621 51.8047 193.629 51.826 193.629L64.6059 193.627C64.638 193.627 64.6541 193.612 64.6541 193.581L64.6576 187.164V161.372L70.9914 161.365C71.0231 161.365 71.0535 161.378 71.0759 161.4C71.0983 161.423 71.1109 161.453 71.1109 161.485L71.1056 187.073C71.1056 187.1 71.1165 187.126 71.1359 187.145C71.1553 187.164 71.1816 187.175 71.209 187.175L77.4447 187.173C77.5315 187.173 77.5749 187.129 77.5749 187.043V161.495C77.5749 161.459 77.5892 161.424 77.6146 161.398C77.64 161.373 77.6745 161.358 77.7105 161.358L84.0282 161.362L84.0246 187.128L84.0264 193.558C84.0264 193.576 84.0337 193.594 84.0468 193.607C84.0598 193.62 84.0775 193.627 84.096 193.627H96.8973C96.9091 193.627 96.9204 193.623 96.9288 193.614C96.9372 193.606 96.9419 193.595 96.9419 193.583V187.258C96.9419 187.201 96.9704 187.173 97.0275 187.173L103.322 187.171C103.342 187.171 103.362 187.163 103.376 187.148C103.391 187.134 103.399 187.115 103.399 187.094L103.402 180.711L103.399 154.969C103.399 154.928 103.42 154.907 103.461 154.907H109.75C109.822 154.907 109.857 154.872 109.857 154.802L109.861 142.073C109.861 142.058 109.867 142.043 109.878 142.033C109.888 142.022 109.903 142.016 109.918 142.016L116.195 142.01C116.268 142.01 116.305 141.974 116.305 141.9L116.303 135.647C116.303 135.59 116.332 135.561 116.389 135.561L122.655 135.552C122.726 135.552 122.762 135.516 122.762 135.444L122.766 129.232C122.766 129.197 122.779 129.163 122.804 129.138C122.828 129.114 122.861 129.1 122.896 129.1H129.174C129.206 129.1 129.223 129.084 129.223 129.053L129.224 122.638L129.221 116.369C129.221 116.347 129.217 116.325 129.208 116.305C129.2 116.285 129.188 116.267 129.173 116.252C129.157 116.236 129.139 116.224 129.119 116.216C129.1 116.207 129.078 116.203 129.057 116.203H122.762L122.764 109.816C122.764 109.801 122.758 109.786 122.747 109.775C122.736 109.764 122.721 109.757 122.705 109.757L116.325 109.752L103.397 109.747L103.399 103.488C103.399 103.438 103.419 103.389 103.455 103.353C103.49 103.318 103.539 103.297 103.59 103.297H122.671C122.695 103.297 122.718 103.288 122.735 103.271C122.753 103.255 122.762 103.232 122.762 103.208V96.9231C122.762 96.8649 122.792 96.8358 122.851 96.8358H129.137C129.196 96.8358 129.226 96.8061 129.226 96.7467V90.556C129.226 90.4395 129.284 90.3813 129.401 90.3813H135.553C135.629 90.3813 135.667 90.3426 135.667 90.2654L135.685 83.9445L135.687 64.572L141.803 64.5684C142.016 64.5684 142.122 64.4621 142.122 64.2494L142.124 58.2458C142.124 58.2136 142.111 58.1828 142.088 58.1601C142.065 58.1373 142.035 58.1246 142.002 58.1246L135.679 58.1174L129.328 58.1014C129.268 58.1014 129.238 58.0711 129.237 58.0105L129.228 45.2084L129.224 38.8091L129.226 12.8518L129.221 6.59694C129.221 6.57283 129.211 6.54971 129.194 6.53266C129.176 6.51561 129.153 6.50604 129.128 6.50604L122.809 6.50425C122.779 6.50425 122.764 6.51911 122.764 6.54882V12.8732C122.764 12.8964 122.755 12.9186 122.738 12.935C122.722 12.9514 122.7 12.9606 122.677 12.9606H109.914C109.899 12.9606 109.885 12.9664 109.874 12.9768C109.863 12.9871 109.857 13.0012 109.857 13.0158L109.854 19.2975C109.854 19.3747 109.815 19.4133 109.738 19.4133L103.379 19.4116L97.0774 19.4187C97.0415 19.4187 97.007 19.433 96.9816 19.4584C96.9562 19.4838 96.9419 19.5182 96.9419 19.5542V25.7556C96.9419 25.8198 96.9098 25.8518 96.8456 25.8518L84.046 25.8536L77.5731 25.8554L71.1145 25.8608L64.6576 25.8572L51.8314 25.8608C51.8058 25.8608 51.7813 25.8506 51.7632 25.8326C51.7452 25.8145 51.735 25.79 51.735 25.7645V19.5542C51.7353 19.5353 51.7318 19.5166 51.7247 19.499C51.7176 19.4815 51.7072 19.4656 51.6939 19.4522C51.6806 19.4387 51.6648 19.4281 51.6474 19.4208C51.6299 19.4135 51.6112 19.4098 51.5923 19.4098L45.2889 19.4009L38.8285 19.4027C38.8309 19.4015 38.8332 19.4003 38.8356 19.3991L38.8338 13.1299C38.8338 13.085 38.816 13.0419 38.7842 13.0102C38.7524 12.9784 38.7093 12.9606 38.6644 12.9606H25.995C25.9728 12.9606 25.9515 12.9518 25.9358 12.936C25.92 12.9203 25.9112 12.899 25.9112 12.8768V6.59694C25.9112 6.53515 25.8809 6.50425 25.8202 6.50425H19.5703C19.499 6.50425 19.4633 6.5405 19.4633 6.61299L19.4579 12.9766ZM135.688 122.649V141.941L135.642 141.982C135.617 142.005 135.588 142.016 135.555 142.016L129.289 142.014C129.28 142.014 129.272 142.012 129.265 142.009C129.257 142.006 129.25 142.002 129.244 141.996C129.239 141.99 129.234 141.983 129.231 141.976C129.228 141.968 129.226 141.96 129.226 141.952V135.672C129.226 135.642 129.214 135.613 129.193 135.592C129.172 135.571 129.144 135.56 129.114 135.56L122.853 135.558C122.794 135.558 122.764 135.587 122.764 135.647V141.904C122.764 141.976 122.728 142.012 122.655 142.012L116.419 142.016C116.391 142.016 116.363 142.027 116.343 142.048C116.322 142.069 116.311 142.097 116.311 142.126L116.305 154.916L109.973 154.912C109.944 154.912 109.917 154.924 109.896 154.944C109.876 154.965 109.864 154.992 109.864 155.021L109.863 187.201L109.866 193.568C109.866 193.609 109.886 193.629 109.927 193.629L129.092 193.627C129.128 193.627 129.162 193.613 129.187 193.588C129.212 193.563 129.226 193.529 129.226 193.494V174.378C129.226 174.314 129.194 174.281 129.13 174.281L122.791 174.285H116.391C116.368 174.285 116.345 174.276 116.329 174.259C116.313 174.243 116.303 174.221 116.303 174.198V167.877C116.303 167.861 116.31 167.846 116.32 167.835C116.331 167.824 116.345 167.818 116.361 167.818H129.271L135.588 167.813C135.649 167.813 135.68 167.782 135.681 167.72L135.687 161.351L135.688 148.417C135.684 145.097 135.686 142.98 135.695 142.068C135.697 142.013 135.723 141.993 135.776 142.007L142.058 142.012C142.079 142.012 142.099 142.021 142.115 142.035C142.13 142.05 142.138 142.07 142.138 142.091L142.142 167.843L142.143 174.208C142.11 174.268 142.025 174.297 141.888 174.296C139.857 174.276 137.82 174.273 135.776 174.289C135.716 174.29 135.687 174.32 135.687 174.379L135.685 187.123C135.685 187.137 135.69 187.15 135.7 187.159C135.71 187.169 135.724 187.175 135.738 187.175L141.988 187.167C142.06 187.167 142.098 187.132 142.102 187.06C142.131 186.692 142.145 186.309 142.143 185.911C142.139 184.154 142.136 182.446 142.134 180.786C142.134 180.767 142.142 180.75 142.155 180.737C142.168 180.724 142.186 180.716 142.204 180.716L148.482 180.711C148.543 180.711 148.573 180.681 148.573 180.62L148.584 174.269L148.586 167.83L148.588 142.012L148.584 135.62C148.584 135.604 148.578 135.588 148.566 135.576C148.554 135.564 148.538 135.558 148.522 135.558L142.174 135.556L142.136 122.579L142.138 116.269C142.138 116.249 142.13 116.229 142.116 116.215C142.101 116.2 142.082 116.192 142.061 116.192L135.817 116.196C135.737 116.196 135.697 116.236 135.697 116.315L135.688 122.649Z"
            fill="#0D1615" />
        <path
            d="M38.8356 19.3993L32.3734 19.4011L25.9451 19.3868L25.9148 19.344C25.897 19.3203 25.8886 19.2935 25.8898 19.2638C25.9731 17.3422 25.982 15.4183 25.9166 13.492C25.9094 13.2911 25.8767 13.1551 25.8185 13.0838C25.7269 12.9721 25.5783 12.9174 25.3726 12.9198C23.4034 12.9364 21.4319 12.9554 19.4579 12.9768L19.4633 6.61319C19.4633 6.5407 19.499 6.50446 19.5703 6.50446H25.8203C25.8809 6.50446 25.9112 6.53535 25.9112 6.59715V12.877C25.9112 12.8992 25.9201 12.9205 25.9358 12.9362C25.9515 12.952 25.9728 12.9608 25.9951 12.9608H38.6644C38.7093 12.9608 38.7524 12.9786 38.7842 13.0104C38.816 13.0421 38.8338 13.0852 38.8338 13.1301L38.8356 19.3993Z"
            fill="#FBFAF6" />
        <path
            d="M129.226 12.852C128.923 12.9234 128.61 12.9602 128.288 12.9626C126.582 12.9721 124.891 12.9715 123.215 12.9608C122.898 12.9584 122.74 13.1159 122.741 13.4332L122.76 19.4314L116.245 19.4011L110.073 19.426C110.039 19.4263 110.004 19.4333 109.973 19.4467C109.941 19.4601 109.912 19.4796 109.888 19.5041C109.863 19.5287 109.844 19.5577 109.832 19.5896C109.819 19.6214 109.812 19.6555 109.813 19.6898L109.865 25.836C109.838 25.8586 109.811 25.8651 109.782 25.8556L103.392 25.8538L103.379 19.4118L109.738 19.4135C109.815 19.4135 109.854 19.3749 109.854 19.2977L109.857 13.016C109.857 13.0014 109.863 12.9873 109.874 12.977C109.885 12.9666 109.899 12.9608 109.914 12.9608H122.677C122.7 12.9608 122.722 12.9516 122.738 12.9352C122.755 12.9188 122.764 12.8966 122.764 12.8734V6.54902C122.764 6.51931 122.779 6.50446 122.809 6.50446L129.128 6.50624C129.153 6.50624 129.176 6.51581 129.194 6.53286C129.211 6.54991 129.221 6.57303 129.221 6.59715L129.226 12.852Z"
            fill="#FBFAF6" />
        <path
            d="M129.226 12.8521L129.224 38.8093C127.105 38.7617 124.994 38.7499 122.891 38.7736C122.857 38.7736 122.832 38.7659 122.816 38.7505C122.8 38.735 122.784 38.7136 122.767 38.6863L122.776 32.3048L122.76 19.4314L122.741 13.4332C122.74 13.1159 122.898 12.9584 123.215 12.9608C124.891 12.9715 126.582 12.9721 128.288 12.9626C128.61 12.9602 128.923 12.9234 129.226 12.8521Z"
            fill="#F6DFB6" />
        <path
            d="M25.9451 19.3868L25.9094 32.3101V38.7682L19.4561 38.7611L19.4579 12.9768C21.4318 12.9554 23.4034 12.9364 25.3725 12.9198C25.5783 12.9174 25.7269 12.9721 25.8185 13.0838C25.8767 13.1551 25.9094 13.2911 25.9166 13.492C25.982 15.4183 25.973 17.3422 25.8898 19.2638C25.8886 19.2935 25.8969 19.3202 25.9148 19.344L25.9451 19.3868Z"
            fill="#F6DFB6" />
        <path
            d="M25.9451 19.3868L32.3734 19.4011V25.6221C32.3734 25.7635 32.4442 25.8336 32.5857 25.8324C34.5715 25.8241 36.5817 25.8497 38.6162 25.9091C38.7327 25.9127 38.8041 25.9346 38.8303 25.975L38.8231 32.1319C38.8231 32.1792 38.8043 32.2245 38.7709 32.258C38.7374 32.2914 38.6921 32.3102 38.6448 32.3102H25.9094L25.9451 19.3868Z"
            fill="#FF768A" />
        <path
            d="M32.3734 19.4011L38.8356 19.3993C38.8332 19.4005 38.8309 19.4017 38.8285 19.4029L38.8267 25.8503C38.8386 25.8752 38.8398 25.9168 38.8303 25.9751C38.8041 25.9346 38.7328 25.9127 38.6162 25.9091C36.5817 25.8497 34.5715 25.8241 32.5857 25.8325C32.4442 25.8336 32.3734 25.7635 32.3734 25.6221V19.4011Z"
            fill="#D7A77F" />
        <path d="M38.8285 19.4029L45.2889 19.4011L45.2764 25.8539L38.8267 25.8503L38.8285 19.4029Z"
            fill="#FBFAF6" />
        <path
            d="M45.2889 19.4011L51.5923 19.41C51.6112 19.41 51.6299 19.4138 51.6474 19.421C51.6648 19.4283 51.6806 19.439 51.6939 19.4524C51.7072 19.4658 51.7176 19.4818 51.7247 19.4993C51.7318 19.5168 51.7353 19.5355 51.735 19.5544V25.7647C51.735 25.7903 51.7452 25.8147 51.7633 25.8328C51.7813 25.8508 51.8058 25.861 51.8314 25.861L64.6576 25.8574L64.6523 45.1105C64.6523 45.1432 64.6655 45.1744 64.6889 45.1975C64.7123 45.2206 64.744 45.2335 64.7771 45.2335L71.1163 45.2175L71.1056 51.6596L64.8324 51.6916C64.723 51.6916 64.6684 51.7463 64.6684 51.8556L64.6523 57.9733C64.6523 57.9952 64.6566 58.0169 64.665 58.0371C64.6733 58.0574 64.6856 58.0757 64.701 58.0911C64.7164 58.1066 64.7347 58.1187 64.7548 58.127C64.7749 58.1352 64.7965 58.1393 64.8182 58.1391L71.1198 58.1266L71.1234 64.5847L64.7629 64.5883C64.7034 64.5883 64.6737 64.618 64.6737 64.6774L64.6648 70.9501L64.6576 71.0749L38.8249 71.0339V64.7737C38.8244 64.7149 38.8007 64.6586 38.759 64.6172C38.7172 64.5758 38.6608 64.5526 38.602 64.5526L32.459 64.5829C32.4504 64.5829 32.4418 64.5847 32.4338 64.5881C32.4258 64.5915 32.4185 64.5965 32.4124 64.6028C32.4062 64.6091 32.4014 64.6165 32.3981 64.6247C32.3947 64.6329 32.393 64.6418 32.393 64.6507L32.4109 71.0232L26.0486 71.025C25.9487 71.025 25.8987 71.0743 25.8987 71.1729L25.9183 83.7273C25.9183 83.8592 25.9843 83.9252 26.1163 83.9252L38.75 83.9323L45.3085 83.9394H51.6708C51.6898 83.9394 51.7053 83.9323 51.7172 83.918C51.7315 83.9038 51.738 83.8883 51.7368 83.8717L51.8082 83.9287L51.76 83.9466C51.7518 83.9492 51.7447 83.9546 51.7395 83.9619C51.7344 83.9693 51.7316 83.9782 51.7315 83.9875L51.7386 90.2977C51.7386 90.3209 51.748 90.3431 51.7647 90.3595C51.7814 90.3759 51.8041 90.3851 51.8278 90.3851L96.8902 90.3868C96.9039 90.3868 96.917 90.3816 96.9267 90.3722C96.9364 90.3629 96.9419 90.3502 96.9419 90.3369V84.0482C96.9419 84.0192 96.9533 83.9913 96.9736 83.9706C96.994 83.95 97.0217 83.9381 97.0507 83.9376L103.395 83.9002C103.478 83.88 103.542 83.8913 103.586 83.9341C105.739 83.9305 107.892 83.9293 110.045 83.9305L122.577 83.9323C122.715 83.9323 122.784 83.864 122.784 83.7273L122.782 71.1729C122.782 71.0707 122.731 71.0196 122.628 71.0196L116.296 70.9804L116.318 64.6845C116.318 64.6547 116.306 64.6262 116.285 64.6051C116.264 64.5841 116.235 64.5722 116.205 64.5722L110.077 64.5865C110.032 64.5865 109.989 64.6041 109.958 64.6354C109.926 64.6668 109.908 64.7094 109.907 64.754L109.845 70.9822C109.877 70.9668 109.872 70.9846 109.829 71.0357C101.321 71.0274 92.8187 71.0226 84.3225 71.0214C84.1358 71.0214 84.0371 71.0826 84.0264 71.205L84.0139 71.0303L84.0104 64.6685C84.0104 64.6079 83.9806 64.5782 83.9212 64.5793L77.566 64.59L77.5678 58.1301L83.8516 58.148C83.8777 58.1482 83.9035 58.1433 83.9277 58.1334C83.9518 58.1235 83.9737 58.109 83.9921 58.0906C84.0106 58.0721 84.0251 58.0502 84.035 58.0261C84.0449 58.002 84.0498 57.9762 84.0496 57.9501L84.0318 51.877C84.0318 51.8305 84.0134 51.7859 83.9807 51.7529C83.9479 51.7198 83.9035 51.701 83.857 51.7006L77.6177 51.6596L77.5838 45.2353L83.8391 45.2282C83.893 45.2282 83.9448 45.2068 83.9829 45.1687C84.021 45.1306 84.0425 45.0789 84.0425 45.025L84.046 25.8539L96.8456 25.8521C96.9098 25.8521 96.9419 25.82 96.9419 25.7558V19.5544C96.9419 19.5185 96.9562 19.484 96.9816 19.4586C97.007 19.4332 97.0415 19.4189 97.0774 19.4189L103.379 19.4118L103.392 25.8539L103.393 32.3013L103.406 38.5615C103.407 38.6994 103.477 38.7683 103.615 38.7683L109.852 38.7629V45.1105C109.852 45.189 109.891 45.2282 109.97 45.2282L129.228 45.2086L129.237 58.0107C129.238 58.0713 129.268 58.1016 129.328 58.1016L135.679 58.1177L135.687 64.5722L135.685 83.9448L129.281 83.9483C129.239 83.9483 129.217 83.9697 129.217 84.0125L129.244 90.2817C129.244 90.3096 129.233 90.3363 129.214 90.356C129.194 90.3758 129.168 90.3868 129.141 90.3868H116.478C116.433 90.3868 116.389 90.4049 116.357 90.437C116.325 90.4691 116.307 90.5126 116.307 90.558C116.294 92.2716 116.299 93.864 116.323 95.3352C116.33 95.8034 116.32 96.2692 116.291 96.7327C116.289 96.7673 116.274 96.8 116.248 96.8239C116.223 96.8478 116.189 96.8611 116.154 96.861L103.483 96.8485C103.47 96.8485 103.458 96.8509 103.447 96.8555C103.436 96.8601 103.426 96.8668 103.418 96.8753C103.409 96.8837 103.402 96.8938 103.398 96.9048C103.394 96.9158 103.391 96.9276 103.392 96.9394L103.417 103.159C103.417 103.196 103.402 103.232 103.375 103.258C103.349 103.285 103.313 103.299 103.276 103.299H45.2925L38.8017 103.294L38.8249 97.0107C38.8251 96.9907 38.8214 96.9708 38.8139 96.9522C38.8064 96.9336 38.7952 96.9167 38.7811 96.9024C38.767 96.8882 38.7502 96.8769 38.7317 96.8691C38.7132 96.8614 38.6934 96.8574 38.6733 96.8574L26.0503 96.8467C26.0144 96.8467 25.9799 96.8325 25.9545 96.8071C25.9291 96.7817 25.9148 96.7472 25.9148 96.7113L25.9094 90.4688C25.9094 90.4576 25.9072 90.4465 25.9029 90.4361C25.8986 90.4257 25.8923 90.4163 25.8844 90.4083C25.8764 90.4004 25.867 90.3941 25.8566 90.3898C25.8462 90.3855 25.8351 90.3833 25.8238 90.3833H19.6577C19.6188 90.3831 19.5814 90.3689 19.5524 90.3433C19.5235 90.3177 19.5051 90.2824 19.5007 90.2442C19.4758 90.0315 19.4627 89.8224 19.4615 89.6168C19.4556 87.896 19.4633 86.0381 19.4847 84.0428C19.4847 84.0102 19.4717 83.9789 19.4486 83.9558C19.4256 83.9328 19.3943 83.9198 19.3616 83.9198L13.0029 83.9394L12.9708 64.574L13.0296 58.1177L19.3438 58.1034C19.4032 58.1034 19.4336 58.0737 19.4347 58.0143L19.4508 45.2282H38.7143C38.7474 45.2282 38.7792 45.215 38.8026 45.1916C38.826 45.1682 38.8392 45.1365 38.8392 45.1034L38.8374 38.9252C38.8374 38.8831 38.8541 38.8427 38.8839 38.813C38.9137 38.7832 38.954 38.7665 38.9961 38.7665L45.1837 38.7647C45.2125 38.7647 45.2402 38.7531 45.2606 38.7324C45.281 38.7116 45.2925 38.6835 45.2925 38.6542L45.28 32.3102L45.2764 25.8539L45.2889 19.4011ZM90.4832 45.3654C90.4832 45.3257 90.4675 45.2877 90.4394 45.2596C90.4113 45.2315 90.3732 45.2157 90.3334 45.2157H84.1727C84.1329 45.2157 84.0948 45.2315 84.0667 45.2596C84.0386 45.2877 84.0228 45.3257 84.0228 45.3654V51.5259C84.0228 51.5656 84.0386 51.6037 84.0667 51.6318C84.0948 51.6598 84.1329 51.6756 84.1727 51.6756H90.3334C90.3732 51.6756 90.4113 51.6598 90.4394 51.6318C90.4675 51.6037 90.4832 51.5656 90.4832 51.5259V45.3654ZM64.6648 45.3583C64.6648 45.3205 64.6497 45.2842 64.623 45.2575C64.5962 45.2307 64.5599 45.2157 64.5221 45.2157H58.3435C58.3056 45.2157 58.2694 45.2307 58.2426 45.2575C58.2158 45.2842 58.2008 45.3205 58.2008 45.3583V51.5401C58.2008 51.578 58.2158 51.6142 58.2426 51.641C58.2694 51.6677 58.3056 51.6827 58.3435 51.6827H64.5221C64.5599 51.6827 64.5962 51.6677 64.623 51.641C64.6497 51.6142 64.6648 51.578 64.6648 51.5401V45.3583ZM58.1955 58.1658C58.1955 58.1535 58.1906 58.1417 58.1819 58.133C58.1732 58.1243 58.1614 58.1195 58.1491 58.1195H38.882C38.8697 58.1195 38.8579 58.1243 38.8492 58.133C38.8405 58.1417 38.8356 58.1535 38.8356 58.1658V64.5259C38.8356 64.5382 38.8405 64.55 38.8492 64.5586C38.8579 64.5673 38.8697 64.5722 38.882 64.5722H58.1491C58.1614 64.5722 58.1732 64.5673 58.1819 64.5586C58.1906 64.55 58.1955 64.5382 58.1955 64.5259V58.1658ZM109.857 58.1979C109.857 58.1771 109.849 58.1571 109.834 58.1424C109.82 58.1277 109.8 58.1195 109.779 58.1195H90.5582C90.5374 58.1195 90.5174 58.1277 90.5027 58.1424C90.488 58.1571 90.4797 58.1771 90.4797 58.1979V64.4938C90.4797 64.5146 90.488 64.5345 90.5027 64.5493C90.5174 64.564 90.5374 64.5722 90.5582 64.5722H109.779C109.8 64.5722 109.82 64.564 109.834 64.5493C109.849 64.5345 109.857 64.5146 109.857 64.4938V58.1979Z"
            fill="#F6DFB6" />
        <path
            d="M116.245 19.4011L116.293 25.5954C116.293 25.6299 116.286 25.664 116.273 25.6959C116.26 25.7278 116.241 25.7568 116.217 25.7812C116.192 25.8056 116.163 25.8249 116.131 25.838C116.099 25.851 116.065 25.8577 116.031 25.8574L109.865 25.836L109.813 19.6899C109.812 19.6555 109.819 19.6215 109.832 19.5896C109.844 19.5577 109.863 19.5287 109.888 19.5042C109.912 19.4797 109.941 19.4601 109.973 19.4467C110.004 19.4333 110.039 19.4263 110.073 19.4261L116.245 19.4011Z"
            fill="#D7A77F" />
        <path
            d="M116.245 19.4011L122.76 19.4314L122.776 32.3048L109.854 32.3476C110.025 32.2632 110.016 32.2502 109.827 32.3084C109.833 32.3001 109.839 32.2912 109.845 32.2817C109.858 32.2627 109.864 32.2419 109.864 32.2193C109.864 30.1301 109.861 28.041 109.854 25.9519C109.854 25.9396 109.851 25.9275 109.846 25.9164C109.841 25.9054 109.833 25.8956 109.823 25.8877L109.782 25.8556C109.811 25.8651 109.838 25.8586 109.864 25.836L116.031 25.8574C116.065 25.8577 116.099 25.851 116.131 25.838C116.163 25.8249 116.192 25.8056 116.217 25.7812C116.241 25.7568 116.26 25.7278 116.273 25.6959C116.286 25.664 116.293 25.6299 116.293 25.5954L116.245 19.4011Z"
            fill="#FF768A" />
        <path
            d="M38.8267 25.8503L45.2764 25.8538L45.28 32.3102H38.8838C38.8705 32.3102 38.8578 32.3156 38.8484 32.3253C38.8391 32.335 38.8338 32.3481 38.8338 32.3619L38.8303 38.6453C38.8303 38.6769 38.8177 38.7073 38.7952 38.7297C38.7728 38.7521 38.7424 38.7647 38.7107 38.7647L25.9094 38.7683V32.3102H38.6448C38.6921 32.3102 38.7374 32.2914 38.7709 32.258C38.8043 32.2245 38.8231 32.1792 38.8231 32.1319L38.8303 25.975C38.8398 25.9168 38.8386 25.8752 38.8267 25.8503Z"
            fill="#0D1615" />
        <path
            d="M64.6576 25.8574L71.1145 25.861L71.1163 45.2175L64.7771 45.2335C64.744 45.2335 64.7123 45.2206 64.6889 45.1975C64.6654 45.1744 64.6523 45.1431 64.6523 45.1105L64.6576 25.8574Z"
            fill="#D7A77F" />
        <path
            d="M77.5731 25.8556L77.5838 45.2353L77.6177 51.6595H71.1056L71.1163 45.2175L71.1145 25.861L77.5731 25.8556Z"
            fill="#FBFAF6" />
        <path
            d="M77.5731 25.8556L84.046 25.8538L84.0425 45.025C84.0425 45.0789 84.021 45.1305 83.9829 45.1686C83.9448 45.2068 83.893 45.2282 83.8391 45.2282L77.5838 45.2353L77.5731 25.8556Z"
            fill="#D7A77F" />
        <path
            d="M103.392 25.8538L109.782 25.8556L109.823 25.8877C109.833 25.8955 109.841 25.9053 109.846 25.9164C109.851 25.9275 109.854 25.9396 109.854 25.9519C109.861 28.041 109.865 30.1301 109.865 32.2193C109.865 32.2418 109.858 32.2626 109.845 32.2817C109.839 32.2912 109.833 32.3001 109.827 32.3084L103.393 32.3013L103.392 25.8538Z"
            fill="#0D1615" />
        <path
            d="M103.393 32.3012L109.827 32.3084C110.016 32.2501 110.025 32.2632 109.854 32.3476L109.852 38.7629L103.615 38.7682C103.477 38.7682 103.407 38.6993 103.406 38.5615L103.393 32.3012Z"
            fill="#D7A77F" />
        <path
            d="M45.28 32.3102L45.2925 38.6542C45.2925 38.6835 45.281 38.7116 45.2606 38.7323C45.2402 38.7531 45.2125 38.7647 45.1837 38.7647L38.9961 38.7665C38.954 38.7665 38.9137 38.7832 38.8839 38.813C38.8541 38.8427 38.8374 38.8831 38.8374 38.9251L38.8392 45.1034C38.8392 45.1365 38.826 45.1682 38.8026 45.1916C38.7792 45.215 38.7474 45.2282 38.7143 45.2282H19.4508L19.4562 38.7611L25.9094 38.7683L38.7108 38.7647C38.7425 38.7647 38.7729 38.7521 38.7953 38.7297C38.8177 38.7073 38.8303 38.677 38.8303 38.6453L38.8338 32.3619C38.8338 32.3481 38.8391 32.335 38.8485 32.3253C38.8578 32.3156 38.8705 32.3102 38.8838 32.3102H45.28Z"
            fill="#D7A77F" />
        <path
            d="M122.776 32.3048L122.767 38.6863C122.771 38.7029 122.77 38.7184 122.766 38.7326C122.76 38.7481 122.748 38.7558 122.732 38.7558L109.852 38.7629L109.854 32.3476L122.776 32.3048Z"
            fill="#0D1615" />
        <path
            d="M122.767 38.6863C122.784 38.7136 122.8 38.735 122.816 38.7505C122.832 38.7659 122.857 38.7736 122.891 38.7736C124.994 38.7499 127.105 38.7617 129.224 38.8093L129.228 45.2086L109.97 45.2282C109.891 45.2282 109.852 45.189 109.852 45.1105V38.7629L122.732 38.7558C122.748 38.7558 122.76 38.7481 122.766 38.7326C122.77 38.7184 122.771 38.7029 122.767 38.6863Z"
            fill="#D7A77F" />
        <path
            d="M90.3334 45.2157H84.1727C84.0899 45.2157 84.0229 45.2827 84.0229 45.3654V51.5258C84.0229 51.6085 84.0899 51.6756 84.1727 51.6756H90.3334C90.4162 51.6756 90.4833 51.6085 90.4833 51.5258V45.3654C90.4833 45.2827 90.4162 45.2157 90.3334 45.2157Z"
            fill="#D7A77F" />
        <path
            d="M64.5221 45.2157H58.3435C58.2647 45.2157 58.2008 45.2795 58.2008 45.3583V51.5401C58.2008 51.6188 58.2647 51.6827 58.3435 51.6827H64.5221C64.6009 51.6827 64.6648 51.6188 64.6648 51.5401V45.3583C64.6648 45.2795 64.6009 45.2157 64.5221 45.2157Z"
            fill="#D7A77F" />
        <path
            d="M71.1056 51.6595H77.6177L83.857 51.7005C83.9035 51.701 83.9479 51.7198 83.9807 51.7529C84.0134 51.7859 84.0317 51.8305 84.0317 51.877L84.0496 57.9501C84.0498 57.9761 84.0449 58.002 84.035 58.0261C84.0251 58.0502 84.0106 58.0721 83.9921 58.0905C83.9737 58.109 83.9518 58.1235 83.9276 58.1334C83.9035 58.1432 83.8777 58.1482 83.8516 58.148L77.5678 58.1301L71.1198 58.1266L64.8182 58.139C64.7965 58.1393 64.7749 58.1352 64.7548 58.1269C64.7347 58.1187 64.7164 58.1065 64.701 58.0911C64.6856 58.0757 64.6733 58.0574 64.665 58.0371C64.6566 58.0169 64.6523 57.9952 64.6523 57.9733L64.6683 51.8556C64.6683 51.7463 64.723 51.6916 64.8324 51.6916L71.1056 51.6595Z"
            fill="#D7A77F" />
        <path
            d="M13.0296 58.1177L12.9708 64.574H6.68517C6.64874 64.574 6.6138 64.5595 6.58805 64.5338C6.56229 64.508 6.54782 64.4731 6.54782 64.4367L6.55139 58.2103C6.55139 58.1886 6.56004 58.1677 6.57542 58.1524C6.59081 58.137 6.61168 58.1283 6.63344 58.1283L13.0296 58.1177Z"
            fill="#D7A77F" />
        <path
            d="M58.1491 58.1194H38.882C38.8564 58.1194 38.8356 58.1402 38.8356 58.1658V64.5259C38.8356 64.5515 38.8564 64.5722 38.882 64.5722H58.1491C58.1747 64.5722 58.1955 64.5515 58.1955 64.5259V58.1658C58.1955 58.1402 58.1747 58.1194 58.1491 58.1194Z"
            fill="#0D1615" />
        <path
            d="M77.5678 58.1301L77.566 64.59V70.9038C77.566 70.9373 77.5529 70.9695 77.5294 70.9932C77.506 71.017 77.4743 71.0303 77.4412 71.0303L71.1163 71.0321L71.1234 64.5847L71.1199 58.1266L77.5678 58.1301Z"
            fill="#FBFAF6" />
        <path
            d="M109.779 58.1194H90.5582C90.5148 58.1194 90.4797 58.1546 90.4797 58.1979V64.4938C90.4797 64.5371 90.5148 64.5722 90.5582 64.5722H109.779C109.822 64.5722 109.857 64.5371 109.857 64.4938V58.1979C109.857 58.1546 109.822 58.1194 109.779 58.1194Z"
            fill="#0D1615" />
        <path
            d="M135.679 58.1177L142.002 58.1248C142.035 58.1248 142.065 58.1376 142.088 58.1603C142.111 58.183 142.124 58.2139 142.124 58.246L142.122 64.2496C142.122 64.4623 142.016 64.5686 141.803 64.5686L135.687 64.5722L135.679 58.1177Z"
            fill="#D7A77F" />
        <path
            d="M38.8249 71.0339L38.8338 71.2514L38.7803 71.1462C38.7518 71.0903 38.706 71.0618 38.643 71.0606L32.4109 71.0232L32.393 64.6506C32.393 64.6418 32.3947 64.6329 32.3981 64.6247C32.4014 64.6165 32.4062 64.609 32.4124 64.6028C32.4185 64.5965 32.4258 64.5915 32.4338 64.5881C32.4418 64.5847 32.4504 64.5829 32.459 64.5829L38.602 64.5526C38.6608 64.5526 38.7172 64.5758 38.759 64.6172C38.8007 64.6586 38.8244 64.7149 38.8249 64.7736V71.0339Z"
            fill="#D7A77F" />
        <path
            d="M71.1234 64.5847L71.1163 71.0321L64.7415 71.0232C64.7301 71.0231 64.719 71.0201 64.7093 71.0145C64.6996 71.0089 64.6916 71.0008 64.6862 70.9911L64.6648 70.9501L64.6737 64.6774C64.6737 64.618 64.7034 64.5882 64.7629 64.5882L71.1234 64.5847Z"
            fill="#0D1615" />
        <path
            d="M84.0139 71.0303L77.7247 71.0339C77.686 71.0339 77.6487 71.0491 77.6213 71.0762C77.5939 71.1032 77.5785 71.14 77.5785 71.1783L77.5678 77.4742L77.5749 83.8681C77.5749 83.9097 77.5957 83.9305 77.6373 83.9305L96.8224 83.9269C96.8541 83.9269 96.8845 83.9143 96.9069 83.8919C96.9293 83.8695 96.9419 83.8392 96.9419 83.8075V77.5918C96.9419 77.5312 96.9722 77.5009 97.0329 77.5009L103.392 77.4866L103.395 83.9002L97.0507 83.9376C97.0217 83.9381 96.994 83.9499 96.9736 83.9706C96.9533 83.9913 96.9419 84.0191 96.9419 84.0481V90.3369C96.9419 90.3501 96.9364 90.3628 96.9267 90.3722C96.917 90.3816 96.9039 90.3868 96.8902 90.3868L51.8278 90.385C51.8041 90.385 51.7814 90.3758 51.7647 90.3595C51.748 90.3431 51.7386 90.3209 51.7386 90.2977L51.7315 83.9875C51.7316 83.9782 51.7344 83.9693 51.7395 83.9619C51.7447 83.9545 51.7518 83.9492 51.76 83.9465L51.8082 83.9287L71.0449 83.9323C71.0866 83.9323 71.1074 83.9121 71.1074 83.8717L71.1109 77.4599L71.1163 71.0321L77.4411 71.0303C77.4742 71.0303 77.506 71.017 77.5294 70.9932C77.5528 70.9695 77.566 70.9373 77.566 70.9037V64.59L83.9212 64.5793C83.9806 64.5781 84.0104 64.6078 84.0104 64.6684L84.0139 71.0303Z"
            fill="#0D1615" />
        <path
            d="M116.296 70.9804L109.845 70.9822L109.907 64.754C109.908 64.7094 109.926 64.6668 109.958 64.6354C109.989 64.604 110.032 64.5865 110.077 64.5865L116.205 64.5722C116.235 64.5722 116.264 64.584 116.285 64.6051C116.306 64.6261 116.318 64.6547 116.318 64.6845L116.296 70.9804Z"
            fill="#D7A77F" />
        <path
            d="M64.6648 70.9501L64.6862 70.9911C64.6916 71.0008 64.6996 71.0089 64.7093 71.0145C64.719 71.0201 64.7301 71.0231 64.7415 71.0232L71.1163 71.0321L71.1109 77.4599L64.8556 77.4474C64.8036 77.4474 64.7537 77.4268 64.7169 77.39C64.6801 77.3532 64.6594 77.3033 64.6594 77.2513L64.6577 71.0749L64.6648 70.9501Z"
            fill="#FF768A" />
        <path
            d="M32.4109 71.0232L38.643 71.0606C38.706 71.0618 38.7518 71.0903 38.7803 71.1462L38.8338 71.2513L38.882 77.5401C38.8749 77.6221 38.8505 77.6667 38.8089 77.6738C38.7708 79.6976 38.7774 81.7207 38.8285 83.7433C38.8297 83.7861 38.8184 83.8259 38.7946 83.8627L38.75 83.9323L26.1163 83.9251C25.9844 83.9251 25.9184 83.8592 25.9184 83.7273L25.8987 71.1729C25.8987 71.0743 25.9487 71.0249 26.0486 71.0249L32.4109 71.0232Z"
            fill="#FF768A" />
        <path
            d="M64.6577 71.0749L64.6594 77.2513C64.6594 77.3033 64.6801 77.3532 64.7169 77.39C64.7537 77.4268 64.8036 77.4474 64.8556 77.4474L71.1109 77.4599L71.1074 83.8717C71.1074 83.9121 71.0866 83.9323 71.0449 83.9323L51.8082 83.9287L51.7368 83.8717L51.7261 77.59C51.7261 77.5306 51.6964 77.5009 51.6369 77.5009L45.3353 77.4813L38.882 77.5401L38.8338 71.2513L38.8249 71.0339L64.6577 71.0749Z"
            fill="#FBFAF6" />
        <path
            d="M109.829 71.0356C109.857 73.7166 109.859 75.8401 109.834 77.4064C109.833 77.5074 109.79 77.5401 109.706 77.5044L103.392 77.4866L97.0329 77.5009C96.9722 77.5009 96.9419 77.5312 96.9419 77.5918V83.8075C96.9419 83.8391 96.9293 83.8695 96.9069 83.8919C96.8845 83.9143 96.8541 83.9269 96.8224 83.9269L77.6373 83.9305C77.5957 83.9305 77.5749 83.9097 77.5749 83.8681L77.5678 77.4741L83.8873 77.4813C83.9076 77.4813 83.9277 77.4772 83.9464 77.4694C83.9651 77.4616 83.9821 77.4502 83.9964 77.4357C84.0107 77.4213 84.0219 77.4042 84.0295 77.3854C84.0371 77.3666 84.0409 77.3465 84.0407 77.3262L84.0264 71.205C84.0371 71.0826 84.1358 71.0214 84.3225 71.0214C92.8187 71.0226 101.321 71.0273 109.829 71.0356Z"
            fill="#FBFAF6" />
        <path
            d="M109.845 70.9822L116.296 70.9804L122.628 71.0196C122.731 71.0196 122.782 71.0707 122.782 71.1729L122.784 83.7273C122.784 83.864 122.715 83.9323 122.577 83.9323L110.045 83.9305C109.969 83.8996 109.935 83.8342 109.943 83.7344C109.961 83.5401 109.861 83.3369 109.859 83.139C109.856 81.4504 109.856 79.7629 109.859 78.0767C109.859 77.82 109.808 77.6292 109.706 77.5045C109.79 77.5401 109.833 77.5074 109.834 77.4064C109.859 75.8402 109.857 73.7166 109.829 71.0357C109.872 70.9846 109.877 70.9667 109.845 70.9822Z"
            fill="#FF768A" />
        <path
            d="M84.0139 71.0303L84.0264 71.205L84.0407 77.3262C84.0409 77.3465 84.0371 77.3666 84.0295 77.3854C84.0219 77.4042 84.0107 77.4213 83.9964 77.4358C83.9821 77.4502 83.9651 77.4616 83.9464 77.4694C83.9277 77.4773 83.9076 77.4813 83.8873 77.4813L77.5678 77.4742L77.5785 71.1782C77.5785 71.14 77.5939 71.1032 77.6213 71.0762C77.6487 71.0491 77.686 71.0339 77.7247 71.0339L84.0139 71.0303Z"
            fill="#FF768A" />
        <path
            d="M45.3353 77.4813L45.3085 83.9394L38.75 83.9323L38.7946 83.8627C38.8184 83.8259 38.8297 83.7861 38.8285 83.7433C38.7773 81.7207 38.7708 79.6976 38.8089 77.6738C38.8505 77.6667 38.8749 77.6221 38.882 77.5401L45.3353 77.4813Z"
            fill="#F3937A" />
        <path
            d="M45.3353 77.4813L51.637 77.5009C51.6964 77.5009 51.7261 77.5306 51.7261 77.59L51.7368 83.8717C51.738 83.8883 51.7315 83.9037 51.7172 83.918C51.7053 83.9323 51.6899 83.9394 51.6708 83.9394H45.3085L45.3353 77.4813Z"
            fill="#0D1615" />
        <path
            d="M103.392 77.4866L109.706 77.5044C109.808 77.6292 109.859 77.82 109.859 78.0766C109.856 79.7629 109.856 81.4504 109.859 83.139C109.861 83.3369 109.961 83.5401 109.943 83.7344C109.935 83.8342 109.969 83.8996 110.045 83.9305C107.892 83.9293 105.739 83.9305 103.586 83.934C103.542 83.8912 103.478 83.88 103.395 83.9002L103.392 77.4866Z"
            fill="#F3937A" />
        <path
            d="M38.8017 103.294L25.9879 103.291C25.9676 103.291 25.9481 103.282 25.9337 103.268C25.9193 103.254 25.9112 103.234 25.9112 103.214V96.9715C25.9112 96.9356 25.8969 96.9011 25.8715 96.8757C25.8461 96.8503 25.8116 96.836 25.7757 96.836H19.5828C19.4984 96.836 19.4562 96.7938 19.4562 96.7095L19.4508 90.5187C19.4508 90.4833 19.4367 90.4493 19.4116 90.4242C19.3865 90.3991 19.3525 90.385 19.317 90.385L13.1652 90.3797C13.051 90.3797 12.994 90.3232 12.994 90.2104L13.0029 83.9394L19.3616 83.9198C19.3943 83.9198 19.4256 83.9328 19.4486 83.9558C19.4717 83.9789 19.4847 84.0102 19.4847 84.0428C19.4633 86.038 19.4556 87.896 19.4615 89.6168C19.4627 89.8224 19.4758 90.0315 19.5007 90.2442C19.5051 90.2824 19.5235 90.3176 19.5524 90.3433C19.5814 90.3689 19.6188 90.3831 19.6577 90.3833H25.8238C25.8351 90.3833 25.8462 90.3855 25.8566 90.3898C25.867 90.3941 25.8764 90.4004 25.8844 90.4083C25.8923 90.4163 25.8986 90.4257 25.9029 90.4361C25.9072 90.4465 25.9094 90.4576 25.9094 90.4688L25.9148 96.7112C25.9148 96.7472 25.9291 96.7816 25.9545 96.807C25.9799 96.8324 26.0144 96.8467 26.0503 96.8467L38.6733 96.8574C38.6934 96.8574 38.7132 96.8614 38.7317 96.8691C38.7502 96.8768 38.767 96.8882 38.7811 96.9024C38.7952 96.9167 38.8064 96.9336 38.8139 96.9522C38.8214 96.9708 38.8251 96.9907 38.8249 97.0107L38.8017 103.294Z"
            fill="#D7A77F" />
        <path
            d="M135.685 83.9447L135.667 90.2656C135.667 90.3428 135.629 90.3815 135.553 90.3815H129.401C129.284 90.3815 129.226 90.4397 129.226 90.5561V96.7469C129.226 96.8063 129.196 96.836 129.137 96.836H122.851C122.792 96.836 122.762 96.8651 122.762 96.9233V103.209C122.762 103.232 122.753 103.255 122.736 103.272C122.718 103.288 122.695 103.298 122.671 103.298H103.59C103.539 103.298 103.49 103.318 103.455 103.354C103.419 103.389 103.399 103.438 103.399 103.488L103.397 109.747L45.3032 109.699L45.2925 103.299H103.276C103.313 103.299 103.349 103.285 103.375 103.258C103.402 103.232 103.417 103.196 103.417 103.159L103.392 96.9394C103.391 96.9275 103.394 96.9158 103.398 96.9047C103.402 96.8937 103.409 96.8837 103.418 96.8752C103.426 96.8668 103.436 96.86 103.447 96.8554C103.459 96.8508 103.47 96.8485 103.483 96.8485L116.154 96.861C116.189 96.861 116.223 96.8477 116.248 96.8239C116.274 96.8 116.289 96.7673 116.291 96.7326C116.32 96.2692 116.33 95.8033 116.323 95.3351C116.299 93.8639 116.294 92.2715 116.307 90.5579C116.307 90.5125 116.325 90.469 116.357 90.4369C116.389 90.4048 116.433 90.3868 116.478 90.3868H129.141C129.168 90.3868 129.194 90.3757 129.214 90.356C129.233 90.3363 129.244 90.3095 129.244 90.2816L129.217 84.0125C129.217 83.9697 129.239 83.9483 129.281 83.9483L135.685 83.9447Z"
            fill="#D7A77F" />
        <path
            d="M45.3032 109.699L103.397 109.747L116.325 109.752V116.114C116.325 116.127 116.327 116.14 116.332 116.152C116.337 116.163 116.345 116.174 116.354 116.183C116.363 116.192 116.374 116.2 116.385 116.205C116.397 116.21 116.41 116.212 116.423 116.212L122.762 116.203L122.75 122.556C122.75 122.613 122.722 122.642 122.666 122.642H103.516C103.443 122.642 103.406 122.679 103.406 122.752L103.401 129.014C103.401 129.036 103.392 129.058 103.375 129.073C103.359 129.089 103.338 129.098 103.315 129.098L97.0347 129.109C97.0138 129.109 96.9939 129.117 96.9792 129.132C96.9644 129.146 96.9562 129.166 96.9562 129.187L96.9312 135.365C96.9307 135.415 96.9107 135.463 96.8753 135.499C96.84 135.534 96.7921 135.554 96.7421 135.554L90.5671 135.57C90.5124 135.57 90.4851 135.598 90.4851 135.652L90.4744 141.9C90.4422 141.971 90.4006 142.007 90.3495 142.007L77.6463 142.018C77.6047 142.018 77.5838 142.039 77.5838 142.08L77.5767 148.438C77.5731 148.456 77.5684 148.465 77.5624 148.465L71.2037 148.458C71.1609 148.407 71.1324 148.361 71.1181 148.319L71.1145 142.119C71.1145 142.106 71.1118 142.092 71.1066 142.079C71.1014 142.066 71.0938 142.055 71.0842 142.045C71.0746 142.035 71.0632 142.028 71.0507 142.022C71.0381 142.017 71.0246 142.014 71.0111 142.014L58.1919 142.007L58.1937 141.898L58.1705 135.674C58.1705 135.613 58.1402 135.583 58.0795 135.583L51.8082 135.556C51.7987 135.523 51.7791 135.511 51.7493 135.52L51.7226 129.169C51.7223 129.16 51.7203 129.151 51.7166 129.142C51.7129 129.134 51.7076 129.126 51.7009 129.119C51.6943 129.113 51.6865 129.108 51.678 129.105C51.6694 129.101 51.6604 129.1 51.6512 129.1L45.3282 129.139C45.3091 129.138 45.2842 129.124 45.2532 129.096C45.2628 129.084 45.2723 129.072 45.2818 129.059C45.2865 129.053 45.2889 129.046 45.2889 129.039L45.28 122.775C45.28 122.739 45.2653 122.703 45.2392 122.677C45.2132 122.651 45.1778 122.636 45.1409 122.636L32.3627 122.64L32.3806 116.209L32.3788 109.75L45.3032 109.699Z"
            fill="#FBFAF6" />
        <path
            d="M32.3788 109.75L32.3806 116.209L26.0557 116.216C26.0183 116.216 25.9825 116.231 25.9561 116.257C25.9296 116.283 25.9148 116.319 25.9148 116.357L25.913 122.549C25.913 122.611 25.8821 122.642 25.8203 122.642L19.4579 122.647L19.4615 116.287C19.4615 116.264 19.4709 116.242 19.4876 116.225C19.5044 116.209 19.527 116.2 19.5507 116.2H25.831C25.8845 116.2 25.9112 116.173 25.9112 116.119V109.879C25.9112 109.846 25.9246 109.814 25.9483 109.791C25.9721 109.767 26.0043 109.754 26.0379 109.754L32.3788 109.75Z"
            fill="#D7A77F" />
        <path
            d="M116.325 109.752L122.705 109.758C122.721 109.758 122.736 109.764 122.747 109.775C122.758 109.786 122.764 109.801 122.764 109.816L122.762 116.203L116.423 116.212C116.41 116.212 116.397 116.21 116.385 116.205C116.374 116.2 116.363 116.193 116.354 116.183C116.345 116.174 116.337 116.163 116.332 116.152C116.327 116.14 116.325 116.127 116.325 116.114V109.752Z"
            fill="#D7A77F" />
        <path
            d="M32.3806 116.209L32.3627 122.64L26.1502 122.636C26.0892 122.636 26.0307 122.661 25.9875 122.704C25.9444 122.747 25.9201 122.805 25.9201 122.866L25.9077 128.968C25.9077 129.051 25.9493 129.093 26.0325 129.093L45.2532 129.096C45.2842 129.124 45.3091 129.138 45.3281 129.139L45.2746 135.394C45.2744 135.416 45.2786 135.438 45.2869 135.458C45.2952 135.479 45.3076 135.497 45.3232 135.513C45.3388 135.529 45.3574 135.541 45.3779 135.549C45.3983 135.558 45.4202 135.562 45.4423 135.561L51.7493 135.52C51.779 135.511 51.7987 135.523 51.8082 135.556C51.7499 135.661 51.7208 135.796 51.7208 135.963C51.7279 137.938 51.7351 139.913 51.7422 141.888C51.7427 141.918 51.7551 141.948 51.7769 141.969C51.7986 141.99 51.8278 142.002 51.8581 142.002C53.832 141.986 55.8244 141.996 57.8352 142.03C57.9077 142.031 58.0272 141.988 58.1937 141.898L58.1919 142.007L58.2044 148.317C58.2044 148.411 58.2514 148.459 58.3453 148.46C62.4608 148.462 66.5864 148.464 70.7221 148.465C70.929 148.465 71.061 148.417 71.1181 148.319C71.1323 148.361 71.1609 148.407 71.2037 148.458C71.1383 148.577 71.1056 148.69 71.1056 148.797C71.108 150.895 71.1181 152.891 71.1359 154.784C71.1359 154.8 71.1389 154.815 71.1447 154.829C71.1506 154.843 71.1591 154.855 71.1699 154.866C71.1806 154.877 71.1934 154.886 71.2075 154.891C71.2215 154.897 71.2366 154.9 71.2518 154.9L77.4929 154.918C77.5381 154.918 77.5607 154.895 77.5607 154.85L77.5624 148.465C77.5684 148.465 77.5731 148.456 77.5767 148.438L90.2799 148.478C90.3064 148.478 90.3326 148.473 90.3571 148.462C90.3815 148.452 90.4037 148.437 90.4224 148.419C90.4412 148.4 90.456 148.378 90.4661 148.353C90.4763 148.329 90.4815 148.303 90.4815 148.276C90.4767 146.15 90.4749 144.111 90.4761 142.157C90.4761 142.051 90.4339 142.001 90.3495 142.007C90.4006 142.007 90.4422 141.971 90.4743 141.9C90.5647 141.985 90.6694 142.026 90.7883 142.025C92.8549 142.004 94.8485 142.002 96.7689 142.021C96.7915 142.021 96.8139 142.017 96.8348 142.008C96.8557 142 96.8747 141.987 96.8906 141.971C96.9065 141.955 96.9191 141.936 96.9276 141.916C96.9361 141.895 96.9403 141.873 96.9401 141.85V135.74C96.9401 135.692 96.9591 135.646 96.9929 135.612C97.0267 135.579 97.0725 135.56 97.1203 135.56L103.32 135.554C103.342 135.554 103.364 135.546 103.38 135.53C103.395 135.514 103.404 135.493 103.404 135.471L103.402 129.235C103.402 129.199 103.417 129.164 103.443 129.138C103.468 129.112 103.503 129.098 103.54 129.098L122.591 129.1C122.616 129.1 122.64 129.095 122.663 129.086C122.686 129.076 122.707 129.062 122.725 129.045C122.742 129.028 122.756 129.007 122.766 128.984C122.775 128.962 122.78 128.937 122.78 128.913L122.759 122.768C122.759 122.705 122.79 122.674 122.853 122.674L129.224 122.638L129.223 129.053C129.223 129.084 129.207 129.1 129.174 129.1H122.896C122.861 129.1 122.828 129.114 122.804 129.138C122.779 129.163 122.766 129.197 122.766 129.232L122.762 135.444C122.762 135.516 122.726 135.553 122.655 135.553L116.389 135.561C116.332 135.561 116.304 135.59 116.304 135.647L116.305 141.9C116.305 141.974 116.268 142.011 116.195 142.011L109.918 142.016C109.903 142.016 109.888 142.022 109.878 142.033C109.867 142.043 109.861 142.058 109.861 142.073L109.857 154.802C109.857 154.872 109.822 154.907 109.75 154.907H103.461C103.42 154.907 103.399 154.928 103.399 154.97L103.402 180.711L96.9972 180.724L96.9419 155.066C96.9419 155.051 96.939 155.036 96.9333 155.023C96.9276 155.009 96.9193 154.996 96.9089 154.986C96.8984 154.975 96.886 154.967 96.8724 154.962C96.8588 154.956 96.8442 154.953 96.8295 154.954L84.0282 154.964L77.6926 154.916C77.613 154.916 77.5731 154.955 77.5731 155.034L77.5838 161.191C77.5838 161.236 77.5661 161.279 77.5343 161.311C77.5026 161.343 77.4595 161.361 77.4144 161.362L71.2126 161.374C71.1472 161.374 71.1145 161.341 71.1145 161.275L71.1127 155.086C71.1127 155 71.0699 154.952 70.9843 154.943C70.7786 154.922 70.5723 154.911 70.3654 154.911C68.4212 154.909 66.5781 154.909 64.836 154.913C64.7445 154.913 64.6886 154.967 64.6684 155.077C64.5447 154.976 64.2439 154.923 63.7658 154.92C59.8287 154.897 55.8874 154.896 51.942 154.916C51.8855 154.917 51.8315 154.939 51.7918 154.979C51.752 155.02 51.7297 155.074 51.7297 155.13L51.7333 180.706L45.2907 180.74L45.2943 155.055C45.2943 155.016 45.2787 154.978 45.2509 154.951C45.2231 154.923 45.1855 154.907 45.1462 154.907H38.8338L38.8231 142.127C38.8231 142.067 38.7934 142.037 38.734 142.037L32.459 142.014L32.3734 141.982L32.3716 135.652C32.3716 135.628 32.3619 135.604 32.3445 135.587C32.3271 135.569 32.3035 135.56 32.2789 135.56L26.0182 135.553C25.9493 135.553 25.9148 135.518 25.9148 135.449L25.9094 129.212C25.9094 129.137 25.872 129.1 25.7971 129.1H19.5721C19.5055 129.1 19.4722 129.067 19.4722 129.002L19.4579 122.647L25.8203 122.642C25.8821 122.642 25.913 122.611 25.913 122.549L25.9148 116.357C25.9148 116.319 25.9296 116.283 25.9561 116.257C25.9825 116.231 26.0183 116.216 26.0557 116.216L32.3806 116.209Z"
            fill="#F6DFB6" />
        <path
            d="M129.224 122.638L122.853 122.674C122.79 122.674 122.759 122.705 122.759 122.768L122.78 128.913C122.78 128.937 122.775 128.962 122.766 128.984C122.756 129.007 122.742 129.028 122.725 129.045C122.707 129.062 122.686 129.076 122.663 129.086C122.64 129.095 122.616 129.1 122.591 129.1L103.54 129.098C103.503 129.098 103.468 129.113 103.443 129.138C103.417 129.164 103.402 129.199 103.402 129.235L103.404 135.471C103.404 135.493 103.395 135.514 103.38 135.53C103.364 135.546 103.342 135.554 103.32 135.554L97.1203 135.56C97.0725 135.56 97.0267 135.579 96.9929 135.612C96.9591 135.646 96.9401 135.692 96.9401 135.74V141.85C96.9403 141.873 96.9361 141.895 96.9276 141.916C96.9191 141.936 96.9065 141.955 96.8906 141.971C96.8747 141.987 96.8557 142 96.8348 142.008C96.8139 142.017 96.7915 142.021 96.7689 142.021C94.8485 142.002 92.8549 142.004 90.7883 142.025C90.6693 142.026 90.5647 141.985 90.4743 141.9L90.485 135.652C90.485 135.598 90.5124 135.57 90.5671 135.57L96.7421 135.554C96.7921 135.554 96.8399 135.534 96.8753 135.499C96.9106 135.463 96.9307 135.415 96.9312 135.365L96.9562 129.187C96.9562 129.166 96.9644 129.146 96.9791 129.132C96.9939 129.117 97.0138 129.109 97.0346 129.109L103.315 129.098C103.338 129.098 103.359 129.089 103.375 129.074C103.391 129.058 103.401 129.036 103.401 129.014L103.406 122.752C103.406 122.679 103.443 122.642 103.516 122.642H122.666C122.722 122.642 122.75 122.613 122.75 122.556L122.762 116.203H129.057C129.078 116.203 129.1 116.207 129.119 116.216C129.139 116.224 129.157 116.236 129.173 116.252C129.188 116.267 129.2 116.285 129.208 116.306C129.217 116.326 129.221 116.347 129.221 116.369L129.224 122.638Z"
            fill="#D7A77F" />
        <path
            d="M142.136 122.579L135.688 122.649L135.697 116.316C135.697 116.236 135.737 116.196 135.817 116.196L142.061 116.193C142.082 116.193 142.101 116.201 142.116 116.215C142.13 116.229 142.138 116.249 142.138 116.269L142.136 122.579Z"
            fill="#FBFAF6" />
        <path
            d="M142.136 122.579L142.174 135.556C142.186 135.611 142.181 135.661 142.161 135.708C142.142 135.754 142.133 135.802 142.133 135.852V141.809C142.133 141.866 142.155 141.921 142.196 141.962C142.236 142.002 142.291 142.025 142.348 142.025L148.588 142.012L148.586 167.831L142.142 167.843L142.138 142.091C142.138 142.07 142.13 142.05 142.114 142.035C142.099 142.021 142.079 142.012 142.058 142.012L135.776 142.007C135.725 141.987 135.695 141.965 135.688 141.941V122.649L142.136 122.579Z"
            fill="#F6DFB6" />
        <path
            d="M32.3627 122.64L45.1409 122.636C45.1778 122.636 45.2131 122.651 45.2392 122.677C45.2653 122.703 45.28 122.739 45.28 122.775L45.2889 129.039C45.2889 129.046 45.2865 129.053 45.2818 129.059C45.2722 129.072 45.2627 129.084 45.2532 129.096L26.0325 129.093C25.9493 129.093 25.9077 129.051 25.9077 128.968L25.9201 122.866C25.9201 122.805 25.9444 122.747 25.9875 122.704C26.0307 122.661 26.0892 122.636 26.1502 122.636L32.3627 122.64Z"
            fill="#D7A77F" />
        <path
            d="M51.7493 135.52L45.4423 135.561C45.4202 135.562 45.3983 135.558 45.3779 135.549C45.3574 135.541 45.3388 135.529 45.3232 135.513C45.3076 135.497 45.2952 135.479 45.2869 135.458C45.2786 135.438 45.2744 135.416 45.2746 135.394L45.3281 129.139L51.6512 129.1C51.6604 129.1 51.6694 129.101 51.678 129.105C51.6865 129.108 51.6943 129.113 51.7009 129.119C51.7075 129.126 51.7129 129.134 51.7166 129.142C51.7203 129.151 51.7223 129.16 51.7226 129.169L51.7493 135.52Z"
            fill="#D7A77F" />
        <path
            d="M32.3734 141.982L32.459 142.014C32.4436 142.005 32.4263 142.005 32.4073 142.016C32.3971 142.021 32.3885 142.029 32.3826 142.039C32.3766 142.048 32.3734 142.059 32.3734 142.07L32.3752 154.911L19.6024 154.902C19.5641 154.902 19.5273 154.887 19.5002 154.86C19.4731 154.833 19.4579 154.796 19.4579 154.758L19.449 148.554C19.449 148.527 19.4383 148.502 19.4192 148.483C19.4002 148.463 19.3743 148.453 19.3473 148.453L12.9993 148.449L13.0136 142.075C13.0136 142.059 13.0196 142.044 13.0303 142.033C13.041 142.022 13.0555 142.016 13.0706 142.016L19.3652 142.012C19.3893 142.012 19.4124 142.003 19.4295 141.986C19.4466 141.969 19.4561 141.946 19.4561 141.922L19.4526 135.667C19.4526 135.594 19.4883 135.558 19.5596 135.558L25.7721 135.556C25.808 135.556 25.8425 135.57 25.8679 135.596C25.8934 135.621 25.9076 135.656 25.9076 135.692L25.9112 141.927C25.9112 141.938 25.9134 141.949 25.9176 141.96C25.9218 141.97 25.928 141.979 25.9358 141.987C25.9435 141.995 25.9528 142.002 25.963 142.006C25.9731 142.01 25.984 142.012 25.995 142.012C28.1105 142.014 30.2122 142.015 32.3003 142.016C32.3169 142.016 32.3342 142.009 32.352 141.996C32.3579 141.992 32.3651 141.987 32.3734 141.982Z"
            fill="#D7A77F" />
        <path
            d="M51.8082 135.556L58.0795 135.583C58.1402 135.583 58.1705 135.613 58.1705 135.674L58.1937 141.898C58.0272 141.988 57.9077 142.031 57.8352 142.03C55.8244 141.996 53.832 141.986 51.8581 142.002C51.8278 142.002 51.7986 141.99 51.7769 141.969C51.7551 141.948 51.7427 141.918 51.7422 141.888C51.735 139.913 51.7279 137.938 51.7208 135.963C51.7208 135.796 51.7499 135.661 51.8082 135.556Z"
            fill="#D7A77F" />
        <path
            d="M135.688 141.941C135.695 141.965 135.725 141.987 135.776 142.007C135.723 141.993 135.697 142.013 135.695 142.068C135.686 142.98 135.684 145.097 135.688 148.417L129.349 148.462C129.316 148.462 129.285 148.475 129.262 148.499C129.239 148.522 129.226 148.554 129.226 148.586L129.228 154.775C129.228 154.81 129.214 154.844 129.189 154.869C129.165 154.893 129.131 154.907 129.096 154.907L116.305 154.916L116.311 142.127C116.311 142.097 116.322 142.069 116.343 142.048C116.363 142.028 116.391 142.016 116.419 142.016L122.655 142.012C122.728 142.012 122.764 141.976 122.764 141.904V135.647C122.764 135.588 122.794 135.558 122.853 135.558L129.114 135.56C129.144 135.56 129.172 135.572 129.193 135.593C129.214 135.614 129.226 135.642 129.226 135.672V141.952C129.226 141.96 129.228 141.968 129.231 141.976C129.234 141.983 129.239 141.99 129.244 141.996C129.25 142.002 129.257 142.006 129.265 142.01C129.272 142.013 129.28 142.014 129.289 142.014L135.555 142.016C135.588 142.016 135.617 142.005 135.642 141.982L135.688 141.941Z"
            fill="#D7A77F" />
        <path
            d="M142.174 135.556L148.522 135.558C148.538 135.558 148.554 135.564 148.566 135.576C148.578 135.588 148.584 135.604 148.584 135.62L148.588 142.012L142.349 142.025C142.291 142.025 142.236 142.002 142.196 141.962C142.155 141.921 142.133 141.866 142.133 141.809V135.852C142.133 135.802 142.142 135.754 142.161 135.708C142.181 135.661 142.186 135.611 142.174 135.556Z"
            fill="#D7A77F" />
        <path
            d="M32.459 142.014L38.7339 142.037C38.7934 142.037 38.8231 142.067 38.8231 142.127L38.8338 154.907L32.3752 154.911L32.3734 142.07C32.3734 142.059 32.3766 142.048 32.3826 142.039C32.3885 142.029 32.3971 142.021 32.4073 142.016C32.4263 142.005 32.4436 142.005 32.459 142.014Z"
            fill="#0D1615" />
        <path
            d="M71.1181 148.319C71.061 148.416 70.929 148.465 70.7221 148.465C66.5864 148.464 62.4608 148.462 58.3453 148.46C58.2513 148.459 58.2044 148.411 58.2044 148.317L58.1919 142.007L71.0111 142.014C71.0246 142.014 71.0381 142.017 71.0506 142.022C71.0632 142.028 71.0746 142.035 71.0842 142.045C71.0938 142.055 71.1014 142.066 71.1066 142.079C71.1118 142.092 71.1145 142.106 71.1145 142.119L71.1181 148.319Z"
            fill="#D7A77F" />
        <path
            d="M90.3495 142.007C90.4339 142.001 90.4761 142.051 90.4761 142.157C90.4749 144.111 90.4767 146.15 90.4815 148.276C90.4815 148.303 90.4763 148.329 90.4661 148.353C90.456 148.378 90.4412 148.4 90.4224 148.419C90.4037 148.437 90.3815 148.452 90.357 148.462C90.3326 148.473 90.3064 148.478 90.2799 148.478L77.5767 148.438L77.5838 142.08C77.5838 142.039 77.6046 142.018 77.6463 142.018L90.3495 142.007Z"
            fill="#D7A77F" />
        <path
            d="M135.688 148.417L135.687 161.351L129.326 161.364C129.298 161.364 129.27 161.375 129.25 161.394C129.23 161.414 129.219 161.441 129.219 161.469L129.271 167.818H116.361C116.345 167.818 116.331 167.824 116.32 167.835C116.31 167.846 116.304 167.861 116.304 167.877V174.198C116.304 174.221 116.313 174.243 116.329 174.26C116.346 174.276 116.368 174.285 116.391 174.285H122.791L122.768 180.617C122.768 180.68 122.736 180.711 122.673 180.711L116.475 180.706C116.357 180.706 116.298 180.764 116.298 180.881L116.327 186.986C116.327 187.04 116.305 187.092 116.267 187.131C116.229 187.169 116.177 187.191 116.123 187.191L109.863 187.201L109.865 155.021C109.865 154.993 109.876 154.965 109.896 154.945C109.917 154.924 109.944 154.913 109.973 154.913L116.305 154.916L129.096 154.907C129.131 154.907 129.165 154.893 129.189 154.869C129.214 154.844 129.228 154.81 129.228 154.775L129.226 148.586C129.226 148.554 129.239 148.522 129.262 148.499C129.285 148.475 129.316 148.462 129.349 148.462L135.688 148.417Z"
            fill="#F6DFB6" />
        <path
            d="M12.9993 148.449L19.3473 148.453C19.3743 148.453 19.4002 148.463 19.4192 148.483C19.4383 148.502 19.449 148.527 19.449 148.554L19.4579 154.758C19.4579 154.796 19.4731 154.833 19.5002 154.86C19.5273 154.887 19.5641 154.902 19.6024 154.902L32.3752 154.911L38.8338 154.907V187.16L32.4858 187.18C32.456 187.18 32.4274 187.168 32.4063 187.148C32.3852 187.127 32.3734 187.099 32.3734 187.07V180.845C32.3734 180.811 32.3601 180.778 32.3363 180.754C32.3126 180.73 32.2804 180.717 32.2468 180.717L26.0771 180.727C25.9701 180.727 25.916 180.673 25.9148 180.565L25.8738 174.287L32.2807 174.285C32.3053 174.285 32.3288 174.275 32.3462 174.258C32.3636 174.241 32.3734 174.217 32.3734 174.193L32.3681 167.909C32.3681 167.885 32.3587 167.863 32.3419 167.846C32.3252 167.829 32.3025 167.82 32.2789 167.82H13.0617C13.0475 167.82 13.0339 167.814 13.0239 167.804C13.0139 167.794 13.0082 167.781 13.0082 167.767L12.9993 148.449Z"
            fill="#F6DFB6" />
        <path
            d="M71.2037 148.458L77.5624 148.465L77.5607 154.85C77.5607 154.895 77.5381 154.918 77.4929 154.918L71.2518 154.9C71.2366 154.9 71.2215 154.897 71.2075 154.891C71.1934 154.886 71.1806 154.877 71.1699 154.866C71.1591 154.855 71.1506 154.843 71.1447 154.829C71.1389 154.815 71.1359 154.8 71.1359 154.784C71.1181 152.891 71.108 150.895 71.1056 148.797C71.1056 148.69 71.1383 148.577 71.2037 148.458Z"
            fill="#D7A77F" />
        <path
            d="M64.6684 155.077L64.6577 161.373V187.164L58.2365 187.157C58.2311 187.157 58.2258 187.156 58.2208 187.154C58.2158 187.151 58.2113 187.148 58.2075 187.144C58.2037 187.14 58.2007 187.136 58.1986 187.13C58.1965 187.125 58.1955 187.12 58.1955 187.114L58.1901 180.827C58.1901 180.813 58.1874 180.8 58.1822 180.788C58.177 180.775 58.1694 180.764 58.1598 180.754C58.1502 180.744 58.1388 180.737 58.1263 180.732C58.1137 180.726 58.1002 180.724 58.0867 180.724L51.7333 180.706L51.7297 155.13C51.7297 155.074 51.752 155.02 51.7918 154.979C51.8315 154.939 51.8855 154.917 51.942 154.916C55.8874 154.896 59.8287 154.897 63.7658 154.92C64.2439 154.923 64.5447 154.976 64.6684 155.077Z"
            fill="#FBFAF6" />
        <path
            d="M84.0282 154.964V161.362L77.7105 161.358C77.6745 161.358 77.64 161.373 77.6146 161.398C77.5892 161.424 77.5749 161.459 77.5749 161.496V187.043C77.5749 187.13 77.5315 187.173 77.4447 187.173L71.209 187.175C71.1816 187.175 71.1553 187.164 71.1359 187.145C71.1165 187.126 71.1056 187.1 71.1056 187.073L71.1109 161.485C71.1109 161.453 71.0983 161.423 71.0759 161.4C71.0535 161.378 71.0231 161.365 70.9914 161.365L64.6577 161.373L64.6684 155.077C64.6886 154.967 64.7445 154.913 64.836 154.913C66.5781 154.909 68.4212 154.908 70.3654 154.911C70.5723 154.911 70.7786 154.922 70.9843 154.943C71.0699 154.952 71.1127 155 71.1127 155.086L71.1145 161.274C71.1145 161.341 71.1472 161.374 71.2126 161.374L77.4144 161.362C77.4595 161.361 77.5026 161.343 77.5343 161.311C77.566 161.279 77.5838 161.236 77.5838 161.191L77.5731 155.034C77.5731 154.955 77.613 154.916 77.6926 154.916L84.0282 154.964Z"
            fill="#D7A77F" />
        <path
            d="M96.9972 180.724L90.5831 180.72C90.5142 180.72 90.4797 180.755 90.4797 180.824L90.4868 187.071C90.4868 187.135 90.4553 187.168 90.3923 187.169L84.071 187.193C84.0567 187.193 84.0466 187.185 84.0407 187.171L84.0246 187.128L84.0282 161.362V154.964L96.8295 154.954C96.8442 154.953 96.8588 154.956 96.8724 154.962C96.886 154.967 96.8984 154.975 96.9089 154.986C96.9193 154.996 96.9276 155.009 96.9333 155.023C96.939 155.036 96.9419 155.051 96.9419 155.066L96.9972 180.724Z"
            fill="#FBFAF6" />
        <path
            d="M135.687 161.351L135.681 167.72C135.68 167.782 135.649 167.813 135.588 167.813L129.271 167.818L129.219 161.469C129.219 161.441 129.23 161.414 129.25 161.394C129.27 161.375 129.298 161.364 129.326 161.364L135.687 161.351Z"
            fill="#D7A77F" />
        <path
            d="M148.586 167.831L148.584 174.269C146.554 174.283 144.533 174.289 142.522 174.287C142.381 174.287 142.286 174.23 142.143 174.209L142.142 167.843L148.586 167.831Z"
            fill="#D7A77F" />
        <path
            d="M142.143 174.209C142.286 174.23 142.381 174.287 142.522 174.287C144.534 174.289 146.554 174.283 148.584 174.269L148.573 180.62C148.573 180.681 148.543 180.711 148.483 180.711L142.204 180.717C142.186 180.717 142.168 180.724 142.155 180.737C142.142 180.75 142.134 180.768 142.134 180.786C142.136 182.446 142.139 184.154 142.143 185.911C142.145 186.309 142.131 186.692 142.102 187.061C142.098 187.132 142.06 187.168 141.988 187.168L135.738 187.175C135.724 187.175 135.71 187.169 135.7 187.16C135.69 187.15 135.685 187.137 135.685 187.123L135.687 174.38C135.687 174.32 135.716 174.29 135.776 174.289C137.82 174.273 139.857 174.276 141.888 174.296C142.025 174.297 142.11 174.268 142.143 174.209Z"
            fill="#F6DFB6" />
        <path
            d="M25.8737 174.287L25.9148 180.565C25.916 180.673 25.9701 180.727 26.0771 180.727L32.2468 180.717C32.2804 180.717 32.3126 180.73 32.3363 180.754C32.3601 180.778 32.3734 180.811 32.3734 180.845V187.07C32.3734 187.099 32.3852 187.127 32.4063 187.148C32.4274 187.168 32.456 187.18 32.4858 187.18L38.8338 187.16L38.8231 193.522C38.8219 193.594 38.7863 193.629 38.7161 193.629L19.5364 193.627C19.5142 193.627 19.4929 193.619 19.4771 193.603C19.4614 193.587 19.4526 193.566 19.4526 193.544L19.4544 174.387C19.4544 174.331 19.4823 174.303 19.5382 174.303L25.8737 174.287Z"
            fill="#D7A77F" />
        <path
            d="M122.791 174.285L129.13 174.282C129.194 174.282 129.226 174.314 129.226 174.378V193.494C129.226 193.529 129.212 193.563 129.187 193.588C129.162 193.613 129.128 193.627 129.092 193.627L109.927 193.629C109.887 193.629 109.866 193.609 109.866 193.569L109.863 187.201L116.123 187.191C116.177 187.191 116.229 187.169 116.267 187.131C116.305 187.092 116.327 187.04 116.327 186.986L116.298 180.881C116.298 180.764 116.357 180.706 116.475 180.706L122.673 180.711C122.736 180.711 122.768 180.68 122.768 180.617L122.791 174.285Z"
            fill="#D7A77F" />
        <path
            d="M51.7333 180.706L58.0867 180.724C58.1002 180.724 58.1137 180.726 58.1262 180.732C58.1388 180.737 58.1502 180.744 58.1598 180.754C58.1694 180.764 58.177 180.775 58.1822 180.788C58.1874 180.8 58.1901 180.814 58.1901 180.827L58.1955 187.114C58.1955 187.12 58.1965 187.125 58.1986 187.13C58.2006 187.136 58.2037 187.14 58.2075 187.144C58.2113 187.148 58.2158 187.151 58.2208 187.154C58.2258 187.156 58.2311 187.157 58.2365 187.157L64.6577 187.164L64.6541 193.581C64.6541 193.612 64.638 193.627 64.6059 193.627L51.826 193.629C51.8047 193.629 51.7843 193.621 51.7693 193.606C51.7542 193.591 51.7457 193.57 51.7457 193.549L51.7404 187.266C51.7404 187.253 51.738 187.241 51.7333 187.229C51.7287 187.218 51.7218 187.208 51.7132 187.199C51.7046 187.19 51.6944 187.183 51.6831 187.178C51.6719 187.174 51.6598 187.171 51.6476 187.171L45.4013 187.175C45.3394 187.175 45.3085 187.144 45.3085 187.082L45.2907 180.74L51.7333 180.706Z"
            fill="#D7A77F" />
        <path
            d="M96.9972 180.724L103.402 180.711L103.399 187.094C103.399 187.115 103.391 187.134 103.376 187.149C103.362 187.163 103.342 187.171 103.322 187.171L97.0275 187.173C96.9704 187.173 96.9419 187.201 96.9419 187.258V193.583C96.9419 193.595 96.9372 193.606 96.9288 193.614C96.9205 193.623 96.9091 193.627 96.8973 193.627H84.096C84.0775 193.627 84.0598 193.62 84.0468 193.607C84.0337 193.594 84.0264 193.576 84.0264 193.558L84.0246 187.128L84.0407 187.171C84.0466 187.185 84.0567 187.193 84.071 187.193L90.3923 187.169C90.4553 187.168 90.4868 187.135 90.4868 187.071L90.4797 180.824C90.4797 180.755 90.5142 180.72 90.5831 180.72L96.9972 180.724Z"
            fill="#D7A77F" />
    </g>
    <defs>
        <clipPath id="clip0_368_3142">
            <rect width="155" height="200" fill="white" />
        </clipPath>
    </defs>
</svg>
    