<svg width="18" height="18" viewBox="0 0 18 18" fill="none" xmlns="http://www.w3.org/2000/svg">
    <path
        d="M12 9.675V12.825C12 15.45 10.95 16.5 8.325 16.5H5.175C2.55 16.5 1.5 15.45 1.5 12.825V9.675C1.5 7.05 2.55 6 5.175 6H8.325C10.95 6 12 7.05 12 9.675Z"
        fill="#0D1615" />
    <path
        d="M12.8249 1.5H9.67495C7.46252 1.5 6.37416 2.25121 6.08636 4.05369C5.99856 4.60363 6.46244 5.0625 7.01935 5.0625H8.32495C11.4749 5.0625 12.9374 6.525 12.9374 9.675V10.9806C12.9374 11.5375 13.3963 12.0014 13.9463 11.9136C15.7487 11.6258 16.4999 10.5374 16.4999 8.325V5.175C16.4999 2.55 15.4499 1.5 12.8249 1.5Z"
        fill="#0D1615" />
</svg>
    