<svg width="16" height="15" viewBox="0 0 16 15" fill="none" xmlns="http://www.w3.org/2000/svg">
    <path
        d="M13.2563 4.34999V5.49374C13.2563 5.89374 13.0688 6.26874 12.7438 6.49999L5.86875 11.5375C5.425 11.8625 4.81875 11.8625 4.38125 11.5312L3.48125 10.8562C3.075 10.55 2.74375 9.88749 2.74375 9.38124V4.34999C2.74375 3.64999 3.28125 2.87499 3.9375 2.63124L7.35625 1.34999C7.7125 1.21874 8.2875 1.21874 8.64375 1.34999L12.0625 2.63124C12.7188 2.87499 13.2563 3.64999 13.2563 4.34999Z"
        fill="#292D32" />
    <path
        d="M12.2625 7.7125C12.675 7.4125 13.2562 7.70625 13.2562 8.21875V9.39375C13.2562 9.9 12.925 10.5562 12.5187 10.8625L9.1 13.4187C8.8 13.6375 8.4 13.75 8 13.75C7.6 13.75 7.2 13.6375 6.9 13.4125L6.38125 13.025C6.04375 12.775 6.04375 12.2688 6.3875 12.0188L12.2625 7.7125Z"
        fill="#292D32" />
</svg>
    