<svg width="18" height="18" viewBox="0 0 18 18" fill="none" xmlns="http://www.w3.org/2000/svg">
    <path
        d="M4.69017 12.1733C8.04232 13.4815 10.895 13.7363 14.1277 11.7C14.104 11.7356 13.4645 12.6829 11.7829 13.1684C12.1382 13.654 12.6237 14.2105 12.6237 14.2105C13.7014 14.2105 14.7553 13.9026 15.6671 13.3105C16.3777 12.8368 16.7803 12.0197 16.6974 11.1671C16.5553 9.71052 16.2119 8.28947 15.679 6.92766C15.004 5.15135 13.3816 3.91976 11.4987 3.74212C11.3329 3.73027 11.2145 3.73027 11.1435 3.73027L10.954 3.91973C13.1211 4.53552 14.1988 5.49473 14.2224 5.53027C10.8948 3.84867 6.96323 3.82501 3.61189 5.45922C3.61189 5.45922 4.67769 4.40527 7.03425 3.84868L6.89214 3.70657C6.64345 3.70657 6.4066 3.73027 6.15794 3.76578C4.41714 4.06183 2.96058 5.25788 2.33294 6.90393C1.78819 8.32498 1.43294 9.81708 1.30269 11.3329C1.23164 12.1381 1.61059 12.9316 2.27374 13.3934C3.15004 13.9737 4.19214 14.2816 5.24609 14.2816C5.24609 14.2816 5.6724 13.725 6.09874 13.2276C4.50004 12.7539 3.84874 11.8066 3.83689 11.771L4.13776 11.9247C4.31762 12.0166 4.50201 12.0998 4.69017 12.1733ZM6.54874 11.1434C5.77899 11.1197 5.17504 10.4684 5.19874 9.68683C5.22243 8.95262 5.81453 8.36052 6.54874 8.33683C7.31848 8.36052 7.92243 9.01183 7.89874 9.79342C7.86319 10.5277 7.28294 11.1198 6.54874 11.1434ZM11.3803 11.1434C10.6105 11.1197 10.0066 10.4684 10.0303 9.68683C10.054 8.95262 10.6461 8.36052 11.3803 8.33683C12.15 8.36052 12.754 9.01183 12.7303 9.79342C12.7066 10.5277 12.1145 11.1198 11.3803 11.1434Z"
        fill="#0D1615" />
</svg>
    