<svg width="19" height="18" viewBox="0 0 19 18" fill="none" xmlns="http://www.w3.org/2000/svg">
<path d="M7.75002 1.00003C7.75002 0.690742 7.56016 0.413172 7.27191 0.301048C6.98366 0.188925 6.65614 0.265243 6.44715 0.493236L0.94715 6.49324C0.746172 6.71248 0.693742 7.02978 0.813504 7.30203C0.933266 7.57428 1.20259 7.75003 1.50002 7.75003H17.5C17.9142 7.75003 18.25 7.41424 18.25 7.00003C18.25 6.58582 17.9142 6.25003 17.5 6.25003L7.75002 6.25003V1.00003Z" fill="#0D1615"/>
<path d="M11.25 17L11.25 11.75H1.50002C1.0858 11.75 0.750015 11.4142 0.750015 11C0.750015 10.5858 1.0858 10.25 1.50002 10.25L17.5 10.25C17.7974 10.25 18.0668 10.4258 18.1865 10.698C18.3063 10.9703 18.2539 11.2876 18.0529 11.5068L12.5529 17.5068C12.3439 17.7348 12.0164 17.8111 11.7281 17.699C11.4399 17.5869 11.25 17.3093 11.25 17Z" fill="#0D1615"/>
</svg>
