<svg width="20" height="20" viewBox="0 0 20 20" fill="none" xmlns="http://www.w3.org/2000/svg">
<path opacity="0.5" d="M2.88738 2.88705C1.66699 4.10744 1.66699 6.07163 1.66699 10C1.66699 13.9284 1.66699 15.8926 2.88738 17.1129C4.10777 18.3333 6.07195 18.3333 10.0003 18.3333C13.9287 18.3333 15.8929 18.3333 17.1133 17.1129C18.3337 15.8926 18.3337 13.9284 18.3337 10C18.3337 6.07163 18.3337 4.10744 17.1133 2.88705C15.8929 1.66666 13.9287 1.66666 10.0003 1.66666C6.07195 1.66666 4.10777 1.66666 2.88738 2.88705Z" fill="black"/>
<path d="M5.625 5.83334C5.625 5.48816 5.34518 5.20834 5 5.20834C4.65482 5.20834 4.375 5.48816 4.375 5.83334L4.375 14.1667C4.375 14.5118 4.65482 14.7917 5 14.7917C5.34518 14.7917 5.625 14.5118 5.625 14.1667L5.625 5.83334Z" fill="black"/>
<path fill-rule="evenodd" clip-rule="evenodd" d="M7.89139 6.22473C8.13547 5.98065 8.5312 5.98065 8.77528 6.22473L9.9433 7.39275C10.4373 7.06555 11.0297 6.875 11.6667 6.875C12.3036 6.875 12.896 7.06555 13.39 7.39275L14.5581 6.22473C14.8021 5.98065 15.1979 5.98065 15.4419 6.22473C15.686 6.46881 15.686 6.86453 15.4419 7.10861L14.2739 8.27663C14.6011 8.77065 14.7917 9.36308 14.7917 10C14.7917 10.6369 14.6011 11.2294 14.2739 11.7234L15.4419 12.8914C15.686 13.1355 15.686 13.5312 15.4419 13.7753C15.1979 14.0194 14.8021 14.0194 14.5581 13.7753L13.39 12.6073C12.896 12.9345 12.3036 13.125 11.6667 13.125C11.0297 13.125 10.4373 12.9345 9.9433 12.6073L8.77528 13.7753C8.5312 14.0194 8.13547 14.0194 7.89139 13.7753C7.64731 13.5312 7.64731 13.1355 7.89139 12.8914L9.05941 11.7234C8.73222 11.2294 8.54167 10.6369 8.54167 10C8.54167 9.36308 8.73222 8.77065 9.05941 8.27663L7.89139 7.10861C7.64731 6.86453 7.64731 6.46881 7.89139 6.22473ZM9.79167 10C9.79167 8.96447 10.6311 8.125 11.6667 8.125C12.7022 8.125 13.5417 8.96447 13.5417 10C13.5417 11.0355 12.7022 11.875 11.6667 11.875C10.6311 11.875 9.79167 11.0355 9.79167 10Z" fill="black"/>
</svg>
