<svg width="20" height="20" viewBox="0 0 20 20" fill="none" xmlns="http://www.w3.org/2000/svg">
<path d="M5.20801 12.2917C5.20801 12.6368 5.48783 12.9167 5.83301 12.9167C6.17819 12.9167 6.45801 12.6368 6.45801 12.2917V7.29167C6.45801 6.94649 6.17819 6.66667 5.83301 6.66667C5.48783 6.66667 5.20801 6.94649 5.20801 7.29167V12.2917Z" fill="black"/>
<path fill-rule="evenodd" clip-rule="evenodd" d="M17.6573 6.66981C17.6055 6.66663 17.549 6.66665 17.4904 6.66667L17.4758 6.66667H15.1794C13.2866 6.66667 11.667 8.11339 11.667 10C11.667 11.8866 13.2866 13.3333 15.1794 13.3333H17.4758L17.4904 13.3333C17.549 13.3334 17.6055 13.3334 17.6573 13.3302C18.4262 13.2831 19.1061 12.6988 19.1633 11.8828C19.1671 11.8293 19.167 11.7717 19.167 11.7182L19.167 11.7037V8.2963L19.167 8.28179C19.167 8.22833 19.1671 8.17066 19.1633 8.11715C19.1061 7.30116 18.4262 6.71695 17.6573 6.66981ZM14.9758 10.8889C15.4631 10.8889 15.8582 10.4909 15.8582 9.99999C15.8582 9.50907 15.4631 9.1111 14.9758 9.1111C14.4885 9.1111 14.0935 9.50907 14.0935 9.99999C14.0935 10.4909 14.4885 10.8889 14.9758 10.8889Z" fill="black"/>
<path opacity="0.5" d="M17.6165 6.66794C17.6165 5.68409 17.5807 4.62873 16.9518 3.87215C16.8911 3.79911 16.8265 3.7282 16.7576 3.65937C16.134 3.03573 15.3432 2.75897 14.3662 2.62761C13.4168 2.49998 12.2038 2.49999 10.6724 2.5H8.91164C7.38019 2.49999 6.16715 2.49998 5.21781 2.62761C4.24079 2.75897 3.45 3.03573 2.82636 3.65937C2.20273 4.28301 1.92596 5.0738 1.79461 6.05082C1.66697 7.00016 1.66698 8.21318 1.66699 9.74464V9.83868C1.66698 11.3701 1.66697 12.5832 1.79461 13.5325C1.92596 14.5095 2.20273 15.3003 2.82636 15.924C3.45 16.5476 4.24079 16.8244 5.21781 16.9557C6.16715 17.0834 7.38016 17.0833 8.91161 17.0833H10.6723C12.2038 17.0833 13.4168 17.0834 14.3662 16.9557C15.3432 16.8244 16.134 16.5476 16.7576 15.924C16.9281 15.7535 17.0728 15.5703 17.1958 15.3738C17.5712 14.7743 17.6165 14.0394 17.6165 13.3321C17.5763 13.3334 17.534 13.3333 17.4905 13.3333L15.1794 13.3333C13.2866 13.3333 11.667 11.8866 11.667 10C11.667 8.11339 13.2866 6.66667 15.1794 6.66667L17.4904 6.66667C17.5339 6.66665 17.5763 6.66664 17.6165 6.66794Z" fill="black"/>
</svg>
