<svg width="22" height="20" viewBox="0 0 22 20" fill="none" xmlns="http://www.w3.org/2000/svg">
<path d="M11.0789 0.25C6.2854 0.25 2.34478 3.913 1.96055 8.58333H1.00002C0.69614 8.58333 0.42229 8.7667 0.306551 9.04768C0.190811 9.32866 0.25606 9.65171 0.47178 9.86574L2.15159 11.5324C2.444 11.8225 2.91567 11.8225 3.20808 11.5324L4.88789 9.86574C5.10361 9.65171 5.16886 9.32866 5.05312 9.04768C4.93738 8.7667 4.66353 8.58333 4.35965 8.58333H3.4668C3.84652 4.75167 7.10479 1.75 11.0789 1.75C13.8484 1.75 16.2727 3.20845 17.6156 5.39279C17.8325 5.74565 18.2944 5.85585 18.6473 5.63892C19.0002 5.42199 19.1104 4.96007 18.8934 4.60721C17.2871 1.99427 14.3873 0.25 11.0789 0.25Z" fill="#0D1615"/>
<path d="M19.8411 8.46658C19.549 8.17781 19.0789 8.17781 18.7867 8.46658L17.1005 10.1333C16.8841 10.3471 16.8184 10.6703 16.9339 10.9517C17.0495 11.233 17.3235 11.4167 17.6277 11.4167H18.5268C18.1455 15.2462 14.8759 18.25 10.8828 18.25C8.10026 18.25 5.66586 16.7903 4.31796 14.6061C4.10042 14.2536 3.63833 14.1442 3.28583 14.3618C2.93334 14.5793 2.82393 15.0414 3.04146 15.3939C4.65407 18.007 7.56406 19.75 10.8828 19.75C15.6906 19.75 19.6475 16.0892 20.0331 11.4167H21.0002C21.3043 11.4167 21.5783 11.233 21.6939 10.9517C21.8095 10.6703 21.7437 10.3471 21.5274 10.1333L19.8411 8.46658Z" fill="#0D1615"/>
</svg>
