<svg width="20" height="20" viewBox="0 0 20 20" fill="none" xmlns="http://www.w3.org/2000/svg">
    <path d="M12.87 11.4286H11.4414V12.8572H12.87V11.4286Z" fill="#FF7774" />
    <path d="M12.87 4.28577H11.4414V5.71434H12.87V4.28577Z" fill="#FF7774" />
    <path d="M11.4413 12.8572H10.0127V14.2857H11.4413V12.8572Z" fill="#FF7774" />
    <path d="M11.4413 4.28577H10.0127V5.71434H11.4413V4.28577Z" fill="#FF7774" />
    <path d="M10.0126 12.8572H8.58398V14.2857H10.0126V12.8572Z" fill="#FF7774" />
    <path d="M10.0126 4.28577H8.58398V5.71434H10.0126V4.28577Z" fill="#FF7774" />
    <path d="M8.58384 4.28577H7.15527V5.71434H8.58384V4.28577Z" fill="#FF7774" />
    <path d="M7.15513 5.71423H5.72656V7.1428H7.15513V5.71423Z" fill="#FF7774" />
    <path d="M5.7274 11.4286H4.29883V12.8572H5.7274V11.4286Z" fill="#FF7774" />
    <path d="M5.7274 10H4.29883V11.4286H5.7274V10Z" fill="#FF7774" />
    <path d="M5.7274 8.57141H4.29883V9.99998H5.7274V8.57141Z" fill="#FF7774" />
    <path d="M5.7274 7.14282H4.29883V8.57139H5.7274V7.14282Z" fill="#FF7774" />
    <path
        d="M17.1297 5.7143V4.28573H15.7011V2.85716H14.2726V1.42859H12.844H11.4414H10.0128H8.58426H7.15569H5.72712V2.85716H4.29855V4.28573H2.86998V5.7143H1.44141V7.14287V8.57145V10V11.4286V12.8572V14.2857H2.86998V15.7143V17.1429H4.29855H5.72712V18.5714H7.15569H8.58426H10.0128H11.4414H12.87H14.2985V17.1429H15.7271V15.7143H17.1557V14.2857H18.5843V12.8572V11.4286V10V8.57145V7.14287V5.7143H17.1297ZM17.1297 8.57145V10V11.4286V12.8572H15.7011V14.2857H14.2726V15.7143H12.844V17.1429H11.4414H10.0128H8.58426H7.15569V15.7143H5.72712V14.2857H4.29855V12.8572H2.86998V11.4286V10V8.57145V7.14287H4.29855V5.7143H5.72712V4.28573H7.15569V2.85716H8.58426H10.0128H11.4414H12.87V4.28573H14.2985V5.7143H15.7271V7.14287H17.1557V8.57145H17.1297Z"
        fill="#FFD393" />
    <path
        d="M15.7006 10.0001V8.5715V7.14293H14.272V5.71436H12.8434H11.4408H10.0123H8.58371H7.15513V7.14293H5.72656V8.5715V10.0001V11.4286V12.8572V14.2858H7.15513V15.7144H8.58371H10.0123H11.4408H12.8694V14.2858H14.298V12.8572H15.7266V11.4286V10.0001H15.7006ZM11.4408 12.8572V14.2858H10.0123H8.58371V12.8572V11.4286H7.15513V10.0001V8.5715H8.58371V7.14293H10.0123H11.4408V8.5715H12.8694V10.0001V11.4286V12.8572H11.4408Z"
        fill="#FFD393" />
    <path d="M18.5585 12.8572H17.1299V14.2857H18.5585V12.8572Z" fill="#FFBE82" />
    <path d="M18.5585 11.4286H17.1299V12.8572H18.5585V11.4286Z" fill="#C47565" />
    <path d="M18.5585 10H17.1299V11.4286H18.5585V10Z" fill="#FFBE82" />
    <path d="M18.5585 8.57141H17.1299V9.99998H18.5585V8.57141Z" fill="#C47565" />
    <path d="M18.5585 7.14282H17.1299V8.57139H18.5585V7.14282Z" fill="#FFBE82" />
    <path d="M18.5585 5.71423H17.1299V7.1428H18.5585V5.71423Z" fill="#FFBE82" />
    <path d="M17.1297 14.2858H15.7012V15.7143H17.1297V14.2858Z" fill="#C47565" />
    <path d="M17.1297 12.8572H15.7012V14.2857H17.1297V12.8572Z" fill="#FFBE82" />
    <path d="M15.701 15.7142H14.2725V17.1428H15.701V15.7142Z" fill="#C47565" />
    <path d="M15.701 14.2858H14.2725V15.7143H15.701V14.2858Z" fill="#FFBE82" />
    <path d="M15.701 10H14.2725V11.4286H15.701V10Z" fill="#F0916C" />
    <path d="M15.701 8.57141H14.2725V9.99998H15.701V8.57141Z" fill="#F0916C" />
    <path d="M15.701 2.85718H14.2725V4.28575H15.701V2.85718Z" fill="#F0916C" />
    <path d="M14.2987 17.1428H12.8701V18.5714H14.2987V17.1428Z" fill="#F0916C" />
    <path d="M14.2987 15.7142H12.8701V17.1428H14.2987V15.7142Z" fill="#FFBE82" />
    <path d="M12.87 11.4286H11.4414V12.8572H12.87V11.4286Z" fill="#C47565" />
    <path d="M12.87 10H11.4414V11.4286H12.87V10Z" fill="#FFEAC8" />
    <path d="M12.87 8.57141H11.4414V9.99998H12.87V8.57141Z" fill="#FFEAC8" />
    <path d="M12.87 4.28577H11.4414V5.71434H12.87V4.28577Z" fill="#C47565" />
    <path d="M11.4413 12.8572H10.0127V14.2857H11.4413V12.8572Z" fill="#C47565" />
    <path d="M11.4413 11.4286H10.0127V12.8572H11.4413V11.4286Z" fill="#FFEAC8" />
    <path d="M11.4413 10H10.0127V11.4286H11.4413V10Z" fill="#FFEAC8" />
    <path d="M11.4413 8.57141H10.0127V9.99998H11.4413V8.57141Z" fill="#FFEAC8" />
    <path d="M11.4413 7.14282H10.0127V8.57139H11.4413V7.14282Z" fill="#FFEAC8" />
    <path d="M11.4413 4.28577H10.0127V5.71434H11.4413V4.28577Z" fill="#C47565" />
    <path d="M10.0126 12.8572H8.58398V14.2857H10.0126V12.8572Z" fill="#C47565" />
    <path d="M10.0126 11.4286H8.58398V12.8572H10.0126V11.4286Z" fill="#FFEAC8" />
    <path d="M10.0126 10H8.58398V11.4286H10.0126V10Z" fill="#FFEAC8" />
    <path d="M10.0126 8.57141H8.58398V9.99998H10.0126V8.57141Z" fill="#FFEAC8" />
    <path d="M10.0126 7.14282H8.58398V8.57139H10.0126V7.14282Z" fill="#FFEAC8" />
    <path d="M10.0126 4.28577H8.58398V5.71434H10.0126V4.28577Z" fill="#C47565" />
    <path d="M8.58384 10H7.15527V11.4286H8.58384V10Z" fill="#FFEAC8" />
    <path d="M8.58384 8.57141H7.15527V9.99998H8.58384V8.57141Z" fill="#FFEAC8" />
    <path d="M8.58384 4.28577H7.15527V5.71434H8.58384V4.28577Z" fill="#C47565" />
    <path d="M7.15513 5.71423H5.72656V7.1428H7.15513V5.71423Z" fill="#C47565" />
    <path d="M5.7274 15.7142H4.29883V17.1428H5.7274V15.7142Z" fill="#FFBE82" />
    <path d="M5.7274 11.4286H4.29883V12.8572H5.7274V11.4286Z" fill="#C47565" />
    <path d="M5.7274 10H4.29883V11.4286H5.7274V10Z" fill="#C47565" />
    <path d="M5.7274 8.57141H4.29883V9.99998H5.7274V8.57141Z" fill="#C47565" />
    <path d="M5.7274 7.14282H4.29883V8.57139H5.7274V7.14282Z" fill="#C47565" />
    <path d="M7.15513 1.42859H5.72656V2.85716H7.15513V1.42859Z" fill="#FFEAC8" />
    <path d="M5.7274 2.85718H4.29883V4.28575H5.7274V2.85718Z" fill="#FFEAC8" />
    <path d="M4.29869 4.28577H2.87012V5.71434H4.29869V4.28577Z" fill="#FFEAC8" />
    <path
        d="M1.44141 7.14293V8.5715V10.0001V11.4286V12.8572H2.86998V11.4286V10.0001V8.5715V7.14293V5.71436H1.44141V7.14293Z"
        fill="#FFEAC8" />
    <path d="M17.1297 11.4286H15.7012V12.8572H17.1297V11.4286Z" fill="#C47565" />
    <path d="M17.1297 10H15.7012V11.4286H17.1297V10Z" fill="#C47565" />
    <path d="M17.1297 8.57141H15.7012V9.99998H17.1297V8.57141Z" fill="#C47565" />
    <path d="M17.1297 7.14282H15.7012V8.57139H17.1297V7.14282Z" fill="#C47565" />
    <path d="M15.701 12.8572H14.2725V14.2857H15.701V12.8572Z" fill="#C47565" />
    <path d="M15.701 10H14.2725V11.4286H15.701V10Z" fill="#FFBE82" />
    <path d="M15.701 8.57141H14.2725V9.99998H15.701V8.57141Z" fill="#FFBE82" />
    <path d="M15.701 5.71423H14.2725V7.1428H15.701V5.71423Z" fill="#C47565" />
    <path d="M14.2987 14.2858H12.8701V15.7143H14.2987V14.2858Z" fill="#C47565" />
    <path d="M14.2987 12.8572H12.8701V14.2857H14.2987V12.8572Z" fill="#FFBE82" />
    <path d="M14.2987 7.14282H12.8701V8.57139H14.2987V7.14282Z" fill="#FFBE82" />
    <path d="M14.2987 4.28577H12.8701V5.71434H14.2987V4.28577Z" fill="#C47565" />
    <path d="M12.87 15.7142H11.4414V17.1428H12.87V15.7142Z" fill="#C47565" />
    <path d="M12.87 10H11.4414V11.4286H12.87V10Z" fill="#C47565" />
    <path d="M12.87 8.57141H11.4414V9.99998H12.87V8.57141Z" fill="#C47565" />
    <path d="M12.87 2.85718H11.4414V4.28575H12.87V2.85718Z" fill="#C47565" />
    <path d="M11.4413 15.7142H10.0127V17.1428H11.4413V15.7142Z" fill="#C47565" />
    <path d="M11.4413 11.4286H10.0127V12.8572H11.4413V11.4286Z" fill="#C47565" />
    <path d="M11.4413 10H10.0127V11.4286H11.4413V10Z" fill="#FFBE82" />
    <path d="M11.4413 8.57141H10.0127V9.99998H11.4413V8.57141Z" fill="#FFBE82" />
    <path d="M11.4413 7.14282H10.0127V8.57139H11.4413V7.14282Z" fill="#C47565" />
    <path d="M11.4413 2.85718H10.0127V4.28575H11.4413V2.85718Z" fill="#C47565" />
    <path d="M10.0126 15.7142H8.58398V17.1428H10.0126V15.7142Z" fill="#C47565" />
    <path d="M10.0126 11.4286H8.58398V12.8572H10.0126V11.4286Z" fill="#C47565" />
    <path d="M10.0126 10H8.58398V11.4286H10.0126V10Z" fill="#FFBE82" />
    <path d="M10.0126 7.14282H8.58398V8.57139H10.0126V7.14282Z" fill="#C47565" />
    <path d="M10.0126 2.85718H8.58398V4.28575H10.0126V2.85718Z" fill="#C47565" />
    <path d="M8.58384 15.7142H7.15527V17.1428H8.58384V15.7142Z" fill="#C47565" />
    <path d="M8.58384 14.2858H7.15527V15.7143H8.58384V14.2858Z" fill="#FFBE82" />
    <path d="M8.58384 10H7.15527V11.4286H8.58384V10Z" fill="#C47565" />
    <path d="M8.58384 8.57141H7.15527V9.99998H8.58384V8.57141Z" fill="#C47565" />
    <path d="M8.58384 2.85718H7.15527V4.28575H8.58384V2.85718Z" fill="#C47565" />
    <path d="M7.15513 14.2858H5.72656V15.7143H7.15513V14.2858Z" fill="#C47565" />
    <path d="M7.15513 4.28577H5.72656V5.71434H7.15513V4.28577Z" fill="#C47565" />
    <path d="M5.7274 12.8572H4.29883V14.2857H5.7274V12.8572Z" fill="#C47565" />
    <path d="M18.5585 11.4286H17.1299V12.8572H18.5585V11.4286Z" fill="#FFAF7C" />
    <path d="M18.5585 8.57153H17.1299V10.0001H18.5585V8.57153Z" fill="#FFAF7C" />
    <path d="M17.1297 14.2858H15.7012V15.7143H17.1297V14.2858Z" fill="#FFAF7C" />
    <path d="M15.701 15.7144H14.2725V17.1429H15.701V15.7144Z" fill="#FFAF7C" />
    <path d="M12.87 11.4286H11.4414V12.8572H12.87V11.4286Z" fill="#FFAF7C" />
    <path
        d="M10.0134 4.28577H8.58482H7.15625V5.71434H8.58482H10.0134H11.442H12.8705V4.28577H11.442H10.0134Z"
        fill="#FFAF7C" />
    <path d="M8.58496 12.8572V14.2857H10.0135H11.4421V12.8572H10.0135H8.58496Z" fill="#FFAF7C" />
    <path d="M7.15611 5.71436H5.72754V7.14293H7.15611V5.71436Z" fill="#FFAF7C" />
    <path
        d="M4.29883 8.57152V10.0001V11.4287V12.8572H5.7274V11.4287V10.0001V8.57152V7.14294H4.29883V8.57152Z"
        fill="#FFAF7C" />
    <path d="M5.7274 5.71423H4.29883V7.1428H5.7274V5.71423Z" fill="#C47565" />
    <path d="M4.29869 11.4286H2.87012V12.8572H4.29869V11.4286Z" fill="#C47565" />
    <path d="M4.29869 10H2.87012V11.4286H4.29869V10Z" fill="#C47565" />
    <path d="M4.29869 8.57141H2.87012V9.99998H4.29869V8.57141Z" fill="#C47565" />
    <path d="M4.29869 7.14282H2.87012V8.57139H4.29869V7.14282Z" fill="#C47565" />
    <path
        d="M15.7012 8.57139V9.99997V11.4285V12.8571H17.1297V11.4285V9.99997V8.57139V7.14282H15.7012V8.57139Z"
        fill="#0D1615" />
    <path d="M15.701 12.8572H14.2725V14.2857H15.701V12.8572Z" fill="#0D1615" />
    <path d="M15.701 5.71423H14.2725V7.1428H15.701V5.71423Z" fill="#0D1615" />
    <path d="M14.2987 14.2858H12.8701V15.7143H14.2987V14.2858Z" fill="#0D1615" />
    <path d="M14.2987 4.28577H12.8701V5.71434H14.2987V4.28577Z" fill="#0D1615" />
    <path
        d="M10.0124 15.7142H8.58384H7.15527V17.1428H8.58384H10.0124H11.441H12.8696V15.7142H11.441H10.0124Z"
        fill="#0D1615" />
    <path
        d="M10.0124 4.28575H11.441H12.8696V2.85718H11.441H10.0124H8.58384H7.15527V4.28575H8.58384H10.0124Z"
        fill="#0D1615" />
    <path d="M7.15513 14.2858H5.72656V15.7143H7.15513V14.2858Z" fill="#0D1615" />
    <path d="M7.15513 4.28577H5.72656V5.71434H7.15513V4.28577Z" fill="#0D1615" />
    <path d="M5.7274 12.8572H4.29883V14.2857H5.7274V12.8572Z" fill="#0D1615" />
    <path d="M5.7274 5.71423H4.29883V7.1428H5.7274V5.71423Z" fill="#0D1615" />
    <path
        d="M4.29869 9.99997V8.57139V7.14282H2.87012V8.57139V9.99997V11.4285V12.8571H4.29869V11.4285V9.99997Z"
        fill="#0D1615" />
    <path
        d="M18.5586 5.71423V7.1428V8.57138V9.99995V11.4285V12.8571V14.2857H19.9872V12.8571V11.4285V9.99995V8.57138V7.1428V5.71423H18.5586Z"
        fill="#0D1615" />
    <path d="M18.5585 14.2858H17.1299V15.7143H18.5585V14.2858Z" fill="#0D1615" />
    <path d="M18.5585 4.28577H17.1299V5.71434H18.5585V4.28577Z" fill="#0D1615" />
    <path d="M17.1297 15.7142H15.7012V17.1428H17.1297V15.7142Z" fill="#0D1615" />
    <path d="M17.1297 2.85718H15.7012V4.28575H17.1297V2.85718Z" fill="#0D1615" />
    <path d="M15.701 17.1428H14.2725V18.5714H15.701V17.1428Z" fill="#0D1615" />
    <path d="M15.701 1.42859H14.2725V2.85716H15.701V1.42859Z" fill="#0D1615" />
    <path
        d="M11.4408 18.5714H10.0123H8.58371H7.15513H5.72656V20H7.15513H8.58371H10.0123H11.4408H12.8694H14.272V18.5714H12.8694H11.4408Z"
        fill="#0D1615" />
    <path
        d="M8.58371 1.42857H10.0123H11.4408H12.8694H14.272V0H12.8694H11.4408H10.0123H8.58371H7.15513H5.72656V1.42857H7.15513H8.58371Z"
        fill="#0D1615" />
    <path d="M5.7274 17.1428H4.29883V18.5714H5.7274V17.1428Z" fill="#0D1615" />
    <path d="M5.7274 1.42859H4.29883V2.85716H5.7274V1.42859Z" fill="#0D1615" />
    <path d="M4.29869 15.7142H2.87012V17.1428H4.29869V15.7142Z" fill="#0D1615" />
    <path d="M4.29869 2.85718H2.87012V4.28575H4.29869V2.85718Z" fill="#0D1615" />
    <path d="M2.86998 14.2858H1.44141V15.7143H2.86998V14.2858Z" fill="#0D1615" />
    <path d="M2.86998 4.28577H1.44141V5.71434H2.86998V4.28577Z" fill="#0D1615" />
    <path
        d="M1.44127 11.4285V9.99995V8.57138V7.1428V5.71423H0.0126953V7.1428V8.57138V9.99995V11.4285V12.8571V14.2857H1.44127V12.8571V11.4285Z"
        fill="#0D1615" />
</svg>
    