<svg width="20" height="20" viewBox="0 0 20 20" fill="none" xmlns="http://www.w3.org/2000/svg">
    <path d="M17.3301 17.3301H15.9951V18.665H17.3301H18.665V17.3301H17.3301Z" fill="#FFBE82" />
    <path d="M17.3301 15.9951H15.9951V17.3301H17.3301V15.9951Z" fill="#F0916C" />
    <path d="M15.9951 14.6602H14.6602V15.9951V17.3301H15.9951V15.9951H17.3301V14.6602H15.9951Z"
        fill="#FFBE82" />
    <path d="M15.9951 13.3252H14.6602V14.6601H15.9951V13.3252Z" fill="#C47565" />
    <path d="M15.9951 9.3446H14.6602V10.6796H15.9951V9.3446Z" fill="#C47565" />
    <path d="M14.6601 15.9951H13.3252V17.3301H14.6601V15.9951Z" fill="#C47565" />
    <path d="M13.3252 14.6602H11.9902V15.9951H13.3252V14.6602Z" fill="#FFEAC8" />
    <path d="M13.3252 9.3446H11.9902V10.6796H13.3252V9.3446Z" fill="#F0916C" />
    <path
        d="M15.9951 8.00976H14.6601H13.3252V6.6748H11.9902V8.00976V9.34471H13.3252V10.6554H11.9902H10.6553V11.9903H11.9902H13.3252V13.3253H11.9902H10.6553V14.6602H11.9902H13.3252H14.6601V13.3253V11.9903V10.6554V9.34471H15.9951H17.33V8.00976H15.9951Z"
        fill="#FFBE82" />
    <path d="M11.9902 8.00977H10.6553V9.34472H11.9902V8.00977Z" fill="#FFEAC8" />
    <path d="M10.6553 4.00488V5.33983V6.67479H11.9902V5.33983V4.00488H10.6553Z" fill="#FFBE82" />
    <path d="M9.3203 14.6602H7.98535V15.9951H9.3203V14.6602Z" fill="#FFBE82" />
    <path d="M9.3203 13.3252H7.98535V14.6601H9.3203V13.3252Z" fill="#FFBE82" />
    <path d="M9.3203 5.33984H7.98535V6.6748H9.3203V5.33984Z" fill="#FFEAC8" />
    <path d="M9.3203 4.00488H7.98535V5.33983H9.3203V4.00488Z" fill="#F0916C" />
    <path d="M7.98534 14.6602H6.65039V15.9951H7.98534V14.6602Z" fill="#F0916C" />
    <path d="M7.98534 6.6748H6.65039V8.00976H7.98534V6.6748Z" fill="#FFEAC8" />
    <path d="M6.65038 15.9951H5.31543V17.3301H6.65038V15.9951Z" fill="#FFBE82" />
    <path d="M6.65038 10.6554H5.31543V11.9903H6.65038V10.6554Z" fill="#C47565" />
    <path d="M5.31542 15.9951H3.98047V17.3301H5.31542V15.9951Z" fill="#C47565" />
    <path d="M5.31542 13.3252H3.98047V14.6601H5.31542V13.3252Z" fill="#FFEAC8" />
    <path d="M5.31542 8.00977H3.98047V9.34472H5.31542V8.00977Z" fill="#FFEAC8" />
    <path d="M3.98046 17.3301H2.64551V18.665H3.98046V17.3301Z" fill="#FFBE82" />
    <path d="M3.98046 14.6602H2.64551V15.9951H3.98046V14.6602Z" fill="#FFEAC8" />
    <path d="M14.6601 14.6602H13.3252V15.9951H14.6601V14.6602Z" fill="#FFD393" />
    <path d="M11.9902 14.6602H10.6553V15.9951H11.9902V14.6602Z" fill="#FFD393" />
    <path
        d="M11.9902 13.3253H13.3251V11.9903H11.9902H10.6552V10.6553H11.9902V9.34467H10.6552V8.00972H11.9902V6.67477H10.6552V5.33982V4.00486V2.66991V1.33496H9.32027V2.66991V4.00486V5.33982V6.67477H7.98532V8.00972H6.65037H5.31542V9.34467H3.98047V10.6553H5.31542H6.65037V11.9903H5.31542V13.3253V14.6602H3.98047V15.9952H5.31542H6.65037V14.6602H7.98532V13.3253H9.32027V14.6602H10.6552V13.3253H11.9902Z"
        fill="#FFD393" />
    <path d="M3.98046 15.9951H2.64551V17.3301H3.98046V15.9951Z" fill="#FFD393" />
    <path d="M3.98046 8.00977H2.64551V9.34472H3.98046V8.00977Z" fill="#FFD393" />
    <path d="M2.66991 17.3301H1.33496V18.665H2.66991V17.3301Z" fill="#FFD393" />
    <path d="M17.3301 18.665H15.9951V20H17.3301H18.665H20V18.665V17.3301H18.665V18.665H17.3301Z"
        fill="#0D1615" />
    <path d="M17.3301 17.3301H18.665V15.9951V14.6602H17.3301V15.9951V17.3301Z" fill="#0D1615" />
    <path d="M17.3301 13.3252H15.9951V14.6601H17.3301V13.3252Z" fill="#0D1615" />
    <path d="M17.3301 9.3446H15.9951V10.6796H17.3301V9.3446Z" fill="#0D1615" />
    <path d="M14.6601 17.3301H13.3252V18.665H14.6601H15.9951V17.3301H14.6601Z" fill="#0D1615" />
    <path d="M15.9951 10.6554H14.6602V11.9903V13.3253H15.9951V11.9903V10.6554Z" fill="#0D1615" />
    <path
        d="M14.6601 8.00976H15.9951H17.33V9.34471H18.665V8.00976H20V6.6748H18.665H17.33H15.9951H14.6601H13.3252V8.00976H14.6601Z"
        fill="#0D1615" />
    <path d="M11.9902 15.9951H10.6553V17.3301H11.9902H13.3252V15.9951H11.9902Z" fill="#0D1615" />
    <path d="M11.9902 6.67479H13.3252V5.33983V4.00488H11.9902V5.33983V6.67479Z" fill="#0D1615" />
    <path d="M10.6553 4.00486H11.9902V2.66991V1.33496H10.6553V2.66991V4.00486Z" fill="#0D1615" />
    <path d="M10.6553 14.6602H9.32031V15.9951H10.6553V14.6602Z" fill="#0D1615" />
    <path d="M10.6553 0H9.32031V1.33495H10.6553V0Z" fill="#0D1615" />
    <path d="M9.3203 2.66991V1.33496H7.98535V2.66991V4.00486H9.3203V2.66991Z" fill="#0D1615" />
    <path d="M6.65039 15.9951V17.3301H7.98534H9.32029V15.9951H7.98534H6.65039Z" fill="#0D1615" />
    <path d="M7.98534 5.33983V4.00488H6.65039V5.33983V6.67479H7.98534V5.33983Z" fill="#0D1615" />
    <path d="M3.98047 17.3301V18.665H5.31542H6.65037V17.3301H5.31542H3.98047Z" fill="#0D1615" />
    <path d="M5.31542 11.9903V10.6554H3.98047V11.9903V13.3253H5.31542V11.9903Z" fill="#0D1615" />
    <path d="M3.98046 13.3252H2.64551V14.6601H3.98046V13.3252Z" fill="#0D1615" />
    <path d="M3.98046 9.3446H2.64551V10.6796H3.98046V9.3446Z" fill="#0D1615" />
    <path
        d="M3.98058 8.00976H5.31553H6.65048V6.6748H5.31553H3.98058H2.64563H1.33495H0V8.00976H1.33495V9.34471H2.64563V8.00976H3.98058Z"
        fill="#0D1615" />
    <path d="M1.33495 18.665V17.3301H0V18.665V20H1.33495H2.64563H3.98058V18.665H2.64563H1.33495Z"
        fill="#0D1615" />
    <path d="M2.64564 15.9951V14.6602H1.33496V15.9951V17.3301H2.64564V15.9951Z" fill="#0D1615" />
</svg>
    