<svg width="20" height="18" viewBox="0 0 20 18" fill="none" xmlns="http://www.w3.org/2000/svg">
    <path
        d="M17.1392 4.69568V3.29126H15.7088V4.69568V6.12611H14.2784V7.55654H15.7088V8.98697H14.2784H12.8479V10.4174H11.4175V11.8478V13.2783H9.98707V14.7087H8.55664V16.1391H9.98707H11.4175V14.7087H12.8479V13.2783H14.2784V11.8478H15.7088V10.4174H17.1392V8.98697H18.5696V7.55654V6.12611V4.69568H17.1392Z"
        fill="#F42A5A" />
    <path d="M15.7087 1.86084H14.2783V3.29127H15.7087V1.86084Z" fill="#F42A5A" />
    <path d="M14.2781 4.69568H12.8477V6.12611H14.2781V4.69568Z" fill="#F42A5A" />
    <path d="M11.4177 7.55652H9.9873V8.98695H11.4177V7.55652Z" fill="#F42A5A" />
    <path d="M9.98707 11.8479H8.55664V13.2783H9.98707V11.8479Z" fill="#F42A5A" />
    <path d="M5.69605 6.1261H4.26562V7.55653H5.69605V6.1261Z" fill="#FFABB1" />
    <path d="M5.69605 3.29126H4.26562V4.72169H5.69605V3.29126Z" fill="#FFABB1" />
    <path d="M4.26539 4.69568H2.83496V6.12611H4.26539V4.69568Z" fill="#FFABB1" />
    <path
        d="M14.2782 3.29127V1.86084H12.8477H11.4173V3.29127H9.98687H8.55644V1.86084H7.12601H5.69558H4.26516V3.29127H5.69558V4.7217H4.26516V6.15213H5.69558V7.58256H4.26516V6.15213H2.83473V4.7217H1.4043V6.15213V7.58256V9.01299H2.83473V10.4434H4.26516V11.8738H5.69558V13.3043H7.12601V14.7347H8.55644H9.98687V13.3043H8.55644V11.8738H9.98687V13.3043H11.4173V11.8738V10.4434H12.8477V9.01299H14.2782H15.7086V7.58256H14.2782V6.15213H12.8477V4.7217H14.2782V6.15213H15.7086V4.7217V3.29127H14.2782ZM9.98687 8.98698V7.55655H11.4173V8.98698H9.98687Z"
        fill="#FF6A85" />
    <path d="M4.26539 3.29126H2.83496V4.72169H4.26539V3.29126Z" fill="#FF6A85" />
    <path d="M18.5693 4.69568V6.12611V7.55654V8.98697H19.9998V7.55654V6.12611V4.69568H18.5693Z"
        fill="#0D1615" />
    <path d="M18.5691 8.98694H17.1387V10.4174H18.5691V8.98694Z" fill="#0D1615" />
    <path d="M18.5691 3.29126H17.1387V4.72169H18.5691V3.29126Z" fill="#0D1615" />
    <path d="M17.1394 10.4175H15.709V11.8479H17.1394V10.4175Z" fill="#0D1615" />
    <path d="M17.1394 1.86084H15.709V3.29127H17.1394V1.86084Z" fill="#0D1615" />
    <path d="M15.7087 11.8479H14.2783V13.2783H15.7087V11.8479Z" fill="#0D1615" />
    <path d="M14.2781 13.2783H12.8477V14.7087H14.2781V13.2783Z" fill="#0D1615" />
    <path d="M14.2779 1.86085H15.7083V0.43042H14.2779H12.8474H11.417V1.86085H12.8474H14.2779Z"
        fill="#0D1615" />
    <path d="M12.8474 14.7087H11.417V16.1392H12.8474V14.7087Z" fill="#0D1615" />
    <path d="M8.55664 16.1392V17.5696H9.98707H11.4175V16.1392H9.98707H8.55664Z" fill="#0D1615" />
    <path d="M9.98707 3.29127H11.4175V1.86084H9.98707H8.55664V3.29127H9.98707Z" fill="#0D1615" />
    <path d="M8.55641 14.7087H7.12598V16.1392H8.55641V14.7087Z" fill="#0D1615" />
    <path d="M7.12574 13.2783H5.69531V14.7087H7.12574V13.2783Z" fill="#0D1615" />
    <path d="M7.12648 1.86085H8.55691V0.43042H7.12648H5.69605H4.26562V1.86085H5.69605H7.12648Z"
        fill="#0D1615" />
    <path d="M5.69605 11.8479H4.26562V13.2783H5.69605V11.8479Z" fill="#0D1615" />
    <path d="M4.26539 10.4175H2.83496V11.8479H4.26539V10.4175Z" fill="#0D1615" />
    <path d="M4.26539 1.86084H2.83496V3.29127H4.26539V1.86084Z" fill="#0D1615" />
    <path d="M2.83473 8.98694H1.4043V10.4174H2.83473V8.98694Z" fill="#0D1615" />
    <path d="M2.83473 3.29126H1.4043V4.72169H2.83473V3.29126Z" fill="#0D1615" />
    <path d="M1.40442 6.12611V4.69568H0V6.12611V7.55654V8.98697H1.40442V7.55654V6.12611Z"
        fill="#0D1615" />
</svg>
    