<svg width="20" height="16" viewBox="0 0 20 16" fill="none" xmlns="http://www.w3.org/2000/svg">
    <path
        d="M17.333 4.00008V2.66675H15.9997V4.00008H14.6663H13.333V2.66675H11.9997V4.00008H10.6663H9.33301H7.99967V2.66675H6.66634V4.00008H5.33301H3.99967H2.66634H1.33301V5.33341H2.66634H3.99967H5.33301H6.66634H7.99967H9.33301H10.6663H11.9997H13.333H14.6663H15.9997H17.333H18.6663V4.00008H17.333Z"
        fill="#9A9AE6" />
    <path d="M14.6663 1.33337H13.333V2.66671H14.6663V1.33337Z" fill="#9A9AE6" />
    <path
        d="M9.33301 6.66671V8.00004V9.33337V10.6667V12V13.3334V14.6667H10.6663V13.3334V12V10.6667V9.33337V8.00004V6.66671V5.33337H9.33301V6.66671Z"
        fill="#9A9AE6" />
    <path d="M10.6663 1.33337H9.33301V2.66671H10.6663V1.33337Z" fill="#9A9AE6" />
    <path d="M6.66634 1.33337H5.33301V2.66671H6.66634V1.33337Z" fill="#9A9AE6" />
    <path d="M3.99935 2.66675H2.66602V4.00008H3.99935V2.66675Z" fill="#9A9AE6" />
    <path d="M16.0003 6.66663H14.667V7.99996H16.0003V6.66663Z" fill="#C0C0F3" />
    <path d="M14.6663 9.33337H13.333V10.6667H14.6663V9.33337Z" fill="#C0C0F3" />
    <path d="M14.6663 5.33337H13.333V6.66671H14.6663V5.33337Z" fill="white" />
    <path d="M13.3333 9.33337H12V10.6667H13.3333V9.33337Z" fill="#C0C0F3" />
    <path d="M13.3333 1.33337H12V2.66671H13.3333V1.33337Z" fill="white" />
    <path
        d="M17.3327 5.33337H15.9993H14.666H13.3327H11.9993H10.666V6.66671V8.00004V9.33337V10.6667V12V13.3334H11.9993V12H13.3327V10.6667H14.666V9.33337H15.9993V8.00004H17.3327V6.66671H18.666V5.33337H17.3327Z"
        fill="#EAE8FC" />
    <path d="M14.6663 4.00004H15.9997V2.66671V1.33337H14.6663V2.66671H13.333V4.00004H14.6663Z"
        fill="#EAE8FC" />
    <path
        d="M11.9993 4.00004V2.66671H13.3327V1.33337H11.9993H10.666V2.66671H9.33268V1.33337H7.99935H6.66602V2.66671H7.99935V4.00004H9.33268H10.666H11.9993Z"
        fill="#EAE8FC" />
    <path
        d="M6.66634 5.33337H5.33301H3.99967H2.66634H1.33301V6.66671H2.66634V8.00004H3.99967V9.33337H5.33301V10.6667H6.66634V12H7.99967V13.3334H9.33301V12V10.6667V9.33337V8.00004V6.66671V5.33337H7.99967H6.66634Z"
        fill="#EAE8FC" />
    <path d="M5.33333 1.33337H4V2.66671V4.00004H5.33333H6.66667V2.66671H5.33333V1.33337Z"
        fill="#EAE8FC" />
    <path d="M9.33333 2.66663H8V3.99996H9.33333V2.66663Z" fill="white" />
    <path d="M9.33333 1.33337H8V2.66671H9.33333V1.33337Z" fill="#C0C0F3" />
    <path d="M8.00033 10.6666H6.66699V12H8.00033V10.6666Z" fill="white" />
    <path d="M8.00033 8H6.66699V9.33333H8.00033V8Z" fill="#C0C0F3" />
    <path d="M8.00033 6.66663H6.66699V7.99996H8.00033V6.66663Z" fill="white" />
    <path d="M6.66634 9.33337H5.33301V10.6667H6.66634V9.33337Z" fill="white" />
    <path d="M5.33333 8H4V9.33333H5.33333V8Z" fill="white" />
    <path d="M18.6663 5.33337H17.333V6.66671H18.6663V5.33337Z" fill="#DBD7FC" />
    <path d="M17.3333 6.66675H16V8.00008H17.3333V6.66675Z" fill="#DBD7FC" />
    <path d="M16.0003 5.33337H14.667V6.66671H16.0003V5.33337Z" fill="#DBD7FC" />
    <path d="M16.0003 2.66675H14.667V4.00008H16.0003V2.66675Z" fill="#DBD7FC" />
    <path d="M14.6663 8H13.333V9.33333H14.6663V8Z" fill="#DBD7FC" />
    <path
        d="M12.0003 6.66671V5.33337H10.667V6.66671V8.00004V9.33337V10.6667H12.0003V9.33337V8.00004H13.3337V6.66671H12.0003Z"
        fill="#DBD7FC" />
    <path d="M12.0003 12H10.667V13.3333H12.0003V12Z" fill="#DBD7FC" />
    <path d="M12.0003 2.66675H10.667V4.00008H12.0003V2.66675Z" fill="#DBD7FC" />
    <path d="M9.33333 10.6667H8V12.0001H9.33333V10.6667Z" fill="#DBD7FC" />
    <path d="M8.00033 1.33337H6.66699V2.66671H8.00033V1.33337Z" fill="#DBD7FC" />
    <path d="M6.66634 2.66675H5.33301V4.00008H6.66634V2.66675Z" fill="#DBD7FC" />
    <path d="M5.33333 6.66675H4V8.00008H5.33333V6.66675Z" fill="#DBD7FC" />
    <path
        d="M17.3333 3.99996V2.66663H16V3.99996H14.6667H13.3333H12V5.33329H13.3333H14.6667H16H17.3333H18.6667V3.99996H17.3333Z"
        fill="#8E8EC7" />
    <path d="M16.0003 8H14.667V9.33333H16.0003V8Z" fill="#8E8EC7" />
    <path d="M13.3333 10.6666H12V12H13.3333V10.6666Z" fill="#8E8EC7" />
    <path d="M10.6663 9.33325H9.33301V10.6666H10.6663V9.33325Z" fill="#8E8EC7" />
    <path d="M10.6663 5.33325H9.33301V6.66659H10.6663V5.33325Z" fill="#8E8EC7" />
    <path d="M5.33333 4H4V5.33333H5.33333V4Z" fill="#8E8EC7" />
    <path d="M5.33333 1.33337H4V2.66671H5.33333V1.33337Z" fill="white" />
    <path d="M4.00033 6.66663H2.66699V7.99996H4.00033V6.66663Z" fill="white" />
    <path d="M2.66634 5.33337H1.33301V6.66671H2.66634V5.33337Z" fill="white" />
    <path d="M18.667 4V5.33333V6.66667H20.0003V5.33333V4H18.667Z" fill="#0D1615" />
    <path d="M18.6663 6.66663H17.333V7.99996H18.6663V6.66663Z" fill="#0D1615" />
    <path d="M17.3333 8H16V9.33333H17.3333V8Z" fill="#0D1615" />
    <path d="M16.0003 9.33337H14.667V10.6667H16.0003V9.33337Z" fill="#0D1615" />
    <path d="M14.6663 10.6666H13.333V12H14.6663V10.6666Z" fill="#0D1615" />
    <path d="M13.3333 12H12V13.3333H13.3333V12Z" fill="#0D1615" />
    <path d="M12.0003 13.3334H10.667V14.6667H12.0003V13.3334Z" fill="#0D1615" />
    <path d="M10.6663 14.6666H9.33301V16H10.6663V14.6666Z" fill="#0D1615" />
    <path d="M9.33333 13.3334H8V14.6667H9.33333V13.3334Z" fill="#0D1615" />
    <path d="M8.00033 12H6.66699V13.3333H8.00033V12Z" fill="#0D1615" />
    <path d="M6.66634 10.6666H5.33301V12H6.66634V10.6666Z" fill="#0D1615" />
    <path d="M5.33333 9.33337H4V10.6667H5.33333V9.33337Z" fill="#0D1615" />
    <path d="M4.00033 8H2.66699V9.33333H4.00033V8Z" fill="#0D1615" />
    <path d="M2.66634 6.66663H1.33301V7.99996H2.66634V6.66663Z" fill="#0D1615" />
    <path d="M1.33333 4H0V5.33333V6.66667H1.33333V5.33333V4Z" fill="#0D1615" />
    <path d="M2.66634 2.66663H1.33301V3.99996H2.66634V2.66663Z" fill="#0D1615" />
    <path d="M18.6663 2.66663H17.333V3.99996H18.6663V2.66663Z" fill="#0D1615" />
    <path d="M17.3333 1.33337H16V2.66671H17.3333V1.33337Z" fill="#0D1615" />
    <path d="M4.00033 1.33337H2.66699V2.66671H4.00033V1.33337Z" fill="#0D1615" />
    <path
        d="M6.66667 1.33333H8H9.33333H10.6667H12H13.3333H14.6667H16V0H14.6667H13.3333H12H10.6667H9.33333H8H6.66667H5.33333H4V1.33333H5.33333H6.66667Z"
        fill="#0D1615" />
</svg>
    