<svg width="14" height="14" viewBox="0 0 14 14" fill="none" xmlns="http://www.w3.org/2000/svg">
    <circle cx="5.25033" cy="3.49996" r="2.33333" fill="#0D1615" />
    <ellipse cx="5.25033" cy="9.9172" rx="4.08333" ry="2.33333" fill="#0D1615" />
    <path
        d="M12.2493 9.91699C12.2493 10.8835 11.0619 11.667 9.61218 11.667C10.0393 11.2001 10.333 10.6141 10.333 9.9178C10.333 9.22069 10.0386 8.63413 9.6107 8.16701C11.0604 8.16701 12.2493 8.95049 12.2493 9.91699Z"
        fill="#0D1615" />
    <path
        d="M10.4993 3.50049C10.4993 4.46699 9.71583 5.25049 8.74934 5.25049C8.53859 5.25049 8.33654 5.21323 8.14941 5.14495C8.42538 4.65956 8.58299 4.09811 8.58299 3.49984C8.58299 2.90201 8.42561 2.34094 8.15003 1.8558C8.33698 1.78766 8.53882 1.75049 8.74934 1.75049C9.71583 1.75049 10.4993 2.53399 10.4993 3.50049Z"
        fill="#0D1615" />
</svg>
    