<svg width="18" height="18" viewBox="0 0 18 18" fill="none" xmlns="http://www.w3.org/2000/svg">
    <path d="M6.87668 9.0071H5.81837V10.1277H6.87668V9.0071Z" fill="white" />
    <path d="M7.93498 7.87234H6.87667V8.99291H7.93498V7.87234Z" fill="white" />
    <path d="M8.9933 6.75177H7.93499V7.87234H8.9933V6.75177Z" fill="white" />
    <path d="M5.80497 10.1277H4.74666V11.2482H5.80497V10.1277Z" fill="white" />
    <path d="M10.065 5.63121H9.0067V6.75178H10.065V5.63121Z" fill="white" />
    <path d="M14.3117 1.12057H13.2533V2.24113H14.3117V1.12057Z" fill="white" />
    <path d="M12.1816 3.37589H11.1233V4.49645H12.1816V3.37589Z" fill="white" />
    <path d="M11.1233 4.49646H10.065V5.61703H11.1233V4.49646Z" fill="white" />
    <path d="M13.2399 2.25533H12.1816V3.37589H13.2399V2.25533Z" fill="white" />
    <path d="M6.87668 15.7447H5.81837V16.8652H6.87668V15.7447Z" fill="black" />
    <path d="M2.61663 11.2482H1.55831V12.3688H2.61663V11.2482Z" fill="black" />
    <path d="M5.80497 12.3688H4.74666V13.4894H5.80497V12.3688Z" fill="black" />
    <path d="M4.74665 14.6241H3.68834V15.7447V16.8794H4.74665V15.7447H5.81836V14.6241H4.74665Z"
        fill="black" />
    <path d="M8.9933 12.3688H7.93499V13.4894H8.9933V12.3688Z" fill="black" />
    <path d="M5.81837 13.5035V14.6241H6.87668V15.7447H7.93499V13.5035H6.87668H5.81837Z" fill="black" />
    <path d="M13.2399 7.87234H12.1816V8.99291H13.2399V7.87234Z" fill="black" />
    <path d="M13.2399 1.12057H12.1816V2.24113H13.2399V1.12057Z" fill="black" />
    <path d="M15.37 1.12057H16.4417V2.25532V3.37589V4.49645H17.5V0H13.2533V1.12057H14.3117H15.37Z"
        fill="black" />
    <path d="M16.4283 4.49646H15.37V5.61703H16.4283V4.49646Z" fill="black" />
    <path d="M12.1816 2.25533H11.1233V3.37589H12.1816V2.25533Z" fill="black" />
    <path d="M11.1233 10.1277H10.065V11.2482H11.1233V10.1277Z" fill="black" />
    <path d="M10.065 11.2482H9.0067V12.3688H10.065V11.2482Z" fill="black" />
    <path d="M14.3117 6.75177H13.2533V7.87234H14.3117V6.75177Z" fill="black" />
    <path d="M15.37 5.63121H14.3117V6.75178H15.37V5.63121Z" fill="black" />
    <path d="M12.1816 9.0071H11.1233V10.1277H12.1816V9.0071Z" fill="black" />
    <path d="M11.1233 3.37589H10.065V4.49645H11.1233V3.37589Z" fill="black" />
    <path d="M5.80497 9.0071H4.74666V10.1277H5.80497V9.0071Z" fill="black" />
    <path d="M6.87668 7.87234H5.81837V8.99291H6.87668V7.87234Z" fill="black" />
    <path d="M3.68834 18V16.8794H2.63002H1.55831V18H3.68834Z" fill="black" />
    <path d="M3.68834 12.3688H4.74666V11.2482V10.1277H2.63003V11.2482H3.68834V12.3688Z" fill="black" />
    <path d="M1.55831 14.6241H0.5V16.8794H1.55831V15.7447V14.6241Z" fill="black" />
    <path d="M3.68834 14.6241V13.5035V12.3688H2.63002V13.5035H1.55831V14.6241H2.63002H3.68834Z"
        fill="black" />
    <path d="M7.93498 6.75177H6.87667V7.87234H7.93498V6.75177Z" fill="black" />
    <path d="M10.065 4.49646H9.0067V5.61703H10.065V4.49646Z" fill="black" />
    <path d="M8.9933 5.63121H7.93499V6.75178H8.9933V5.63121Z" fill="black" />
    <path d="M4.74665 12.3688H3.68834V13.4894H4.74665V12.3688Z" fill="#FFE077" />
    <path d="M3.68834 11.2482H2.63003V12.3688H3.68834V11.2482Z" fill="#FFE077" />
    <path d="M2.61663 14.6241H1.55831V15.7447H2.61663V14.6241Z" fill="#FFE077" />
    <path d="M3.68834 14.6241H2.63003V15.7447H3.68834V14.6241Z" fill="#FFA507" />
    <path d="M4.74665 13.5035H3.68834V14.6241H4.74665V13.5035Z" fill="#FFA507" />
    <path d="M2.61663 15.7447H1.55831V16.8652H2.61663V15.7447Z" fill="#FFA507" />
    <path d="M5.80497 13.5035H4.74666V14.6241H5.80497V13.5035Z" fill="#EEA47D" />
    <path d="M3.68834 15.7447H2.63003V16.8652H3.68834V15.7447Z" fill="#EEA47D" />
    <path d="M6.87668 14.6241H5.81837V15.7447H6.87668V14.6241Z" fill="#EEA47D" />
    <path d="M13.2399 6.75177H12.1816V7.87234H13.2399V6.75177Z" fill="#9EC1C3" />
    <path d="M12.1816 7.87234H11.1233V8.99291H12.1816V7.87234Z" fill="#9EC1C3" />
    <path d="M14.3117 5.63121H13.2533V6.75178H14.3117V5.63121Z" fill="#9EC1C3" />
    <path d="M15.37 4.49646H14.3117V5.61703H15.37V4.49646Z" fill="#9EC1C3" />
    <path d="M16.4283 3.37589H15.37V4.49645H16.4283V3.37589Z" fill="#9EC1C3" />
    <path d="M11.1233 9.0071H10.065V10.1277H11.1233V9.0071Z" fill="#9EC1C3" />
    <path d="M7.93498 12.3688H6.87667V13.4894H7.93498V12.3688Z" fill="#9EC1C3" />
    <path d="M8.9933 11.2482H7.93499V12.3688H8.9933V11.2482Z" fill="#9EC1C3" />
    <path d="M10.065 10.1277H9.0067V11.2482H10.065V10.1277Z" fill="#9EC1C3" />
    <path d="M11.1233 7.87234H10.065V8.99291H11.1233V7.87234Z" fill="#B7EAED" />
    <path d="M10.065 9.0071H9.0067V10.1277H10.065V9.0071Z" fill="#B7EAED" />
    <path d="M8.9933 10.1277H7.93499V11.2482H8.9933V10.1277Z" fill="#B7EAED" />
    <path d="M6.87668 12.3688H5.81837V13.4894H6.87668V12.3688Z" fill="#B7EAED" />
    <path d="M7.93498 11.2482H6.87667V12.3688H7.93498V11.2482Z" fill="#B7EAED" />
    <path d="M15.37 3.37589H14.3117V4.49645H15.37V3.37589Z" fill="#B7EAED" />
    <path d="M12.1816 6.75177H11.1233V7.87234H12.1816V6.75177Z" fill="#B7EAED" />
    <path d="M14.3117 4.49646H13.2533V5.61703H14.3117V4.49646Z" fill="#B7EAED" />
    <path d="M16.4283 2.25533H15.37V3.37589H16.4283V2.25533Z" fill="#B7EAED" />
    <path d="M13.2399 5.63121H12.1816V6.75178H13.2399V5.63121Z" fill="#B7EAED" />
    <path d="M13.2399 4.49646H12.1816V5.61703H13.2399V4.49646Z" fill="#CEF3F5" />
    <path d="M16.4283 1.12057H15.37V2.24113H16.4283V1.12057Z" fill="#CEF3F5" />
    <path d="M15.37 2.25533H14.3117V3.37589H15.37V2.25533Z" fill="#CEF3F5" />
    <path d="M12.1816 5.63121H11.1233V6.75178H12.1816V5.63121Z" fill="#CEF3F5" />
    <path d="M14.3117 3.37589H13.2533V4.49645H14.3117V3.37589Z" fill="#CEF3F5" />
    <path d="M8.9933 9.0071H7.93499V10.1277H8.9933V9.0071Z" fill="#CEF3F5" />
    <path d="M10.065 7.87234H9.0067V8.99291H10.065V7.87234Z" fill="#CEF3F5" />
    <path d="M6.87668 11.2482H5.81837V12.3688H6.87668V11.2482Z" fill="#CEF3F5" />
    <path d="M7.93498 10.1277H6.87667V11.2482H7.93498V10.1277Z" fill="#CEF3F5" />
    <path d="M11.1233 6.75177H10.065V7.87234H11.1233V6.75177Z" fill="#CEF3F5" />
    <path d="M14.3117 2.25533H13.2533V3.37589H14.3117V2.25533Z" fill="#F4FFF1" />
    <path d="M5.80497 11.2482H4.74666V12.3688H5.80497V11.2482Z" fill="#F4FFF1" />
    <path d="M11.1233 5.63121H10.065V6.75178H11.1233V5.63121Z" fill="#F4FFF1" />
    <path d="M12.1816 4.49646H11.1233V5.61703H12.1816V4.49646Z" fill="#F4FFF1" />
    <path d="M6.87668 10.1277H5.81837V11.2482H6.87668V10.1277Z" fill="#F4FFF1" />
    <path d="M15.37 1.12057H14.3117V2.24113H15.37V1.12057Z" fill="#F4FFF1" />
    <path d="M10.065 6.75177H9.0067V7.87234H10.065V6.75177Z" fill="#F4FFF1" />
    <path d="M8.9933 7.87234H7.93499V8.99291H8.9933V7.87234Z" fill="#F4FFF1" />
    <path d="M13.2399 3.37589H12.1816V4.49645H13.2399V3.37589Z" fill="#F4FFF1" />
    <path d="M7.93498 9.0071H6.87667V10.1277H7.93498V9.0071Z" fill="#F4FFF1" />
</svg>
    