<svg width="20" height="20" viewBox="0 0 20 20" fill="none" xmlns="http://www.w3.org/2000/svg">
    <path fill-rule="evenodd" clip-rule="evenodd"
        d="M3.69247 11.2401C3.91711 11.5021 4.31167 11.5325 4.57375 11.3078L10.0003 6.65649L15.4269 11.3078C15.689 11.5325 16.0836 11.5021 16.3082 11.2401C16.5328 10.978 16.5025 10.5834 16.2404 10.3588L10.4071 5.35878C10.173 5.15816 9.82765 5.15816 9.59359 5.35878L3.76026 10.3588C3.49818 10.5834 3.46783 10.978 3.69247 11.2401Z"
        fill="#0D1615" />
    <path
        d="M4.16703 14.7916C3.90549 14.7916 3.6716 14.6288 3.58086 14.3835C3.49011 14.1382 3.56171 13.8623 3.76029 13.6921L9.59362 8.69211C9.82768 8.49149 10.1731 8.49149 10.4071 8.69211L16.2404 13.6921C16.439 13.8623 16.5106 14.1382 16.4199 14.3835C16.3291 14.6288 16.0952 14.7916 15.8337 14.7916H4.16703Z"
        fill="#0D1615" />
</svg>
    