<svg width="17" height="16" viewBox="0 0 17 16" fill="none" xmlns="http://www.w3.org/2000/svg">
    <path
        d="M14.4933 6.47331C14.2667 6.37998 13.9667 6.33331 13.5933 6.33331H10.0733C8.91333 6.33331 8.5 6.74665 8.5 7.91998V13.08C8.5 13.4666 8.54667 13.7666 8.64667 14C8.85333 14.48 9.29333 14.6666 10.0733 14.6666H13.5933C14.7533 14.6666 15.1667 14.2466 15.1667 13.08V7.91998C15.1667 7.12665 14.98 6.67998 14.4933 6.47331ZM12.5 13.1666H11.1667C11.1533 13.1666 11.1333 13.1666 11.12 13.16C11.02 13.1533 10.9333 13.12 10.86 13.0533C10.74 12.9666 10.6667 12.8266 10.6667 12.6666C10.6667 12.3933 10.8933 12.1666 11.1667 12.1666H12.5C12.7733 12.1666 13 12.3933 13 12.6666C13 12.94 12.7733 13.1666 12.5 13.1666Z"
        fill="#292D32" />
    <path
        d="M14.4933 4.12665V4.66665C14.4933 5.03331 14.1933 5.33331 13.8267 5.33331H10.0733C8.36666 5.33331 7.5 6.20665 7.5 7.91998V14C7.5 14.3666 7.2 14.6666 6.83333 14.6666H5.53333C5.26666 14.6666 5.05333 14.4533 5.05333 14.1933C5.05333 13.9266 5.26666 13.72 5.53333 13.72H6.83333V11.1666H4.5C3.02 11.0933 1.84 9.87331 1.84 8.37331V4.12665C1.84 2.58665 3.09333 1.33331 4.64 1.33331H11.7C13.24 1.33331 14.4933 2.58665 14.4933 4.12665Z"
        fill="#292D32" />
</svg>
    