<svg width="29" height="29" viewBox="0 0 29 29" fill="none" xmlns="http://www.w3.org/2000/svg">
    <g filter="url(#filter0_d_2788_4168)">
        <rect width="28" height="28" fill="white" />
        <rect x="0.5" y="0.5" width="27" height="27" stroke="#0D1615" />
    </g>
    <path
        d="M7.85832 13.355C7.85832 13.355 14.0502 11.1598 16.1976 10.3869C17.0208 10.0777 19.8125 9.08827 19.8125 9.08827C19.8125 9.08827 21.101 8.65544 20.9936 9.70665C20.9578 10.1395 20.6715 11.6545 20.3852 13.2932C19.9557 15.6121 19.4904 18.1474 19.4904 18.1474C19.4904 18.1474 19.4188 18.8585 18.8104 18.9822C18.202 19.1059 17.1998 18.5494 17.0208 18.4256C16.8776 18.3329 14.3365 16.9416 13.4059 16.2614C13.1554 16.0759 12.8691 15.7049 13.4417 15.272C14.7302 14.2517 16.2692 12.984 17.1998 12.1802C17.6293 11.8091 18.0587 10.9434 16.2692 11.9946C13.7281 13.5096 11.2227 14.9319 11.2227 14.9319C11.2227 14.9319 10.65 15.241 9.57629 14.9628C8.50252 14.6845 7.24983 14.3135 7.24983 14.3135C7.24983 14.3135 6.39089 13.8497 7.85832 13.355Z"
        fill="#0D1615" />
    <defs>
        <filter id="filter0_d_2788_4168" x="0" y="0" width="29" height="29"
            filterUnits="userSpaceOnUse" color-interpolation-filters="sRGB">
            <feFlood flood-opacity="0" result="BackgroundImageFix" />
            <feColorMatrix in="SourceAlpha" type="matrix"
                values="0 0 0 0 0 0 0 0 0 0 0 0 0 0 0 0 0 0 127 0" result="hardAlpha" />
            <feOffset dx="1" dy="1" />
            <feComposite in2="hardAlpha" operator="out" />
            <feColorMatrix type="matrix" values="0 0 0 0 0 0 0 0 0 0 0 0 0 0 0 0 0 0 1 0" />
            <feBlend mode="normal" in2="BackgroundImageFix" result="effect1_dropShadow_2788_4168" />
            <feBlend mode="normal" in="SourceGraphic" in2="effect1_dropShadow_2788_4168"
                result="shape" />
        </filter>
    </defs>
</svg>
    