<svg width="16" height="20" viewBox="0 0 16 20" fill="none" xmlns="http://www.w3.org/2000/svg">
    <g clip-path="url(#clip0_3615_10346)">
        <path d="M1.73145 6.8575V7.42834H2.30066V6.8575H1.73145Z" fill="#F9EB11" />
        <path d="M1.73242 6.28608V6.85693H2.30164V6.28608H1.73242Z" fill="#F9EB11" />
        <path d="M1.73242 5.71467V6.28552H2.30164V5.71467H1.73242Z" fill="#F9EB11" />
        <path d="M2.30176 6.85811V7.42896H2.87098V6.85811H2.30176Z" fill="#F9EB11" />
        <path d="M2.30176 6.28669V6.85754H2.87098V6.28669H2.30176Z" fill="#F9EB11" />
        <path d="M2.30273 5.71528V6.28613H2.87195V5.71528H2.30273Z" fill="#F9EB11" />
        <path d="M2.30176 5.14375V5.7146H2.87098V5.14375H2.30176Z" fill="#F9EB11" />
        <path d="M2.30176 4.57234V5.14319H2.87098V4.57234H2.30176Z" fill="#F9EB11" />
        <path d="M2.87109 6.85872V7.42957H3.44031V6.85872H2.87109Z" fill="#F8AC14" />
        <path d="M2.87207 6.2873V6.85815H3.44129V6.2873H2.87207Z" fill="#F8AC14" />
        <path d="M2.87207 5.71589V6.28674H3.44129V5.71589H2.87207Z" fill="#F8AC14" />
        <path d="M2.87109 5.14436V5.71521H3.44031V5.14436H2.87109Z" fill="#F8AC14" />
        <path d="M2.87207 4.57295V5.1438H3.44129V4.57295H2.87207Z" fill="#F9EB11" />
        <path d="M2.87109 4.00154V4.57239H3.44031V4.00154H2.87109Z" fill="#F9EB11" />
        <path d="M2.87109 3.43V4.00085H3.44031V3.43H2.87109Z" fill="#F9EB11" />
        <path d="M3.44141 6.85762V7.42847H4.01062V6.85762H3.44141Z" fill="#F9EB11" />
        <path d="M3.44141 6.28621V6.85706H4.01062V6.28621H3.44141Z" fill="#F9EB11" />
        <path d="M3.44238 5.71479V6.28564H4.0116V5.71479H3.44238Z" fill="#F9EB11" />
        <path d="M3.44141 5.14326V5.71411H4.01062V5.14326H3.44141Z" fill="#F9EB11" />
        <path d="M3.44141 4.57185V5.1427H4.01062V4.57185H3.44141Z" fill="#F8AC14" />
        <path d="M3.44043 4.00044V4.57129H4.00965V4.00044H3.44043Z" fill="#F8AC14" />
        <path d="M3.44141 3.42891V3.99976H4.01062V3.42891H3.44141Z" fill="#F9EB11" />
        <path d="M3.44141 2.8575V3.42834H4.01062V2.8575H3.44141Z" fill="#F9EB11" />
        <path d="M4.01074 6.85823V7.42908H4.57996V6.85823H4.01074Z" fill="#F9EB11" />
        <path d="M4.01172 6.28682V6.85767H4.58094V6.28682H4.01172Z" fill="#F9EB11" />
        <path d="M4.01172 5.71541V6.28625H4.58094V5.71541H4.01172Z" fill="#F9EB11" />
        <path d="M4.01074 5.14387V5.71472H4.57996V5.14387H4.01074Z" fill="#F9EB11" />
        <path d="M4.01172 4.57246V5.14331H4.58094V4.57246H4.01172Z" fill="#F9EB11" />
        <path d="M4.01074 4.00105V4.5719H4.57996V4.00105H4.01074Z" fill="#F9EB11" />
        <path d="M4.01074 3.42952V4.00037H4.57996V3.42952H4.01074Z" fill="#F8AC14" />
        <path d="M4.01172 2.85811V3.42896H4.58094V2.85811H4.01172Z" fill="#F9EB11" />
        <path d="M4.01074 2.28669V2.85754H4.57996V2.28669H4.01074Z" fill="#F9EB11" />
        <path d="M4.58105 6.85884V7.42969H5.15027V6.85884H4.58105Z" fill="#F9EB11" />
        <path d="M4.58105 6.28743V6.85828H5.15027V6.28743H4.58105Z" fill="#F9EB11" />
        <path d="M4.58203 5.71602V6.28687H5.15125V5.71602H4.58203Z" fill="#F9EB11" />
        <path d="M4.58105 5.14448V5.71533H5.15027V5.14448H4.58105Z" fill="#F9EB11" />
        <path d="M4.58105 4.57307V5.14392H5.15027V4.57307H4.58105Z" fill="#F9EB11" />
        <path d="M4.58008 4.00166V4.57251H5.1493V4.00166H4.58008Z" fill="#F9EB11" />
        <path d="M4.58105 3.43013V4.00098H5.15027V3.43013H4.58105Z" fill="#F9EB11" />
        <path d="M4.58105 2.85872V3.42957H5.15027V2.85872H4.58105Z" fill="#F8AC14" />
        <path d="M4.58008 2.2873V2.85815H5.1493V2.2873H4.58008Z" fill="#F9EB11" />
        <path d="M5.15039 6.85774V7.42859H5.71961V6.85774H5.15039Z" fill="#F9EB11" />
        <path d="M5.15137 6.28633V6.85718H5.72058V6.28633H5.15137Z" fill="#F9EB11" />
        <path d="M5.15137 5.71492V6.28577H5.72059V5.71492H5.15137Z" fill="#F9EB11" />
        <path d="M5.15039 5.14338V5.71423H5.71961V5.14338H5.15039Z" fill="#F9EB11" />
        <path d="M5.15137 4.57197V5.14282H5.72058V4.57197H5.15137Z" fill="#F9EB11" />
        <path d="M5.15039 4.00056V4.57141H5.71961V4.00056H5.15039Z" fill="#F9EB11" />
        <path d="M5.15039 3.42903V3.99988H5.71961V3.42903H5.15039Z" fill="#F9EB11" />
        <path d="M5.15137 2.85762V3.42847H5.72058V2.85762H5.15137Z" fill="#F8AC14" />
        <path d="M5.15039 2.28621V2.85706H5.71961V2.28621H5.15039Z" fill="#F9EB11" />
        <path d="M5.15039 1.71467V2.28552H5.71961V1.71467H5.15039Z" fill="#F9EB11" />
        <path d="M5.7207 6.85835V7.4292H6.28992V6.85835H5.7207Z" fill="#F8F59B" />
        <path d="M5.7207 6.28694V6.85779H6.28992V6.28694H5.7207Z" fill="#F9EB11" />
        <path d="M5.72168 5.71553V6.28638H6.2909V5.71553H5.72168Z" fill="#F9EB11" />
        <path d="M5.7207 5.14399V5.71484H6.28992V5.14399H5.7207Z" fill="#F9EB11" />
        <path d="M5.7207 4.57258V5.14343H6.28992V4.57258H5.7207Z" fill="#F9EB11" />
        <path d="M5.71973 4.00117V4.57202H6.28894V4.00117H5.71973Z" fill="#F9EB11" />
        <path d="M5.7207 3.42964V4.00049H6.28992V3.42964H5.7207Z" fill="#F9EB11" />
        <path d="M5.7207 2.85823V3.42908H6.28992V2.85823H5.7207Z" fill="#F9EB11" />
        <path d="M5.71973 2.28682V2.85767H6.28894V2.28682H5.71973Z" fill="#F8AC14" />
        <path d="M5.7207 1.71528V2.28613H6.28992V1.71528H5.7207Z" fill="#F9EB11" />
        <path d="M6.29004 6.85725V7.4281H6.85926V6.85725H6.29004Z" fill="#F8F59B" />
        <path d="M6.29102 6.28584V6.85669H6.86023V6.28584H6.29102Z" fill="#F8F59B" />
        <path d="M6.29102 5.71443V6.28528H6.86023V5.71443H6.29102Z" fill="#F9EB11" />
        <path d="M6.29004 5.1429V5.71375H6.85926V5.1429H6.29004Z" fill="#F8AC14" />
        <path d="M6.29102 4.57148V5.14233H6.86023V4.57148H6.29102Z" fill="#F9EB11" />
        <path d="M6.29004 4.00007V4.57092H6.85926V4.00007H6.29004Z" fill="#F9EB11" />
        <path d="M6.29004 3.42854V3.99939H6.85926V3.42854H6.29004Z" fill="#F9EB11" />
        <path d="M6.29102 2.85713V3.42798H6.86023V2.85713H6.29102Z" fill="#F9EB11" />
        <path d="M6.29004 2.28572V2.85657H6.85926V2.28572H6.29004Z" fill="#F8AC14" />
        <path d="M6.29004 1.71418V2.28503H6.85926V1.71418H6.29004Z" fill="#F9EB11" />
        <path d="M6.29102 1.14277V1.71362H6.86023V1.14277H6.29102Z" fill="#F9EB11" />
        <path d="M6.86035 6.85786V7.42871H7.42957V6.85786H6.86035Z" fill="#F8F59B" />
        <path d="M6.86035 6.28645V6.8573H7.42957V6.28645H6.86035Z" fill="#F8F59B" />
        <path d="M6.86133 5.71504V6.28589H7.43055V5.71504H6.86133Z" fill="#F8F59B" />
        <path d="M6.86035 5.14351V5.71436H7.42957V5.14351H6.86035Z" fill="#F8AC14" />
        <path d="M6.86035 4.5721V5.14294H7.42957V4.5721H6.86035Z" fill="#F8AC14" />
        <path d="M6.85938 4.00068V4.57153H7.42859V4.00068H6.85938Z" fill="#F9EB11" />
        <path d="M6.86035 3.42915V4H7.42957V3.42915H6.86035Z" fill="#F9EB11" />
        <path d="M6.86035 2.85774V3.42859H7.42957V2.85774H6.86035Z" fill="#F9EB11" />
        <path d="M6.85938 2.28633V2.85718H7.42859V2.28633H6.85938Z" fill="#F8AC14" />
        <path d="M6.86035 1.7148V2.28564H7.42957V1.7148H6.86035Z" fill="#F9EB11" />
        <path d="M6.86035 1.14338V1.71423H7.42957V1.14338H6.86035Z" fill="#F9EB11" />
        <path d="M7.42969 6.85847V7.42932H7.9989V6.85847H7.42969Z" fill="#F8AC14" />
        <path d="M7.43066 6.28706V6.85791H7.99988V6.28706H7.43066Z" fill="#F8AC14" />
        <path d="M7.43066 5.71553V6.28638H7.99988V5.71553H7.43066Z" fill="#F8AC14" />
        <path d="M7.42969 5.14412V5.71497H7.9989V5.14412H7.42969Z" fill="#F8AC14" />
        <path d="M7.43066 4.57271V5.14355H7.99988V4.57271H7.43066Z" fill="#F8AC14" />
        <path d="M7.42969 4.00129V4.57214H7.99891V4.00129H7.42969Z" fill="#F8AC14" />
        <path d="M7.42969 3.42976V4.00061H7.99891V3.42976H7.42969Z" fill="#F9EB11" />
        <path d="M7.43066 2.85835V3.4292H7.99988V2.85835H7.43066Z" fill="#F9EB11" />
        <path d="M7.42969 2.28694V2.85779H7.99891V2.28694H7.42969Z" fill="#F8AC14" />
        <path d="M7.42969 1.71541V2.28625H7.99891V1.71541H7.42969Z" fill="#F9EB11" />
        <path d="M7.43066 1.14399V1.71484H7.99988V1.14399H7.43066Z" fill="#F9EB11" />
        <path d="M1.73242 8.00044V8.57129H2.30164V8.00044H1.73242Z" fill="#F9EB11" />
        <path d="M1.73242 7.42903V7.99988H2.30164V7.42903H1.73242Z" fill="#F9EB11" />
        <path d="M2.30273 9.14399V9.71484H2.87195V9.14399H2.30273Z" fill="#F9EB11" />
        <path d="M2.30078 8.57246V9.14331H2.87V8.57246H2.30078Z" fill="#F9EB11" />
        <path d="M2.30176 8.00105V8.5719H2.87098V8.00105H2.30176Z" fill="#F9EB11" />
        <path d="M2.30273 7.42964V8.00049H2.87195V7.42964H2.30273Z" fill="#F9EB11" />
        <path d="M2.87109 10.2874V10.8583H3.44031V10.2874H2.87109Z" fill="#F9EB11" />
        <path d="M2.87109 9.71602V10.2869H3.44031V9.71602H2.87109Z" fill="#F9EB11" />
        <path d="M2.87207 9.1446V9.71545H3.44129V9.1446H2.87207Z" fill="#F9EB11" />
        <path d="M2.87109 8.57307V9.14392H3.44031V8.57307H2.87109Z" fill="#F8AC14" />
        <path d="M2.87207 8.00166V8.57251H3.44129V8.00166H2.87207Z" fill="#F8AC14" />
        <path d="M2.87207 7.43025V8.0011H3.44129V7.43025H2.87207Z" fill="#F8AC14" />
        <path d="M3.44141 10.8579V11.4287H4.01062V10.8579H3.44141Z" fill="#F9EB11" />
        <path d="M3.44043 10.2863V10.8572H4.00965V10.2863H3.44043Z" fill="#F9EB11" />
        <path d="M3.44141 9.71492V10.2858H4.01062V9.71492H3.44141Z" fill="#F8AC14" />
        <path d="M3.44238 9.14351V9.71436H4.0116V9.14351H3.44238Z" fill="#F8AC14" />
        <path d="M3.44043 8.57197V9.14282H4.00965V8.57197H3.44043Z" fill="#F9EB11" />
        <path d="M3.44141 8.00056V8.57141H4.01062V8.00056H3.44141Z" fill="#F9EB11" />
        <path d="M3.44238 7.42915V8H4.0116V7.42915H3.44238Z" fill="#F9EB11" />
        <path d="M4.01074 11.4299V12.0007H4.57996V11.4299H4.01074Z" fill="#F9EB11" />
        <path d="M4.01172 10.8583V11.4292H4.58094V10.8583H4.01172Z" fill="#F9EB11" />
        <path d="M4.01074 10.2869V10.8578H4.57996V10.2869H4.01074Z" fill="#F8AC14" />
        <path d="M4.01074 9.71553V10.2864H4.57996V9.71553H4.01074Z" fill="#F8F59B" />
        <path d="M4.01172 9.14412V9.71497H4.58094V9.14412H4.01172Z" fill="#F8F59B" />
        <path d="M4.01074 8.57258V9.14343H4.57996V8.57258H4.01074Z" fill="#F8F59B" />
        <path d="M4.01172 8.00117V8.57202H4.58094V8.00117H4.01172Z" fill="#F9EB11" />
        <path d="M4.01172 7.42976V8.00061H4.58094V7.42976H4.01172Z" fill="#F9EB11" />
        <path d="M4.58105 11.4305V12.0013H5.15027V11.4305H4.58105Z" fill="#F9EB11" />
        <path d="M4.58105 10.859V11.4298H5.15027V10.859H4.58105Z" fill="#F8F59B" />
        <path d="M4.58008 10.2875V10.8584H5.1493V10.2875H4.58008Z" fill="#F9EB11" />
        <path d="M4.58105 9.71614V10.287H5.15027V9.71614H4.58105Z" fill="#F8F59B" />
        <path d="M4.58203 9.14473V9.71558H5.15125V9.14473H4.58203Z" fill="#F8F59B" />
        <path d="M4.58008 8.57319V9.14404H5.1493V8.57319H4.58008Z" fill="#F8F59B" />
        <path d="M4.58105 8.00178V8.57263H5.15027V8.00178H4.58105Z" fill="#F8F59B" />
        <path d="M4.58203 7.43037V8.00122H5.15125V7.43037H4.58203Z" fill="#F9EB11" />
        <path d="M5.15039 12.0008V12.5717H5.71961V12.0008H5.15039Z" fill="#F9EB11" />
        <path d="M5.15039 11.4294V12.0002H5.71961V11.4294H5.15039Z" fill="#F9EB11" />
        <path d="M5.15137 10.858V11.4288H5.72058V10.858H5.15137Z" fill="#F8F59B" />
        <path d="M5.15039 10.2865V10.8573H5.71961V10.2865H5.15039Z" fill="#F9EB11" />
        <path d="M5.15039 9.71504V10.2859H5.71961V9.71504H5.15039Z" fill="#F9EB11" />
        <path d="M5.15137 9.14363V9.71448H5.72058V9.14363H5.15137Z" fill="#F8F59B" />
        <path d="M5.15039 8.5721V9.14294H5.71961V8.5721H5.15039Z" fill="#F8F59B" />
        <path d="M5.15137 8.00068V8.57153H5.72058V8.00068H5.15137Z" fill="#F8F59B" />
        <path d="M5.15137 7.42927V8.00012H5.72059V7.42927H5.15137Z" fill="#F8F59B" />
        <path d="M5.71973 12.0014V12.5723H6.28894V12.0014H5.71973Z" fill="#F9EB11" />
        <path d="M5.7207 11.43V12.0009H6.28992V11.43H5.7207Z" fill="#F8F59B" />
        <path d="M5.7207 10.8585V11.4293H6.28992V10.8585H5.7207Z" fill="#F9EB11" />
        <path d="M5.71973 10.2871V10.8579H6.28894V10.2871H5.71973Z" fill="#F9EB11" />
        <path d="M5.7207 9.71565V10.2865H6.28992V9.71565H5.7207Z" fill="#F9EB11" />
        <path d="M5.72168 9.14412V9.71497H6.2909V9.14412H5.72168Z" fill="#F9EB11" />
        <path d="M5.71973 8.57271V9.14355H6.28894V8.57271H5.71973Z" fill="#F8F59B" />
        <path d="M5.7207 8.00129V8.57214H6.28992V8.00129H5.7207Z" fill="#F8F59B" />
        <path d="M5.72168 7.42988V8.00073H6.2909V7.42988H5.72168Z" fill="#F8F59B" />
        <path d="M6.29102 12.5717V13.1426H6.86023V12.5717H6.29102Z" fill="#F9EB11" />
        <path d="M6.29004 12.0003V12.5712H6.85926V12.0003H6.29004Z" fill="#F9EB11" />
        <path d="M6.29004 11.4289V11.9998H6.85926V11.4289H6.29004Z" fill="#F8F59B" />
        <path d="M6.29102 10.8575V11.4283H6.86023V10.8575H6.29102Z" fill="#F9EB11" />
        <path d="M6.29004 10.286V10.8568H6.85926V10.286H6.29004Z" fill="#F9EB11" />
        <path d="M6.29004 9.71455V10.2854H6.85926V9.71455H6.29004Z" fill="#F8AC14" />
        <path d="M6.29102 9.14314V9.71399H6.86023V9.14314H6.29102Z" fill="#F8AC14" />
        <path d="M6.29004 8.57161V9.14246H6.85926V8.57161H6.29004Z" fill="#F9EB11" />
        <path d="M6.29102 8.0002V8.57104H6.86023V8.0002H6.29102Z" fill="#F8F59B" />
        <path d="M6.29102 7.42878V7.99963H6.86023V7.42878H6.29102Z" fill="#F8F59B" />
        <path d="M6.86035 12.5723V13.1432H7.42957V12.5723H6.86035Z" fill="#F9EB11" />
        <path d="M6.85938 12.0009V12.5718H7.42859V12.0009H6.85938Z" fill="#F9EB11" />
        <path d="M6.86035 11.4295V12.0004H7.42957V11.4295H6.86035Z" fill="#F8F59B" />
        <path d="M6.86035 10.858V11.4288H7.42957V10.858H6.86035Z" fill="#F9EB11" />
        <path d="M6.85938 10.2866V10.8574H7.42859V10.2866H6.85938Z" fill="#F9EB11" />
        <path d="M6.86035 9.71516V10.286H7.42957V9.71516H6.86035Z" fill="#F8AC14" />
        <path d="M6.86133 9.14363V9.71448H7.43055V9.14363H6.86133Z" fill="#F8AC14" />
        <path d="M6.85938 8.57222V9.14307H7.42859V8.57222H6.85938Z" fill="#F9EB11" />
        <path d="M6.86035 8.00081V8.57166H7.42957V8.00081H6.86035Z" fill="#F9EB11" />
        <path d="M6.86133 7.42939V8.00024H7.43055V7.42939H6.86133Z" fill="#F8F59B" />
        <path d="M7.43066 12.5729V13.1438H7.99988V12.5729H7.43066Z" fill="#F9EB11" />
        <path d="M7.42969 12.0015V12.5724H7.9989V12.0015H7.42969Z" fill="#F9EB11" />
        <path d="M7.42969 11.4301V12.001H7.9989V11.4301H7.42969Z" fill="#F8F59B" />
        <path d="M7.43066 10.8586V11.4294H7.99988V10.8586H7.43066Z" fill="#F9EB11" />
        <path d="M7.42969 10.2872V10.858H7.9989V10.2872H7.42969Z" fill="#F9EB11" />
        <path d="M7.42969 9.71577V10.2866H7.9989V9.71577H7.42969Z" fill="#F8AC14" />
        <path d="M7.43066 9.14424V9.71509H7.99988V9.14424H7.43066Z" fill="#F8AC14" />
        <path d="M7.42969 8.57283V9.14368H7.9989V8.57283H7.42969Z" fill="#F8AC14" />
        <path d="M7.43066 8.00142V8.57227H7.99988V8.00142H7.43066Z" fill="#F8AC14" />
        <path d="M7.43066 7.42988V8.00073H7.99988V7.42988H7.43066Z" fill="#F8AC14" />
        <path d="M13.6973 6.85835V7.4292H14.2665V6.85835H13.6973Z" fill="#F9EB11" />
        <path d="M13.6982 6.28694V6.85779H14.2675V6.28694H13.6982Z" fill="#F9EB11" />
        <path d="M13.6992 5.71541V6.28625H14.2684V5.71541H13.6992Z" fill="#F9EB11" />
        <path d="M13.1279 6.85774V7.42859H13.6971V6.85774H13.1279Z" fill="#F9EB11" />
        <path d="M13.1289 6.28633V6.85718H13.6981V6.28633H13.1289Z" fill="#F9EB11" />
        <path d="M13.1289 5.7148V6.28564H13.6981V5.7148H13.1289Z" fill="#F9EB11" />
        <path d="M13.1279 5.14338V5.71423H13.6971V5.14338H13.1279Z" fill="#F9EB11" />
        <path d="M13.1289 4.57197V5.14282H13.6981V4.57197H13.1289Z" fill="#F9EB11" />
        <path d="M12.5576 6.85884V7.42969H13.1268V6.85884H12.5576Z" fill="#F8F59B" />
        <path d="M12.5586 6.28743V6.85828H13.1278V6.28743H12.5586Z" fill="#F8F59B" />
        <path d="M12.5596 5.71589V6.28674H13.1288V5.71589H12.5596Z" fill="#F8F59B" />
        <path d="M12.5586 5.14448V5.71533H13.1278V5.14448H12.5586Z" fill="#F8F59B" />
        <path d="M12.5586 4.57307V5.14392H13.1278V4.57307H12.5586Z" fill="#F9EB11" />
        <path d="M12.5576 4.00154V4.57239H13.1268V4.00154H12.5576Z" fill="#F9EB11" />
        <path d="M12.5586 3.43013V4.00098H13.1278V3.43013H12.5586Z" fill="#F9EB11" />
        <path d="M11.9883 6.85823V7.42908H12.5575V6.85823H11.9883Z" fill="#F9EB11" />
        <path d="M11.9893 6.28682V6.85767H12.5585V6.28682H11.9893Z" fill="#F9EB11" />
        <path d="M11.9893 5.71528V6.28613H12.5585V5.71528H11.9893Z" fill="#F9EB11" />
        <path d="M11.9883 5.14387V5.71472H12.5575V5.14387H11.9883Z" fill="#F9EB11" />
        <path d="M11.9893 4.57246V5.14331H12.5585V4.57246H11.9893Z" fill="#F8F59B" />
        <path d="M11.9883 4.00093V4.57178H12.5575V4.00093H11.9883Z" fill="#F8F59B" />
        <path d="M11.9883 3.42952V4.00037H12.5575V3.42952H11.9883Z" fill="#F9EB11" />
        <path d="M11.9893 2.85811V3.42896H12.5585V2.85811H11.9893Z" fill="#F9EB11" />
        <path d="M11.418 6.85762V7.42847H11.9872V6.85762H11.418Z" fill="#F9EB11" />
        <path d="M11.4189 6.28621V6.85706H11.9882V6.28621H11.4189Z" fill="#F9EB11" />
        <path d="M11.4199 5.71467V6.28552H11.9891V5.71467H11.4199Z" fill="#F9EB11" />
        <path d="M11.4189 5.14326V5.71411H11.9882V5.14326H11.4189Z" fill="#F9EB11" />
        <path d="M11.4189 4.57185V5.1427H11.9882V4.57185H11.4189Z" fill="#F9EB11" />
        <path d="M11.418 4.00032V4.57117H11.9872V4.00032H11.418Z" fill="#F9EB11" />
        <path d="M11.4189 3.42891V3.99976H11.9882V3.42891H11.4189Z" fill="#F8AC14" />
        <path d="M11.4189 2.8575V3.42834H11.9882V2.8575H11.4189Z" fill="#F9EB11" />
        <path d="M11.418 2.28596V2.85681H11.9872V2.28596H11.418Z" fill="#F9EB11" />
        <path d="M10.8486 6.85872V7.42957H11.4179V6.85872H10.8486Z" fill="#F9EB11" />
        <path d="M10.8496 6.2873V6.85815H11.4188V6.2873H10.8496Z" fill="#F9EB11" />
        <path d="M10.8496 5.71577V6.28662H11.4188V5.71577H10.8496Z" fill="#F9EB11" />
        <path d="M10.8486 5.14436V5.71521H11.4179V5.14436H10.8486Z" fill="#F9EB11" />
        <path d="M10.8496 4.57295V5.1438H11.4188V4.57295H10.8496Z" fill="#F9EB11" />
        <path d="M10.8486 4.00142V4.57227H11.4179V4.00142H10.8486Z" fill="#F9EB11" />
        <path d="M10.8486 3.43001V4.00085H11.4179V3.43001H10.8486Z" fill="#F8F59B" />
        <path d="M10.8496 2.85859V3.42944H11.4188V2.85859H10.8496Z" fill="#F8AC14" />
        <path d="M10.8486 2.28706V2.85791H11.4179V2.28706H10.8486Z" fill="#F9EB11" />
        <path d="M10.2783 6.85811V7.42896H10.8475V6.85811H10.2783Z" fill="#F9EB11" />
        <path d="M10.2793 6.28669V6.85754H10.8485V6.28669H10.2793Z" fill="#F9EB11" />
        <path d="M10.2803 5.71516V6.28601H10.8495V5.71516H10.2803Z" fill="#F9EB11" />
        <path d="M10.2793 5.14375V5.7146H10.8485V5.14375H10.2793Z" fill="#F9EB11" />
        <path d="M10.2793 4.57234V5.14319H10.8485V4.57234H10.2793Z" fill="#F9EB11" />
        <path d="M10.2783 4.00081V4.57166H10.8475V4.00081H10.2783Z" fill="#F8F59B" />
        <path d="M10.2793 3.42939V4.00024H10.8485V3.42939H10.2793Z" fill="#F8F59B" />
        <path d="M10.2793 2.85798V3.42883H10.8485V2.85798H10.2793Z" fill="#F8AC14" />
        <path d="M10.2783 2.28645V2.8573H10.8475V2.28645H10.2783Z" fill="#F9EB11" />
        <path d="M10.2793 1.71504V2.28589H10.8485V1.71504H10.2793Z" fill="#F9EB11" />
        <path d="M1.73145 5.14314V5.71399H2.30066V5.14314H1.73145Z" fill="#F9EB11" />
        <path d="M2.30078 4.00093V4.57178H2.87V4.00093H2.30078Z" fill="#F9EB11" />
        <path d="M2.87207 2.85859V3.42944H3.44129V2.85859H2.87207Z" fill="#F9EB11" />
        <path d="M3.44043 2.28608V2.85693H4.00965V2.28608H3.44043Z" fill="#F9EB11" />
        <path d="M4.01074 1.71516V2.28601H4.57996V1.71516H4.01074Z" fill="#F9EB11" />
        <path d="M4.58105 1.71577V2.28662H5.15027V1.71577H4.58105Z" fill="#F9EB11" />
        <path d="M5.15137 1.14326V1.71411H5.72058V1.14326H5.15137Z" fill="#F9EB11" />
        <path d="M5.72168 1.14387V1.71472H6.2909V1.14387H5.72168Z" fill="#F9EB11" />
        <path d="M13.6982 5.14399V5.71484H14.2675V5.14399H13.6982Z" fill="#F9EB11" />
        <path d="M13.1279 4.00044V4.57129H13.6971V4.00044H13.1279Z" fill="#F9EB11" />
        <path d="M12.5586 2.85872V3.42957H13.1278V2.85872H12.5586Z" fill="#F9EB11" />
        <path d="M11.9883 2.28657V2.85742H12.5575V2.28657H11.9883Z" fill="#F9EB11" />
        <path d="M11.4189 1.71455V2.2854H11.9882V1.71455H11.4189Z" fill="#F9EB11" />
        <path d="M10.8486 1.71565V2.2865H11.4179V1.71565H10.8486Z" fill="#F9EB11" />
        <path d="M10.2793 1.14363V1.71448H10.8485V1.14363H10.2793Z" fill="#F9EB11" />
        <path d="M9.70898 6.8575V7.42834H10.2782V6.8575H9.70898Z" fill="#F9EB11" />
        <path d="M9.70996 6.28608V6.85693H10.2792V6.28608H9.70996Z" fill="#F9EB11" />
        <path d="M9.70996 5.71467V6.28552H10.2792V5.71467H9.70996Z" fill="#F9EB11" />
        <path d="M9.70898 5.14314V5.71399H10.2782V5.14314H9.70898Z" fill="#F9EB11" />
        <path d="M9.70996 4.57173V5.14258H10.2792V4.57173H9.70996Z" fill="#F8F59B" />
        <path d="M9.70898 4.00032V4.57117H10.2782V4.00032H9.70898Z" fill="#F8F59B" />
        <path d="M9.70898 3.42878V3.99963H10.2782V3.42878H9.70898Z" fill="#F8F59B" />
        <path d="M9.70996 2.85737V3.42822H10.2792V2.85737H9.70996Z" fill="#F8F59B" />
        <path d="M9.70898 2.28596V2.85681H10.2782V2.28596H9.70898Z" fill="#F8AC14" />
        <path d="M9.70898 1.71443V2.28528H10.2782V1.71443H9.70898Z" fill="#F9EB11" />
        <path d="M9.70996 1.14302V1.71387H10.2792V1.14302H9.70996Z" fill="#F9EB11" />
        <path d="M9.13867 6.85859V7.42944H9.70789V6.85859H9.13867Z" fill="#F9EB11" />
        <path d="M9.13965 6.28718V6.85803H9.70887V6.28718H9.13965Z" fill="#F9EB11" />
        <path d="M9.14062 5.71565V6.2865H9.70984V5.71565H9.14062Z" fill="#F9EB11" />
        <path d="M9.13965 5.14424V5.71509H9.70887V5.14424H9.13965Z" fill="#F8F59B" />
        <path d="M9.13965 4.57283V5.14368H9.70887V4.57283H9.13965Z" fill="#F8F59B" />
        <path d="M9.13867 4.00129V4.57214H9.70789V4.00129H9.13867Z" fill="#F8F59B" />
        <path d="M9.13965 3.42988V4.00073H9.70887V3.42988H9.13965Z" fill="#F8F59B" />
        <path d="M9.13965 2.85847V3.42932H9.70887V2.85847H9.13965Z" fill="#F9EB11" />
        <path d="M9.13867 2.28694V2.85779H9.70789V2.28694H9.13867Z" fill="#F8AC14" />
        <path d="M9.13965 1.71553V2.28638H9.70887V1.71553H9.13965Z" fill="#F9EB11" />
        <path d="M9.13965 1.14412V1.71497H9.70887V1.14412H9.13965Z" fill="#F9EB11" />
        <path d="M8.56934 6.85798V7.42883H9.13855V6.85798H8.56934Z" fill="#F9EB11" />
        <path d="M8.57031 6.28657V6.85742H9.13953V6.28657H8.57031Z" fill="#F9EB11" />
        <path d="M8.57031 5.71516V6.28601H9.13953V5.71516H8.57031Z" fill="#F8F59B" />
        <path d="M8.56934 5.14363V5.71448H9.13855V5.14363H8.56934Z" fill="#F8F59B" />
        <path d="M8.57031 4.57222V5.14307H9.13953V4.57222H8.57031Z" fill="#F8F59B" />
        <path d="M8.56934 4.00081V4.57166H9.13855V4.00081H8.56934Z" fill="#F8F59B" />
        <path d="M8.56934 3.42927V4.00012H9.13855V3.42927H8.56934Z" fill="#F9EB11" />
        <path d="M8.57031 2.85786V3.42871H9.13953V2.85786H8.57031Z" fill="#F9EB11" />
        <path d="M8.56934 2.28645V2.8573H9.13855V2.28645H8.56934Z" fill="#F8AC14" />
        <path d="M8.56934 1.71492V2.28577H9.13855V1.71492H8.56934Z" fill="#F9EB11" />
        <path d="M8.57031 1.14351V1.71436H9.13953V1.14351H8.57031Z" fill="#F9EB11" />
        <path d="M8 6.85737V7.42822H8.56922V6.85737H8Z" fill="#F8AC14" />
        <path d="M8 6.28596V6.85681H8.56922V6.28596H8Z" fill="#F8AC14" />
        <path d="M8.00098 5.71455V6.2854H8.57019V5.71455H8.00098Z" fill="#F8AC14" />
        <path d="M8 5.14302V5.71387H8.56922V5.14302H8Z" fill="#F8AC14" />
        <path d="M8 4.57161V5.14246H8.56922V4.57161H8Z" fill="#F8AC14" />
        <path d="M7.99902 4.0002V4.57104H8.56824V4.0002H7.99902Z" fill="#F8AC14" />
        <path d="M8 3.42866V3.99951H8.56922V3.42866H8Z" fill="#F9EB11" />
        <path d="M8 2.85725V3.4281H8.56922V2.85725H8Z" fill="#F9EB11" />
        <path d="M7.99902 2.28584V2.85669H8.56824V2.28584H7.99902Z" fill="#F8AC14" />
        <path d="M8 1.71431V2.28516H8.56922V1.71431H8Z" fill="#F9EB11" />
        <path d="M8 1.1429V1.71375H8.56922V1.1429H8Z" fill="#F9EB11" />
        <path d="M6.29004 0.571362V1.14221H6.85926V0.571362H6.29004Z" fill="#F9EB11" />
        <path d="M5.71973 0.572461V1.14331H6.28894V0.572461H5.71973Z" fill="#F9EB11" />
        <path d="M6.85938 0.571973V1.14282H7.42859V0.571973H6.85938Z" fill="#F9EB11" />
        <path d="M7.42969 0.572583V1.14343H7.99891V0.572583H7.42969Z" fill="#F9EB11" />
        <path d="M9.13867 0.572705V1.14355H9.70789V0.572705H9.13867Z" fill="#F9EB11" />
        <path d="M9.70898 0.571607V1.14246H10.2782V0.571607H9.70898Z" fill="#F9EB11" />
        <path d="M8.56934 0.572095V1.14294H9.13855V0.572095H8.56934Z" fill="#F9EB11" />
        <path d="M7.99902 0.571484V1.14233H8.56824V0.571484H7.99902Z" fill="#F9EB11" />
        <path d="M13.6982 8.00129V8.57214H14.2675V8.00129H13.6982Z" fill="#F9EB11" />
        <path d="M13.6973 8.57271V9.14355H14.2665V8.57271H13.6973Z" fill="#F9EB11" />
        <path d="M13.6992 7.42976V8.00061H14.2684V7.42976H13.6992Z" fill="#F9EB11" />
        <path d="M13.1289 9.14351V9.71436H13.6981V9.14351H13.1289Z" fill="#F9EB11" />
        <path d="M13.1279 8.5721V9.14294H13.6971V8.5721H13.1279Z" fill="#F9EB11" />
        <path d="M13.1279 8.00068V8.57153H13.6971V8.00068H13.1279Z" fill="#F9EB11" />
        <path d="M13.1289 7.42915V8H13.6981V7.42915H13.1289Z" fill="#F9EB11" />
        <path d="M12.5576 10.2875V10.8584H13.1268V10.2875H12.5576Z" fill="#F9EB11" />
        <path d="M12.5586 9.71614V10.287H13.1278V9.71614H12.5586Z" fill="#F9EB11" />
        <path d="M12.5586 9.1446V9.71545H13.1278V9.1446H12.5586Z" fill="#F9EB11" />
        <path d="M12.5576 8.57319V9.14404H13.1268V8.57319H12.5576Z" fill="#F8F59B" />
        <path d="M12.5586 8.00178V8.57263H13.1278V8.00178H12.5586Z" fill="#F8F59B" />
        <path d="M12.5596 7.43025V8.0011H13.1288V7.43025H12.5596Z" fill="#F8F59B" />
        <path d="M11.9893 10.8583V11.4292H12.5585V10.8583H11.9893Z" fill="#F9EB11" />
        <path d="M11.9883 10.2869V10.8578H12.5575V10.2869H11.9883Z" fill="#F9EB11" />
        <path d="M11.9883 9.71553V10.2864H12.5575V9.71553H11.9883Z" fill="#F8F59B" />
        <path d="M11.9893 9.14399V9.71484H12.5585V9.14399H11.9893Z" fill="#F8F59B" />
        <path d="M11.9883 8.57258V9.14343H12.5575V8.57258H11.9883Z" fill="#F9EB11" />
        <path d="M11.9883 8.00117V8.57202H12.5575V8.00117H11.9883Z" fill="#F9EB11" />
        <path d="M11.9893 7.42964V8.00049H12.5585V7.42964H11.9893Z" fill="#F9EB11" />
        <path d="M11.4189 11.4293V12.0001H11.9882V11.4293H11.4189Z" fill="#F9EB11" />
        <path d="M11.4189 10.8577V11.4286H11.9882V10.8577H11.4189Z" fill="#F9EB11" />
        <path d="M11.418 10.2863V10.8572H11.9872V10.2863H11.418Z" fill="#F8F59B" />
        <path d="M11.4189 9.71492V10.2858H11.9882V9.71492H11.4189Z" fill="#F9EB11" />
        <path d="M11.4189 9.14338V9.71423H11.9882V9.14338H11.4189Z" fill="#F9EB11" />
        <path d="M11.418 8.57197V9.14282H11.9872V8.57197H11.418Z" fill="#F9EB11" />
        <path d="M11.4189 8.00056V8.57141H11.9882V8.00056H11.4189Z" fill="#F9EB11" />
        <path d="M11.4199 7.42903V7.99988H11.9891V7.42903H11.4199Z" fill="#F9EB11" />
        <path d="M10.8486 11.4304V12.0012H11.4179V11.4304H10.8486Z" fill="#F9EB11" />
        <path d="M10.8496 10.8588V11.4297H11.4188V10.8588H10.8496Z" fill="#F8F59B" />
        <path d="M10.8486 10.2874V10.8583H11.4179V10.2874H10.8486Z" fill="#F9EB11" />
        <path d="M10.8486 9.71602V10.2869H11.4179V9.71602H10.8486Z" fill="#F9EB11" />
        <path d="M10.8496 9.14448V9.71533H11.4188V9.14448H10.8496Z" fill="#F9EB11" />
        <path d="M10.8486 8.57307V9.14392H11.4179V8.57307H10.8486Z" fill="#F9EB11" />
        <path d="M10.8486 8.00166V8.57251H11.4179V8.00166H10.8486Z" fill="#F9EB11" />
        <path d="M10.8496 7.43013V8.00098H11.4188V7.43013H10.8496Z" fill="#F9EB11" />
        <path d="M10.2783 12.0012V12.572H10.8475V12.0012H10.2783Z" fill="#F9EB11" />
        <path d="M10.2793 11.4298V12.0006H10.8485V11.4298H10.2793Z" fill="#F9EB11" />
        <path d="M10.2793 10.8582V11.4291H10.8485V10.8582H10.2793Z" fill="#F8F59B" />
        <path d="M10.2783 10.2868V10.8577H10.8475V10.2868H10.2783Z" fill="#F9EB11" />
        <path d="M10.2793 9.71541V10.2863H10.8485V9.71541H10.2793Z" fill="#F9EB11" />
        <path d="M10.2793 9.14387V9.71472H10.8485V9.14387H10.2793Z" fill="#F9EB11" />
        <path d="M10.2783 8.57246V9.14331H10.8475V8.57246H10.2783Z" fill="#F9EB11" />
        <path d="M10.2793 8.00105V8.5719H10.8485V8.00105H10.2793Z" fill="#F9EB11" />
        <path d="M10.2803 7.42952V8.00037H10.8495V7.42952H10.2803Z" fill="#F9EB11" />
        <path d="M9.70898 12.0006V12.5714H10.2782V12.0006H9.70898Z" fill="#F9EB11" />
        <path d="M9.70898 11.4292V12H10.2782V11.4292H9.70898Z" fill="#F8F59B" />
        <path d="M9.70996 10.8576V11.4285H10.2792V10.8576H9.70996Z" fill="#F9EB11" />
        <path d="M9.70898 10.2862V10.8571H10.2782V10.2862H9.70898Z" fill="#F9EB11" />
        <path d="M9.70898 9.7148V10.2856H10.2782V9.7148H9.70898Z" fill="#F9EB11" />
        <path d="M9.70996 9.14326V9.71411H10.2792V9.14326H9.70996Z" fill="#F9EB11" />
        <path d="M9.70898 8.57185V9.1427H10.2782V8.57185H9.70898Z" fill="#F9EB11" />
        <path d="M9.70898 8.00044V8.57129H10.2782V8.00044H9.70898Z" fill="#F9EB11" />
        <path d="M9.70996 7.42891V7.99976H10.2792V7.42891H9.70996Z" fill="#F9EB11" />
        <path d="M9.13965 12.5731V13.1439H9.70887V12.5731H9.13965Z" fill="#F9EB11" />
        <path d="M9.13867 12.0017V12.5725H9.70789V12.0017H9.13867Z" fill="#F9EB11" />
        <path d="M9.13965 11.4302V12.0011H9.70887V11.4302H9.13965Z" fill="#F8F59B" />
        <path d="M9.13965 10.8587V11.4296H9.70887V10.8587H9.13965Z" fill="#F9EB11" />
        <path d="M9.13867 10.2873V10.8582H9.70789V10.2873H9.13867Z" fill="#F9EB11" />
        <path d="M9.13965 9.71589V10.2867H9.70887V9.71589H9.13965Z" fill="#F8AC14" />
        <path d="M9.13965 9.14436V9.71521H9.70887V9.14436H9.13965Z" fill="#F8AC14" />
        <path d="M9.13867 8.57295V9.1438H9.70789V8.57295H9.13867Z" fill="#F9EB11" />
        <path d="M9.13965 8.00154V8.57239H9.70887V8.00154H9.13965Z" fill="#F9EB11" />
        <path d="M9.14062 7.43001V8.00085H9.70984V7.43001H9.14062Z" fill="#F9EB11" />
        <path d="M8.57031 12.5725V13.1433H9.13953V12.5725H8.57031Z" fill="#F9EB11" />
        <path d="M8.56934 12.0011V12.5719H9.13855V12.0011H8.56934Z" fill="#F9EB11" />
        <path d="M8.56934 11.4296V12.0005H9.13855V11.4296H8.56934Z" fill="#F8F59B" />
        <path d="M8.57031 10.8581V11.429H9.13953V10.8581H8.57031Z" fill="#F9EB11" />
        <path d="M8.56934 10.2867V10.8575H9.13855V10.2867H8.56934Z" fill="#F9EB11" />
        <path d="M8.56934 9.71528V10.2861H9.13855V9.71528H8.56934Z" fill="#F8AC14" />
        <path d="M8.57031 9.14375V9.7146H9.13953V9.14375H8.57031Z" fill="#F8AC14" />
        <path d="M8.56934 8.57234V9.14319H9.13855V8.57234H8.56934Z" fill="#F9EB11" />
        <path d="M8.57031 8.00093V8.57178H9.13953V8.00093H8.57031Z" fill="#F9EB11" />
        <path d="M8.57031 7.42939V8.00024H9.13953V7.42939H8.57031Z" fill="#F9EB11" />
        <path d="M8 12.5719V13.1427H8.56922V12.5719H8Z" fill="#F9EB11" />
        <path d="M1.73145 8.57185V9.1427H2.30066V8.57185H1.73145Z" fill="#F9EB11" />
        <path d="M2.30176 9.71541V10.2863H2.87098V9.71541H2.30176Z" fill="#F9EB11" />
        <path d="M2.87207 10.859V11.4298H3.44129V10.859H2.87207Z" fill="#F9EB11" />
        <path d="M3.44141 11.4293V12.0001H4.01062V11.4293H3.44141Z" fill="#F9EB11" />
        <path d="M4.01074 12.0013V12.5721H4.57996V12.0013H4.01074Z" fill="#F9EB11" />
        <path d="M4.58008 12.0019V12.5728H5.1493V12.0019H4.58008Z" fill="#F9EB11" />
        <path d="M5.15137 12.5722V13.1431H5.72058V12.5722H5.15137Z" fill="#F9EB11" />
        <path d="M5.7207 12.5728V13.1437H6.28992V12.5728H5.7207Z" fill="#F9EB11" />
        <path d="M6.29004 13.1433V13.7141H6.85926V13.1433H6.29004Z" fill="#F9EB11" />
        <path d="M1.16211 6.85859V7.42944H1.73133V6.85859H1.16211Z" fill="#F9EB11" />
        <path d="M1.16211 6.28718V6.85803H1.73133V6.28718H1.16211Z" fill="#F9EB11" />
        <path d="M1.16309 5.71577V6.28662H1.7323V5.71577H1.16309Z" fill="#F9EB11" />
        <path d="M1.73242 4.57173V5.14258H2.30164V4.57173H1.73242Z" fill="#F9EB11" />
        <path d="M2.30176 3.42939V4.00024H2.87098V3.42939H2.30176Z" fill="#F9EB11" />
        <path d="M1.16211 8.00154V8.57239H1.73133V8.00154H1.16211Z" fill="#F9EB11" />
        <path d="M1.16309 7.43013V8.00098H1.7323V7.43013H1.16309Z" fill="#F9EB11" />
        <path d="M1.73242 9.14338V9.71423H2.30164V9.14338H1.73242Z" fill="#F9EB11" />
        <path d="M2.30078 10.2868V10.8577H2.87V10.2868H2.30078Z" fill="#F9EB11" />
        <path d="M1.16211 5.14424V5.71509H1.73133V5.14424H1.16211Z" fill="#F9EB11" />
        <path d="M1.73145 4.00032V4.57117H2.30066V4.00032H1.73145Z" fill="#F9EB11" />
        <path d="M2.30176 2.85798V3.42883H2.87098V2.85798H2.30176Z" fill="#F9EB11" />
        <path d="M2.87109 2.28718V2.85803H3.44031V2.28718H2.87109Z" fill="#F9EB11" />
        <path d="M3.44141 1.71455V2.2854H4.01062V1.71455H3.44141Z" fill="#F9EB11" />
        <path d="M4.58203 1.14436V1.71521H5.15125V1.14436H4.58203Z" fill="#F9EB11" />
        <path d="M1.16113 8.57295V9.1438H1.73035V8.57295H1.16113Z" fill="#F9EB11" />
        <path d="M1.73145 9.71479V10.2856H2.30066V9.71479H1.73145Z" fill="#F9EB11" />
        <path d="M2.30176 10.8583V11.4292H2.87098V10.8583H2.30176Z" fill="#F9EB11" />
        <path d="M2.87109 11.4304V12.0012H3.44031V11.4304H2.87109Z" fill="#F9EB11" />
        <path d="M3.44043 12.0007V12.5715H4.00965V12.0007H3.44043Z" fill="#F9EB11" />
        <path d="M4.58105 12.5733V13.1442H5.15027V12.5733H4.58105Z" fill="#F9EB11" />
        <path d="M5.7207 13.1444V13.7152H6.28992V13.1444H5.7207Z" fill="#F9EB11" />
        <path d="M6.86035 13.1439V13.7147H7.42957V13.1439H6.86035Z" fill="#F9EB11" />
        <path d="M7.42969 13.1445V13.7153H7.9989V13.1445H7.42969Z" fill="#F9EB11" />
        <path d="M13.1279 9.71504V10.2859H13.6971V9.71504H13.1279Z" fill="#F9EB11" />
        <path d="M12.5586 10.859V11.4298H13.1278V10.859H12.5586Z" fill="#F9EB11" />
        <path d="M11.9883 11.4299V12.0007H12.5575V11.4299H11.9883Z" fill="#F9EB11" />
        <path d="M11.418 12.0007V12.5715H11.9872V12.0007H11.418Z" fill="#F9EB11" />
        <path d="M10.8486 12.0018V12.5726H11.4179V12.0018H10.8486Z" fill="#F9EB11" />
        <path d="M10.2793 12.5726V13.1434H10.8485V12.5726H10.2793Z" fill="#F9EB11" />
        <path d="M9.70996 12.572V13.1428H10.2792V12.572H9.70996Z" fill="#F9EB11" />
        <path d="M9.13965 13.1446V13.7155H9.70887V13.1446H9.13965Z" fill="#F9EB11" />
        <path d="M14.2676 6.85725V7.4281H14.8368V6.85725H14.2676Z" fill="#F9EB11" />
        <path d="M14.2686 6.28584V6.85669H14.8378V6.28584H14.2686Z" fill="#F9EB11" />
        <path d="M14.2686 5.71431V6.28516H14.8378V5.71431H14.2686Z" fill="#F9EB11" />
        <path d="M13.6982 4.57258V5.14343H14.2675V4.57258H13.6982Z" fill="#F9EB11" />
        <path d="M13.1279 3.42903V3.99988H13.6971V3.42903H13.1279Z" fill="#F9EB11" />
        <path d="M14.2676 5.14289V5.71375H14.8368V5.14289H14.2676Z" fill="#F9EB11" />
        <path d="M13.6973 4.00105V4.5719H14.2665V4.00105H13.6973Z" fill="#F9EB11" />
        <path d="M13.1289 2.85762V3.42847H13.6981V2.85762H13.1289Z" fill="#F9EB11" />
        <path d="M12.5576 2.28718V2.85803H13.1268V2.28718H12.5576Z" fill="#F9EB11" />
        <path d="M11.9883 1.71516V2.28601H12.5575V1.71516H11.9883Z" fill="#F9EB11" />
        <path d="M10.8496 1.14424V1.71509H11.4188V1.14424H10.8496Z" fill="#F9EB11" />
        <path d="M4.01172 1.14375V1.7146H4.58094V1.14375H4.01172Z" fill="#F9EB11" />
        <path d="M5.15039 0.571851V1.1427H5.71961V0.571851H5.15039Z" fill="#F9EB11" />
        <path d="M11.4189 1.14314V1.71399H11.9882V1.14314H11.4189Z" fill="#F9EB11" />
        <path d="M10.2783 0.572217V1.14307H10.8475V0.572217H10.2783Z" fill="#F9EB11" />
        <path d="M1.16211 4.57283V5.14368H1.73133V4.57283H1.16211Z" fill="#F9EB11" />
        <path d="M1.73145 3.42878V3.99963H2.30066V3.42878H1.73145Z" fill="#F9EB11" />
        <path d="M2.30078 2.28657V2.85742H2.87V2.28657H2.30078Z" fill="#F9EB11" />
        <path d="M2.87109 1.71565V2.2865H3.44031V1.71565H2.87109Z" fill="#F9EB11" />
        <path d="M14.2686 4.57148V5.14233H14.8378V4.57148H14.2686Z" fill="#F9EB11" />
        <path d="M13.6982 3.42964V4.00049H14.2675V3.42964H13.6982Z" fill="#F9EB11" />
        <path d="M13.1279 2.28608V2.85693H13.6971V2.28608H13.1279Z" fill="#F9EB11" />
        <path d="M12.5586 1.71577V2.28662H13.1278V1.71577H12.5586Z" fill="#F9EB11" />
        <path d="M14.2676 8.00019V8.57104H14.8368V8.00019H14.2676Z" fill="#F9EB11" />
        <path d="M14.2676 8.57161V9.14246H14.8368V8.57161H14.2676Z" fill="#F9EB11" />
        <path d="M14.2686 9.14302V9.71387H14.8378V9.14302H14.2686Z" fill="#F9EB11" />
        <path d="M14.2686 7.42866V7.99951H14.8378V7.42866H14.2686Z" fill="#F9EB11" />
        <path d="M13.6982 9.14412V9.71497H14.2675V9.14412H13.6982Z" fill="#F9EB11" />
        <path d="M13.1279 10.2865V10.8573H13.6971V10.2865H13.1279Z" fill="#F9EB11" />
        <path d="M13.6982 9.71565V10.2865H14.2675V9.71565H13.6982Z" fill="#F9EB11" />
        <path d="M13.1289 10.8579V11.4287H13.6981V10.8579H13.1289Z" fill="#F9EB11" />
        <path d="M12.5586 11.4304V12.0012H13.1278V11.4304H12.5586Z" fill="#F9EB11" />
        <path d="M11.9883 12.0013V12.5721H12.5575V12.0013H11.9883Z" fill="#F9EB11" />
        <path d="M10.8496 12.5732V13.144H11.4188V12.5732H10.8496Z" fill="#F9EB11" />
        <path d="M9.70898 13.1435V13.7144H10.2782V13.1435H9.70898Z" fill="#F9EB11" />
        <path d="M8.56934 13.144V13.7148H9.13855V13.144H8.56934Z" fill="#F9EB11" />
        <path d="M8 13.1434V13.7142H8.56922V13.1434H8Z" fill="#F9EB11" />
        <path d="M4.01172 12.5727V13.1436H4.58094V12.5727H4.01172Z" fill="#F9EB11" />
        <path d="M5.15039 13.1438V13.7146H5.71961V13.1438H5.15039Z" fill="#F9EB11" />
        <path d="M1.16309 9.14448V9.71533H1.7323V9.14448H1.16309Z" fill="#F9EB11" />
        <path d="M1.73145 10.2862V10.8571H2.30066V10.2862H1.73145Z" fill="#F9EB11" />
        <path d="M2.30176 11.4298V12.0006H2.87098V11.4298H2.30176Z" fill="#F9EB11" />
        <path d="M2.87109 12.0018V12.5726H3.44031V12.0018H2.87109Z" fill="#F9EB11" />
        <path d="M11.4189 12.5721V13.1429H11.9882V12.5721H11.4189Z" fill="#F9EB11" />
        <path d="M10.2793 13.1441V13.715H10.8485V13.1441H10.2793Z" fill="#F9EB11" />
        <path d="M13.6973 10.2871V10.8579H14.2665V10.2871H13.6973Z" fill="#F9EB11" />
        <path d="M13.1279 11.4294V12.0002H13.6971V11.4294H13.1279Z" fill="#F9EB11" />
        <path d="M12.5576 12.0019V12.5728H13.1268V12.0019H12.5576Z" fill="#F9EB11" />
        <path d="M7.99902 12.0004V12.5713H8.56824V12.0004H7.99902Z" fill="#F9EB11" />
        <path d="M8 11.429V11.9999H8.56922V11.429H8Z" fill="#F8F59B" />
        <path d="M8 10.8575V11.4283H8.56922V10.8575H8Z" fill="#F9EB11" />
        <path d="M7.99902 10.2861V10.8569H8.56824V10.2861H7.99902Z" fill="#F9EB11" />
        <path d="M8 9.71467V10.2855H8.56922V9.71467H8Z" fill="#F8AC14" />
        <path d="M8.00098 9.14326V9.71411H8.57019V9.14326H8.00098Z" fill="#F8AC14" />
        <path d="M7.99902 8.57173V9.14258H8.56824V8.57173H7.99902Z" fill="#F8AC14" />
        <path d="M8 8.00032V8.57117H8.56922V8.00032H8Z" fill="#F8AC14" />
        <path d="M8.00098 7.42891V7.99976H8.57019V7.42891H8.00098Z" fill="#F8AC14" />
        <path d="M6.29102 -0.000171185V0.570679H6.86023V-0.000171185H6.29102Z" fill="#430005" />
        <path d="M5.7207 0.000928044V0.571777H6.28992V0.000928044H5.7207Z" fill="#430005" />
        <path d="M5.15137 0.000317693V0.571167H5.72058V0.000317693H5.15137Z" fill="#430005" />
        <path d="M6.86035 0.000439763V0.571289H7.42957V0.000439763H6.86035Z" fill="#430005" />
        <path d="M7.42969 0.00105011V0.571899H7.99891V0.00105011H7.42969Z" fill="#430005" />
        <path d="M9.13965 0.00117218V0.572021H9.70887V0.00117218H9.13965Z" fill="#430005" />
        <path d="M9.70898 7.35521e-05V0.570923H10.2782V7.35521e-05H9.70898Z" fill="#430005" />
        <path d="M10.2793 0.000683904V0.571533H10.8485V0.000683904H10.2793Z" fill="#430005" />
        <path d="M8.56934 0.000561833V0.571411H9.13855V0.000561833H8.56934Z" fill="#430005" />
        <path d="M8 -4.91142e-05V0.570801H8.56922V-4.91142e-05H8Z" fill="#430005" />
        <path d="M3.44238 1.14314V1.71399H4.0116V1.14314H3.44238Z" fill="#430005" />
        <path d="M4.58008 0.572949V1.1438H5.1493V0.572949H4.58008Z" fill="#430005" />
        <path d="M11.9893 1.14375V1.7146H12.5585V1.14375H11.9893Z" fill="#430005" />
        <path d="M10.8486 0.572705V1.14355H11.4179V0.572705H10.8486Z" fill="#430005" />
        <path d="M6.29102 13.7147V14.2855H6.86023V13.7147H6.29102Z" fill="#430005" />
        <path d="M3.44141 12.5722V13.1431H4.01062V12.5722H3.44141Z" fill="#430005" />
        <path d="M3.44141 13.1436V13.7145H4.01062V13.1436H3.44141Z" fill="#B70000" />
        <path d="M4.58105 13.1448V13.7157H5.15027V13.1448H4.58105Z" fill="#430005" />
        <path d="M5.72168 13.7158V14.2866H6.2909V13.7158H5.72168Z" fill="#430005" />
        <path d="M0.591797 6.85798V7.42883H1.16101V6.85798H0.591797Z" fill="#430005" />
        <path d="M0.592773 6.28657V6.85742H1.16199V6.28657H0.592773Z" fill="#430005" />
        <path d="M0.592773 5.71516V6.28601H1.16199V5.71516H0.592773Z" fill="#430005" />
        <path d="M0.592773 8.00093V8.57178H1.16199V8.00093H0.592773Z" fill="#430005" />
        <path d="M0.592773 7.42952V8.00037H1.16199V7.42952H0.592773Z" fill="#430005" />
        <path d="M0.591797 5.14363V5.71448H1.16101V5.14363H0.591797Z" fill="#430005" />
        <path d="M1.16113 4.00142V4.57227H1.73035V4.00142H1.16113Z" fill="#430005" />
        <path d="M1.73242 2.85737V3.42822H2.30164V2.85737H1.73242Z" fill="#430005" />
        <path d="M0.591797 8.57234V9.14319H1.16101V8.57234H0.591797Z" fill="#430005" />
        <path d="M1.16211 9.71589V10.2867H1.73133V9.71589H1.16211Z" fill="#430005" />
        <path d="M1.73242 10.8577V11.4286H2.30164V10.8577H1.73242Z" fill="#430005" />
        <path d="M0.592773 4.57222V5.14307H1.16199V4.57222H0.592773Z" fill="#430005" />
        <path d="M1.16211 3.42988V4.00073H1.73133V3.42988H1.16211Z" fill="#430005" />
        <path d="M1.73145 2.28596V2.85681H2.30066V2.28596H1.73145Z" fill="#430005" />
        <path d="M2.30176 1.71504V2.28589H2.87098V1.71504H2.30176Z" fill="#430005" />
        <path d="M2.87207 1.14424V1.71509H3.44129V1.14424H2.87207Z" fill="#430005" />
        <path d="M4.01074 0.572339V1.14319H4.57996V0.572339H4.01074Z" fill="#430005" />
        <path d="M0.592773 9.14387V9.71472H1.16199V9.14387H0.592773Z" fill="#430005" />
        <path d="M1.16113 10.2873V10.8582H1.73035V10.2873H1.16113Z" fill="#430005" />
        <path d="M1.73145 11.4292V12H2.30066V11.4292H1.73145Z" fill="#430005" />
        <path d="M2.30078 12.0012V12.572H2.87V12.0012H2.30078Z" fill="#430005" />
        <path d="M2.87207 12.5732V13.144H3.44129V12.5732H2.87207Z" fill="#430005" />
        <path d="M4.01074 13.1442V13.7151H4.57996V13.1442H4.01074Z" fill="#430005" />
        <path d="M5.15137 13.7152V14.286H5.72059V13.7152H5.15137Z" fill="#430005" />
        <path d="M6.86133 13.7153V14.2861H7.43055V13.7153H6.86133Z" fill="#430005" />
        <path d="M7.43066 13.7159V14.2867H7.99988V13.7159H7.43066Z" fill="#430005" />
        <path d="M9.14062 13.716V14.2869H9.70984V13.716H9.14062Z" fill="#430005" />
        <path d="M11.9893 12.5727V13.1436H12.5585V12.5727H11.9893Z" fill="#430005" />
        <path d="M10.8486 13.1447V13.7156H11.4179V13.1447H10.8486Z" fill="#430005" />
        <path d="M9.70996 13.7149V14.2858H10.2792V13.7149H9.70996Z" fill="#430005" />
        <path d="M14.8369 6.85786V7.42871H15.4061V6.85786H14.8369Z" fill="#430005" />
        <path d="M14.8379 6.28645V6.8573H15.4071V6.28645H14.8379Z" fill="#430005" />
        <path d="M14.8389 5.71492V6.28577H15.4081V5.71492H14.8389Z" fill="#430005" />
        <path d="M14.8379 5.14351V5.71436H15.4071V5.14351H14.8379Z" fill="#430005" />
        <path d="M14.2676 3.99995V4.5708H14.8368V3.99995H14.2676Z" fill="#430005" />
        <path d="M13.6982 2.85823V3.42908H14.2675V2.85823H13.6982Z" fill="#430005" />
        <path d="M14.8379 4.5721V5.14294H15.4071V4.5721H14.8379Z" fill="#430005" />
        <path d="M14.2676 3.42854V3.99939H14.8368V3.42854H14.2676Z" fill="#430005" />
        <path d="M13.6973 2.28669V2.85754H14.2665V2.28669H13.6973Z" fill="#430005" />
        <path d="M13.1279 1.71467V2.28552H13.6971V1.71467H13.1279Z" fill="#430005" />
        <path d="M12.5586 1.14436V1.71521H13.1278V1.14436H12.5586Z" fill="#430005" />
        <path d="M11.418 0.571729V1.14258H11.9872V0.571729H11.418Z" fill="#430005" />
        <path d="M14.8379 8.00081V8.57166H15.4071V8.00081H14.8379Z" fill="#430005" />
        <path d="M14.8369 8.57222V9.14307H15.4061V8.57222H14.8369Z" fill="#430005" />
        <path d="M14.8379 9.14363V9.71448H15.4071V9.14363H14.8379Z" fill="#430005" />
        <path d="M14.8389 7.42927V8.00012H15.4081V7.42927H14.8389Z" fill="#430005" />
        <path d="M14.2676 9.71455V10.2854H14.8368V9.71455H14.2676Z" fill="#430005" />
        <path d="M13.6982 10.8585V11.4293H14.2675V10.8585H13.6982Z" fill="#430005" />
        <path d="M14.2676 10.286V10.8568H14.8368V10.286H14.2676Z" fill="#430005" />
        <path d="M13.6982 11.4299V12.0007H14.2675V11.4299H13.6982Z" fill="#430005" />
        <path d="M13.1279 12.0008V12.5717H13.6971V12.0008H13.1279Z" fill="#430005" />
        <path d="M12.5586 12.5733V13.1442H13.1278V12.5733H12.5586Z" fill="#430005" />
        <path d="M2.87109 13.1447V13.7156H3.44031V13.1447H2.87109Z" fill="#560000" />
        <path d="M12.5586 13.1447V13.7156H13.1278V13.1447H12.5586Z" fill="#560000" />
        <path d="M2.87207 13.7161V14.287H3.44129V13.7161H2.87207Z" fill="#560000" />
        <path d="M12.5596 13.7163V14.2871H13.1288V13.7163H12.5596Z" fill="#560000" />
        <path d="M2.87207 14.2875V14.8584H3.44129V14.2875H2.87207Z" fill="#560000" />
        <path d="M12.5586 14.2877V14.8585H13.1278V14.2877H12.5586Z" fill="#560000" />
        <path d="M2.87109 14.8591V15.4299H3.44031V14.8591H2.87109Z" fill="#560000" />
        <path d="M12.5576 14.8591V15.4299H13.1268V14.8591H12.5576Z" fill="#560000" />
        <path d="M2.87207 15.4305V16.0013H3.44129V15.4305H2.87207Z" fill="#560000" />
        <path d="M12.5596 15.4306V16.0015H13.1288V15.4306H12.5596Z" fill="#560000" />
        <path d="M2.87207 16.0019V16.5728H3.44129V16.0019H2.87207Z" fill="#560000" />
        <path d="M12.5586 16.002V16.5729H13.1278V16.002H12.5586Z" fill="#560000" />
        <path d="M2.87109 16.5734V17.1443H3.44031V16.5734H2.87109Z" fill="#560000" />
        <path d="M12.5576 16.5734V17.1443H13.1268V16.5734H12.5576Z" fill="#560000" />
        <path d="M2.87207 17.1448V17.7157H3.44129V17.1448H2.87207Z" fill="#560000" />
        <path d="M12.5586 17.145V17.7158H13.1278V17.145H12.5586Z" fill="#560000" />
        <path d="M2.87109 17.7163V18.2871H3.44031V17.7163H2.87109Z" fill="#560000" />
        <path d="M12.5586 17.7164V18.2872H13.1278V17.7164H12.5586Z" fill="#560000" />
        <path d="M2.87109 18.2878V18.8586H3.44031V18.2878H2.87109Z" fill="#560000" />
        <path d="M12.5576 18.2878V18.8586H13.1268V18.2878H12.5576Z" fill="#560000" />
        <path d="M11.4189 13.1436V13.7145H11.9882V13.1436H11.4189Z" fill="#430005" />
        <path d="M3.44238 13.715V14.2859H4.0116V13.715H3.44238Z" fill="#B70000" />
        <path d="M4.58203 13.7163V14.2871H5.15125V13.7163H4.58203Z" fill="#CE0B0B" />
        <path d="M4.01172 13.7156V14.2865H4.58094V13.7156H4.01172Z" fill="#CE0B0B" />
        <path d="M11.9883 13.1442V13.7151H12.5575V13.1442H11.9883Z" fill="#B70000" />
        <path d="M11.9893 13.7156V14.2865H12.5585V13.7156H11.9893Z" fill="#B70000" />
        <path d="M10.8496 13.7161V14.287H11.4188V13.7161H10.8496Z" fill="#CE0B0B" />
        <path d="M11.4199 13.715V14.2859H11.9891V13.715H11.4199Z" fill="#CE0B0B" />
        <path d="M10.2803 13.7155V14.2864H10.8495V13.7155H10.2803Z" fill="#430005" />
        <path d="M8.57031 13.7154V14.2863H9.13953V13.7154H8.57031Z" fill="#430005" />
        <path d="M8.00098 13.7148V14.2856H8.5702V13.7148H8.00098Z" fill="#430005" />
        <path d="M6.29102 14.2861V14.8569H6.86023V14.2861H6.29102Z" fill="#CE0B0B" />
        <path d="M5.7207 14.2872V14.858H6.28992V14.2872H5.7207Z" fill="#CE0B0B" />
        <path d="M5.15137 14.2866V14.8574H5.72058V14.2866H5.15137Z" fill="#CE0B0B" />
        <path d="M6.86035 14.2867V14.8575H7.42957V14.2867H6.86035Z" fill="#CE0B0B" />
        <path d="M7.43066 14.2873V14.8582H7.99988V14.2873H7.43066Z" fill="#CE0B0B" />
        <path d="M9.13965 14.2874V14.8583H9.70887V14.2874H9.13965Z" fill="#CE0B0B" />
        <path d="M9.70996 14.2863V14.8572H10.2792V14.2863H9.70996Z" fill="#CE0B0B" />
        <path d="M3.44141 14.2866V14.8574H4.01062V14.2866H3.44141Z" fill="#B70000" />
        <path d="M4.58105 14.2877V14.8585H5.15027V14.2877H4.58105Z" fill="#CE0B0B" />
        <path d="M4.01172 14.2871V14.8579H4.58094V14.2871H4.01172Z" fill="#CE0B0B" />
        <path d="M11.9893 14.2871V14.8579H12.5585V14.2871H11.9893Z" fill="#B70000" />
        <path d="M10.8496 14.2875V14.8584H11.4188V14.2875H10.8496Z" fill="#CE0B0B" />
        <path d="M11.4189 14.2865V14.8573H11.9882V14.2865H11.4189Z" fill="#CE0B0B" />
        <path d="M10.2793 14.2869V14.8578H10.8485V14.2869H10.2793Z" fill="#CE0B0B" />
        <path d="M8.57031 14.2868V14.8577H9.13953V14.2868H8.57031Z" fill="#CE0B0B" />
        <path d="M8 14.2862V14.8571H8.56922V14.2862H8Z" fill="#CE0B0B" />
        <path d="M6.29004 14.8576V15.4285H6.85926V14.8576H6.29004Z" fill="#CE0B0B" />
        <path d="M5.7207 14.8587V15.4296H6.28992V14.8587H5.7207Z" fill="#CE0B0B" />
        <path d="M5.15039 14.8581V15.429H5.71961V14.8581H5.15039Z" fill="#CE0B0B" />
        <path d="M6.86035 14.8582V15.4291H7.42957V14.8582H6.86035Z" fill="#CE0B0B" />
        <path d="M7.42969 14.8588V15.4297H7.9989V14.8588H7.42969Z" fill="#B70000" />
        <path d="M9.13965 14.859V15.4298H9.70887V14.859H9.13965Z" fill="#CE0B0B" />
        <path d="M9.70898 14.8579V15.4287H10.2782V14.8579H9.70898Z" fill="#CE0B0B" />
        <path d="M3.44141 14.858V15.4288H4.01062V14.858H3.44141Z" fill="#B70000" />
        <path d="M4.58105 14.8592V15.4301H5.15027V14.8592H4.58105Z" fill="#CE0B0B" />
        <path d="M4.01074 14.8586V15.4294H4.57996V14.8586H4.01074Z" fill="#CE0B0B" />
        <path d="M11.9883 14.8586V15.4294H12.5575V14.8586H11.9883Z" fill="#B70000" />
        <path d="M10.8486 14.8591V15.4299H11.4179V14.8591H10.8486Z" fill="#CE0B0B" />
        <path d="M11.418 14.858V15.4288H11.9872V14.858H11.418Z" fill="#CE0B0B" />
        <path d="M10.2793 14.8585V15.4293H10.8485V14.8585H10.2793Z" fill="#CE0B0B" />
        <path d="M8.56934 14.8583V15.4292H9.13855V14.8583H8.56934Z" fill="#CE0B0B" />
        <path d="M8 14.8577V15.4286H8.56922V14.8577H8Z" fill="#B70000" />
        <path d="M6.29102 15.429V15.9999H6.86023V15.429H6.29102Z" fill="#CE0B0B" />
        <path d="M5.72168 15.4301V16.001H6.2909V15.4301H5.72168Z" fill="#CE0B0B" />
        <path d="M5.15137 15.4295V16.0004H5.72059V15.4295H5.15137Z" fill="#CE0B0B" />
        <path d="M6.86133 15.4296V16.0005H7.43055V15.4296H6.86133Z" fill="#B70000" />
        <path d="M9.14062 15.4304V16.0012H9.70984V15.4304H9.14062Z" fill="#CE0B0B" />
        <path d="M9.70996 15.4293V16.0001H10.2792V15.4293H9.70996Z" fill="#CE0B0B" />
        <path d="M3.44238 15.4294V16.0002H4.0116V15.4294H3.44238Z" fill="#B70000" />
        <path d="M4.58203 15.4306V16.0015H5.15125V15.4306H4.58203Z" fill="#CE0B0B" />
        <path d="M4.01172 15.43V16.0009H4.58094V15.43H4.01172Z" fill="#CE0B0B" />
        <path d="M11.9893 15.43V16.0009H12.5585V15.43H11.9893Z" fill="#B70000" />
        <path d="M10.8496 15.4305V16.0013H11.4188V15.4305H10.8496Z" fill="#CE0B0B" />
        <path d="M11.4199 15.4294V16.0002H11.9891V15.4294H11.4199Z" fill="#CE0B0B" />
        <path d="M10.2803 15.4299V16.0007H10.8495V15.4299H10.2803Z" fill="#CE0B0B" />
        <path d="M8.57031 15.4298V16.0006H9.13953V15.4298H8.57031Z" fill="#B70000" />
        <path d="M6.29102 16.0004V16.5713H6.86023V16.0004H6.29102Z" fill="#B70000" />
        <path d="M5.7207 16.0015V16.5724H6.28992V16.0015H5.7207Z" fill="#CE0B0B" />
        <path d="M5.15137 16.0009V16.5718H5.72058V16.0009H5.15137Z" fill="#CE0B0B" />
        <path d="M9.13965 16.0018V16.5726H9.70887V16.0018H9.13965Z" fill="#B70000" />
        <path d="M9.70996 16.0007V16.5715H10.2792V16.0007H9.70996Z" fill="#CE0B0B" />
        <path d="M3.44141 16.0009V16.5718H4.01062V16.0009H3.44141Z" fill="#B70000" />
        <path d="M4.58105 16.002V16.5729H5.15027V16.002H4.58105Z" fill="#CE0B0B" />
        <path d="M4.01172 16.0014V16.5723H4.58094V16.0014H4.01172Z" fill="#CE0B0B" />
        <path d="M11.9883 16.0014V16.5723H12.5575V16.0014H11.9883Z" fill="#B70000" />
        <path d="M10.8486 16.0019V16.5728H11.4179V16.0019H10.8486Z" fill="#CE0B0B" />
        <path d="M11.4189 16.0008V16.5717H11.9882V16.0008H11.4189Z" fill="#CE0B0B" />
        <path d="M10.2793 16.0013V16.5721H10.8485V16.0013H10.2793Z" fill="#CE0B0B" />
        <path d="M5.71973 16.5731V17.1439H6.28894V16.5731H5.71973Z" fill="#B70000" />
        <path d="M5.15039 16.5725V17.1433H5.71961V16.5725H5.15039Z" fill="#CE0B0B" />
        <path d="M9.70898 16.5722V17.1431H10.2782V16.5722H9.70898Z" fill="#B70000" />
        <path d="M3.44043 16.5723V17.1432H4.00965V16.5723H3.44043Z" fill="#B70000" />
        <path d="M4.58008 16.5736V17.1444H5.1493V16.5736H4.58008Z" fill="#CE0B0B" />
        <path d="M4.01074 16.5729V17.1438H4.57996V16.5729H4.01074Z" fill="#CE0B0B" />
        <path d="M11.9883 16.5729V17.1438H12.5575V16.5729H11.9883Z" fill="#B70000" />
        <path d="M10.8486 16.5734V17.1443H11.4179V16.5734H10.8486Z" fill="#CE0B0B" />
        <path d="M11.418 16.5723V17.1432H11.9872V16.5723H11.418Z" fill="#CE0B0B" />
        <path d="M10.2783 16.5728V17.1437H10.8475V16.5728H10.2783Z" fill="#CE0B0B" />
        <path d="M5.15137 17.1439V17.7147H5.72059V17.1439H5.15137Z" fill="#B70000" />
        <path d="M3.44238 17.1438V17.7146H4.0116V17.1438H3.44238Z" fill="#B70000" />
        <path d="M4.58203 17.145V17.7158H5.15125V17.145H4.58203Z" fill="#CE0B0B" />
        <path d="M4.01172 17.1444V17.7152H4.58094V17.1444H4.01172Z" fill="#CE0B0B" />
        <path d="M11.9893 17.1444V17.7152H12.5585V17.1444H11.9893Z" fill="#B70000" />
        <path d="M10.8496 17.1448V17.7157H11.4188V17.1448H10.8496Z" fill="#CE0B0B" />
        <path d="M11.4189 17.1438V17.7146H11.9882V17.1438H11.4189Z" fill="#CE0B0B" />
        <path d="M10.2803 17.1442V17.7151H10.8495V17.1442H10.2803Z" fill="#B70000" />
        <path d="M3.44141 17.7153V18.2861H4.01062V17.7153H3.44141Z" fill="#B70000" />
        <path d="M4.58105 17.7164V18.2872H5.15027V17.7164H4.58105Z" fill="#B70000" />
        <path d="M4.01074 17.7158V18.2866H4.57996V17.7158H4.01074Z" fill="#CE0B0B" />
        <path d="M11.9883 17.7158V18.2866H12.5575V17.7158H11.9883Z" fill="#B70000" />
        <path d="M10.8486 17.7163V18.2871H11.4178V17.7163H10.8486Z" fill="#B70000" />
        <path d="M11.4189 17.7152V18.286H11.9882V17.7152H11.4189Z" fill="#CE0B0B" />
        <path d="M3.44043 18.2867V18.8575H4.00965V18.2867H3.44043Z" fill="#B70000" />
        <path d="M4.01074 18.2873V18.8582H4.57996V18.2873H4.01074Z" fill="#B70000" />
        <path d="M11.9883 18.2873V18.8582H12.5575V18.2873H11.9883Z" fill="#B70000" />
        <path d="M2.87207 18.8592V19.4301H3.44129V18.8592H2.87207Z" fill="#560000" />
        <path d="M12.5586 18.8593V19.4302H13.1278V18.8593H12.5586Z" fill="#560000" />
        <path d="M3.44141 18.8581V19.429H4.01062V18.8581H3.44141Z" fill="#B70000" />
        <path d="M11.9893 18.8587V19.4296H12.5585V18.8587H11.9893Z" fill="#B70000" />
        <path d="M11.418 18.2867V18.8575H11.9872V18.2867H11.418Z" fill="#B70000" />
        <path d="M7.43066 15.4302V16.0011H7.99988V15.4302H7.43066Z" fill="#560000" />
        <path d="M8.00098 15.4292V16H8.5702V15.4292H8.00098Z" fill="#560000" />
        <path d="M6.86035 16.0011V16.5719H7.42957V16.0011H6.86035Z" fill="#560000" />
        <path d="M8.57031 16.0012V16.572H9.13953V16.0012H8.57031Z" fill="#560000" />
        <path d="M6.29004 16.572V17.1428H6.85926V16.572H6.29004Z" fill="#560000" />
        <path d="M9.13867 16.5733V17.1442H9.70789V16.5733H9.13867Z" fill="#560000" />
        <path d="M5.72168 17.1445V17.7153H6.2909V17.1445H5.72168Z" fill="#560000" />
        <path d="M9.70996 17.1436V17.7145H10.2792V17.1436H9.70996Z" fill="#560000" />
        <path d="M5.15039 17.7153V18.2861H5.71961V17.7153H5.15039Z" fill="#560000" />
        <path d="M10.2793 17.7156V18.2865H10.8485V17.7156H10.2793Z" fill="#560000" />
        <path d="M4.58008 18.2879V18.8588H5.1493V18.2879H4.58008Z" fill="#560000" />
        <path d="M10.8486 18.2878V18.8586H11.4179V18.2878H10.8486Z" fill="#560000" />
        <path d="M4.01172 18.8587V19.4296H4.58094V18.8587H4.01172Z" fill="#560000" />
        <path d="M2.87109 19.4306V20.0015H3.44031V19.4306H2.87109Z" fill="#560000" />
        <path d="M12.5586 19.4307V20.0016H13.1278V19.4307H12.5586Z" fill="#560000" />
        <path d="M3.44141 19.4296V20.0005H4.01062V19.4296H3.44141Z" fill="#560000" />
        <path d="M11.9883 19.4301V20.001H12.5575V19.4301H11.9883Z" fill="#560000" />
        <path d="M11.4189 18.8581V19.429H11.9882V18.8581H11.4189Z" fill="#560000" />
    </g>
    <defs>
        <clipPath id="clip0_3615_10346">
            <rect width="14.8148" height="20" fill="white" transform="translate(0.592773)" />
        </clipPath>
    </defs>
</svg>
    