<svg width="16" height="20" viewBox="0 0 16 20" fill="none" xmlns="http://www.w3.org/2000/svg">
    <g clip-path="url(#clip0_3615_11037)">
        <path d="M1.71289 6.8575V7.42834H2.28374V6.8575H1.71289Z" fill="#9B9DAA" />
        <path d="M1.71387 6.28608V6.85693H2.28472V6.28608H1.71387Z" fill="#9B9DAA" />
        <path d="M1.71484 5.71467V6.28552H2.28569V5.71467H1.71484Z" fill="#9B9DAA" />
        <path d="M2.28516 6.85811V7.42896H2.85601V6.85811H2.28516Z" fill="#9B9DAA" />
        <path d="M2.28516 6.28669V6.85754H2.85601V6.28669H2.28516Z" fill="#9B9DAA" />
        <path d="M2.28613 5.71528V6.28613H2.85698V5.71528H2.28613Z" fill="#9B9DAA" />
        <path d="M2.28516 5.14375V5.7146H2.85601V5.14375H2.28516Z" fill="#9B9DAA" />
        <path d="M2.28516 4.57234V5.14319H2.85601V4.57234H2.28516Z" fill="#9B9DAA" />
        <path d="M2.85645 6.85872V7.42957H3.42729V6.85872H2.85645Z" fill="#6A6C7B" />
        <path d="M2.85645 6.2873V6.85815H3.42729V6.2873H2.85645Z" fill="#6A6C7B" />
        <path d="M2.85742 5.71589V6.28674H3.42827V5.71589H2.85742Z" fill="#6A6C7B" />
        <path d="M2.85645 5.14436V5.71521H3.42729V5.14436H2.85645Z" fill="#6A6C7B" />
        <path d="M2.85742 4.57295V5.1438H3.42827V4.57295H2.85742Z" fill="#9B9DAA" />
        <path d="M2.85547 4.00154V4.57239H3.42632V4.00154H2.85547Z" fill="#9B9DAA" />
        <path d="M2.85645 3.43V4.00085H3.42729V3.43H2.85645Z" fill="#9B9DAA" />
        <path d="M3.42773 6.85762V7.42847H3.99858V6.85762H3.42773Z" fill="#9B9DAA" />
        <path d="M3.42871 6.28621V6.85706H3.99956V6.28621H3.42871Z" fill="#9B9DAA" />
        <path d="M3.42871 5.71479V6.28564H3.99956V5.71479H3.42871Z" fill="#9B9DAA" />
        <path d="M3.42773 5.14326V5.71411H3.99858V5.14326H3.42773Z" fill="#9B9DAA" />
        <path d="M3.42871 4.57185V5.1427H3.99956V4.57185H3.42871Z" fill="#6A6C7B" />
        <path d="M3.42773 4.00044V4.57129H3.99858V4.00044H3.42773Z" fill="#6A6C7B" />
        <path d="M3.42773 3.42891V3.99976H3.99858V3.42891H3.42773Z" fill="#9B9DAA" />
        <path d="M3.42871 2.8575V3.42834H3.99956V2.8575H3.42871Z" fill="#9B9DAA" />
        <path d="M3.99902 6.85823V7.42908H4.56987V6.85823H3.99902Z" fill="#9B9DAA" />
        <path d="M4 6.28682V6.85767H4.57085V6.28682H4Z" fill="#9B9DAA" />
        <path d="M4 5.71541V6.28625H4.57085V5.71541H4Z" fill="#9B9DAA" />
        <path d="M3.99902 5.14387V5.71472H4.56987V5.14387H3.99902Z" fill="#9B9DAA" />
        <path d="M4 4.57246V5.14331H4.57085V4.57246H4Z" fill="#9B9DAA" />
        <path d="M3.99902 4.00105V4.5719H4.56987V4.00105H3.99902Z" fill="#9B9DAA" />
        <path d="M3.99902 3.42952V4.00037H4.56987V3.42952H3.99902Z" fill="#6A6C7B" />
        <path d="M4 2.85811V3.42896H4.57085V2.85811H4Z" fill="#9B9DAA" />
        <path d="M3.99902 2.28669V2.85754H4.56987V2.28669H3.99902Z" fill="#9B9DAA" />
        <path d="M4.57031 6.85884V7.42969H5.14116V6.85884H4.57031Z" fill="#9B9DAA" />
        <path d="M4.57129 6.28743V6.85828H5.14214V6.28743H4.57129Z" fill="#9B9DAA" />
        <path d="M4.57227 5.71602V6.28687H5.14312V5.71602H4.57227Z" fill="#9B9DAA" />
        <path d="M4.57031 5.14448V5.71533H5.14116V5.14448H4.57031Z" fill="#9B9DAA" />
        <path d="M4.57129 4.57307V5.14392H5.14214V4.57307H4.57129Z" fill="#9B9DAA" />
        <path d="M4.57031 4.00166V4.57251H5.14116V4.00166H4.57031Z" fill="#9B9DAA" />
        <path d="M4.57129 3.43013V4.00098H5.14214V3.43013H4.57129Z" fill="#9B9DAA" />
        <path d="M4.57129 2.85872V3.42957H5.14214V2.85872H4.57129Z" fill="#6A6C7B" />
        <path d="M4.57031 2.2873V2.85815H5.14116V2.2873H4.57031Z" fill="#9B9DAA" />
        <path d="M5.1416 6.85774V7.42859H5.71245V6.85774H5.1416Z" fill="#9B9DAA" />
        <path d="M5.14258 6.28633V6.85718H5.71343V6.28633H5.14258Z" fill="#9B9DAA" />
        <path d="M5.14355 5.71492V6.28577H5.7144V5.71492H5.14355Z" fill="#9B9DAA" />
        <path d="M5.14258 5.14338V5.71423H5.71343V5.14338H5.14258Z" fill="#9B9DAA" />
        <path d="M5.14258 4.57197V5.14282H5.71343V4.57197H5.14258Z" fill="#9B9DAA" />
        <path d="M5.1416 4.00056V4.57141H5.71245V4.00056H5.1416Z" fill="#9B9DAA" />
        <path d="M5.14258 3.42903V3.99988H5.71343V3.42903H5.14258Z" fill="#9B9DAA" />
        <path d="M5.14258 2.85762V3.42847H5.71343V2.85762H5.14258Z" fill="#6A6C7B" />
        <path d="M5.1416 2.28621V2.85706H5.71245V2.28621H5.1416Z" fill="#9B9DAA" />
        <path d="M5.14258 1.71467V2.28552H5.71343V1.71467H5.14258Z" fill="#9B9DAA" />
        <path d="M5.71387 6.85835V7.4292H6.28472V6.85835H5.71387Z" fill="#F8F8F9" />
        <path d="M5.71387 6.28694V6.85779H6.28472V6.28694H5.71387Z" fill="#9B9DAA" />
        <path d="M5.71484 5.71553V6.28638H6.28569V5.71553H5.71484Z" fill="#9B9DAA" />
        <path d="M5.71387 5.14399V5.71484H6.28472V5.14399H5.71387Z" fill="#9B9DAA" />
        <path d="M5.71387 4.57258V5.14343H6.28472V4.57258H5.71387Z" fill="#9B9DAA" />
        <path d="M5.71289 4.00117V4.57202H6.28374V4.00117H5.71289Z" fill="#9B9DAA" />
        <path d="M5.71387 3.42964V4.00049H6.28472V3.42964H5.71387Z" fill="#9B9DAA" />
        <path d="M5.71387 2.85823V3.42908H6.28472V2.85823H5.71387Z" fill="#9B9DAA" />
        <path d="M5.71289 2.28682V2.85767H6.28374V2.28682H5.71289Z" fill="#6A6C7B" />
        <path d="M5.71387 1.71528V2.28613H6.28472V1.71528H5.71387Z" fill="#9B9DAA" />
        <path d="M6.28516 6.85725V7.4281H6.85601V6.85725H6.28516Z" fill="#F8F8F9" />
        <path d="M6.28516 6.28584V6.85669H6.85601V6.28584H6.28516Z" fill="#F8F8F9" />
        <path d="M6.28613 5.71443V6.28528H6.85698V5.71443H6.28613Z" fill="#9B9DAA" />
        <path d="M6.28516 5.1429V5.71375H6.85601V5.1429H6.28516Z" fill="#6A6C7B" />
        <path d="M6.28516 4.57148V5.14233H6.85601V4.57148H6.28516Z" fill="#6A6C7B" />
        <path d="M6.28418 4.00007V4.57092H6.85503V4.00007H6.28418Z" fill="#9B9DAA" />
        <path d="M6.28516 3.42854V3.99939H6.85601V3.42854H6.28516Z" fill="#9B9DAA" />
        <path d="M6.28613 2.85713V3.42798H6.85698V2.85713H6.28613Z" fill="#9B9DAA" />
        <path d="M6.28418 2.28572V2.85657H6.85503V2.28572H6.28418Z" fill="#6A6C7B" />
        <path d="M6.28516 1.71418V2.28503H6.85601V1.71418H6.28516Z" fill="#9B9DAA" />
        <path d="M6.28613 1.14277V1.71362H6.85698V1.14277H6.28613Z" fill="#9B9DAA" />
        <path d="M6.85645 6.85786V7.42871H7.42729V6.85786H6.85645Z" fill="#F8F8F9" />
        <path d="M6.85742 6.28645V6.8573H7.42827V6.28645H6.85742Z" fill="#F8F8F9" />
        <path d="M6.85742 5.71504V6.28589H7.42827V5.71504H6.85742Z" fill="#F8F8F9" />
        <path d="M6.85645 5.14351V5.71436H7.42729V5.14351H6.85645Z" fill="#6A6C7B" />
        <path d="M6.85742 4.57209V5.14294H7.42827V4.57209H6.85742Z" fill="#6A6C7B" />
        <path d="M6.85645 4.00068V4.57153H7.42729V4.00068H6.85645Z" fill="#6A6C7B" />
        <path d="M6.85645 3.42915V4H7.42729V3.42915H6.85645Z" fill="#9B9DAA" />
        <path d="M6.85742 2.85774V3.42859H7.42827V2.85774H6.85742Z" fill="#9B9DAA" />
        <path d="M6.85645 2.28633V2.85718H7.42729V2.28633H6.85645Z" fill="#6A6C7B" />
        <path d="M6.85645 1.7148V2.28564H7.42729V1.7148H6.85645Z" fill="#9B9DAA" />
        <path d="M6.85742 1.14338V1.71423H7.42827V1.14338H6.85742Z" fill="#9B9DAA" />
        <path d="M7.42773 6.85847V7.42932H7.99858V6.85847H7.42773Z" fill="#F8F8F9" />
        <path d="M7.42871 6.28706V6.85791H7.99956V6.28706H7.42871Z" fill="#F8F8F9" />
        <path d="M7.42871 5.71553V6.28638H7.99956V5.71553H7.42871Z" fill="#F8F8F9" />
        <path d="M7.42773 5.14412V5.71497H7.99858V5.14412H7.42773Z" fill="#F8F8F9" />
        <path d="M7.42871 4.57271V5.14355H7.99956V4.57271H7.42871Z" fill="#6A6C7B" />
        <path d="M7.42773 4.00129V4.57214H7.99858V4.00129H7.42773Z" fill="#6A6C7B" />
        <path d="M7.42773 3.42976V4.00061H7.99858V3.42976H7.42773Z" fill="#9B9DAA" />
        <path d="M7.42871 2.85835V3.4292H7.99956V2.85835H7.42871Z" fill="#9B9DAA" />
        <path d="M7.42773 2.28694V2.85779H7.99858V2.28694H7.42773Z" fill="#6A6C7B" />
        <path d="M7.42773 1.71541V2.28625H7.99858V1.71541H7.42773Z" fill="#9B9DAA" />
        <path d="M7.42871 1.14399V1.71484H7.99956V1.14399H7.42871Z" fill="#9B9DAA" />
        <path d="M1.71387 8.00044V8.57129H2.28472V8.00044H1.71387Z" fill="#9B9DAA" />
        <path d="M1.71484 7.42903V7.99988H2.28569V7.42903H1.71484Z" fill="#9B9DAA" />
        <path d="M2.28613 9.14399V9.71484H2.85698V9.14399H2.28613Z" fill="#9B9DAA" />
        <path d="M2.28418 8.57246V9.14331H2.85503V8.57246H2.28418Z" fill="#9B9DAA" />
        <path d="M2.28516 8.00105V8.5719H2.85601V8.00105H2.28516Z" fill="#9B9DAA" />
        <path d="M2.28613 7.42964V8.00049H2.85698V7.42964H2.28613Z" fill="#9B9DAA" />
        <path d="M2.85645 10.2874V10.8583H3.42729V10.2874H2.85645Z" fill="#9B9DAA" />
        <path d="M2.85645 9.71602V10.2869H3.42729V9.71602H2.85645Z" fill="#9B9DAA" />
        <path d="M2.85742 9.1446V9.71545H3.42827V9.1446H2.85742Z" fill="#9B9DAA" />
        <path d="M2.85645 8.57307V9.14392H3.42729V8.57307H2.85645Z" fill="#6A6C7B" />
        <path d="M2.85645 8.00166V8.57251H3.42729V8.00166H2.85645Z" fill="#6A6C7B" />
        <path d="M2.85742 7.43025V8.0011H3.42827V7.43025H2.85742Z" fill="#6A6C7B" />
        <path d="M3.42871 10.8579V11.4287H3.99956V10.8579H3.42871Z" fill="#9B9DAA" />
        <path d="M3.42773 10.2863V10.8572H3.99858V10.2863H3.42773Z" fill="#9B9DAA" />
        <path d="M3.42773 9.71492V10.2858H3.99858V9.71492H3.42773Z" fill="#6A6C7B" />
        <path d="M3.42871 9.14351V9.71436H3.99956V9.14351H3.42871Z" fill="#6A6C7B" />
        <path d="M3.42773 8.57197V9.14282H3.99858V8.57197H3.42773Z" fill="#9B9DAA" />
        <path d="M3.42773 8.00056V8.57141H3.99858V8.00056H3.42773Z" fill="#9B9DAA" />
        <path d="M3.42871 7.42915V8H3.99956V7.42915H3.42871Z" fill="#9B9DAA" />
        <path d="M3.99902 11.4299V12.0007H4.56987V11.4299H3.99902Z" fill="#9B9DAA" />
        <path d="M4 10.8583V11.4292H4.57085V10.8583H4Z" fill="#9B9DAA" />
        <path d="M3.99902 10.2869V10.8578H4.56987V10.2869H3.99902Z" fill="#6A6C7B" />
        <path d="M3.99902 9.71553V10.2864H4.56987V9.71553H3.99902Z" fill="#F8F8F9" />
        <path d="M4 9.14412V9.71497H4.57085V9.14412H4Z" fill="#F8F8F9" />
        <path d="M3.99902 8.57258V9.14343H4.56987V8.57258H3.99902Z" fill="#F8F8F9" />
        <path d="M4 8.00117V8.57202H4.57085V8.00117H4Z" fill="#9B9DAA" />
        <path d="M4 7.42976V8.00061H4.57085V7.42976H4Z" fill="#9B9DAA" />
        <path d="M4.57129 11.4305V12.0013H5.14214V11.4305H4.57129Z" fill="#9B9DAA" />
        <path d="M4.57129 10.859V11.4298H5.14214V10.859H4.57129Z" fill="#F8F8F9" />
        <path d="M4.57031 10.2875V10.8584H5.14116V10.2875H4.57031Z" fill="#9B9DAA" />
        <path d="M4.57129 9.71614V10.287H5.14214V9.71614H4.57129Z" fill="#F8F8F9" />
        <path d="M4.57129 9.14473V9.71558H5.14214V9.14473H4.57129Z" fill="#F8F8F9" />
        <path d="M4.57031 8.57319V9.14404H5.14116V8.57319H4.57031Z" fill="#F8F8F9" />
        <path d="M4.57129 8.00178V8.57263H5.14214V8.00178H4.57129Z" fill="#F8F8F9" />
        <path d="M4.57129 7.43037V8.00122H5.14214V7.43037H4.57129Z" fill="#9B9DAA" />
        <path d="M5.1416 12.0008V12.5717H5.71245V12.0008H5.1416Z" fill="#9B9DAA" />
        <path d="M5.14258 11.4294V12.0002H5.71343V11.4294H5.14258Z" fill="#9B9DAA" />
        <path d="M5.14258 10.858V11.4288H5.71343V10.858H5.14258Z" fill="#F8F8F9" />
        <path d="M5.1416 10.2865V10.8573H5.71245V10.2865H5.1416Z" fill="#9B9DAA" />
        <path d="M5.14258 9.71504V10.2859H5.71343V9.71504H5.14258Z" fill="#9B9DAA" />
        <path d="M5.14258 9.14363V9.71448H5.71343V9.14363H5.14258Z" fill="#F8F8F9" />
        <path d="M5.1416 8.57209V9.14294H5.71245V8.57209H5.1416Z" fill="#F8F8F9" />
        <path d="M5.14258 8.00068V8.57153H5.71343V8.00068H5.14258Z" fill="#F8F8F9" />
        <path d="M5.14355 7.42927V8.00012H5.7144V7.42927H5.14355Z" fill="#F8F8F9" />
        <path d="M5.71289 12.0014V12.5723H6.28374V12.0014H5.71289Z" fill="#9B9DAA" />
        <path d="M5.71387 11.43V12.0009H6.28472V11.43H5.71387Z" fill="#F8F8F9" />
        <path d="M5.71387 10.8585V11.4293H6.28472V10.8585H5.71387Z" fill="#9B9DAA" />
        <path d="M5.71289 10.2871V10.8579H6.28374V10.2871H5.71289Z" fill="#9B9DAA" />
        <path d="M5.71387 9.71565V10.2865H6.28472V9.71565H5.71387Z" fill="#9B9DAA" />
        <path d="M5.71484 9.14412V9.71497H6.28569V9.14412H5.71484Z" fill="#9B9DAA" />
        <path d="M5.71289 8.57271V9.14355H6.28374V8.57271H5.71289Z" fill="#F8F8F9" />
        <path d="M5.71387 8.00129V8.57214H6.28472V8.00129H5.71387Z" fill="#F8F8F9" />
        <path d="M5.71484 7.42988V8.00073H6.28569V7.42988H5.71484Z" fill="#F8F8F9" />
        <path d="M6.28613 12.5717V13.1426H6.85698V12.5717H6.28613Z" fill="#9B9DAA" />
        <path d="M6.28418 12.0003V12.5712H6.85503V12.0003H6.28418Z" fill="#9B9DAA" />
        <path d="M6.28516 11.4289V11.9998H6.85601V11.4289H6.28516Z" fill="#F8F8F9" />
        <path d="M6.28613 10.8575V11.4283H6.85698V10.8575H6.28613Z" fill="#9B9DAA" />
        <path d="M6.28516 10.286V10.8568H6.85601V10.286H6.28516Z" fill="#9B9DAA" />
        <path d="M6.28516 9.71455V10.2854H6.85601V9.71455H6.28516Z" fill="#6A6C7B" />
        <path d="M6.28613 9.14314V9.71399H6.85698V9.14314H6.28613Z" fill="#6A6C7B" />
        <path d="M6.28516 8.57161V9.14246H6.85601V8.57161H6.28516Z" fill="#6A6C7B" />
        <path d="M6.28516 8.0002V8.57104H6.85601V8.0002H6.28516Z" fill="#F8F8F9" />
        <path d="M6.28613 7.42878V7.99963H6.85698V7.42878H6.28613Z" fill="#F8F8F9" />
        <path d="M6.85742 12.5723V13.1432H7.42827V12.5723H6.85742Z" fill="#9B9DAA" />
        <path d="M6.85645 12.0009V12.5718H7.42729V12.0009H6.85645Z" fill="#9B9DAA" />
        <path d="M6.85645 11.4295V12.0004H7.42729V11.4295H6.85645Z" fill="#F8F8F9" />
        <path d="M6.85742 10.858V11.4288H7.42827V10.858H6.85742Z" fill="#9B9DAA" />
        <path d="M6.85645 10.2866V10.8574H7.42729V10.2866H6.85645Z" fill="#9B9DAA" />
        <path d="M6.85645 9.71516V10.286H7.42729V9.71516H6.85645Z" fill="#6A6C7B" />
        <path d="M6.85742 9.14363V9.71448H7.42827V9.14363H6.85742Z" fill="#6A6C7B" />
        <path d="M6.85645 8.57222V9.14307H7.42729V8.57222H6.85645Z" fill="#6A6C7B" />
        <path d="M6.85645 8.00081V8.57166H7.42729V8.00081H6.85645Z" fill="#6A6C7B" />
        <path d="M6.85742 7.42939V8.00024H7.42827V7.42939H6.85742Z" fill="#F8F8F9" />
        <path d="M7.42871 12.5729V13.1438H7.99956V12.5729H7.42871Z" fill="#9B9DAA" />
        <path d="M7.42773 12.0015V12.5724H7.99858V12.0015H7.42773Z" fill="#9B9DAA" />
        <path d="M7.42773 11.4301V12.001H7.99858V11.4301H7.42773Z" fill="#F8F8F9" />
        <path d="M7.42871 10.8586V11.4294H7.99956V10.8586H7.42871Z" fill="#9B9DAA" />
        <path d="M7.42773 10.2872V10.858H7.99858V10.2872H7.42773Z" fill="#9B9DAA" />
        <path d="M7.42773 9.71577V10.2866H7.99858V9.71577H7.42773Z" fill="#6A6C7B" />
        <path d="M7.42871 9.14424V9.71509H7.99956V9.14424H7.42871Z" fill="#6A6C7B" />
        <path d="M7.42773 8.57283V9.14368H7.99858V8.57283H7.42773Z" fill="#6A6C7B" />
        <path d="M7.42871 8.00142V8.57227H7.99956V8.00142H7.42871Z" fill="#6A6C7B" />
        <path d="M7.42871 7.42988V8.00073H7.99956V7.42988H7.42871Z" fill="#6A6C7B" />
        <path d="M13.7139 6.85835V7.4292H14.2847V6.85835H13.7139Z" fill="#9B9DAA" />
        <path d="M13.7148 6.28694V6.85779H14.2857V6.28694H13.7148Z" fill="#9B9DAA" />
        <path d="M13.7148 5.71541V6.28625H14.2857V5.71541H13.7148Z" fill="#9B9DAA" />
        <path d="M13.1426 6.85774V7.42859H13.7134V6.85774H13.1426Z" fill="#9B9DAA" />
        <path d="M13.1426 6.28633V6.85718H13.7134V6.28633H13.1426Z" fill="#9B9DAA" />
        <path d="M13.1436 5.7148V6.28564H13.7144V5.7148H13.1436Z" fill="#9B9DAA" />
        <path d="M13.1426 5.14338V5.71423H13.7134V5.14338H13.1426Z" fill="#9B9DAA" />
        <path d="M13.1426 4.57197V5.14282H13.7134V4.57197H13.1426Z" fill="#9B9DAA" />
        <path d="M12.5713 6.85884V7.42969H13.1421V6.85884H12.5713Z" fill="#F8F8F9" />
        <path d="M12.5713 6.28743V6.85828H13.1421V6.28743H12.5713Z" fill="#F8F8F9" />
        <path d="M12.5723 5.71589V6.28674H13.1431V5.71589H12.5723Z" fill="#F8F8F9" />
        <path d="M12.5713 5.14448V5.71533H13.1421V5.14448H12.5713Z" fill="#F8F8F9" />
        <path d="M12.5713 4.57307V5.14392H13.1421V4.57307H12.5713Z" fill="#9B9DAA" />
        <path d="M12.5703 4.00154V4.57239H13.1412V4.00154H12.5703Z" fill="#9B9DAA" />
        <path d="M12.5713 3.43013V4.00098H13.1421V3.43013H12.5713Z" fill="#9B9DAA" />
        <path d="M11.999 6.85823V7.42908H12.5699V6.85823H11.999Z" fill="#9B9DAA" />
        <path d="M12 6.28682V6.85767H12.5708V6.28682H12Z" fill="#9B9DAA" />
        <path d="M12.001 5.71528V6.28613H12.5718V5.71528H12.001Z" fill="#9B9DAA" />
        <path d="M12 5.14387V5.71472H12.5708V5.14387H12Z" fill="#9B9DAA" />
        <path d="M12 4.57246V5.14331H12.5708V4.57246H12Z" fill="#F8F8F9" />
        <path d="M11.999 4.00093V4.57178H12.5699V4.00093H11.999Z" fill="#F8F8F9" />
        <path d="M12 3.42952V4.00037H12.5708V3.42952H12Z" fill="#9B9DAA" />
        <path d="M12 2.85811V3.42896H12.5708V2.85811H12Z" fill="#9B9DAA" />
        <path d="M11.4277 6.85762V7.42847H11.9986V6.85762H11.4277Z" fill="#9B9DAA" />
        <path d="M11.4287 6.28621V6.85706H11.9996V6.28621H11.4287Z" fill="#9B9DAA" />
        <path d="M11.4287 5.71467V6.28552H11.9996V5.71467H11.4287Z" fill="#9B9DAA" />
        <path d="M11.4277 5.14326V5.71411H11.9986V5.14326H11.4277Z" fill="#9B9DAA" />
        <path d="M11.4287 4.57185V5.1427H11.9996V4.57185H11.4287Z" fill="#9B9DAA" />
        <path d="M11.4277 4.00032V4.57117H11.9986V4.00032H11.4277Z" fill="#9B9DAA" />
        <path d="M11.4277 3.42891V3.99976H11.9986V3.42891H11.4277Z" fill="#6A6C7B" />
        <path d="M11.4287 2.8575V3.42834H11.9996V2.8575H11.4287Z" fill="#9B9DAA" />
        <path d="M11.4277 2.28596V2.85681H11.9986V2.28596H11.4277Z" fill="#9B9DAA" />
        <path d="M10.8564 6.85872V7.42957H11.4273V6.85872H10.8564Z" fill="#9B9DAA" />
        <path d="M10.8574 6.2873V6.85815H11.4283V6.2873H10.8574Z" fill="#9B9DAA" />
        <path d="M10.8574 5.71577V6.28662H11.4283V5.71577H10.8574Z" fill="#9B9DAA" />
        <path d="M10.8564 5.14436V5.71521H11.4273V5.14436H10.8564Z" fill="#9B9DAA" />
        <path d="M10.8574 4.57295V5.1438H11.4283V4.57295H10.8574Z" fill="#9B9DAA" />
        <path d="M10.8564 4.00142V4.57227H11.4273V4.00142H10.8564Z" fill="#9B9DAA" />
        <path d="M10.8564 3.43001V4.00085H11.4273V3.43001H10.8564Z" fill="#F8F8F9" />
        <path d="M10.8574 2.85859V3.42944H11.4283V2.85859H10.8574Z" fill="#6A6C7B" />
        <path d="M10.8564 2.28706V2.85791H11.4273V2.28706H10.8564Z" fill="#9B9DAA" />
        <path d="M10.2852 6.85811V7.42896H10.856V6.85811H10.2852Z" fill="#9B9DAA" />
        <path d="M10.2861 6.28669V6.85754H10.857V6.28669H10.2861Z" fill="#9B9DAA" />
        <path d="M10.2861 5.71516V6.28601H10.857V5.71516H10.2861Z" fill="#9B9DAA" />
        <path d="M10.2852 5.14375V5.7146H10.856V5.14375H10.2852Z" fill="#9B9DAA" />
        <path d="M10.2861 4.57234V5.14319H10.857V4.57234H10.2861Z" fill="#9B9DAA" />
        <path d="M10.2852 4.00081V4.57166H10.856V4.00081H10.2852Z" fill="#F8F8F9" />
        <path d="M10.2852 3.42939V4.00024H10.856V3.42939H10.2852Z" fill="#F8F8F9" />
        <path d="M10.2861 2.85798V3.42883H10.857V2.85798H10.2861Z" fill="#6A6C7B" />
        <path d="M10.2852 2.28645V2.8573H10.856V2.28645H10.2852Z" fill="#9B9DAA" />
        <path d="M10.2852 1.71504V2.28589H10.856V1.71504H10.2852Z" fill="#9B9DAA" />
        <path d="M1.71387 5.14314V5.71399H2.28472V5.14314H1.71387Z" fill="#9B9DAA" />
        <path d="M2.28418 4.00093V4.57178H2.85503V4.00093H2.28418Z" fill="#9B9DAA" />
        <path d="M2.85742 2.85859V3.42944H3.42827V2.85859H2.85742Z" fill="#9B9DAA" />
        <path d="M3.42773 2.28608V2.85693H3.99858V2.28608H3.42773Z" fill="#9B9DAA" />
        <path d="M3.99902 1.71516V2.28601H4.56987V1.71516H3.99902Z" fill="#9B9DAA" />
        <path d="M4.57129 1.71577V2.28662H5.14214V1.71577H4.57129Z" fill="#9B9DAA" />
        <path d="M5.14258 1.14326V1.71411H5.71343V1.14326H5.14258Z" fill="#9B9DAA" />
        <path d="M5.71484 1.14387V1.71472H6.28569V1.14387H5.71484Z" fill="#9B9DAA" />
        <path d="M13.7139 5.14399V5.71484H14.2847V5.14399H13.7139Z" fill="#9B9DAA" />
        <path d="M13.1416 4.00044V4.57129H13.7125V4.00044H13.1416Z" fill="#9B9DAA" />
        <path d="M12.5713 2.85872V3.42957H13.1421V2.85872H12.5713Z" fill="#9B9DAA" />
        <path d="M11.999 2.28657V2.85742H12.5699V2.28657H11.999Z" fill="#9B9DAA" />
        <path d="M11.4287 1.71455V2.2854H11.9996V1.71455H11.4287Z" fill="#9B9DAA" />
        <path d="M10.8564 1.71565V2.2865H11.4273V1.71565H10.8564Z" fill="#9B9DAA" />
        <path d="M10.2861 1.14363V1.71448H10.857V1.14363H10.2861Z" fill="#9B9DAA" />
        <path d="M9.71387 6.8575V7.42834H10.2847V6.8575H9.71387Z" fill="#9B9DAA" />
        <path d="M9.71387 6.28608V6.85693H10.2847V6.28608H9.71387Z" fill="#9B9DAA" />
        <path d="M9.71484 5.71455V6.2854H10.2857V5.71455H9.71484Z" fill="#9B9DAA" />
        <path d="M9.71387 5.14314V5.71399H10.2847V5.14314H9.71387Z" fill="#9B9DAA" />
        <path d="M9.71387 4.57173V5.14258H10.2847V4.57173H9.71387Z" fill="#F8F8F9" />
        <path d="M9.71289 4.00032V4.57117H10.2837V4.00032H9.71289Z" fill="#F8F8F9" />
        <path d="M9.71387 3.42878V3.99963H10.2847V3.42878H9.71387Z" fill="#F8F8F9" />
        <path d="M9.71484 2.85737V3.42822H10.2857V2.85737H9.71484Z" fill="#F8F8F9" />
        <path d="M9.71289 2.28596V2.85681H10.2837V2.28596H9.71289Z" fill="#6A6C7B" />
        <path d="M9.71387 1.71443V2.28528H10.2847V1.71443H9.71387Z" fill="#9B9DAA" />
        <path d="M9.71484 1.14302V1.71387H10.2857V1.14302H9.71484Z" fill="#9B9DAA" />
        <path d="M9.14258 6.85859V7.42944H9.71343V6.85859H9.14258Z" fill="#6A6C7B" />
        <path d="M9.14258 6.28718V6.85803H9.71343V6.28718H9.14258Z" fill="#6A6C7B" />
        <path d="M9.14355 5.71565V6.2865H9.7144V5.71565H9.14355Z" fill="#6A6C7B" />
        <path d="M9.14258 5.14424V5.71509H9.71343V5.14424H9.14258Z" fill="#6A6C7B" />
        <path d="M9.14258 4.57283V5.14368H9.71343V4.57283H9.14258Z" fill="#6A6C7B" />
        <path d="M9.1416 4.00129V4.57214H9.71245V4.00129H9.1416Z" fill="#F8F8F9" />
        <path d="M9.14258 3.42988V4.00073H9.71343V3.42988H9.14258Z" fill="#F8F8F9" />
        <path d="M9.14258 2.85847V3.42932H9.71343V2.85847H9.14258Z" fill="#9B9DAA" />
        <path d="M9.1416 2.28694V2.85779H9.71245V2.28694H9.1416Z" fill="#6A6C7B" />
        <path d="M9.14258 1.71553V2.28638H9.71343V1.71553H9.14258Z" fill="#9B9DAA" />
        <path d="M9.14355 1.14412V1.71497H9.7144V1.14412H9.14355Z" fill="#9B9DAA" />
        <path d="M8.57031 6.85798V7.42883H9.14116V6.85798H8.57031Z" fill="#6A6C7B" />
        <path d="M8.57129 6.28657V6.85742H9.14214V6.28657H8.57129Z" fill="#6A6C7B" />
        <path d="M8.57227 5.71504V6.28589H9.14312V5.71504H8.57227Z" fill="#6A6C7B" />
        <path d="M8.57129 5.14363V5.71448H9.14214V5.14363H8.57129Z" fill="#6A6C7B" />
        <path d="M8.57129 4.57222V5.14307H9.14214V4.57222H8.57129Z" fill="#6A6C7B" />
        <path d="M8.57031 4.00081V4.57166H9.14116V4.00081H8.57031Z" fill="#6A6C7B" />
        <path d="M8.57129 3.42927V4.00012H9.14214V3.42927H8.57129Z" fill="#9B9DAA" />
        <path d="M8.57129 2.85786V3.42871H9.14214V2.85786H8.57129Z" fill="#9B9DAA" />
        <path d="M8.57031 2.28645V2.8573H9.14116V2.28645H8.57031Z" fill="#6A6C7B" />
        <path d="M8.57129 1.71492V2.28577H9.14214V1.71492H8.57129Z" fill="#9B9DAA" />
        <path d="M8.57129 1.14351V1.71436H9.14214V1.14351H8.57129Z" fill="#9B9DAA" />
        <path d="M7.99902 6.85737V7.42822H8.56987V6.85737H7.99902Z" fill="#6A6C7B" />
        <path d="M8 6.28596V6.85681H8.57085V6.28596H8Z" fill="#F8F8F9" />
        <path d="M8 5.71455V6.2854H8.57085V5.71455H8Z" fill="#F8F8F9" />
        <path d="M7.99902 5.14302V5.71387H8.56987V5.14302H7.99902Z" fill="#F8F8F9" />
        <path d="M8 4.57161V5.14246H8.57085V4.57161H8Z" fill="#6A6C7B" />
        <path d="M7.99902 4.0002V4.57104H8.56987V4.0002H7.99902Z" fill="#6A6C7B" />
        <path d="M7.99902 3.42866V3.99951H8.56987V3.42866H7.99902Z" fill="#9B9DAA" />
        <path d="M8 2.85725V3.4281H8.57085V2.85725H8Z" fill="#9B9DAA" />
        <path d="M7.99902 2.28584V2.85669H8.56987V2.28584H7.99902Z" fill="#6A6C7B" />
        <path d="M8 1.71431V2.28516H8.57085V1.71431H8Z" fill="#9B9DAA" />
        <path d="M8 1.1429V1.71375H8.57085V1.1429H8Z" fill="#9B9DAA" />
        <path d="M6.28516 0.571362V1.14221H6.85601V0.571362H6.28516Z" fill="#9B9DAA" />
        <path d="M5.71289 0.572461V1.14331H6.28374V0.572461H5.71289Z" fill="#9B9DAA" />
        <path d="M6.85645 0.571973V1.14282H7.42729V0.571973H6.85645Z" fill="#9B9DAA" />
        <path d="M7.42773 0.572583V1.14343H7.99858V0.572583H7.42773Z" fill="#9B9DAA" />
        <path d="M9.1416 0.572705V1.14355H9.71245V0.572705H9.1416Z" fill="#9B9DAA" />
        <path d="M9.71387 0.571607V1.14246H10.2847V0.571607H9.71387Z" fill="#9B9DAA" />
        <path d="M8.57031 0.572095V1.14294H9.14116V0.572095H8.57031Z" fill="#9B9DAA" />
        <path d="M7.99902 0.571484V1.14233H8.56987V0.571484H7.99902Z" fill="#9B9DAA" />
        <path d="M13.7139 8.00129V8.57214H14.2847V8.00129H13.7139Z" fill="#9B9DAA" />
        <path d="M13.7139 8.57271V9.14355H14.2847V8.57271H13.7139Z" fill="#9B9DAA" />
        <path d="M13.7148 7.42976V8.00061H14.2857V7.42976H13.7148Z" fill="#9B9DAA" />
        <path d="M13.1436 9.14351V9.71436H13.7144V9.14351H13.1436Z" fill="#9B9DAA" />
        <path d="M13.1426 8.57209V9.14294H13.7134V8.57209H13.1426Z" fill="#9B9DAA" />
        <path d="M13.1426 8.00068V8.57153H13.7134V8.00068H13.1426Z" fill="#9B9DAA" />
        <path d="M13.1436 7.42915V8H13.7144V7.42915H13.1436Z" fill="#9B9DAA" />
        <path d="M12.5703 10.2875V10.8584H13.1412V10.2875H12.5703Z" fill="#9B9DAA" />
        <path d="M12.5713 9.71614V10.287H13.1421V9.71614H12.5713Z" fill="#9B9DAA" />
        <path d="M12.5723 9.1446V9.71545H13.1431V9.1446H12.5723Z" fill="#9B9DAA" />
        <path d="M12.5703 8.57319V9.14404H13.1412V8.57319H12.5703Z" fill="#F8F8F9" />
        <path d="M12.5713 8.00178V8.57263H13.1421V8.00178H12.5713Z" fill="#F8F8F9" />
        <path d="M12.5723 7.43025V8.0011H13.1431V7.43025H12.5723Z" fill="#F8F8F9" />
        <path d="M12 10.8583V11.4292H12.5708V10.8583H12Z" fill="#9B9DAA" />
        <path d="M11.999 10.2869V10.8578H12.5699V10.2869H11.999Z" fill="#9B9DAA" />
        <path d="M12 9.71553V10.2864H12.5708V9.71553H12Z" fill="#F8F8F9" />
        <path d="M12 9.14399V9.71484H12.5708V9.14399H12Z" fill="#F8F8F9" />
        <path d="M11.999 8.57258V9.14343H12.5699V8.57258H11.999Z" fill="#9B9DAA" />
        <path d="M12 8.00117V8.57202H12.5708V8.00117H12Z" fill="#9B9DAA" />
        <path d="M12.001 7.42964V8.00049H12.5718V7.42964H12.001Z" fill="#9B9DAA" />
        <path d="M11.4287 11.4293V12.0001H11.9996V11.4293H11.4287Z" fill="#9B9DAA" />
        <path d="M11.4287 10.8577V11.4286H11.9996V10.8577H11.4287Z" fill="#9B9DAA" />
        <path d="M11.4277 10.2863V10.8572H11.9986V10.2863H11.4277Z" fill="#F8F8F9" />
        <path d="M11.4287 9.71492V10.2858H11.9996V9.71492H11.4287Z" fill="#9B9DAA" />
        <path d="M11.4287 9.14338V9.71423H11.9996V9.14338H11.4287Z" fill="#9B9DAA" />
        <path d="M11.4277 8.57197V9.14282H11.9986V8.57197H11.4277Z" fill="#9B9DAA" />
        <path d="M11.4287 8.00056V8.57141H11.9996V8.00056H11.4287Z" fill="#9B9DAA" />
        <path d="M11.4287 7.42903V7.99988H11.9996V7.42903H11.4287Z" fill="#9B9DAA" />
        <path d="M10.8564 11.4304V12.0012H11.4273V11.4304H10.8564Z" fill="#9B9DAA" />
        <path d="M10.8574 10.8588V11.4297H11.4283V10.8588H10.8574Z" fill="#F8F8F9" />
        <path d="M10.8564 10.2874V10.8583H11.4273V10.2874H10.8564Z" fill="#9B9DAA" />
        <path d="M10.8564 9.71602V10.2869H11.4273V9.71602H10.8564Z" fill="#9B9DAA" />
        <path d="M10.8574 9.14448V9.71533H11.4283V9.14448H10.8574Z" fill="#9B9DAA" />
        <path d="M10.8564 8.57307V9.14392H11.4273V8.57307H10.8564Z" fill="#9B9DAA" />
        <path d="M10.8574 8.00166V8.57251H11.4283V8.00166H10.8574Z" fill="#9B9DAA" />
        <path d="M10.8574 7.43013V8.00098H11.4283V7.43013H10.8574Z" fill="#9B9DAA" />
        <path d="M10.2852 12.0012V12.572H10.856V12.0012H10.2852Z" fill="#9B9DAA" />
        <path d="M10.2852 11.4298V12.0006H10.856V11.4298H10.2852Z" fill="#9B9DAA" />
        <path d="M10.2861 10.8582V11.4291H10.857V10.8582H10.2861Z" fill="#F8F8F9" />
        <path d="M10.2852 10.2868V10.8577H10.856V10.2868H10.2852Z" fill="#9B9DAA" />
        <path d="M10.2852 9.71541V10.2863H10.856V9.71541H10.2852Z" fill="#9B9DAA" />
        <path d="M10.2861 9.14387V9.71472H10.857V9.14387H10.2861Z" fill="#9B9DAA" />
        <path d="M10.2852 8.57246V9.14331H10.856V8.57246H10.2852Z" fill="#9B9DAA" />
        <path d="M10.2852 8.00105V8.5719H10.856V8.00105H10.2852Z" fill="#9B9DAA" />
        <path d="M10.2861 7.42952V8.00037H10.857V7.42952H10.2861Z" fill="#9B9DAA" />
        <path d="M9.71289 12.0006V12.5714H10.2837V12.0006H9.71289Z" fill="#9B9DAA" />
        <path d="M9.71387 11.4292V12H10.2847V11.4292H9.71387Z" fill="#F8F8F9" />
        <path d="M9.71484 10.8576V11.4285H10.2857V10.8576H9.71484Z" fill="#9B9DAA" />
        <path d="M9.71387 10.2862V10.8571H10.2847V10.2862H9.71387Z" fill="#9B9DAA" />
        <path d="M9.71387 9.7148V10.2856H10.2847V9.7148H9.71387Z" fill="#9B9DAA" />
        <path d="M9.71484 9.14326V9.71411H10.2857V9.14326H9.71484Z" fill="#9B9DAA" />
        <path d="M9.71387 8.57185V9.1427H10.2847V8.57185H9.71387Z" fill="#9B9DAA" />
        <path d="M9.71387 8.00044V8.57129H10.2847V8.00044H9.71387Z" fill="#9B9DAA" />
        <path d="M9.71484 7.42891V7.99976H10.2857V7.42891H9.71484Z" fill="#9B9DAA" />
        <path d="M9.14258 12.5731V13.1439H9.71343V12.5731H9.14258Z" fill="#9B9DAA" />
        <path d="M9.1416 12.0017V12.5725H9.71245V12.0017H9.1416Z" fill="#9B9DAA" />
        <path d="M9.14258 11.4302V12.0011H9.71343V11.4302H9.14258Z" fill="#F8F8F9" />
        <path d="M9.14258 10.8587V11.4296H9.71343V10.8587H9.14258Z" fill="#9B9DAA" />
        <path d="M9.1416 10.2873V10.8582H9.71245V10.2873H9.1416Z" fill="#9B9DAA" />
        <path d="M9.14258 9.71589V10.2867H9.71343V9.71589H9.14258Z" fill="#6A6C7B" />
        <path d="M9.14355 9.14436V9.71521H9.7144V9.14436H9.14355Z" fill="#6A6C7B" />
        <path d="M9.1416 8.57295V9.1438H9.71245V8.57295H9.1416Z" fill="#9B9DAA" />
        <path d="M9.14258 8.00154V8.57239H9.71343V8.00154H9.14258Z" fill="#9B9DAA" />
        <path d="M9.14355 7.43001V8.00085H9.7144V7.43001H9.14355Z" fill="#9B9DAA" />
        <path d="M8.57129 12.5725V13.1433H9.14214V12.5725H8.57129Z" fill="#9B9DAA" />
        <path d="M8.57031 12.001V12.5719H9.14116V12.001H8.57031Z" fill="#9B9DAA" />
        <path d="M8.57129 11.4296V12.0005H9.14214V11.4296H8.57129Z" fill="#F8F8F9" />
        <path d="M8.57129 10.8581V11.429H9.14214V10.8581H8.57129Z" fill="#9B9DAA" />
        <path d="M8.57031 10.2867V10.8575H9.14116V10.2867H8.57031Z" fill="#9B9DAA" />
        <path d="M8.57129 9.71528V10.2861H9.14214V9.71528H8.57129Z" fill="#6A6C7B" />
        <path d="M8.57129 9.14375V9.7146H9.14214V9.14375H8.57129Z" fill="#6A6C7B" />
        <path d="M8.57031 8.57234V9.14319H9.14116V8.57234H8.57031Z" fill="#9B9DAA" />
        <path d="M8.57129 8.00093V8.57178H9.14214V8.00093H8.57129Z" fill="#9B9DAA" />
        <path d="M8.57227 7.42939V8.00024H9.14312V7.42939H8.57227Z" fill="#6A6C7B" />
        <path d="M8 12.5719V13.1427H8.57085V12.5719H8Z" fill="#9B9DAA" />
        <path d="M1.71289 8.57185V9.1427H2.28374V8.57185H1.71289Z" fill="#9B9DAA" />
        <path d="M2.28516 9.71541V10.2863H2.85601V9.71541H2.28516Z" fill="#9B9DAA" />
        <path d="M2.85742 10.859V11.4298H3.42827V10.859H2.85742Z" fill="#9B9DAA" />
        <path d="M3.42773 11.4293V12.0001H3.99858V11.4293H3.42773Z" fill="#9B9DAA" />
        <path d="M3.99902 12.0013V12.5721H4.56987V12.0013H3.99902Z" fill="#9B9DAA" />
        <path d="M4.57031 12.0019V12.5728H5.14116V12.0019H4.57031Z" fill="#9B9DAA" />
        <path d="M5.14258 12.5722V13.1431H5.71343V12.5722H5.14258Z" fill="#9B9DAA" />
        <path d="M5.71387 12.5728V13.1437H6.28472V12.5728H5.71387Z" fill="#9B9DAA" />
        <path d="M6.28516 13.1433V13.7141H6.85601V13.1433H6.28516Z" fill="#9B9DAA" />
        <path d="M1.1416 6.85859V7.42944H1.71245V6.85859H1.1416Z" fill="#9B9DAA" />
        <path d="M1.14258 6.28718V6.85803H1.71343V6.28718H1.14258Z" fill="#9B9DAA" />
        <path d="M1.14355 5.71577V6.28662H1.7144V5.71577H1.14355Z" fill="#9B9DAA" />
        <path d="M1.71387 4.57173V5.14258H2.28472V4.57173H1.71387Z" fill="#9B9DAA" />
        <path d="M2.28516 3.42939V4.00024H2.85601V3.42939H2.28516Z" fill="#9B9DAA" />
        <path d="M1.14258 8.00154V8.57239H1.71343V8.00154H1.14258Z" fill="#9B9DAA" />
        <path d="M1.14258 7.43013V8.00098H1.71343V7.43013H1.14258Z" fill="#9B9DAA" />
        <path d="M1.71387 9.14338V9.71423H2.28472V9.14338H1.71387Z" fill="#9B9DAA" />
        <path d="M2.28418 10.2868V10.8577H2.85503V10.2868H2.28418Z" fill="#9B9DAA" />
        <path d="M1.1416 5.14424V5.71509H1.71245V5.14424H1.1416Z" fill="#9B9DAA" />
        <path d="M1.71289 4.00032V4.57117H2.28374V4.00032H1.71289Z" fill="#9B9DAA" />
        <path d="M2.28516 2.85798V3.42883H2.85601V2.85798H2.28516Z" fill="#9B9DAA" />
        <path d="M2.85645 2.28718V2.85803H3.42729V2.28718H2.85645Z" fill="#9B9DAA" />
        <path d="M3.42773 1.71455V2.2854H3.99858V1.71455H3.42773Z" fill="#9B9DAA" />
        <path d="M4.57129 1.14436V1.71521H5.14214V1.14436H4.57129Z" fill="#9B9DAA" />
        <path d="M1.1416 8.57295V9.1438H1.71245V8.57295H1.1416Z" fill="#9B9DAA" />
        <path d="M1.71387 9.71479V10.2856H2.28472V9.71479H1.71387Z" fill="#9B9DAA" />
        <path d="M2.28516 10.8583V11.4292H2.85601V10.8583H2.28516Z" fill="#9B9DAA" />
        <path d="M2.85645 11.4304V12.0012H3.42729V11.4304H2.85645Z" fill="#9B9DAA" />
        <path d="M3.42773 12.0007V12.5715H3.99858V12.0007H3.42773Z" fill="#9B9DAA" />
        <path d="M4.57129 12.5733V13.1442H5.14214V12.5733H4.57129Z" fill="#9B9DAA" />
        <path d="M5.71387 13.1444V13.7152H6.28472V13.1444H5.71387Z" fill="#9B9DAA" />
        <path d="M6.85645 13.1439V13.7147H7.42729V13.1439H6.85645Z" fill="#9B9DAA" />
        <path d="M7.42773 13.1445V13.7153H7.99858V13.1445H7.42773Z" fill="#9B9DAA" />
        <path d="M13.1426 9.71504V10.2859H13.7134V9.71504H13.1426Z" fill="#9B9DAA" />
        <path d="M12.5713 10.859V11.4298H13.1421V10.859H12.5713Z" fill="#9B9DAA" />
        <path d="M12 11.4299V12.0007H12.5708V11.4299H12Z" fill="#9B9DAA" />
        <path d="M11.4277 12.0007V12.5715H11.9986V12.0007H11.4277Z" fill="#9B9DAA" />
        <path d="M10.8564 12.0018V12.5726H11.4273V12.0018H10.8564Z" fill="#9B9DAA" />
        <path d="M10.2861 12.5726V13.1434H10.857V12.5726H10.2861Z" fill="#9B9DAA" />
        <path d="M9.71484 12.572V13.1428H10.2857V12.572H9.71484Z" fill="#9B9DAA" />
        <path d="M9.14258 13.1446V13.7155H9.71343V13.1446H9.14258Z" fill="#9B9DAA" />
        <path d="M14.2852 6.85725V7.4281H14.856V6.85725H14.2852Z" fill="#9B9DAA" />
        <path d="M14.2861 6.28584V6.85669H14.857V6.28584H14.2861Z" fill="#9B9DAA" />
        <path d="M14.2861 5.71431V6.28516H14.857V5.71431H14.2861Z" fill="#9B9DAA" />
        <path d="M13.7148 4.57258V5.14343H14.2857V4.57258H13.7148Z" fill="#9B9DAA" />
        <path d="M13.1426 3.42903V3.99988H13.7134V3.42903H13.1426Z" fill="#9B9DAA" />
        <path d="M14.2852 5.14289V5.71375H14.856V5.14289H14.2852Z" fill="#9B9DAA" />
        <path d="M13.7139 4.00105V4.5719H14.2847V4.00105H13.7139Z" fill="#9B9DAA" />
        <path d="M13.1436 2.85762V3.42847H13.7144V2.85762H13.1436Z" fill="#9B9DAA" />
        <path d="M12.5703 2.28718V2.85803H13.1412V2.28718H12.5703Z" fill="#9B9DAA" />
        <path d="M12 1.71516V2.28601H12.5708V1.71516H12Z" fill="#9B9DAA" />
        <path d="M10.8574 1.14424V1.71509H11.4283V1.14424H10.8574Z" fill="#9B9DAA" />
        <path d="M4 1.14375V1.7146H4.57085V1.14375H4Z" fill="#9B9DAA" />
        <path d="M5.1416 0.571851V1.1427H5.71245V0.571851H5.1416Z" fill="#9B9DAA" />
        <path d="M11.4287 1.14314V1.71399H11.9996V1.14314H11.4287Z" fill="#9B9DAA" />
        <path d="M10.2852 0.572217V1.14307H10.856V0.572217H10.2852Z" fill="#9B9DAA" />
        <path d="M1.14258 4.57283V5.14368H1.71343V4.57283H1.14258Z" fill="#9B9DAA" />
        <path d="M1.71387 3.42878V3.99963H2.28472V3.42878H1.71387Z" fill="#9B9DAA" />
        <path d="M2.28418 2.28657V2.85742H2.85503V2.28657H2.28418Z" fill="#9B9DAA" />
        <path d="M2.85645 1.71565V2.2865H3.42729V1.71565H2.85645Z" fill="#9B9DAA" />
        <path d="M14.2861 4.57148V5.14233H14.857V4.57148H14.2861Z" fill="#9B9DAA" />
        <path d="M13.7139 3.42964V4.00049H14.2847V3.42964H13.7139Z" fill="#9B9DAA" />
        <path d="M13.1416 2.28608V2.85693H13.7125V2.28608H13.1416Z" fill="#9B9DAA" />
        <path d="M12.5713 1.71577V2.28662H13.1421V1.71577H12.5713Z" fill="#9B9DAA" />
        <path d="M14.2861 8.00019V8.57104H14.857V8.00019H14.2861Z" fill="#9B9DAA" />
        <path d="M14.2852 8.57161V9.14246H14.856V8.57161H14.2852Z" fill="#9B9DAA" />
        <path d="M14.2861 9.14302V9.71387H14.857V9.14302H14.2861Z" fill="#9B9DAA" />
        <path d="M14.2861 7.42866V7.99951H14.857V7.42866H14.2861Z" fill="#9B9DAA" />
        <path d="M13.7148 9.14412V9.71497H14.2857V9.14412H13.7148Z" fill="#9B9DAA" />
        <path d="M13.1426 10.2865V10.8573H13.7134V10.2865H13.1426Z" fill="#9B9DAA" />
        <path d="M13.7139 9.71565V10.2865H14.2847V9.71565H13.7139Z" fill="#9B9DAA" />
        <path d="M13.1436 10.8579V11.4287H13.7144V10.8579H13.1436Z" fill="#9B9DAA" />
        <path d="M12.5713 11.4304V12.0012H13.1421V11.4304H12.5713Z" fill="#9B9DAA" />
        <path d="M11.999 12.0013V12.5721H12.5699V12.0013H11.999Z" fill="#9B9DAA" />
        <path d="M10.8574 12.5732V13.144H11.4283V12.5732H10.8574Z" fill="#9B9DAA" />
        <path d="M9.71387 13.1435V13.7144H10.2847V13.1435H9.71387Z" fill="#9B9DAA" />
        <path d="M8.57129 13.144V13.7148H9.14214V13.144H8.57129Z" fill="#9B9DAA" />
        <path d="M7.99902 13.1434V13.7142H8.56987V13.1434H7.99902Z" fill="#9B9DAA" />
        <path d="M4 12.5727V13.1436H4.57085V12.5727H4Z" fill="#9B9DAA" />
        <path d="M5.14258 13.1438V13.7146H5.71343V13.1438H5.14258Z" fill="#9B9DAA" />
        <path d="M1.14258 9.14448V9.71533H1.71343V9.14448H1.14258Z" fill="#9B9DAA" />
        <path d="M1.71289 10.2862V10.8571H2.28374V10.2862H1.71289Z" fill="#9B9DAA" />
        <path d="M2.28516 11.4298V12.0006H2.85601V11.4298H2.28516Z" fill="#9B9DAA" />
        <path d="M2.85547 12.0018V12.5726H3.42632V12.0018H2.85547Z" fill="#9B9DAA" />
        <path d="M11.4287 12.5721V13.1429H11.9996V12.5721H11.4287Z" fill="#9B9DAA" />
        <path d="M10.2852 13.1441V13.715H10.856V13.1441H10.2852Z" fill="#9B9DAA" />
        <path d="M13.7139 10.2871V10.8579H14.2847V10.2871H13.7139Z" fill="#9B9DAA" />
        <path d="M13.1426 11.4294V12.0002H13.7134V11.4294H13.1426Z" fill="#9B9DAA" />
        <path d="M12.5703 12.0019V12.5728H13.1412V12.0019H12.5703Z" fill="#9B9DAA" />
        <path d="M7.99902 12.0004V12.5713H8.56987V12.0004H7.99902Z" fill="#9B9DAA" />
        <path d="M8 11.429V11.9999H8.57085V11.429H8Z" fill="#F8F8F9" />
        <path d="M8 10.8575V11.4283H8.57085V10.8575H8Z" fill="#9B9DAA" />
        <path d="M7.99902 10.2861V10.8569H8.56987V10.2861H7.99902Z" fill="#9B9DAA" />
        <path d="M8 9.71467V10.2855H8.57085V9.71467H8Z" fill="#6A6C7B" />
        <path d="M8 9.14326V9.71411H8.57085V9.14326H8Z" fill="#6A6C7B" />
        <path d="M7.99902 8.57173V9.14258H8.56987V8.57173H7.99902Z" fill="#9B9DAA" />
        <path d="M8 8.00032V8.57117H8.57085V8.00032H8Z" fill="#6A6C7B" />
        <path d="M8 7.42891V7.99976H8.57085V7.42891H8Z" fill="#6A6C7B" />
        <path d="M6.28516 -0.000171125V0.570679H6.85601V-0.000171125H6.28516Z" fill="#161522" />
        <path d="M5.71387 0.000927925V0.571777H6.28472V0.000927925H5.71387Z" fill="#161522" />
        <path d="M5.14258 0.000317574V0.571167H5.71343V0.000317574H5.14258Z" fill="#161522" />
        <path d="M6.85645 0.000439644V0.571289H7.42729V0.000439644H6.85645Z" fill="#161522" />
        <path d="M7.42871 0.00105V0.571899H7.99956V0.00105H7.42871Z" fill="#161522" />
        <path d="M9.14258 0.00117207V0.572021H9.71343V0.00117207H9.14258Z" fill="#161522" />
        <path d="M9.71387 7.34329e-05V0.570923H10.2847V7.34329e-05H9.71387Z" fill="#161522" />
        <path d="M10.2852 0.000683784V0.571533H10.856V0.000683784H10.2852Z" fill="#161522" />
        <path d="M8.57129 0.000561714V0.571411H9.14214V0.000561714H8.57129Z" fill="#161522" />
        <path d="M8 -4.90546e-05V0.570801H8.57085V-4.90546e-05H8Z" fill="#161522" />
        <path d="M3.42871 1.14314V1.71399H3.99956V1.14314H3.42871Z" fill="#161522" />
        <path d="M4.57031 0.572949V1.1438H5.14116V0.572949H4.57031Z" fill="#161522" />
        <path d="M12 1.14375V1.7146H12.5708V1.14375H12Z" fill="#161522" />
        <path d="M10.8564 0.572705V1.14355H11.4273V0.572705H10.8564Z" fill="#161522" />
        <path d="M6.28613 13.7147V14.2855H6.85698V13.7147H6.28613Z" fill="#161522" />
        <path d="M3.42871 12.5722V13.1431H3.99956V12.5722H3.42871Z" fill="#161522" />
        <path d="M3.42773 13.1436V13.7145H3.99858V13.1436H3.42773Z" fill="#B70000" />
        <path d="M4.57031 13.1448V13.7157H5.14116V13.1448H4.57031Z" fill="#161522" />
        <path d="M5.71484 13.7158V14.2866H6.28569V13.7158H5.71484Z" fill="#161522" />
        <path d="M0.570312 6.85798V7.42883H1.14116V6.85798H0.570312Z" fill="#161522" />
        <path d="M0.571289 6.28657V6.85742H1.14214V6.28657H0.571289Z" fill="#161522" />
        <path d="M0.571289 5.71516V6.28601H1.14214V5.71516H0.571289Z" fill="#161522" />
        <path d="M0.571289 8.00093V8.57178H1.14214V8.00093H0.571289Z" fill="#161522" />
        <path d="M0.571289 7.42952V8.00037H1.14214V7.42952H0.571289Z" fill="#161522" />
        <path d="M0.570312 5.14363V5.71448H1.14116V5.14363H0.570312Z" fill="#161522" />
        <path d="M1.1416 4.00142V4.57227H1.71245V4.00142H1.1416Z" fill="#161522" />
        <path d="M1.71387 2.85737V3.42822H2.28472V2.85737H1.71387Z" fill="#161522" />
        <path d="M0.570312 8.57234V9.14319H1.14116V8.57234H0.570312Z" fill="#161522" />
        <path d="M1.14258 9.71589V10.2867H1.71343V9.71589H1.14258Z" fill="#161522" />
        <path d="M1.71387 10.8577V11.4286H2.28472V10.8577H1.71387Z" fill="#161522" />
        <path d="M0.571289 4.57222V5.14307H1.14214V4.57222H0.571289Z" fill="#161522" />
        <path d="M1.14258 3.42988V4.00073H1.71343V3.42988H1.14258Z" fill="#161522" />
        <path d="M1.71289 2.28596V2.85681H2.28374V2.28596H1.71289Z" fill="#161522" />
        <path d="M2.28516 1.71504V2.28589H2.85601V1.71504H2.28516Z" fill="#161522" />
        <path d="M2.85742 1.14424V1.71509H3.42827V1.14424H2.85742Z" fill="#161522" />
        <path d="M3.99902 0.572339V1.14319H4.56987V0.572339H3.99902Z" fill="#161522" />
        <path d="M0.571289 9.14387V9.71472H1.14214V9.14387H0.571289Z" fill="#161522" />
        <path d="M1.1416 10.2873V10.8582H1.71245V10.2873H1.1416Z" fill="#161522" />
        <path d="M1.71387 11.4292V12H2.28472V11.4292H1.71387Z" fill="#161522" />
        <path d="M2.28418 12.0012V12.572H2.85503V12.0012H2.28418Z" fill="#161522" />
        <path d="M2.85742 12.5732V13.144H3.42827V12.5732H2.85742Z" fill="#161522" />
        <path d="M3.99902 13.1442V13.7151H4.56987V13.1442H3.99902Z" fill="#161522" />
        <path d="M5.14355 13.7152V14.286H5.71441V13.7152H5.14355Z" fill="#161522" />
        <path d="M6.85742 13.7153V14.2861H7.42827V13.7153H6.85742Z" fill="#161522" />
        <path d="M7.42871 13.7159V14.2867H7.99956V13.7159H7.42871Z" fill="#161522" />
        <path d="M9.14355 13.716V14.2869H9.71441V13.716H9.14355Z" fill="#161522" />
        <path d="M12 12.5727V13.1436H12.5708V12.5727H12Z" fill="#161522" />
        <path d="M10.8564 13.1447V13.7156H11.4273V13.1447H10.8564Z" fill="#161522" />
        <path d="M9.71484 13.7149V14.2858H10.2857V13.7149H9.71484Z" fill="#161522" />
        <path d="M14.8564 6.85786V7.42871H15.4273V6.85786H14.8564Z" fill="#161522" />
        <path d="M14.8574 6.28645V6.8573H15.4283V6.28645H14.8574Z" fill="#161522" />
        <path d="M14.8574 5.71492V6.28577H15.4283V5.71492H14.8574Z" fill="#161522" />
        <path d="M14.8564 5.14351V5.71436H15.4273V5.14351H14.8564Z" fill="#161522" />
        <path d="M14.2852 3.99995V4.5708H14.856V3.99995H14.2852Z" fill="#161522" />
        <path d="M13.7148 2.85823V3.42908H14.2857V2.85823H13.7148Z" fill="#161522" />
        <path d="M14.8574 4.57209V5.14294H15.4283V4.57209H14.8574Z" fill="#161522" />
        <path d="M14.2852 3.42854V3.99939H14.856V3.42854H14.2852Z" fill="#161522" />
        <path d="M13.7139 2.28669V2.85754H14.2847V2.28669H13.7139Z" fill="#161522" />
        <path d="M13.1426 1.71467V2.28552H13.7134V1.71467H13.1426Z" fill="#161522" />
        <path d="M12.5723 1.14436V1.71521H13.1431V1.14436H12.5723Z" fill="#161522" />
        <path d="M11.4277 0.571729V1.14258H11.9986V0.571729H11.4277Z" fill="#161522" />
        <path d="M14.8574 8.00081V8.57166H15.4283V8.00081H14.8574Z" fill="#161522" />
        <path d="M14.8564 8.57222V9.14307H15.4273V8.57222H14.8564Z" fill="#161522" />
        <path d="M14.8574 9.14363V9.71448H15.4283V9.14363H14.8574Z" fill="#161522" />
        <path d="M14.8574 7.42927V8.00012H15.4283V7.42927H14.8574Z" fill="#161522" />
        <path d="M14.2852 9.71455V10.2854H14.856V9.71455H14.2852Z" fill="#161522" />
        <path d="M13.7148 10.8585V11.4293H14.2857V10.8585H13.7148Z" fill="#161522" />
        <path d="M14.2852 10.286V10.8568H14.856V10.286H14.2852Z" fill="#161522" />
        <path d="M13.7139 11.4299V12.0007H14.2847V11.4299H13.7139Z" fill="#161522" />
        <path d="M13.1416 12.0008V12.5717H13.7125V12.0008H13.1416Z" fill="#161522" />
        <path d="M12.5713 12.5733V13.1442H13.1421V12.5733H12.5713Z" fill="#161522" />
        <path d="M2.85645 13.1447V13.7156H3.42729V13.1447H2.85645Z" fill="#560000" />
        <path d="M12.5713 13.1447V13.7156H13.1421V13.1447H12.5713Z" fill="#560000" />
        <path d="M2.85742 13.7161V14.287H3.42827V13.7161H2.85742Z" fill="#560000" />
        <path d="M12.5723 13.7163V14.2871H13.1431V13.7163H12.5723Z" fill="#560000" />
        <path d="M2.85645 14.2875V14.8584H3.42729V14.2875H2.85645Z" fill="#560000" />
        <path d="M12.5713 14.2877V14.8585H13.1421V14.2877H12.5713Z" fill="#560000" />
        <path d="M2.85645 14.8591V15.4299H3.42729V14.8591H2.85645Z" fill="#560000" />
        <path d="M12.5713 14.8591V15.4299H13.1421V14.8591H12.5713Z" fill="#560000" />
        <path d="M2.85742 15.4305V16.0013H3.42827V15.4305H2.85742Z" fill="#560000" />
        <path d="M12.5723 15.4306V16.0015H13.1431V15.4306H12.5723Z" fill="#560000" />
        <path d="M2.85645 16.0019V16.5728H3.42729V16.0019H2.85645Z" fill="#560000" />
        <path d="M12.5713 16.002V16.5729H13.1421V16.002H12.5713Z" fill="#560000" />
        <path d="M2.85645 16.5734V17.1443H3.42729V16.5734H2.85645Z" fill="#560000" />
        <path d="M12.5703 16.5734V17.1443H13.1412V16.5734H12.5703Z" fill="#560000" />
        <path d="M2.85742 17.1448V17.7157H3.42827V17.1448H2.85742Z" fill="#560000" />
        <path d="M12.5723 17.145V17.7158H13.1431V17.145H12.5723Z" fill="#560000" />
        <path d="M2.85645 17.7163V18.2871H3.42729V17.7163H2.85645Z" fill="#560000" />
        <path d="M12.5713 17.7164V18.2872H13.1421V17.7164H12.5713Z" fill="#560000" />
        <path d="M2.85645 18.2878V18.8586H3.4273V18.2878H2.85645Z" fill="#560000" />
        <path d="M12.5703 18.2878V18.8586H13.1412V18.2878H12.5703Z" fill="#560000" />
        <path d="M11.4277 13.1436V13.7145H11.9986V13.1436H11.4277Z" fill="#161522" />
        <path d="M3.42871 13.715V14.2859H3.99956V13.715H3.42871Z" fill="#B70000" />
        <path d="M4.57227 13.7163V14.2871H5.14312V13.7163H4.57227Z" fill="#CE0B0B" />
        <path d="M4 13.7156V14.2865H4.57085V13.7156H4Z" fill="#CE0B0B" />
        <path d="M12 13.1442V13.7151H12.5708V13.1442H12Z" fill="#B70000" />
        <path d="M12.001 13.7156V14.2865H12.5718V13.7156H12.001Z" fill="#B70000" />
        <path d="M10.8574 13.7161V14.287H11.4283V13.7161H10.8574Z" fill="#CE0B0B" />
        <path d="M11.4297 13.715V14.2859H12.0005V13.715H11.4297Z" fill="#CE0B0B" />
        <path d="M10.2861 13.7155V14.2864H10.857V13.7155H10.2861Z" fill="#161522" />
        <path d="M8.57227 13.7154V14.2863H9.14312V13.7154H8.57227Z" fill="#161522" />
        <path d="M8.00098 13.7148V14.2856H8.57183V13.7148H8.00098Z" fill="#161522" />
        <path d="M6.28516 14.2861V14.8569H6.85601V14.2861H6.28516Z" fill="#CE0B0B" />
        <path d="M5.71387 14.2872V14.858H6.28472V14.2872H5.71387Z" fill="#CE0B0B" />
        <path d="M5.14258 14.2866V14.8574H5.71343V14.2866H5.14258Z" fill="#CE0B0B" />
        <path d="M6.85742 14.2867V14.8575H7.42827V14.2867H6.85742Z" fill="#CE0B0B" />
        <path d="M7.42871 14.2873V14.8582H7.99956V14.2873H7.42871Z" fill="#CE0B0B" />
        <path d="M9.14258 14.2874V14.8583H9.71343V14.2874H9.14258Z" fill="#CE0B0B" />
        <path d="M9.71387 14.2863V14.8572H10.2847V14.2863H9.71387Z" fill="#CE0B0B" />
        <path d="M3.42871 14.2866V14.8574H3.99956V14.2866H3.42871Z" fill="#B70000" />
        <path d="M4.57129 14.2877V14.8585H5.14214V14.2877H4.57129Z" fill="#CE0B0B" />
        <path d="M4 14.2871V14.8579H4.57085V14.2871H4Z" fill="#CE0B0B" />
        <path d="M12 14.2871V14.8579H12.5708V14.2871H12Z" fill="#B70000" />
        <path d="M10.8574 14.2875V14.8584H11.4283V14.2875H10.8574Z" fill="#CE0B0B" />
        <path d="M11.4287 14.2865V14.8573H11.9996V14.2865H11.4287Z" fill="#CE0B0B" />
        <path d="M10.2861 14.2869V14.8578H10.857V14.2869H10.2861Z" fill="#CE0B0B" />
        <path d="M8.57129 14.2868V14.8577H9.14214V14.2868H8.57129Z" fill="#CE0B0B" />
        <path d="M8 14.2862V14.8571H8.57085V14.2862H8Z" fill="#CE0B0B" />
        <path d="M6.28516 14.8576V15.4285H6.85601V14.8576H6.28516Z" fill="#CE0B0B" />
        <path d="M5.71387 14.8587V15.4296H6.28472V14.8587H5.71387Z" fill="#CE0B0B" />
        <path d="M5.1416 14.8581V15.429H5.71245V14.8581H5.1416Z" fill="#CE0B0B" />
        <path d="M6.85645 14.8582V15.4291H7.42729V14.8582H6.85645Z" fill="#CE0B0B" />
        <path d="M7.42773 14.8588V15.4297H7.99858V14.8588H7.42773Z" fill="#B70000" />
        <path d="M9.14258 14.859V15.4298H9.71343V14.859H9.14258Z" fill="#CE0B0B" />
        <path d="M9.71387 14.8579V15.4287H10.2847V14.8579H9.71387Z" fill="#CE0B0B" />
        <path d="M3.42773 14.858V15.4288H3.99858V14.858H3.42773Z" fill="#B70000" />
        <path d="M4.57031 14.8592V15.4301H5.14116V14.8592H4.57031Z" fill="#CE0B0B" />
        <path d="M3.99902 14.8586V15.4294H4.56987V14.8586H3.99902Z" fill="#CE0B0B" />
        <path d="M11.999 14.8586V15.4294H12.5699V14.8586H11.999Z" fill="#B70000" />
        <path d="M10.8564 14.8591V15.4299H11.4273V14.8591H10.8564Z" fill="#CE0B0B" />
        <path d="M11.4277 14.858V15.4288H11.9986V14.858H11.4277Z" fill="#CE0B0B" />
        <path d="M10.2852 14.8585V15.4293H10.856V14.8585H10.2852Z" fill="#CE0B0B" />
        <path d="M8.57031 14.8583V15.4292H9.14116V14.8583H8.57031Z" fill="#CE0B0B" />
        <path d="M7.99902 14.8577V15.4286H8.56987V14.8577H7.99902Z" fill="#B70000" />
        <path d="M6.28613 15.429V15.9999H6.85698V15.429H6.28613Z" fill="#CE0B0B" />
        <path d="M5.71484 15.4301V16.001H6.28569V15.4301H5.71484Z" fill="#CE0B0B" />
        <path d="M5.14355 15.4295V16.0004H5.71441V15.4295H5.14355Z" fill="#CE0B0B" />
        <path d="M6.85742 15.4296V16.0005H7.42827V15.4296H6.85742Z" fill="#B70000" />
        <path d="M9.14355 15.4304V16.0012H9.71441V15.4304H9.14355Z" fill="#CE0B0B" />
        <path d="M9.71484 15.4293V16.0001H10.2857V15.4293H9.71484Z" fill="#CE0B0B" />
        <path d="M3.42871 15.4294V16.0002H3.99956V15.4294H3.42871Z" fill="#B70000" />
        <path d="M4.57129 15.4306V16.0015H5.14214V15.4306H4.57129Z" fill="#CE0B0B" />
        <path d="M4 15.43V16.0009H4.57085V15.43H4Z" fill="#CE0B0B" />
        <path d="M12.001 15.43V16.0009H12.5718V15.43H12.001Z" fill="#B70000" />
        <path d="M10.8574 15.4305V16.0013H11.4283V15.4305H10.8574Z" fill="#CE0B0B" />
        <path d="M11.4287 15.4294V16.0002H11.9996V15.4294H11.4287Z" fill="#CE0B0B" />
        <path d="M10.2861 15.4299V16.0007H10.857V15.4299H10.2861Z" fill="#CE0B0B" />
        <path d="M8.57227 15.4298V16.0006H9.14312V15.4298H8.57227Z" fill="#B70000" />
        <path d="M6.28516 16.0004V16.5713H6.85601V16.0004H6.28516Z" fill="#B70000" />
        <path d="M5.71387 16.0015V16.5724H6.28472V16.0015H5.71387Z" fill="#CE0B0B" />
        <path d="M5.14258 16.0009V16.5718H5.71343V16.0009H5.14258Z" fill="#CE0B0B" />
        <path d="M9.14258 16.0018V16.5726H9.71343V16.0018H9.14258Z" fill="#B70000" />
        <path d="M9.71387 16.0007V16.5715H10.2847V16.0007H9.71387Z" fill="#CE0B0B" />
        <path d="M3.42773 16.0009V16.5718H3.99858V16.0009H3.42773Z" fill="#B70000" />
        <path d="M4.57129 16.002V16.5729H5.14214V16.002H4.57129Z" fill="#CE0B0B" />
        <path d="M4 16.0014V16.5723H4.57085V16.0014H4Z" fill="#CE0B0B" />
        <path d="M12 16.0014V16.5723H12.5708V16.0014H12Z" fill="#B70000" />
        <path d="M10.8574 16.0019V16.5728H11.4283V16.0019H10.8574Z" fill="#CE0B0B" />
        <path d="M11.4287 16.0008V16.5717H11.9996V16.0008H11.4287Z" fill="#CE0B0B" />
        <path d="M10.2852 16.0013V16.5721H10.856V16.0013H10.2852Z" fill="#CE0B0B" />
        <path d="M5.71387 16.5731V17.1439H6.28472V16.5731H5.71387Z" fill="#B70000" />
        <path d="M5.1416 16.5725V17.1433H5.71245V16.5725H5.1416Z" fill="#CE0B0B" />
        <path d="M9.71387 16.5722V17.1431H10.2847V16.5722H9.71387Z" fill="#B70000" />
        <path d="M3.42773 16.5723V17.1432H3.99858V16.5723H3.42773Z" fill="#B70000" />
        <path d="M4.57031 16.5736V17.1444H5.14116V16.5736H4.57031Z" fill="#CE0B0B" />
        <path d="M3.99902 16.5729V17.1438H4.56987V16.5729H3.99902Z" fill="#CE0B0B" />
        <path d="M11.999 16.5729V17.1438H12.5699V16.5729H11.999Z" fill="#B70000" />
        <path d="M10.8564 16.5734V17.1443H11.4273V16.5734H10.8564Z" fill="#CE0B0B" />
        <path d="M11.4277 16.5723V17.1432H11.9986V16.5723H11.4277Z" fill="#CE0B0B" />
        <path d="M10.2852 16.5728V17.1437H10.856V16.5728H10.2852Z" fill="#CE0B0B" />
        <path d="M5.14258 17.1439V17.7147H5.71343V17.1439H5.14258Z" fill="#B70000" />
        <path d="M3.42871 17.1438V17.7146H3.99956V17.1438H3.42871Z" fill="#B70000" />
        <path d="M4.57129 17.145V17.7158H5.14214V17.145H4.57129Z" fill="#CE0B0B" />
        <path d="M4 17.1444V17.7152H4.57085V17.1444H4Z" fill="#CE0B0B" />
        <path d="M12 17.1444V17.7152H12.5709V17.1444H12Z" fill="#B70000" />
        <path d="M10.8574 17.1448V17.7157H11.4283V17.1448H10.8574Z" fill="#CE0B0B" />
        <path d="M11.4287 17.1438V17.7146H11.9996V17.1438H11.4287Z" fill="#CE0B0B" />
        <path d="M10.2861 17.1442V17.7151H10.857V17.1442H10.2861Z" fill="#B70000" />
        <path d="M3.42773 17.7153V18.2861H3.99858V17.7153H3.42773Z" fill="#B70000" />
        <path d="M4.57129 17.7164V18.2872H5.14214V17.7164H4.57129Z" fill="#B70000" />
        <path d="M4 17.7158V18.2866H4.57085V17.7158H4Z" fill="#CE0B0B" />
        <path d="M12 17.7158V18.2866H12.5708V17.7158H12Z" fill="#B70000" />
        <path d="M10.8564 17.7163V18.2871H11.4273V17.7163H10.8564Z" fill="#B70000" />
        <path d="M11.4287 17.7152V18.286H11.9996V17.7152H11.4287Z" fill="#CE0B0B" />
        <path d="M3.42773 18.2867V18.8575H3.99858V18.2867H3.42773Z" fill="#B70000" />
        <path d="M3.99902 18.2873V18.8582H4.56987V18.2873H3.99902Z" fill="#B70000" />
        <path d="M11.999 18.2873V18.8582H12.5699V18.2873H11.999Z" fill="#B70000" />
        <path d="M2.85742 18.8592V19.4301H3.42827V18.8592H2.85742Z" fill="#560000" />
        <path d="M12.5713 18.8593V19.4302H13.1421V18.8593H12.5713Z" fill="#560000" />
        <path d="M3.42871 18.8581V19.429H3.99956V18.8581H3.42871Z" fill="#B70000" />
        <path d="M12 18.8587V19.4296H12.5709V18.8587H12Z" fill="#B70000" />
        <path d="M11.4277 18.2867V18.8575H11.9986V18.2867H11.4277Z" fill="#B70000" />
        <path d="M7.42871 15.4302V16.0011H7.99956V15.4302H7.42871Z" fill="#560000" />
        <path d="M8 15.4292V16H8.57085V15.4292H8Z" fill="#560000" />
        <path d="M6.85645 16.001V16.5719H7.42729V16.001H6.85645Z" fill="#560000" />
        <path d="M8.57129 16.0012V16.572H9.14214V16.0012H8.57129Z" fill="#560000" />
        <path d="M6.28516 16.572V17.1428H6.85601V16.572H6.28516Z" fill="#560000" />
        <path d="M9.14258 16.5733V17.1442H9.71343V16.5733H9.14258Z" fill="#560000" />
        <path d="M5.71484 17.1445V17.7153H6.28569V17.1445H5.71484Z" fill="#560000" />
        <path d="M9.71484 17.1436V17.7145H10.2857V17.1436H9.71484Z" fill="#560000" />
        <path d="M5.14258 17.7153V18.2861H5.71343V17.7153H5.14258Z" fill="#560000" />
        <path d="M10.2852 17.7156V18.2865H10.856V17.7156H10.2852Z" fill="#560000" />
        <path d="M4.57031 18.2879V18.8588H5.14116V18.2879H4.57031Z" fill="#560000" />
        <path d="M10.8564 18.2877V18.8585H11.4273V18.2877H10.8564Z" fill="#560000" />
        <path d="M4 18.8587V19.4296H4.57085V18.8587H4Z" fill="#560000" />
        <path d="M2.85645 19.4306V20.0015H3.42729V19.4306H2.85645Z" fill="#560000" />
        <path d="M12.5713 19.4307V20.0016H13.1421V19.4307H12.5713Z" fill="#560000" />
        <path d="M3.42773 19.4296V20.0005H3.99858V19.4296H3.42773Z" fill="#560000" />
        <path d="M12 19.4301V20.001H12.5708V19.4301H12Z" fill="#560000" />
        <path d="M11.4287 18.8581V19.429H11.9996V18.8581H11.4287Z" fill="#560000" />
    </g>
    <defs>
        <clipPath id="clip0_3615_11037">
            <rect width="14.8573" height="20" fill="white" transform="translate(0.571289)" />
        </clipPath>
    </defs>
</svg>
    