<svg width="450" height="450" viewBox="0 0 450 450" fill="none" xmlns="http://www.w3.org/2000/svg">
    <g clip-path="url(#clip0_2572_1785)">
        <path
            d="M240 30V39.91C246.57 40.1 253.16 39.97 259.75 39.99C266.39 40.01 273.02 39.99 280 39.99V49.99H170V40.08C176.57 39.89 183.16 40.02 189.75 40C196.39 39.98 203.02 40 210 40V30H220V40C221.97 40 223.61 40.02 225.25 40C226.84 39.97 228.44 39.89 230 39.84V30.01H240V30Z"
            fill="black" />
        <path
            d="M70 350V340.21C73.18 339.73 76.46 340.23 80 339.88V320.01H90.12V340.1H100.08V350.06H120V360.01H110.52C110.4 360.12 110.26 360.22 110.17 360.35C110.09 360.47 110.01 360.63 110.01 360.78C110.01 367.08 110.01 373.38 110.01 380.01H100.01V360.01H90.01V350.01H70.01L70 350Z"
            fill="black" />
        <path
            d="M350 380H340.52C340.4 379.89 340.26 379.79 340.17 379.66C340.09 379.54 340.01 379.38 340.01 379.23C340.01 372.93 340.01 366.63 340.01 360H330.01V350H350.01V340H360.01V320H370.01V339.77C373.19 340.31 376.46 339.75 380.01 340.14V350H360.01V360H350.01V380H350Z"
            fill="black" />
        <path
            d="M430 230V239.79C423.49 240.27 416.94 239.8 410.11 240.07V269.99H400V209.99H410V229.99H430V230Z"
            fill="black" />
        <path
            d="M49.9998 270H40.5498C40.4298 269.89 40.2798 269.81 40.1898 269.68C40.0998 269.56 40.0098 269.4 40.0098 269.26C40.0098 259.65 40.0098 250.05 40.0098 240.13H20.0098V230H40.0098V210H50.0098V270H49.9998Z"
            fill="black" />
        <path
            d="M240 400V420H230V410C228.03 410 226.39 409.98 224.75 410C223.16 410.03 221.56 410.11 220 410.16V419.99H210V399.99H240V400Z"
            fill="black" />
        <path d="M280 390V400H240V390H280Z" fill="black" />
        <path d="M210 400H170V390H210V400Z" fill="black" />
        <path
            d="M210 20V10.52C210.11 10.4 210.21 10.26 210.35 10.17C210.47 10.09 210.63 10.01 210.78 10.01C220.41 10.01 230.04 10.01 240.01 10.01V20.01H210.01L210 20Z"
            fill="black" />
        <path d="M40 200V170H50V200H40Z" fill="black" />
        <path d="M390 140H400V170H390V140Z" fill="black" />
        <path d="M100 70H109.79C110.3 73.18 109.77 76.46 110.14 80H120V90H100V70Z" fill="black" />
        <path d="M50 170V140H60V170H50Z" fill="black" />
        <path d="M400 170H410V200H400V170Z" fill="black" />
        <path d="M80 120V110.21C76.82 109.7 73.54 110.23 70 109.86V100H90V120H80Z" fill="black" />
        <path d="M380 100V109.79C376.82 110.3 373.54 109.77 370 110.14V120H360V100H380Z"
            fill="black" />
        <path d="M330 80H339.79C340.3 76.82 339.77 73.54 340.14 70H350V90H330V80Z" fill="black" />
        <path d="M60 300H50V270H60V300Z" fill="black" />
        <path d="M400 270V300H390V270H400Z" fill="black" />
        <path
            d="M240 430V439.48C239.89 439.6 239.79 439.74 239.65 439.83C239.53 439.91 239.37 439.99 239.22 439.99C229.59 439.99 219.96 439.99 209.99 439.99V429.99H239.99L240 430Z"
            fill="black" />
        <path d="M70 60V50.18C76.54 49.78 83.1 50.12 90 49.96V59.99H70V60Z" fill="black" />
        <path d="M430 210H439.82C440.22 216.54 439.88 223.1 440.04 230H430.01V210H430Z" fill="black" />
        <path d="M20 210V200H40V210H20Z" fill="black" />
        <path d="M390 70H399.82C400.22 76.54 399.88 83.1 400.04 90H390.01V70H390Z" fill="black" />
        <path d="M20 230H10.18C9.77996 223.46 10.12 216.9 9.95996 210H19.99V230H20Z" fill="black" />
        <path d="M410 200H430V210H410V200Z" fill="black" />
        <path d="M60 90H50.18C49.78 83.46 50.12 76.9 49.96 70H59.99V90H60Z" fill="black" />
        <path d="M300 60H320V70H300V60Z" fill="black" />
        <path d="M60 380H50.18C49.78 373.46 50.12 366.9 49.96 360H59.99V380H60Z" fill="black" />
        <path d="M390 360H399.82C400.22 366.54 399.88 373.1 400.04 380H390.01V360H390Z" fill="black" />
        <path d="M150 380H130V370H150V380Z" fill="black" />
        <path d="M320 370V380H300V370H320Z" fill="black" />
        <path d="M170 390H150V380H170V390Z" fill="black" />
        <path d="M130 70V60H150V70H130Z" fill="black" />
        <path d="M360 60V50.18C366.54 49.78 373.1 50.12 380 49.96V59.99H360V60Z" fill="black" />
        <path d="M300 380V390H280V380H300Z" fill="black" />
        <path d="M90 390V399.82C83.46 400.22 76.9 399.88 70 400.04V390.01H90V390Z" fill="black" />
        <path d="M280 50H300V60H280V50Z" fill="black" />
        <path d="M150 60V50H170V60H150Z" fill="black" />
        <path d="M380 390V399.82C373.46 400.22 366.9 399.88 360 400.04V390.01H380V390Z" fill="black" />
        <path
            d="M210 30H200.17C200.11 28.44 200.03 26.84 200.01 25.25C199.98 23.61 200.01 21.97 200.01 20H210.01V30H210Z"
            fill="black" />
        <path
            d="M240 20H249.83C249.89 21.56 249.97 23.16 249.99 24.75C250.02 26.39 249.99 28.03 249.99 30H239.99V20H240Z"
            fill="black" />
        <path d="M60 70V60H70V70H60Z" fill="black" />
        <path d="M90 60H100V70H90V60Z" fill="black" />
        <path d="M350 70V60H360V70H350Z" fill="black" />
        <path d="M380 60H390V70H380V60Z" fill="black" />
        <path d="M120 80V70H130V80H120Z" fill="black" />
        <path d="M320 70H330V80H320V70Z" fill="black" />
        <path d="M70 100H60V90H70V100Z" fill="black" />
        <path d="M70 310H60V300H70V310Z" fill="black" />
        <path d="M390 90V100H380V90H390Z" fill="black" />
        <path d="M390 300V310H380V300H390Z" fill="black" />
        <path d="M80 320H70V310H80V320Z" fill="black" />
        <path d="M380 310V320H370V310H380Z" fill="black" />
        <path d="M70 130V120H80V130H70Z" fill="black" />
        <path d="M370 120H380V130H370V120Z" fill="black" />
        <path d="M60 140V130H70V140H60Z" fill="black" />
        <path d="M60 360V350H70V360H60Z" fill="black" />
        <path d="M380 130H390V140H380V130Z" fill="black" />
        <path d="M130 370H120V360H130V370Z" fill="black" />
        <path d="M330 360V370H320V360H330Z" fill="black" />
        <path d="M70 390H60V380H70V390Z" fill="black" />
        <path d="M100 380V390H90V380H100Z" fill="black" />
        <path d="M360 390H350V380H360V390Z" fill="black" />
        <path d="M390 380V390H380V380H390Z" fill="black" />
        <path
            d="M210 430H200.17C200.11 428.44 200.03 426.84 200.01 425.25C199.98 423.61 200.01 421.97 200.01 420H210.01V430H210Z"
            fill="black" />
        <path
            d="M240 420H249.83C249.89 421.56 249.97 423.16 249.99 424.75C250.02 426.39 249.99 428.03 249.99 430H239.99V420H240Z"
            fill="black" />
        <path d="M380 350H390V360H380V350Z" fill="black" />
        <path
            d="M280 50V60H290V70H300V89.87C303.54 90.22 306.82 89.72 310 90.2V99.99H290V89.99H260V80.16C243.52 79.5 194.32 79.76 190 80.5V89.99H160V99.99H140V109.99H130V119.99H120V129.99H110V139.99H100V149.99H90V179.99H80V199.99H70V160.13C73.54 159.76 76.82 160.29 80.18 159.75V139.96H90.06V129.91H100.1V109.87H109.99V99.83H130V89.96H140.05V79.92H160.09V69.88H180.13V60C186.6 60 192.91 60 199.21 60C199.36 60 199.51 59.93 199.64 59.85C199.78 59.76 199.89 59.63 199.99 59.54V50.01H279.99L280 50Z"
            fill="#FEE331" />
        <path
            d="M200 50V59.53C199.9 59.63 199.79 59.76 199.65 59.84C199.52 59.92 199.36 59.99 199.22 59.99C192.92 59.99 186.62 59.99 180.14 59.99V69.87H160.1V79.91H140.06V89.95H130.01V99.82H110V109.86H100.11V129.9H90.0698V139.95H80.1898V159.74C76.8298 160.28 73.5398 159.75 70.0098 160.12V199.98H60.1498C59.7798 196.44 60.3098 193.16 59.7998 189.98H50.0098V169.98H60.0098V139.98H70.0098V129.98H80.0098V119.98H90.0098V99.98H100.01V89.98H120.01V79.98H130.01V69.98H150.01V59.98H170.01V49.98H200.01L200 50Z"
            fill="#FCF0E9" />
        <path d="M210 30V20H220V30H210Z" fill="#FCF0E9" />
        <path d="M240 20V30H230V20H240Z" fill="#FD65A6" />
        <path
            d="M230 30V39.83C228.44 39.89 226.84 39.97 225.25 39.99C223.61 40.02 221.97 39.99 220 39.99V29.99H230V30Z"
            fill="#79164C" />
        <path
            d="M130 360H120V350.05H100.08V340.09H90.12V320H80V310H70V300H60V270H50V240H60.17V260.17H70.17V280.17H79.89C80.24 283.55 79.71 286.82 80.22 290H90.01V300H100.01V310H110.01V320H120.01V330H130.01V340H140.01V360H130.01H130Z"
            fill="#F0BE35" />
        <path d="M70 360V350H90V360H70Z" fill="#79164C" />
        <path d="M100 380H90V360H100V380Z" fill="#79164C" />
        <path d="M360 320V340H350V320H360Z" fill="#F07B38" />
        <path d="M350 340V350H330V340H350Z" fill="#F07B38" />
        <path d="M380 350V360H360V350H380Z" fill="#79164C" />
        <path d="M360 380H350V360H360V380Z" fill="#79164C" />
        <path d="M370 310V320H360V310H370Z" fill="#F07B38" />
        <path d="M330 360H320V350H330V360Z" fill="#F07B38" />
        <path
            d="M330 350H320V360H300V370H280V380H240V390H210V380H170V370H150V360H140V350H160V360H190V369.83C206.48 370.49 255.68 370.23 260 369.49V360H290V350H310V340H320V330H330V320H340V310H350V300H360V270H370V250H380V230H390C390 223.02 389.98 216.39 390 209.75C390.02 203.16 389.9 196.57 390.09 190H400V200H410V210H400V240H390V270H380V300H370V310H360V320H350V340H330V350Z"
            fill="#FF9A41" />
        <path d="M390 270V240H400V270H390Z" fill="#F07B38" />
        <path d="M410 210H420V220H410V210Z" fill="#FB78B4" />
        <path d="M410 220H420V230H410V220Z" fill="#FD65A6" />
        <path d="M420 230V220H430V230H420Z" fill="#FB78B4" />
        <path
            d="M90.0002 290H80.2102C79.7002 286.82 80.2302 283.54 79.8802 280.17H70.1602V260.17H60.1602V240H49.9902V210H39.9902V200H49.9902V190H59.7802C60.2902 193.18 59.7602 196.46 60.1302 200H69.9902C69.9902 216.42 69.9902 232.84 69.9902 249.26C69.9902 249.4 70.0802 249.56 70.1702 249.68C70.2602 249.81 70.4102 249.9 70.5302 250H79.9802V270H89.9802V290H90.0002Z"
            fill="#FEE331" />
        <path d="M30 210H40V220H30V210Z" fill="#FB78B4" />
        <path d="M20 230V220H30V230H20Z" fill="#FB78B4" />
        <path d="M30 230V220H40V230H30Z" fill="#FD65A6" />
        <path d="M210 390H240V400H210V390Z" fill="#F07B38" />
        <path
            d="M220 420V410.17C221.56 410.11 223.16 410.03 224.75 410.01C226.39 409.98 228.03 410.01 230 410.01V420.01H220V420Z"
            fill="#79164C" />
        <path d="M210 430V420H220V430H210Z" fill="#FCF0E9" />
        <path d="M240 420V430H230V420H240Z" fill="#FD65A6" />
        <path d="M240 390V380H280V390H240Z" fill="#F07B38" />
        <path d="M170 380H210V390H170V380Z" fill="#F07B38" />
        <path d="M230 30H220V20H230V30Z" fill="#FB78B4" />
        <path
            d="M400 190H390.09C389.9 196.57 390.03 203.16 390 209.75C389.98 216.39 390 223.02 390 230H380V200H370V180H360V150H350V140H340V130H330V120H320V110H310V90.21C306.82 89.73 303.54 90.23 300 89.88V70.01H320V80.01H330V90.01H350V100.01H360V120.01H370V130.01H380V140.01H390V170.01H400V190.01V190Z"
            fill="#FFB217" />
        <path d="M90 70H100V90H90V70Z" fill="#79164C" />
        <path d="M70 100V90H90V100H70Z" fill="#79164C" />
        <path d="M380 90V100H360V90H380Z" fill="#79164C" />
        <path d="M350 70H360V90H350V70Z" fill="#79164C" />
        <path d="M380 300V270H390V300H380Z" fill="#F07B38" />
        <path d="M230 420V430H220V420H230Z" fill="#FB78B4" />
        <path d="M90 70V80H80V60H90V70Z" fill="#FB78B4" />
        <path d="M80 60V70H70V60H80Z" fill="#EFB1C8" />
        <path d="M430 220H420V210H430V220Z" fill="#FCF0E9" />
        <path d="M30 220H20V210H30V220Z" fill="#FCF0E9" />
        <path d="M380 90H370V80H390V90H380Z" fill="#FB78B4" />
        <path d="M390 80H380V70H390V80Z" fill="#EFB1C8" />
        <path d="M80 90H60V80H80V90Z" fill="#FB78B4" />
        <path d="M70 80H60V70H70V80Z" fill="#EFB1C8" />
        <path d="M300 70H290V60H300V70Z" fill="#FFB217" />
        <path d="M70 360H80V370H60V360H70Z" fill="#FB78B4" />
        <path d="M60 370H70V380H60V370Z" fill="#EFB1C8" />
        <path d="M370 360H390V370H370V360Z" fill="#FB78B4" />
        <path d="M380 370H390V380H380V370Z" fill="#EFB1C8" />
        <path d="M140 360H150V370H130V360H140Z" fill="#F07B38" />
        <path d="M150 370H170V380H150V370Z" fill="#F07B38" />
        <path d="M300 370V360H320V370H300Z" fill="#F07B38" />
        <path d="M280 380V370H300V380H280Z" fill="#F07B38" />
        <path d="M360 80V60H370V80H360Z" fill="#FB78B4" />
        <path d="M370 70V60H380V70H370Z" fill="#EFB1C8" />
        <path d="M90 370V390H80V370H90Z" fill="#FB78B4" />
        <path d="M80 380V390H70V380H80Z" fill="#EFB1C8" />
        <path d="M360 380V370H370V390H360V380Z" fill="#FB78B4" />
        <path d="M370 390V380H380V390H370Z" fill="#EFB1C8" />
        <path d="M370 310V300H380V310H370Z" fill="#F07B38" />
        <path
            d="M190 90V80.51C194.32 79.76 243.52 79.51 260 80.17V90H240.33C240.12 90.45 240 90.59 240 90.73C240 113.82 240 136.91 240 160V180H210V90H190ZM220 130V170C221.97 170 223.61 170.02 225.25 170C226.84 169.97 228.44 169.89 230 169.83V90C228.03 90 226.39 89.98 224.75 90C223.16 90.03 221.56 90.11 220 90.17V130Z"
            fill="black" />
        <path
            d="M79.9998 250H70.5498C70.4298 249.89 70.2898 249.8 70.1898 249.68C70.0998 249.56 70.0098 249.4 70.0098 249.26C70.0098 232.84 70.0098 216.42 70.0098 200H80.0098V219.83C96.7698 220.51 165.65 220.24 170.01 219.49V210H180.01V240H170.01V230.17C152.41 229.48 84.3798 229.75 80.0098 230.52V250.01L79.9998 250Z"
            fill="black" />
        <path d="M90 180V150H100V180H90Z" fill="black" />
        <path d="M160 100V90H190V100H160Z" fill="black" />
        <path d="M260 90H290V100H260V90Z" fill="black" />
        <path d="M310 100V110H290V100H310Z" fill="black" />
        <path d="M140 110V100H160V110H140Z" fill="black" />
        <path d="M80 200V180H90V200H80Z" fill="black" />
        <path d="M130 120V110H140V120H130Z" fill="black" />
        <path d="M120 130V120H130V130H120Z" fill="black" />
        <path d="M110 140V130H120V140H110Z" fill="black" />
        <path d="M100 150V140H110V150H100Z" fill="black" />
        <path d="M90 100V90H100V100H90Z" fill="black" />
        <path d="M90 290V270H100V300H90V290Z" fill="black" />
        <path d="M160 350H140V340H160V350Z" fill="black" />
        <path d="M110 310H100V300H110V310Z" fill="black" />
        <path d="M120 320H110V310H120V320Z" fill="black" />
        <path d="M130 330H120V320H130V330Z" fill="black" />
        <path d="M140 340H130V330H140V340Z" fill="black" />
        <path d="M90 370H80V360H90V370Z" fill="#FD65A6" />
        <path d="M370 370H360V360H370V370Z" fill="#FD65A6" />
        <path
            d="M260 360V369.49C255.68 370.24 206.48 370.49 190 369.83V360H209.67C209.88 359.55 210 359.41 210 359.27C210 336.18 210 313.09 210 290V270H240V360H260ZM230 320V280C228.03 280 226.39 279.98 224.75 280C223.16 280.03 221.56 280.11 220 280.17V360C221.97 360 223.61 360.02 225.25 360C226.84 359.97 228.44 359.89 230 359.83V320Z"
            fill="black" />
        <path
            d="M370 200H380V250H370V230.17C353.24 229.49 284.36 229.76 280 230.51V240H270V210H280V219.83C297.6 220.52 365.63 220.25 370 219.48V199.99V200Z"
            fill="black" />
        <path d="M190 360H160V350H190V360Z" fill="black" />
        <path d="M290 350V360H260V350H290Z" fill="black" />
        <path d="M360 270V300H350V270H360Z" fill="black" />
        <path d="M370 250V270H360V250H370Z" fill="black" />
        <path d="M310 340V350H290V340H310Z" fill="black" />
        <path d="M350 300V310H340V300H350Z" fill="black" />
        <path d="M340 310V320H330V310H340Z" fill="black" />
        <path d="M330 320V330H320V320H330Z" fill="black" />
        <path d="M320 330V340H310V330H320Z" fill="black" />
        <path d="M90 270H80V250H90V270Z" fill="black" />
        <path d="M350 150H360V180H350V150Z" fill="black" />
        <path d="M360 180H370V200H360V180Z" fill="black" />
        <path d="M350 90H360V100H350V90Z" fill="black" />
        <path d="M310 110H320V120H310V110Z" fill="black" />
        <path d="M320 120H330V130H320V120Z" fill="black" />
        <path d="M330 130H340V140H330V130Z" fill="black" />
        <path d="M340 140H350V150H340V140Z" fill="black" />
        <path d="M80 90V80H90V90H80Z" fill="#FD65A6" />
        <path d="M360 80H370V90H360V80Z" fill="#FD65A6" />
        <path d="M70 80V70H80V80H70Z" fill="#FCF0E9" />
        <path d="M370 70H380V80H370V70Z" fill="#FCF0E9" />
        <path d="M80 380H70V370H80V380Z" fill="#FCF0E9" />
        <path d="M380 380H370V370H380V380Z" fill="#FCF0E9" />
        <path
            d="M170 100H190V90H210V160H200V150H190V140H199.8V109.99C193.06 110.14 186.52 109.76 180 110.2V120H170V100Z"
            fill="#FD65A6" />
        <path
            d="M260 90V100H280V120H270V110.22H250C250 120.05 250 129.66 250 139.26C250 139.4 250.09 139.56 250.18 139.68C250.28 139.81 250.42 139.89 250.54 140H259.99V150H249.99V160H239.99C239.99 136.91 239.99 113.82 239.99 90.73C239.99 90.59 240.11 90.45 240.32 90H259.99H260Z"
            fill="#84DDE5" />
        <path
            d="M180 230V210H190V200H200V190H210V180H240V190H220V210H210V220H190.13C189.78 223.54 190.28 226.82 189.8 230H180.01H180Z"
            fill="#FCF0E9" />
        <path
            d="M230 130V169.83C228.44 169.89 226.84 169.97 225.25 170C223.61 170.03 221.97 170 220 170V130H230Z"
            fill="#E1C613" />
        <path
            d="M230 130H220V90.17C221.56 90.11 223.16 90.03 224.75 90C226.39 89.97 228.03 90 230 90V130Z"
            fill="#FEE331" />
        <path d="M200 160H210V170H200V160Z" fill="#FBAE6B" />
        <path d="M240 160H250V170H240V160Z" fill="#B1EFB3" />
        <path d="M200 170H210V180H200V170Z" fill="#E1C613" />
        <path d="M240 170H250V180H240V170Z" fill="#E1C613" />
        <path
            d="M90 250H80V230.51C84.37 229.74 152.4 229.47 170 230.16V249.85C166.45 250.26 163.17 249.67 159.81 250.27V260.05H149.93V270.09H139.89V280.13H129.85V289.85H110.1C109.78 286.48 110.27 283.2 109.79 280.01H99.99V270.01H89.99V250.1C93.28 250.19 96.56 250.19 100.01 250.19V260.06H110.05V269.81H130.08V259.9H140.12V250.12C143.51 249.8 146.79 250.28 149.8 249.85V240.17C133.14 239.54 94.28 239.78 89.98 240.53V250.02L90 250Z"
            fill="#FDFBF5" />
        <path
            d="M90 200V180H100V170H109.85C110.26 166.45 109.67 163.17 110.2 160.18H130.03V170.05H140.07V180.09H150.11V190.13H160.15V199.98C163.55 200.06 166.8 199.9 170 200.08V219.5C165.64 220.25 96.76 220.52 80 219.84V200.01H90.09C90.18 203.3 90.18 206.58 90.18 209.76H149.84V199.99H139.97V189.95H129.93V180.14H109.9V190.14H100.12C99.81 193.53 100.28 196.81 99.82 200H90.01H90Z"
            fill="#FDFBF5" />
        <path
            d="M170 210V200.08C166.8 199.91 163.54 200.07 160.15 199.98V190.13H150.11V180.09H140.07V170.05H130.03V160.18H110.2C109.67 163.17 110.26 166.45 109.85 170H100V150H120V140H130V150H140V160H150V170H160V180H170V190H180V210H170Z"
            fill="#D894FF" />
        <path
            d="M100 280H109.8C110.27 283.19 109.78 286.47 110.11 289.84H129.86V280.12H139.9V270.08H149.94V260.04H159.82V250.26C163.18 249.66 166.46 250.26 170.01 249.84V239.99H180.01V259.99H170.01V269.99H160.01V279.99H150.01V289.99H140.01V299.99H130.01V309.99H120.01V299.99H100.01V279.99L100 280Z"
            fill="#FFEA94" />
        <path
            d="M180 230H189.79C190.27 226.82 189.77 223.54 190.12 220H209.99V240H199.99V250H189.99V240H179.99V230H180Z"
            fill="#E1C613" />
        <path d="M170 100V120H160V100H170Z" fill="#FBAE6B" />
        <path d="M280 120V100H290V120H280Z" fill="#B1EFB3" />
        <path
            d="M280 120H290V110H300V120H310V130H300V140H290V150H280V160H270V170H260V180H250V160H260V150H270V140H280V120Z"
            fill="#F9EE11" />
        <path d="M310 120H300V110H310V120Z" fill="#E1C613" />
        <path
            d="M160 110V120H170V140H180V150H190V160H200V180H190V170H180V160H170V150H160V140H150V130H140V120H150V110H160Z"
            fill="#F9EE11" />
        <path d="M150 110V120H140V110H150Z" fill="#E1C613" />
        <path d="M140 120V130H130V120H140Z" fill="#E1C613" />
        <path d="M130 140H120V130H130V140Z" fill="#9A38D1" />
        <path d="M120 140V150H110V140H120Z" fill="#9A38D1" />
        <path
            d="M160 340H150V330H140V320H150V310H160V300H170V290H180V280H190V270H200V290H190V300H180V310H170V330H160V340Z"
            fill="#FDFBF5" />
        <path d="M160 340V330H170V350H160V340Z" fill="#FF94C2" />
        <path d="M140 330H150V340H140V330Z" fill="#EFB1C8" />
        <path d="M110 300H120V310H110V300Z" fill="#F0BE35" />
        <path d="M120 310H130V320H120V310Z" fill="#F0BE35" />
        <path d="M140 320V330H130V320H140Z" fill="#EFB1C8" />
        <path
            d="M280 350H260V360H240V290H250V300H260V310H250.2V340.01C256.94 339.86 263.48 340.24 270 339.8V330H280V350Z"
            fill="#69FD65" />
        <path
            d="M170 350V330H180V339.78H200C200 329.95 200 320.34 200 310.74C200 310.6 199.91 310.44 199.82 310.32C199.72 310.19 199.58 310.11 199.46 310H190.01V300H200.01V290H210.01C210.01 313.09 210.01 336.18 210.01 359.27C210.01 359.41 209.89 359.55 209.68 360H190.01V350H170.01H170Z"
            fill="#FD65A6" />
        <path
            d="M230 320V359.83C228.44 359.89 226.84 359.97 225.25 360C223.61 360.03 221.97 360 220 360V320H230Z"
            fill="#EFB1C8" />
        <path
            d="M230 320H220V280.17C221.56 280.11 223.16 280.03 224.75 280C226.39 279.97 228.03 280 230 280V320Z"
            fill="#F35468" />
        <path d="M240 270H210V260H240V270Z" fill="#F35468" />
        <path d="M200 280V270H210V280H200Z" fill="#EFB1C8" />
        <path d="M240 280V270H250V280H240Z" fill="#B1EFB3" />
        <path d="M200 280H210V290H200V280Z" fill="#FF94C2" />
        <path d="M240 280H250V290H240V280Z" fill="#9BFF98" />
        <path
            d="M360 180V199.91C356.71 199.82 353.43 199.82 349.98 199.82V189.95H339.94V180.2H319.91V190.11H309.87V199.89C306.48 200.21 303.2 199.73 300.19 200.16V209.84C316.85 210.47 355.71 210.23 360.01 209.48V199.91C363.34 200 366.68 200 370.01 200V219.49C365.64 220.26 297.61 220.53 280.01 219.84V200.01H290.01V190.01H300.01V180.01H310.01V170.01H320.01V160.01H340.01V170.01H350.01V180.01H360.01L360 180Z"
            fill="#FDFBF5" />
        <path
            d="M370 250H359.91C359.82 246.71 359.82 243.43 359.82 240.25H300.16V250.02H310.03V260.06H320.07V269.87H340.1V259.87H349.88C350.19 256.48 349.72 253.2 350.18 250.01H359.9C359.99 256.68 359.99 263.34 359.99 270.01H349.99V280.01H339.99V290.01H319.99V280.01H309.99V270.01H299.99V260.01H289.99V250.01H279.99V230.52C284.35 229.77 353.23 229.5 369.99 230.18V250.01L370 250Z"
            fill="#FDFBF5" />
        <path d="M270 210V240H260V210H270Z" fill="#F35468" />
        <path d="M280 200V210H270V200H280Z" fill="#FF94C2" />
        <path d="M280 240V250H270V240H280Z" fill="#84DDE5" />
        <path d="M280 350V330H290V350H280Z" fill="#9BFF98" />
        <path d="M340 290V280H350V290H340Z" fill="#84DDE5" />
        <path d="M340 290H350V300H340V290Z" fill="#65A1FD" />
        <path d="M300 340V330H310V340H300Z" fill="#B1EFB3" />
        <path d="M340 310H330V300H340V310Z" fill="#3874D1" />
        <path d="M330 320H320V310H330V320Z" fill="#3874D1" />
        <path d="M310 330V320H320V330H310Z" fill="#B1EFB3" />
        <path d="M340 150H350V160H340V150Z" fill="#FD65A6" />
        <path d="M340 160H350V170H340V160Z" fill="#FF94C2" />
        <path d="M310 130V120H320V130H310Z" fill="#E1C613" />
        <path d="M330 130V140H320V130H330Z" fill="#D13879" />
        <path d="M340 140V150H330V140H340Z" fill="#D13879" />
        <path d="M180 120V110.2C186.52 109.75 193.06 110.13 199.8 109.99V140H190V130H180V120Z"
            fill="#FBD8EA" />
        <path d="M180 120V140H170V120H180Z" fill="#FBAE6B" />
        <path d="M190 150H180V140H190V150Z" fill="#FBAE6B" />
        <path d="M200 160H190V150H200V160Z" fill="#FBAE6B" />
        <path
            d="M260 140H250.55C250.43 139.89 250.28 139.81 250.19 139.68C250.1 139.56 250.01 139.4 250.01 139.26C250.01 129.65 250.01 120.05 250.01 110.22H270.01V130H260.01V140H260Z"
            fill="#D8E9FB" />
        <path d="M270 130V120H280V140H270V130Z" fill="#B1EFB3" />
        <path d="M270 140V150H260V140H270Z" fill="#B1EFB3" />
        <path d="M260 150V160H250V150H260Z" fill="#B1EFB3" />
        <path
            d="M210 240V210H240V240H210ZM220.17 220.08V230C221.97 230 223.61 230.02 225.25 230C226.84 229.97 228.44 229.89 229.83 229.84V220.09H220.17V220.08Z"
            fill="black" />
        <path d="M240 210H220V190H250V200H240V210Z" fill="#E1C613" />
        <path d="M200 180H210V190H200V180Z" fill="black" />
        <path d="M250 190H240V180H250V190Z" fill="black" />
        <path d="M200 190V200H190V190H200Z" fill="black" />
        <path d="M180 210V200H190V210H180Z" fill="black" />
        <path
            d="M90 250.17V240.51C94.3 239.76 133.16 239.52 149.82 240.15V249.83C146.81 250.27 143.53 249.79 140.14 250.1V259.88H130.1V269.79H110.07V260.04H100.03V250.17H90.01H90Z"
            fill="#FCF0E9" />
        <path
            d="M90.1702 200H99.8002C100.26 196.81 99.7802 193.53 100.1 190.14H109.88V180.14H129.91V189.95H139.95V199.99H149.82V209.76H90.1602V200.01L90.1702 200Z"
            fill="#FBD8EA" />
        <path d="M160 170H150V160H160V170Z" fill="#9A38D1" />
        <path d="M170 180H160V170H170V180Z" fill="#9A38D1" />
        <path d="M180 190H170V180H180V190Z" fill="#9A38D1" />
        <path d="M190 200H180V190H190V200Z" fill="#9A38D1" />
        <path d="M140 150H130V140H140V150Z" fill="#9A38D1" />
        <path d="M150 160H140V150H150V160Z" fill="#9A38D1" />
        <path d="M180 240H190V250H180V240Z" fill="black" />
        <path d="M180 250H190V260H180V250Z" fill="#F0BE35" />
        <path d="M170 270V260H180V270H170Z" fill="#F0BE35" />
        <path d="M160 280V270H170V280H160Z" fill="#F0BE35" />
        <path d="M150 290V280H160V290H150Z" fill="#F0BE35" />
        <path d="M140 300V290H150V300H140Z" fill="#F0BE35" />
        <path d="M130 310V300H140V310H130Z" fill="#F0BE35" />
        <path
            d="M210 240H230V250C223.37 250 217.07 250 210.77 250C210.63 250 210.47 250.08 210.34 250.16C210.21 250.25 210.11 250.39 210 250.51V259.99H200V239.99H210V240Z"
            fill="#FEE331" />
        <path d="M200 250V260H190V250H200Z" fill="black" />
        <path d="M270 170V160H280V170H270Z" fill="#E1C613" />
        <path d="M260 180V170H270V180H260Z" fill="#E1C613" />
        <path d="M250 190V180H260V190H250Z" fill="#E1C613" />
        <path d="M300 140V130H310V140H300Z" fill="#E1C613" />
        <path d="M290 150V140H300V150H290Z" fill="#E1C613" />
        <path d="M280 160V150H290V160H280Z" fill="#E1C613" />
        <path d="M170 160H180V170H170V160Z" fill="#E1C613" />
        <path d="M180 170H190V180H180V170Z" fill="#E1C613" />
        <path d="M200 190H190V180H200V190Z" fill="#E1C613" />
        <path d="M140 130H150V140H140V130Z" fill="#E1C613" />
        <path d="M150 140H160V150H150V140Z" fill="#E1C613" />
        <path d="M160 150H170V160H160V150Z" fill="#E1C613" />
        <path d="M140 130V140H130V130H140Z" fill="black" />
        <path d="M180 330H170V310H180V330Z" fill="#FF94C2" />
        <path d="M190 260H200V270H190V260Z" fill="#EFB1C8" />
        <path d="M190 270V280H180V270H190Z" fill="#EFB1C8" />
        <path d="M180 280V290H170V280H180Z" fill="#EFB1C8" />
        <path d="M170 290V300H160V290H170Z" fill="#EFB1C8" />
        <path d="M200 290V300H190V290H200Z" fill="#FF94C2" />
        <path d="M160 300V310H150V300H160Z" fill="#EFB1C8" />
        <path d="M190 300V310H180V300H190Z" fill="#FF94C2" />
        <path d="M150 310V320H140V310H150Z" fill="#EFB1C8" />
        <path d="M140 310V320H130V310H140Z" fill="black" />
        <path d="M270 330V339.8C263.48 340.25 256.94 339.87 250.2 340.01V310H260V320H270V330Z"
            fill="#FCF0E9" />
        <path d="M270 330V310H280V330H270Z" fill="#9BFF98" />
        <path d="M250 290H260V300H250V290Z" fill="#9BFF98" />
        <path d="M260 300H270V310H260V300Z" fill="#9BFF98" />
        <path
            d="M180 330V320H190V310H199.45C199.57 310.11 199.72 310.19 199.81 310.32C199.9 310.44 199.99 310.6 199.99 310.74C199.99 320.35 199.99 329.95 199.99 339.78H179.99V330H180Z"
            fill="#FBD8EA" />
        <path
            d="M210 260V250.52C210.11 250.4 210.21 250.26 210.34 250.17C210.46 250.09 210.62 250.01 210.77 250.01C217.07 250.01 223.37 250.01 230 250.01V240.01H240V220.01H250V200.01H260V240.01H250V250.01H240V260.01H210V260Z"
            fill="#FBAE6B" />
        <path d="M200 270V260H210V270H200Z" fill="black" />
        <path d="M250 270H240V260H250V270Z" fill="black" />
        <path
            d="M360 199.83V209.49C355.7 210.24 316.84 210.48 300.18 209.85V200.17C303.19 199.73 306.47 200.21 309.86 199.9V190.12H319.9V180.21H339.93V189.96H349.97V199.83H359.99H360Z"
            fill="#FBD8EA" />
        <path d="M330 150H340V160H320V150H330Z" fill="#FF94C2" />
        <path d="M320 160V170H310V160H320Z" fill="#FF94C2" />
        <path d="M310 170V180H300V170H310Z" fill="#FF94C2" />
        <path d="M300 180V190H290V180H300Z" fill="#FF94C2" />
        <path d="M290 190V200H280V190H290Z" fill="#FF94C2" />
        <path
            d="M359.83 250H350.2C349.74 253.19 350.22 256.47 349.9 259.86H340.12V269.86H320.09V260.05H310.05V250.01H300.18V240.24H359.84V249.99L359.83 250Z"
            fill="#D8E9FB" />
        <path d="M340 300H320V290H340V300Z" fill="#84DDE5" />
        <path d="M280 250H290V260H280V250Z" fill="#84DDE5" />
        <path d="M290 260H300V270H290V260Z" fill="#84DDE5" />
        <path d="M300 270H310V280H300V270Z" fill="#84DDE5" />
        <path d="M310 280H320V290H310V280Z" fill="#84DDE5" />
        <path d="M260 210V200H270V210H260Z" fill="black" />
        <path d="M270 240V250H260V240H270Z" fill="black" />
        <path d="M280 190V200H270V190H280Z" fill="#FD65A6" />
        <path d="M280 250V260H270V250H280Z" fill="#65A1FD" />
        <path d="M250 270V260H260V270H250Z" fill="#B1EFB3" />
        <path d="M270 280H260V270H270V280Z" fill="#B1EFB3" />
        <path d="M280 290H270V280H280V290Z" fill="#B1EFB3" />
        <path d="M290 300H280V290H290V300Z" fill="#B1EFB3" />
        <path d="M300 310H290V300H300V310Z" fill="#B1EFB3" />
        <path d="M310 320H300V310H310V320Z" fill="#B1EFB3" />
        <path d="M320 300H330V310H320V300Z" fill="#65A1FD" />
        <path d="M310 320V310H320V320H310Z" fill="black" />
        <path d="M310 140V130H320V140H310Z" fill="black" />
        <path d="M330 150H320V140H330V150Z" fill="#FD65A6" />
        <path d="M190 140H180V130H190V140Z" fill="#FD65A6" />
        <path d="M270 140H260V130H270V140Z" fill="#84DDE5" />
        <path d="M250 200V220H240V200H250Z" fill="#FEE331" />
        <path
            d="M220.17 220.08H229.83V229.83C228.44 229.88 226.84 229.96 225.25 229.99C223.61 230.02 221.97 229.99 220.17 229.99V220.07V220.08Z"
            fill="#FD65A6" />
        <path d="M260 200H250V190H260V200Z" fill="black" />
        <path d="M160 160H170V170H160V160Z" fill="black" />
        <path d="M160 150V160H150V150H160Z" fill="black" />
        <path d="M180 170V180H170V170H180Z" fill="black" />
        <path d="M190 180V190H180V180H190Z" fill="black" />
        <path d="M150 140V150H140V140H150Z" fill="black" />
        <path d="M190 270H180V260H190V270Z" fill="black" />
        <path d="M180 280H170V270H180V280Z" fill="black" />
        <path d="M170 290H160V280H170V290Z" fill="black" />
        <path d="M160 300H150V290H160V300Z" fill="black" />
        <path d="M150 310H140V300H150V310Z" fill="black" />
        <path d="M280 160H290V170H280V160Z" fill="black" />
        <path d="M270 180V170H280V180H270Z" fill="black" />
        <path d="M260 190V180H270V190H260Z" fill="black" />
        <path d="M300 150V140H310V150H300Z" fill="black" />
        <path d="M290 160V150H300V160H290Z" fill="black" />
        <path d="M190 310V320H180V310H190Z" fill="#FD65A6" />
        <path d="M260 310H270V320H260V310Z" fill="#69FD65" />
        <path d="M260 240V250H250V240H260Z" fill="#F35468" />
        <path d="M250 260H240V250H250V260Z" fill="#F35468" />
        <path d="M320 160H310V150H320V160Z" fill="#FD65A6" />
        <path d="M310 170H300V160H310V170Z" fill="#FD65A6" />
        <path d="M300 180H290V170H300V180Z" fill="#FD65A6" />
        <path d="M290 190H280V180H290V190Z" fill="#FD65A6" />
        <path d="M310 290H320V300H310V290Z" fill="#65A1FD" />
        <path d="M290 260V270H280V260H290Z" fill="#65A1FD" />
        <path d="M300 270V280H290V270H300Z" fill="#65A1FD" />
        <path d="M310 280V290H300V280H310Z" fill="#65A1FD" />
        <path d="M260 190H270V200H260V190Z" fill="#D13879" />
        <path d="M270 250V260H260V250H270Z" fill="#3874D1" />
        <path d="M280 180V190H270V180H280Z" fill="#D13879" />
        <path d="M280 260V270H270V260H280Z" fill="#3874D1" />
        <path d="M260 250V260H250V250H260Z" fill="black" />
        <path d="M270 260V270H260V260H270Z" fill="black" />
        <path d="M270 270H280V280H270V270Z" fill="black" />
        <path d="M290 290H280V280H290V290Z" fill="black" />
        <path d="M300 300H290V290H300V300Z" fill="black" />
        <path d="M310 310H300V300H310V310Z" fill="black" />
        <path d="M310 310V300H320V310H310Z" fill="#3874D1" />
        <path d="M320 150H310V140H320V150Z" fill="#D13879" />
        <path d="M300 170H290V160H300V170Z" fill="#D13879" />
        <path d="M290 180H280V170H290V180Z" fill="#D13879" />
        <path d="M310 160H300V150H310V160Z" fill="#D13879" />
        <path d="M310 300H300V290H310V300Z" fill="#3874D1" />
        <path d="M290 280H280V270H290V280Z" fill="#3874D1" />
        <path d="M300 290H290V280H300V290Z" fill="#3874D1" />
    </g>
    <defs>
        <clipPath id="clip0_2572_1785">
            <rect width="450" height="450" fill="white" />
        </clipPath>
    </defs>
</svg>
    