<svg width="420" height="370" viewBox="0 0 420 370" fill="none" xmlns="http://www.w3.org/2000/svg">
    <g clip-path="url(#clip0_2572_1730)">
        <path
            d="M40 10V0H380V10C350.25 10 320.51 10 290.76 10C290.62 10 290.46 10.08 290.34 10.17C290.21 10.26 290.11 10.4 290 10.52V19.99H280.15V9.99H40V10Z"
            fill="black" />
        <path
            d="M380 370H40V360H280C280 358.07 279.98 356.43 280 354.79C280.03 353.18 280.1 351.58 280.15 350H289.99V360H379.99V370H380Z"
            fill="black" />
        <path d="M0 40H10V330H0V40Z" fill="black" />
        <path d="M420 40V330H410V40H420Z" fill="black" />
        <path
            d="M10 330V40H20V30C20.67 29.67 21.33 29.33 22 29C23.13 29.53 24.12 30.26 25.55 30.05C27 29.83 28.51 30 30 30H269.89V39.91H279.94V49.96H290V350H280.16C280.11 351.58 280.03 353.18 280.01 354.79C279.98 356.43 280.01 358.07 280.01 360H40V350H30V340H20V330H10ZM220 320H259.79V250.08C230.56 249.52 194.27 249.75 190 250.52V320H220ZM110 120H119.79V50.08C90.56 49.52 54.27 49.75 50 50.52V120H110ZM130 160V220H199.79V150.08C170.56 149.52 134.27 149.75 130 150.52V160Z"
            fill="#FFDDDE" />
        <path d="M310 330V40H319.84C320.6 59.8 320.28 325.4 319.5 330H310Z" fill="black" />
        <path d="M300 30H290V20H300V30Z" fill="black" />
        <path d="M310 40H300V30H310V40Z" fill="black" />
        <path d="M39.8602 10.14V19.89H30.2202V10.14H39.8602Z" fill="black" />
        <path d="M20 30V40H10V30H20Z" fill="black" />
        <path d="M300 340V330H310V340H300Z" fill="black" />
        <path d="M290 350V340H300V350H290Z" fill="black" />
        <path
            d="M30.0001 30C28.5201 30 27.0001 29.83 25.5501 30.05C24.1201 30.26 23.1201 29.53 22.0001 29C21.4801 28.56 20.9501 28.13 20.0001 27.33C20.0001 26.72 19.5801 25.3 20.1001 24.58C20.8101 23.62 20.7801 23.14 20.1901 22.54C21.3801 19.39 24.9401 22.41 26.5401 19.92C27.7301 21.6 28.8901 23.24 30.1701 25.06C29.8101 25.54 29.4401 26.03 29.0301 26.57C29.3301 27.66 29.6601 28.83 29.9901 30H30.0001Z"
            fill="black" />
        <path
            d="M290 350H300V340H310V330H319.5C320.28 325.4 320.6 59.8 319.84 40H310V30H300V20H290V10.53C290.11 10.41 290.21 10.27 290.34 10.18C290.46 10.09 290.62 10.01 290.76 10.01C320.51 10.01 350.25 10.01 380 10.01V20.01H390V30.01H400V40.01H410V50.01H380V120.01H410V150.01H380V220.01H410V250.01H380V320.01H410V330.01H400V340.01H390V350.01H380V360.01H290V350.01V350ZM340 260V320H369.81V250C360 250 350.38 250 340.76 250C340.62 250 340.46 250.08 340.34 250.17C340.21 250.26 340.11 250.4 340 250.52V259.99V260ZM360 120H369.81V50C360 50 350.38 50 340.76 50C340.62 50 340.46 50.08 340.34 50.17C340.21 50.26 340.11 50.4 340 50.52V119.99H360V120ZM360 220H369.81V150C360 150 350.38 150 340.76 150C340.62 150 340.46 150.08 340.34 150.17C340.21 150.26 340.11 150.4 340 150.52V219.99H360V220Z"
            fill="#FFDDDE" />
        <path d="M380 160V150H410V220H400V160H380Z" fill="#D61D2D" />
        <path d="M380 60V50H410V120H400V60H380Z" fill="#D61D2D" />
        <path d="M380 260V250H410V320H400V260H380Z" fill="#D61D2D" />
        <path d="M410 40H400V30H410V40Z" fill="black" />
        <path d="M390 20H380V10H390V20Z" fill="black" />
        <path d="M400 30H390V20H400V30Z" fill="black" />
        <path d="M400 340V330H410V340H400Z" fill="black" />
        <path d="M390 350V340H400V350H390Z" fill="black" />
        <path d="M380 360V350H390V360H380Z" fill="black" />
        <path d="M10 330H20V340H10V330Z" fill="black" />
        <path d="M20 340H30V350H20V340Z" fill="black" />
        <path d="M30 350H40V360H30V350Z" fill="black" />
        <path d="M130 190V160H190V220H160V209.88H139.94V190H130Z" fill="#9F000E" />
        <path d="M50 90V60H110V120H80V109.88H59.94V90H50Z" fill="#9F000E" />
        <path d="M190 290V260H250V320H220V309.88H199.94V290H190Z" fill="#9F000E" />
        <path d="M250 320V260H190V250.52C194.27 249.75 230.56 249.52 259.79 250.08V320H250Z"
            fill="#D61D2D" />
        <path d="M110 120V60.0001H50V50.5201C54.27 49.7501 90.56 49.5201 119.79 50.0801V120H110Z"
            fill="#D61D2D" />
        <path d="M190 220V160H130V150.52C134.27 149.75 170.56 149.52 199.79 150.08V220H190Z"
            fill="#D61D2D" />
        <path d="M130 190H139.94V209.88H160V220H130V190Z" fill="#6E000A" />
        <path d="M50 90H59.94V109.88H80V120H50V90Z" fill="#6E000A" />
        <path d="M190 290H199.94V309.88H220V320H190V290Z" fill="#6E000A" />
        <path d="M380 160H400V220H390V200H380V160Z" fill="#9F000E" />
        <path d="M340 200V160H360V220H350V200H340Z" fill="#9F000E" />
        <path d="M340 100V60H360V120H350V100H340Z" fill="#9F000E" />
        <path d="M380 60H400V120H390V100H380V60Z" fill="#9F000E" />
        <path d="M360 320H350V300H340V260H360V320Z" fill="#9F000E" />
        <path d="M380 260H400V320H390V300H380V260Z" fill="#9F000E" />
        <path
            d="M360 320V260H340V250.53C340.11 250.41 340.21 250.27 340.34 250.18C340.46 250.09 340.62 250.01 340.76 250.01C350.38 250.01 360 250.01 369.81 250.01V320.01H360V320Z"
            fill="#D61D2D" />
        <path
            d="M360 220V160H340V150.53C340.11 150.41 340.21 150.27 340.34 150.18C340.46 150.09 340.62 150.01 340.76 150.01C350.38 150.01 360 150.01 369.81 150.01V220.01H360V220Z"
            fill="#D61D2D" />
        <path
            d="M360 120V60H340V50.53C340.11 50.41 340.21 50.27 340.34 50.18C340.46 50.09 340.62 50.01 340.76 50.01C350.38 50.01 360 50.01 369.81 50.01V120.01H360V120Z"
            fill="#D61D2D" />
        <path d="M340 200H350V220H340V200Z" fill="#6E000A" />
        <path d="M380 200H390V220H380V200Z" fill="#6E000A" />
        <path d="M340 100H350V120H340V100Z" fill="#6E000A" />
        <path d="M380 300H390V320H380V300Z" fill="#6E000A" />
        <path d="M380 100H390V120H380V100Z" fill="#6E000A" />
        <path d="M340 300H350V320H340V300Z" fill="#6E000A" />
    </g>
    <defs>
        <clipPath id="clip0_2572_1730">
            <rect width="420" height="370" fill="white" />
        </clipPath>
    </defs>
</svg>
    