<svg width="450" height="450" viewBox="0 0 450 450" fill="none" xmlns="http://www.w3.org/2000/svg">
    <g clip-path="url(#clip0_2572_2664)">
        <path
            d="M390 270V400H380V360C380 330.25 380 300.51 380 270.76C380 270.62 380.08 270.46 380.17 270.34C380.26 270.21 380.4 270.11 380.52 270H389.99H390Z"
            fill="black" />
        <path
            d="M69.9998 400H60.5198C60.3998 399.89 60.2598 399.79 60.1698 399.66C60.0898 399.54 60.0098 399.38 60.0098 399.23C60.0098 356.15 60.0098 313.08 60.0098 270H70.0098V400H69.9998Z"
            fill="black" />
        <path
            d="M170 19.9999V10.5099C174.43 9.74993 262.14 9.46993 280 10.1699V20.0099H170V19.9999Z"
            fill="black" />
        <path
            d="M60 230V120H70C70 156.41 70 192.82 70 229.23C70 229.37 69.92 229.53 69.84 229.66C69.75 229.79 69.61 229.89 69.49 230H60.01H60Z"
            fill="black" />
        <path
            d="M380 120H389.48C389.6 120.11 389.74 120.21 389.83 120.34C389.91 120.46 389.99 120.62 389.99 120.77C389.99 157.18 389.99 193.59 389.99 230H379.99V120H380Z"
            fill="black" />
        <path d="M30 240V230H60V240H30Z" fill="black" />
        <path d="M390 230H420V240H390V230Z" fill="black" />
        <path d="M60 270H30V260H60V270Z" fill="black" />
        <path d="M420 260V270H390V260H420Z" fill="black" />
        <path
            d="M240 380H210V370C219.97 370 229.6 370 239.23 370C239.37 370 239.54 370.07 239.66 370.16C239.79 370.25 239.89 370.39 240.01 370.51V379.99L240 380Z"
            fill="black" />
        <path d="M70 120V90H80V120H70Z" fill="black" />
        <path d="M370 90H380V120H370V90Z" fill="black" />
        <path d="M150 30V20H170V30H150Z" fill="black" />
        <path d="M280 20H300V30H280V20Z" fill="black" />
        <path d="M130 40V30H150V40H130Z" fill="black" />
        <path d="M300 30H320V40H300V30Z" fill="black" />
        <path d="M110 50V40H130V50H110Z" fill="black" />
        <path d="M320 40H340V50H320V40Z" fill="black" />
        <path d="M340 430H330V410H340V430Z" fill="black" />
        <path d="M110 430V439.82C103.46 440.22 96.9 439.88 90 440.04V430.01H110V430Z" fill="black" />
        <path d="M30 260H20.18C19.78 253.46 20.12 246.9 19.96 240H29.99V260H30Z" fill="black" />
        <path d="M360 70H370V90H360V70Z" fill="black" />
        <path d="M80 90V70H90V90H80Z" fill="black" />
        <path d="M180 430V439.82C173.46 440.22 166.9 439.88 160 440.04V430.01H180V430Z" fill="black" />
        <path d="M420 240H429.82C430.22 246.54 429.88 253.1 430.04 260H420.01V240H420Z" fill="black" />
        <path d="M290 430V439.82C283.46 440.22 276.9 439.88 270 440.04V430.01H290V430Z" fill="black" />
        <path d="M210 380V400H200V380H210Z" fill="black" />
        <path d="M250 400H240V380H250V400Z" fill="black" />
        <path d="M360 430V439.82C353.46 440.22 346.9 439.88 340 440.04V430.01H360V430Z" fill="black" />
        <path d="M130 390V410H120V390H130Z" fill="black" />
        <path d="M150 410H140V390H150V410Z" fill="black" />
        <path d="M310 390V410H300V390H310Z" fill="black" />
        <path d="M330 410H320V390H330V410Z" fill="black" />
        <path d="M80 420H70V400H80V420Z" fill="black" />
        <path d="M200 400V420H190V400H200Z" fill="black" />
        <path d="M260 420H250V400H260V420Z" fill="black" />
        <path d="M380 400V420H370V400H380Z" fill="black" />
        <path d="M120 410V430H110V410H120Z" fill="black" />
        <path d="M160 430H150V410H160V430Z" fill="black" />
        <path d="M300 410V430H290V410H300Z" fill="black" />
        <path d="M100 60V50H110V60H100Z" fill="black" />
        <path d="M340 50H350V60H340V50Z" fill="black" />
        <path d="M350 60H360V70H350V60Z" fill="black" />
        <path
            d="M140 390H130V380C131.97 380 133.61 379.98 135.25 380C136.84 380.03 138.44 380.11 140 380.16V389.99V390Z"
            fill="black" />
        <path
            d="M320 390H310V380C311.97 380 313.61 379.98 315.25 380C316.84 380.03 318.44 380.11 320 380.16V389.99V390Z"
            fill="black" />
        <path d="M370 420V430H360V420H370Z" fill="black" />
        <path d="M90 70V60H100V70H90Z" fill="black" />
        <path d="M90 430H80V420H90V430Z" fill="black" />
        <path d="M190 420V430H180V420H190Z" fill="black" />
        <path d="M270 430H260V420H270V430Z" fill="black" />
        <path
            d="M89.9998 70H99.9998V60H110V50H130V40H150V30H170V20H280V30H300V40H320V50H340V60H350V70H360V90H370V120H380V230H390V240H420V260H390V270H380.53C380.41 270.11 380.27 270.21 380.18 270.34C380.09 270.46 380.01 270.62 380.01 270.76C380.01 300.51 380.01 330.25 380.01 360H369.98V380.05H359.93V389.77H339.88V380C338.07 380 336.43 380.02 334.79 380C333.19 379.97 331.59 379.89 329.84 379.83V369.96H319.95V360.14H309.89V370.16H300.14C299.77 373.55 300.32 376.83 299.76 380.2H289.96V400.09H279.91V409.76H269.86V389.99H259.98V369.94H249.93V359.88H239.87V350.18H210V360.06H199.94V370.12H189.89V389.91C186.5 390.23 183.21 389.75 179.84 390.24V409.91H169.96V399.92H159.91V379.87H150.03C150.03 378.06 150.05 376.41 150.03 374.77C150 373.17 149.92 371.58 149.86 369.83H139.99V360.24H129.93V370.16H119.87V380.04H109.99V389.9H89.9398V379.9H80.0398V373.31C80.0398 370.98 80.0498 368.64 80.0398 366.31C80.0298 364.21 79.9798 362.1 79.9498 360.02H70.0498V270.02H60.0498V260.02H30.0498V240.02H60.0498V230.02H69.5298C69.6498 229.91 69.7898 229.81 69.8798 229.68C69.9598 229.56 70.0398 229.4 70.0398 229.25C70.0398 192.84 70.0398 156.43 70.0398 120.02H80.0398V90.02H90.0398V70.02L89.9998 70ZM330 210H320C320 219.97 320 229.6 320 239.23C320 239.37 320.07 239.54 320.16 239.66C320.25 239.79 320.39 239.89 320.51 240.01H329.99V250.01C339.96 250.01 349.59 250.01 359.22 250.01C359.36 250.01 359.53 249.94 359.65 249.85C359.78 249.76 359.88 249.62 360 249.5V240.02H370C370 230.05 370 220.42 370 210.79C370 210.65 369.93 210.48 369.84 210.36C369.75 210.23 369.61 210.13 369.49 210.01H360.01V200.01H330.01V190.01H339.84C340.51 173.07 340.25 114.37 339.5 110.01H330.01V100.18C315.85 99.6 294.14 99.8 290.01 100.52V110.01H280.18C279.51 126.95 279.77 185.65 280.52 190.01H290.01V199.84C273.07 200.51 214.37 200.25 210.01 199.5V190.01H219.84C220.51 173.07 220.25 114.37 219.5 110.01H210.01V100.18C195.85 99.6 174.14 99.8 170.01 100.52V110.01H160.18C159.51 126.95 159.77 185.65 160.52 190.01H170.01V200.01C179.98 200.01 189.61 200.01 199.24 200.01C199.38 200.01 199.55 200.08 199.67 200.17C199.8 200.26 199.9 200.4 200.02 200.52V210H190.02C190.02 219.97 190.02 229.6 190.02 239.23C190.02 239.37 190.09 239.54 190.18 239.66C190.27 239.79 190.41 239.89 190.53 240.01H200.01V249.84C217.66 250.53 295.59 250.26 300.01 249.5V240.01H310.01C310.01 230.04 310.01 220.41 310.01 210.78C310.01 210.64 309.94 210.47 309.85 210.35C309.76 210.22 309.62 210.12 309.5 210H300.02V200H330.02V210H330ZM130 210H120C120 219.97 120 229.6 120 239.23C120 239.37 120.07 239.54 120.16 239.66C120.25 239.79 120.39 239.89 120.51 240.01H129.99V250.01C139.96 250.01 149.59 250.01 159.22 250.01C159.36 250.01 159.53 249.94 159.65 249.85C159.78 249.76 159.88 249.62 160 249.5V240.02H170C170 230.05 170 220.42 170 210.79C170 210.65 169.93 210.48 169.84 210.36C169.75 210.23 169.61 210.13 169.49 210.01H160.01V200.01C150.04 200.01 140.41 200.01 130.78 200.01C130.64 200.01 130.47 200.09 130.35 200.17C130.22 200.26 130.12 200.4 130 200.52V210Z"
            fill="#FFFFF3" />
        <path
            d="M70.0002 360H79.9002C79.9302 362.08 79.9802 364.18 79.9902 366.29C80.0102 368.62 79.9902 370.95 79.9902 373.29V379.88H89.8902V389.88H109.94V380.02H119.82V370.14H129.88V360.22H139.94V369.81H149.81C149.87 371.56 149.96 373.16 149.98 374.75C150.01 376.39 149.98 378.04 149.98 379.85H159.86V399.9H169.91V409.89H179.79V390.22C183.16 389.73 186.44 390.21 189.84 389.89V370.1H199.89V360.04H209.95V350.16H239.82V359.86H249.88V369.92H259.93V389.97H269.81V409.74H279.86V400.07H289.91V380.18H299.71C300.27 376.81 299.72 373.53 300.09 370.14H309.84V360.12H319.9V369.94H329.79V379.81C331.54 379.87 333.14 379.95 334.74 379.98C336.38 380.01 338.02 379.98 339.83 379.98V389.75H359.88V380.03H369.93V359.98H379.96V399.98H369.96V419.98H359.96V429.98H339.96V409.98H329.96V389.98H319.96V380.15C318.4 380.09 316.8 380.01 315.21 379.99C313.57 379.96 311.93 379.99 309.96 379.99V389.99H299.96V409.99H289.96V429.99H269.96V419.99H259.96V399.99H249.96V379.99H239.96V370.51C239.85 370.39 239.75 370.25 239.61 370.16C239.49 370.08 239.33 370 239.18 370C229.55 370 219.92 370 209.95 370V380H199.95V400H189.95V420H179.95V430H159.95V410H149.95V390H139.95V380.17C138.39 380.11 136.79 380.03 135.2 380.01C133.56 379.98 131.92 380.01 129.95 380.01V390.01H119.95V410.01H109.95V430.01H89.9502V420.01H79.9502V400.01H69.9502V360.01L70.0002 360Z"
            fill="#BDDFDA" />
        <path
            d="M330 200H300V210H200V200.52C199.89 200.4 199.79 200.26 199.65 200.17C199.53 200.09 199.37 200.01 199.22 200.01C189.59 200.01 179.96 200.01 169.99 200.01V190.01H209.99V199.5C214.35 200.25 273.05 200.51 289.99 199.84V190.01H329.99V200.01L330 200Z"
            fill="#E6E6E6" />
        <path d="M300 240V249.49C295.58 250.25 217.65 250.53 200 249.83V240H300Z" fill="#E6E6E6" />
        <path d="M330 110H339.49C340.24 114.36 340.5 173.06 339.83 190H330V110Z" fill="#E6E6E6" />
        <path d="M170 190H160.51C159.76 185.64 159.5 126.94 160.17 110H170V190Z" fill="#E6E6E6" />
        <path d="M210 110H219.49C220.24 114.36 220.5 173.06 219.83 190H210V110Z" fill="#E6E6E6" />
        <path d="M290 190H280.51C279.76 185.64 279.5 126.94 280.17 110H290V190Z" fill="#E6E6E6" />
        <path d="M170 110V100.51C174.13 99.79 195.84 99.59 210 100.17V110H170Z" fill="#E6E6E6" />
        <path d="M290 110V100.51C294.13 99.79 315.84 99.59 330 100.17V110H290Z" fill="#E6E6E6" />
        <path
            d="M160 240V249.48C159.89 249.6 159.79 249.74 159.65 249.83C159.53 249.91 159.37 249.99 159.22 249.99C149.59 249.99 139.96 249.99 129.99 249.99V239.99H159.99L160 240Z"
            fill="#FAD1A8" />
        <path
            d="M360 240V249.48C359.89 249.6 359.79 249.74 359.65 249.83C359.53 249.91 359.37 249.99 359.22 249.99C349.59 249.99 339.96 249.99 329.99 249.99V239.99H359.99L360 240Z"
            fill="#FAD1A8" />
        <path
            d="M130 210V200.52C130.11 200.4 130.21 200.26 130.35 200.17C130.47 200.09 130.63 200.01 130.78 200.01C140.41 200.01 150.04 200.01 160.01 200.01V210.01H130.01L130 210Z"
            fill="#FAD1A8" />
        <path d="M330 210V200H360V210H330Z" fill="#FAD1A8" />
        <path
            d="M130 240H120.52C120.4 239.89 120.26 239.79 120.17 239.65C120.09 239.53 120.01 239.37 120.01 239.22C120.01 229.59 120.01 219.96 120.01 209.99H130.01V239.99L130 240Z"
            fill="#FAD1A8" />
        <path
            d="M160 210H169.48C169.6 210.11 169.74 210.21 169.83 210.35C169.91 210.47 169.99 210.63 169.99 210.78C169.99 220.41 169.99 230.04 169.99 240.01H159.99V210.01L160 210Z"
            fill="#FAD1A8" />
        <path
            d="M200 240H190.52C190.4 239.89 190.26 239.79 190.17 239.65C190.09 239.53 190.01 239.37 190.01 239.22C190.01 229.59 190.01 219.96 190.01 209.99H200.01V239.99L200 240Z"
            fill="#E6E6E6" />
        <path
            d="M300 210H309.48C309.6 210.11 309.74 210.21 309.83 210.35C309.91 210.47 309.99 210.63 309.99 210.78C309.99 220.41 309.99 230.04 309.99 240.01H299.99V210.01L300 210Z"
            fill="#E6E6E6" />
        <path
            d="M330 240H320.52C320.4 239.89 320.26 239.79 320.17 239.65C320.09 239.53 320.01 239.37 320.01 239.22C320.01 229.59 320.01 219.96 320.01 209.99H330.01V239.99L330 240Z"
            fill="#FAD1A8" />
        <path
            d="M360 210H369.48C369.6 210.11 369.74 210.21 369.83 210.35C369.91 210.47 369.99 210.63 369.99 210.78C369.99 220.41 369.99 230.04 369.99 240.01H359.99V210.01L360 210Z"
            fill="#FAD1A8" />
        <path d="M290 110H330V190H290V110Z" fill="black" />
        <path d="M170 110H210V190H170V110Z" fill="black" />
        <path d="M300 210V240H200V210H300Z" fill="black" />
        <path d="M160 210V240H130V210H160Z" fill="#FB9358" />
        <path d="M360 210V240H330V210H360Z" fill="#FB9358" />
    </g>
    <defs>
        <clipPath id="clip0_2572_2664">
            <rect width="450" height="450" fill="white" />
        </clipPath>
    </defs>
</svg>
    