<svg width="73" height="73" viewBox="0 0 73 73" fill="none" xmlns="http://www.w3.org/2000/svg">
    <g filter="url(#filter0_d_2788_3657)">
        <rect width="72" height="72" fill="#D3FBFE" />
        <rect x="1" y="1" width="70" height="70" stroke="#0D1615" stroke-width="2" />
    </g>
    <g clip-path="url(#clip0_2788_3657)">
        <path d="M18.1539 58.5H16.9846C16.8886 57.9225 16.848 16.0075 16.9428 13.5H18.1539V58.5Z"
            fill="#0D1615" />
        <path d="M55.0769 13.5H56.2462C56.3422 14.0775 56.3828 55.9925 56.288 58.5H55.0769V13.5Z"
            fill="#0D1615" />
        <path d="M18.1539 13.5V12.3125C18.72 12.215 52.6351 12.175 55.0769 12.27V13.5H18.1539Z"
            fill="#0D1615" />
        <path d="M55.0769 58.5V59.6875C54.5108 59.785 20.5957 59.825 18.1539 59.73V58.5H55.0769Z"
            fill="#0D1615" />
        <path
            d="M55.0769 58.5H18.1539V13.5H55.0769V58.5ZM20.6154 14.875C20.5834 14.8338 20.5514 14.7563 20.5182 14.755C20.1526 14.7463 19.7871 14.75 19.4031 14.75V57.2238H53.8351C53.9385 52.7225 53.8929 15.3963 53.7846 14.75H21.3637C21.2406 14.75 21.1151 14.7338 20.9957 14.755C20.8665 14.7775 20.7422 14.8338 20.6154 14.875Z"
            fill="#D9D9D9" />
        <path
            d="M52.4923 14.75H53.7846C53.8929 15.3975 53.9385 52.7238 53.8351 57.2238H19.4031V14.75C19.7871 14.75 20.1526 14.7463 20.5182 14.755C20.5514 14.755 20.5834 14.8325 20.6154 14.875C20.5317 15.2638 20.7262 15.6213 20.7385 16C20.4689 16.125 20.6228 16.3625 20.6228 16.5363C20.6142 27.45 20.6154 38.3625 20.6154 49.2763C20.6154 49.435 20.6265 49.5938 20.6326 49.75H52.6142V16.4738C52.6142 16.3488 52.624 16.2225 52.608 16.1C52.6031 16.0625 52.5317 16.0338 52.4911 16V14.75H52.4923ZM35.3809 55.9775H37.8498V54.7425H39.0609V52.235H37.8289V50.995C36.9994 51.0163 36.1908 50.97 35.3625 51.025V52.2563H34.1822V54.7638H35.3822V55.9775H35.3809Z"
            fill="#FFFFF3" />
        <path
            d="M20.7385 16C20.7262 15.6213 20.5317 15.2638 20.6154 14.875C20.7422 14.8338 20.8665 14.7763 20.9957 14.755C21.1151 14.735 21.2406 14.75 21.3637 14.75H52.4923V16H20.7385Z"
            fill="#FEFEE7" />
        <path
            d="M51.3846 49.75H21.8462V17.2725C24.0542 17.175 50.8492 17.2163 51.3846 17.3163V49.75ZM25.5385 24.75H24.3077C24.3077 24.9963 24.3052 25.2013 24.3077 25.4063C24.3114 25.605 24.3212 25.805 24.3274 26H26.768V23.5C26.5255 23.5 26.3237 23.4975 26.1219 23.5C25.9262 23.5038 25.7292 23.5138 25.5372 23.52V24.7488L25.5385 24.75ZM48.9231 29.75V28.5C48.6806 28.5 48.4788 28.4975 48.2769 28.5C48.0812 28.5038 47.8843 28.5138 47.6923 28.52V29.7488H46.4615C46.4615 29.995 46.4591 30.2 46.4615 30.405C46.4652 30.6038 46.4751 30.8038 46.4812 30.9988H47.6911V32.2488C47.9335 32.2488 48.1354 32.2513 48.3372 32.2488C48.5329 32.245 48.7299 32.235 48.9219 32.2288V31H50.1526C50.1526 30.7538 50.1551 30.5488 50.1526 30.3438C50.1489 30.145 50.1391 29.945 50.1329 29.75H48.9231ZM24.3077 29.75H23.0769C23.0769 29.9963 23.0745 30.2013 23.0769 30.4063C23.0806 30.605 23.0905 30.805 23.0966 31H24.3065V32.25C24.5489 32.25 24.7508 32.2525 24.9526 32.25C25.1483 32.2463 25.3452 32.2363 25.5372 32.23V31.0013H26.768C26.768 30.755 26.7705 30.55 26.768 30.345C26.7643 30.1463 26.7545 29.9463 26.7483 29.7513H25.5385V28.5013C25.296 28.5013 25.0942 28.4988 24.8923 28.5013C24.6966 28.505 24.4997 28.515 24.3077 28.5213V29.75ZM47.6923 24.75V23.5C47.4499 23.5 47.248 23.4975 47.0462 23.5C46.8505 23.5038 46.6535 23.5138 46.4615 23.52V25.9988H48.9231C48.9231 25.7525 48.9255 25.5475 48.9231 25.3425C48.9194 25.1438 48.9095 24.9438 48.9034 24.7488H47.6935L47.6923 24.75ZM47.6923 21H48.9231C48.9231 20.7538 48.9255 20.5488 48.9231 20.3438C48.9194 20.145 48.9095 19.945 48.9034 19.75H46.4628V22.25C46.7052 22.25 46.9071 22.2525 47.1089 22.25C47.3046 22.2463 47.5015 22.2363 47.6935 22.23V21.0013L47.6923 21ZM25.5385 21V22.25C25.7809 22.25 25.9828 22.2525 26.1846 22.25C26.3803 22.2463 26.5772 22.2363 26.7692 22.23V19.7513H24.3077C24.3077 19.9975 24.3052 20.2025 24.3077 20.4075C24.3114 20.6063 24.3212 20.8063 24.3274 21.0013H25.5372L25.5385 21ZM32.9231 34.75V36H31.68V38.5063H30.4615V39.75H29.2517C29.1803 41.535 29.2049 44.235 29.2985 44.7725H30.4652V45.9813H42.7569C42.7951 45.56 42.7372 45.15 42.7939 44.7513H46.4443C46.4923 44.3088 46.4234 43.8988 46.4935 43.4775H47.6763C47.7563 40.9675 47.7255 35.3063 47.6246 34.7288H46.4579V33.5263H45.2222V34.7625H44.016V37.2663H45.2111V38.5013C44.9908 38.5013 44.7889 38.4988 44.5871 38.5013C44.3902 38.505 44.1932 38.5138 44 38.5213V39.75H42.7692V38.4838H41.5286V36H40.3077V34.75H41.5385V32.25H42.7692V31H43.9828C44.0308 30.5563 43.9619 30.1475 44.032 29.7275H45.232C45.232 28.8763 45.232 28.0463 45.232 27.2175C45.232 26.395 45.2357 25.5713 45.2283 24.7288H44.0012C44.0012 23.92 44.0012 23.1338 44.0012 22.3463C44.0012 22.3288 43.9914 22.3088 43.9815 22.2925C43.9705 22.2763 43.9532 22.2638 43.9385 22.25H42.7717V20.9963C41.9225 21.015 41.1151 20.9738 40.3102 21.0238V22.2513H39.0966C39.0486 22.695 39.1175 23.1038 39.0548 23.4813H34.1699C34.1292 23.0588 34.1908 22.65 34.1305 22.2513H32.9255V20.9975C32.0763 21.0163 31.2689 20.975 30.464 21.025V22.2525H29.2332C29.2332 23.0813 29.2332 23.8688 29.2332 24.655C29.2332 24.6725 29.2234 24.6925 29.2135 24.7088C29.2037 24.7263 29.1877 24.74 29.1582 24.7738H28.0332V29.7713H29.2197C29.2615 30.1938 29.1988 30.6038 29.2591 31.0013H30.464V32.2513H31.6948V34.7513H32.9255L32.9231 34.75Z"
            fill="#FFDB44" />
        <path
            d="M51.3846 49.75V17.3162C50.8492 17.2162 24.0542 17.175 21.8462 17.2725V49.75H20.6339C20.6277 49.5938 20.6166 49.435 20.6166 49.2762C20.6166 38.3625 20.6154 27.45 20.624 16.5363C20.624 16.3625 20.4702 16.125 20.7397 16H52.4935C52.5342 16.0325 52.6068 16.0625 52.6105 16.1C52.6252 16.2225 52.6166 16.3488 52.6166 16.4738V49.75H51.3859H51.3846Z"
            fill="#FFF0B0" />
        <path
            d="M35.3809 55.9775V54.7637H34.1809V52.2562H35.3612V51.025C36.1908 50.97 36.9994 51.015 37.8277 50.995V52.235H39.0597V54.7425H37.8486V55.9775H35.3797H35.3809Z"
            fill="#FF4F96" />
        <path
            d="M30.4615 31H29.2566C29.1963 30.6025 29.2591 30.1925 29.2172 29.77H28.0308V24.7725H29.1557C29.1852 24.7387 29.2012 24.725 29.2111 24.7075C29.2209 24.6913 29.2308 24.6713 29.2308 24.6538C29.2308 23.8663 29.2308 23.08 29.2308 22.2513H30.4615V24.72H31.7132V23.5162C32.1292 23.4725 32.5317 23.5388 32.9231 23.475V22.2513H34.128C34.1871 22.6488 34.1255 23.0587 34.1674 23.4812H39.0523C39.1163 23.105 39.0461 22.695 39.0941 22.2513H40.3077V23.4838C40.7434 23.53 41.1471 23.4638 41.5606 23.5312V24.7388H42.7692V22.25H43.936C43.9508 22.2637 43.968 22.2762 43.9791 22.2925C43.9889 22.3075 43.9988 22.3275 43.9988 22.3462C43.9988 23.1337 43.9988 23.92 43.9988 24.7288H45.2258C45.2332 25.5713 45.2283 26.395 45.2295 27.2175C45.2295 28.0463 45.2295 28.875 45.2295 29.7275H44.0295C43.9606 30.1475 44.0295 30.5575 43.9803 31C43.5754 31 43.1705 31 42.7581 30.9912C42.7483 30.59 42.7483 30.1813 42.7483 29.7763H40.32V30.9837C41.1446 30.9837 41.9557 30.9838 42.7569 30.9925C42.7668 31.4075 42.7668 31.8137 42.7668 32.2512H30.4591C30.4591 31.8137 30.4591 31.4075 30.4689 30.9925C31.2701 30.9838 32.0812 30.9837 32.8948 30.9837V29.7625H30.4788C30.4788 30.1825 30.4788 30.5913 30.4603 31H30.4615ZM32.9403 27.2675V28.4725H34.1403V27.2675C33.7268 27.2675 33.3243 27.2675 32.9231 27.25V26C32.6806 26 32.4788 25.9975 32.2769 26C32.0812 26.0038 31.8843 26.0138 31.6923 26.02C31.6923 26.4588 31.6923 26.8538 31.6751 27.2663H30.4886V28.485H31.6751C31.6751 28.065 31.6751 27.6563 31.6923 27.2488C32.1021 27.2488 32.5132 27.2488 32.9403 27.2663V27.2675ZM41.5385 27.25V26C41.296 26 41.0941 25.9975 40.8923 26C40.6966 26.0038 40.4997 26.0138 40.3077 26.02C40.3077 26.4588 40.3077 26.8538 40.2905 27.2663H39.104V28.485H40.2905C40.2905 28.065 40.2905 27.6563 40.3077 27.2488C40.7175 27.2488 41.1286 27.2488 41.5557 27.2663V28.4713H42.7557V27.2663C42.3421 27.2663 41.9397 27.2663 41.5385 27.2488V27.25ZM35.3957 30.98H37.8461C37.8461 30.755 37.8486 30.55 37.8461 30.3463C37.8425 30.1463 37.8326 29.9475 37.8277 29.7712H35.3969V30.9813L35.3957 30.98Z"
            fill="#FFFFE6" />
        <path
            d="M40.3077 36H41.5286V38.4837H42.7692V43.4837C42.3335 43.5287 41.9299 43.4637 41.5163 43.53V44.72H31.6726V43.5163C31.2566 43.47 30.8529 43.54 30.4615 43.4725V38.5075H31.68V36.0012H32.9231V37.2512H35.3846V38.505C36.2339 38.4862 37.0412 38.5275 37.8462 38.4775V37.25H40.3077V36Z"
            fill="#FFFFE6" />
        <path
            d="M44 39.75V38.5212C44.1932 38.515 44.3902 38.505 44.5871 38.5012C44.7889 38.4975 44.9908 38.5012 45.2111 38.5012V37.2662H44.016V34.7625H45.2222V33.5262H46.4578V34.7287H47.6246C47.7255 35.3062 47.7563 40.9675 47.6763 43.4775H46.4935C46.4234 43.8975 46.4935 44.3075 46.4443 44.7512H44V39.7512V39.75Z"
            fill="#FFFFE6" />
        <path
            d="M44 39.75V44.75H42.7938C42.7372 45.1487 42.7963 45.5587 42.7569 45.98H30.4652V44.7712H29.2985C29.2049 44.235 29.1803 41.535 29.2517 39.7487H30.4615V43.47C30.8529 43.5375 31.2566 43.4675 31.6726 43.5137V44.7175H41.5163V43.5275C41.9311 43.4625 42.3348 43.5262 42.7692 43.4812V39.7475H44V39.75Z"
            fill="#FFB648" />
        <path d="M41.5385 33.5V34.75H31.6923V33.5H41.5385Z" fill="#EF9814" />
        <path d="M41.5385 33.5H31.6923V32.25H41.5385V33.5Z" fill="#FFB648" />
        <path d="M32.9231 34.75H40.3077V36H32.9231V34.75Z" fill="#8D425A" />
        <path
            d="M30.4615 22.25V21.0225C31.2665 20.9725 32.0739 21.015 32.9231 20.995V22.2487H30.4615V22.25Z"
            fill="#FFFFE6" />
        <path
            d="M40.3077 22.25V21.0225C41.1126 20.9725 41.92 21.015 42.7692 20.995V22.2487H40.3077V22.25Z"
            fill="#FFFFE6" />
        <path
            d="M25.5385 21H24.3286C24.3212 20.805 24.3114 20.605 24.3089 20.4062C24.3052 20.2013 24.3089 19.9963 24.3089 19.75H25.5397V21H25.5385Z"
            fill="#E8557A" />
        <path d="M25.5385 21V19.75H26.7692V21H25.5385Z" fill="#FF89A7" />
        <path d="M46.4615 21V19.75H47.6923V21H46.4615Z" fill="#FF89A7" />
        <path
            d="M47.6923 21V19.75H48.9021C48.9095 19.945 48.9194 20.145 48.9218 20.3438C48.9255 20.5487 48.9218 20.7537 48.9218 21H47.6911H47.6923Z"
            fill="#E8557A" />
        <path
            d="M25.5385 21H26.7692V22.2288C26.5772 22.2363 26.3803 22.2463 26.1846 22.2488C25.9828 22.2525 25.7809 22.2488 25.5385 22.2488V20.9988V21Z"
            fill="#E8557A" />
        <path
            d="M46.4615 21H47.6923V22.2288C47.5003 22.2363 47.3034 22.2463 47.1077 22.2488C46.9059 22.2525 46.704 22.2488 46.4615 22.2488V20.9988V21Z"
            fill="#E8557A" />
        <path
            d="M25.5385 29.75H26.7483C26.7557 29.945 26.7655 30.145 26.768 30.3438C26.7717 30.5487 26.768 30.7537 26.768 31H25.5372V29.75H25.5385Z"
            fill="#FF89A7" />
        <path
            d="M47.6923 31H46.4825C46.4751 30.805 46.4652 30.605 46.4628 30.4062C46.4591 30.2013 46.4628 29.9963 46.4628 29.75H47.6935V31H47.6923Z"
            fill="#FF89A7" />
        <path
            d="M25.5384 31V32.2288C25.3464 32.2363 25.1495 32.2463 24.9538 32.2488C24.752 32.2525 24.5501 32.2488 24.3077 32.2488V30.9988H25.5384V31Z"
            fill="#E8557A" />
        <path
            d="M48.9231 31V32.2288C48.7311 32.2363 48.5342 32.2463 48.3385 32.2488C48.1366 32.2525 47.9348 32.2488 47.6923 32.2488V30.9988H48.9231V31Z"
            fill="#E8557A" />
        <path
            d="M47.6923 24.75H48.9021C48.9095 24.945 48.9194 25.145 48.9218 25.3438C48.9255 25.5487 48.9218 25.7537 48.9218 26H47.6911V24.75H47.6923Z"
            fill="#E8557A" />
        <path d="M47.6923 24.75V26H46.4615V24.75H47.6923Z" fill="#FF89A7" />
        <path d="M26.7692 24.75V26H25.5385V24.75H26.7692Z" fill="#FF89A7" />
        <path
            d="M24.3077 29.75V28.5212C24.4997 28.5137 24.6966 28.5037 24.8923 28.5012C25.0941 28.4975 25.296 28.5012 25.5384 28.5012V29.7512H24.3077V29.75Z"
            fill="#FF89A7" />
        <path
            d="M47.6923 29.75V28.5212C47.8843 28.5137 48.0812 28.5037 48.2769 28.5012C48.4788 28.4975 48.6806 28.5012 48.9231 28.5012V29.7512H47.6923V29.75Z"
            fill="#FF89A7" />
        <path
            d="M25.5385 24.75V26H24.3286C24.3212 25.805 24.3114 25.605 24.3089 25.4062C24.3052 25.2013 24.3089 24.9963 24.3089 24.75H25.5397H25.5385Z"
            fill="#E8557A" />
        <path
            d="M24.3077 31H23.0978C23.0905 30.805 23.0806 30.605 23.0781 30.4062C23.0745 30.2013 23.0781 29.9963 23.0781 29.75H24.3089V31H24.3077Z"
            fill="#E8557A" />
        <path
            d="M47.6923 24.75H46.4615V23.5212C46.6535 23.5137 46.8505 23.5037 47.0462 23.5012C47.248 23.4975 47.4499 23.5012 47.6923 23.5012V24.7512V24.75Z"
            fill="#E8557A" />
        <path
            d="M26.7692 24.75H25.5385V23.5212C25.7305 23.5137 25.9274 23.5037 26.1231 23.5012C26.3249 23.4975 26.5268 23.5012 26.7692 23.5012V24.7512V24.75Z"
            fill="#E8557A" />
        <path
            d="M48.9231 29.75H50.1329C50.1403 29.945 50.1502 30.145 50.1526 30.3438C50.1563 30.5487 50.1526 30.7537 50.1526 31H48.9218V29.75H48.9231Z"
            fill="#E8557A" />
        <path
            d="M30.4615 22.25H32.9231V23.4738C32.5317 23.5375 32.128 23.4713 31.7132 23.515V24.7188H30.4615V22.25Z"
            fill="#EC7EA3" />
        <path
            d="M40.3077 22.25H42.7692V24.7388H41.5606V23.5312C41.1471 23.4638 40.7446 23.5313 40.3077 23.4838V22.2513V22.25Z"
            fill="#EC7EA3" />
        <path d="M30.48 30.9838V29.7625H32.896V30.9838H30.48Z" fill="#EC7EA3" />
        <path
            d="M35.3957 30.98V29.77H37.8265C37.8326 29.9463 37.8425 30.145 37.8449 30.345C37.8486 30.55 37.8449 30.755 37.8449 30.9788H35.3945L35.3957 30.98Z"
            fill="#0D1615" />
        <path d="M42.7508 30.9837H40.3224V29.7762H42.7508V30.9837Z" fill="#EC7EA3" />
        <path d="M40.2905 27.2675V28.4863H39.104V27.2675H40.2905Z" fill="#0D1615" />
        <path d="M31.6751 27.2675V28.4863H30.4886V27.2675H31.6751Z" fill="#0D1615" />
        <path d="M41.5557 27.2675H42.7557V28.4725H41.5557V27.2675Z" fill="#0D1615" />
        <path
            d="M41.5384 27.25H40.3077V26.0212C40.4997 26.0137 40.6966 26.0037 40.8923 26.0012C41.0941 25.9975 41.296 26.0012 41.5384 26.0012V27.2512V27.25Z"
            fill="#0D1615" />
        <path
            d="M32.9231 27.25H31.6923V26.0212C31.8843 26.0137 32.0812 26.0037 32.2769 26.0012C32.4788 25.9975 32.6806 26.0012 32.9231 26.0012V27.2512V27.25Z"
            fill="#0D1615" />
        <path d="M32.9403 27.2675H34.1403V28.4725H32.9403V27.2675Z" fill="#0D1615" />
        <path d="M37.8462 36H40.3077V37.25H37.8462V36Z" fill="#EB94A6" />
        <path
            d="M37.8462 37.25V38.4775C37.0412 38.5275 36.2338 38.485 35.3846 38.505V37.2512H37.8462V37.25Z"
            fill="#626366" />
        <path d="M32.9231 36H35.3846V37.25H32.9231V36Z" fill="#EB94A6" />
        <path d="M35.3846 37.25V36H37.8462V37.25H35.3846Z" fill="#A65268" />
        <path d="M24.3077 31V29.75H25.5384V31H24.3077Z" fill="#FFE3EA" />
        <path d="M48.9231 29.75V31H47.6923V29.75H48.9231Z" fill="#FFE3EA" />
    </g>
    <defs>
        <filter id="filter0_d_2788_3657" x="0" y="0" width="73" height="73"
            filterUnits="userSpaceOnUse" color-interpolation-filters="sRGB">
            <feFlood flood-opacity="0" result="BackgroundImageFix" />
            <feColorMatrix in="SourceAlpha" type="matrix"
                values="0 0 0 0 0 0 0 0 0 0 0 0 0 0 0 0 0 0 127 0" result="hardAlpha" />
            <feOffset dx="1" dy="1" />
            <feComposite in2="hardAlpha" operator="out" />
            <feColorMatrix type="matrix" values="0 0 0 0 0 0 0 0 0 0 0 0 0 0 0 0 0 0 1 0" />
            <feBlend mode="normal" in2="BackgroundImageFix" result="effect1_dropShadow_2788_3657" />
            <feBlend mode="normal" in="SourceGraphic" in2="effect1_dropShadow_2788_3657"
                result="shape" />
        </filter>
        <clipPath id="clip0_2788_3657">
            <rect width="48" height="50" fill="white" transform="translate(12 11)" />
        </clipPath>
    </defs>
</svg>
    