<svg width="73" height="73" viewBox="0 0 73 73" fill="none" xmlns="http://www.w3.org/2000/svg">
    <g filter="url(#filter0_d_2788_3721)">
        <rect width="72" height="72" fill="#D3FBFE" />
        <rect x="1" y="1" width="70" height="70" stroke="#0D1615" stroke-width="2" />
    </g>
    <g clip-path="url(#clip0_2788_3721)">
        <path
            d="M56.5556 24.3333H58.7211C58.8078 24.8378 58.8433 47.7489 58.7589 49.8889H56.5544V48.7778H57.6478C57.7311 46.6322 57.6956 25.95 57.61 25.4444H56.5544V24.3333H56.5556Z"
            fill="#0D1615" />
        <path
            d="M15.4444 49.8889H13.2789C13.1922 49.3844 13.1567 26.4722 13.2411 24.3333H15.4456V25.4444H14.3522C14.2689 27.59 14.3044 48.2722 14.39 48.7778H15.4456V49.8889H15.4444Z"
            fill="#0D1615" />
        <path
            d="M34.3333 14.3333V13.2833C34.3456 13.27 34.3556 13.2544 34.3689 13.2433C34.3822 13.2333 34.4 13.2233 34.4156 13.2233C35.4833 13.2233 36.5511 13.2233 37.6567 13.2233V14.3344H41V16.5567H39.8889V15.4422C39.1222 15.4589 38.3933 15.4222 37.6667 15.4667V17.6755C37.2711 17.6544 36.9111 17.6922 36.5556 17.6522V14.3367H34.3333V14.3333Z"
            fill="#0D1615" />
        <path
            d="M44.3333 13.2222V12.1678C44.8222 12.0834 52.4022 12.0534 54.3333 12.13V13.2222H44.3333Z"
            fill="#0D1615" />
        <path d="M26.5556 18.7778V17.6667H29.8889V22.1111H28.7778V18.7778H26.5556Z" fill="#0D1615" />
        <path
            d="M38.7778 58.7778V59.8322C38.3111 59.9133 34.9044 59.9378 33.2222 59.87V58.7778H38.7778Z"
            fill="#0D1615" />
        <path d="M52.1111 17.6667V18.7778H47.6667V17.6667H52.1111Z" fill="#0D1615" />
        <path d="M41 14.3333V13.2222H44.3333V14.3333H41Z" fill="#0D1615" />
        <path d="M24.3333 19.8889V18.7778H26.5556V19.8889H24.3333Z" fill="#0D1615" />
        <path d="M47.6667 18.7778V19.8889H45.4444V18.7778H47.6667Z" fill="#0D1615" />
        <path d="M22.1111 21V19.8889H24.3333V21H22.1111Z" fill="#0D1615" />
        <path d="M47.6667 19.8889H49.8889V21H47.6667V19.8889Z" fill="#0D1615" />
        <path d="M19.8889 22.1111V21H22.1111V22.1111H19.8889Z" fill="#0D1615" />
        <path d="M49.8889 21H52.1111V22.1111H49.8889V21Z" fill="#0D1615" />
        <path d="M17.6667 23.2222V22.1111H19.8889V23.2222H17.6667Z" fill="#0D1615" />
        <path d="M52.1111 22.1111H54.3333V23.2222H52.1111V22.1111Z" fill="#0D1615" />
        <path d="M15.4444 24.3333V23.2222H17.6667V24.3333H15.4444Z" fill="#0D1615" />
        <path d="M54.3333 23.2222H56.5556V24.3333H54.3333V23.2222Z" fill="#0D1615" />
        <path d="M17.6667 51H15.4444V49.8889H17.6667V51Z" fill="#0D1615" />
        <path d="M56.5556 49.8889V51H54.3333V49.8889H56.5556Z" fill="#0D1615" />
        <path d="M19.8889 52.1111H17.6667V51H19.8889V52.1111Z" fill="#0D1615" />
        <path
            d="M54.3333 13.2222H55.4244C55.4689 13.9489 55.4311 14.6778 55.4489 15.4445H54.3344V13.2222H54.3333Z"
            fill="#0D1615" />
        <path d="M32.1111 15.4444V14.3333H34.3333V15.4444H32.1111Z" fill="#0D1615" />
        <path d="M54.3333 51V52.1111H52.1111V51H54.3333Z" fill="#0D1615" />
        <path d="M22.1111 53.2222H19.8889V52.1111H22.1111V53.2222Z" fill="#0D1615" />
        <path d="M52.1111 52.1111V53.2222H49.8889V52.1111H52.1111Z" fill="#0D1615" />
        <path d="M24.3333 54.3333H22.1111V53.2222H24.3333V54.3333Z" fill="#0D1615" />
        <path d="M49.8889 53.2222V54.3333H47.6667V53.2222H49.8889Z" fill="#0D1615" />
        <path d="M26.5556 55.4444H24.3333V54.3333H26.5556V55.4444Z" fill="#0D1615" />
        <path d="M47.6667 54.3333V55.4444H45.4444V54.3333H47.6667Z" fill="#0D1615" />
        <path d="M28.7778 56.5556H26.5556V55.4445H28.7778V56.5556Z" fill="#0D1615" />
        <path d="M45.4444 55.4445V56.5556H43.2222V55.4445H45.4444Z" fill="#0D1615" />
        <path d="M31 57.6667H28.7778V56.5555H31V57.6667Z" fill="#0D1615" />
        <path d="M43.2222 56.5555V57.6667H41V56.5555H43.2222Z" fill="#0D1615" />
        <path d="M33.2222 58.7778H31V57.6667H33.2222V58.7778Z" fill="#0D1615" />
        <path d="M41 57.6667V58.7778H38.7778V57.6667H41Z" fill="#0D1615" />
        <path d="M53.2222 16.5555V17.6667H52.1111V16.5555H53.2222Z" fill="#0D1615" />
        <path d="M29.8889 17.6667V16.5555H31V17.6667H29.8889Z" fill="#0D1615" />
        <path d="M54.3333 15.4445V16.5556H53.2222V15.4445H54.3333Z" fill="#0D1615" />
        <path d="M31 16.5556V15.4445H32.1111V16.5556H31Z" fill="#0D1615" />
        <path
            d="M56.5556 25.4445H57.6111C57.6967 25.95 57.7322 46.6322 57.6489 48.7778H56.5556V25.4445Z"
            fill="#FCFBF7" />
        <path d="M54.3333 23.2222V24.3333H56.5556V25.4445H52.1111V23.2222H54.3333Z" fill="#FCFBF7" />
        <path d="M56.5556 49.8889H54.3333V48.7778H56.5556V49.8889Z" fill="#FCFBF7" />
        <path
            d="M15.4444 48.7778H14.3889C14.3033 48.2722 14.2678 27.59 14.3511 25.4445H15.4444V48.7778Z"
            fill="#FCFBF7" />
        <path d="M15.4444 24.3333H17.6667V23.2222H19.8889V25.4445H15.4444V24.3333Z" fill="#FCFBF7" />
        <path d="M17.6667 49.8889H15.4444V48.7778H17.6667V49.8889Z" fill="#FCFBF7" />
        <path
            d="M29.8889 17.6667H33.2244V18.7556H34.3411V17.6556H35.4267V16.5389H34.3322V15.4445H36.5544V17.6489C36.91 17.6889 37.27 17.6511 37.6656 17.6722V16.5545H39.8878V18.7789H38.7711V19.8956H36.5433V20.9811H33.2211C33.2211 20.7822 33.2233 20.6 33.2211 20.4178C33.2178 20.24 33.21 20.0611 33.2033 19.8867H29.8878V17.6645L29.8889 17.6667Z"
            fill="#FF685B" />
        <path
            d="M29.8889 19.8889H33.2044C33.21 20.0633 33.2189 20.2422 33.2222 20.42C33.2256 20.6022 33.2222 20.7844 33.2222 20.9833H36.5444V19.8978H38.7722V18.7811H39.8889V16.5566H41V17.6622C41.3944 17.6811 41.7567 17.6466 42.1111 17.6833V18.7789H41V19.89H39.8889V21.0011H37.68C37.6422 21.3933 37.6967 21.7578 37.6411 22.1311H36.57C36.5267 22.5066 36.5922 22.8711 36.5322 23.2033H33.2356C33.1933 22.8278 33.2578 22.4633 33.1956 22.1111H29.8878V19.8889H29.8889Z"
            fill="#EE072C" />
        <path d="M41 16.5556V15.4445H43.2222V16.5556H41Z" fill="#118D0A" />
        <path d="M36.5556 15.4444H34.3333V14.3333H36.5556V15.4444Z" fill="#EE072C" />
        <path d="M43.2222 15.4444H41V14.3333H43.2222V15.4444Z" fill="#89CF0F" />
        <path
            d="M39.8889 16.5556H37.6667V15.4644C38.3933 15.42 39.1222 15.4578 39.8889 15.44V16.5544V16.5556Z"
            fill="#EE072C" />
        <path d="M47.6667 13.2222H52.1111V14.3333H47.6667V13.2222Z" fill="#F9F726" />
        <path d="M43.2222 15.4445V14.3333H44.3333V13.2222H45.4444V14.3333H46.5556V15.4445H43.2222Z"
            fill="#A2E430" />
        <path d="M54.3333 15.4445H52.1111V14.3333H53.2222V13.2222H54.3333V15.4445Z" fill="#89CF0F" />
        <path d="M53.2222 13.2222V14.3333H52.1111V13.2222H53.2222Z" fill="#A2E430" />
        <path d="M47.6667 13.2222V14.3333H46.5556V13.2222H47.6667Z" fill="#FFFE9F" />
        <path d="M46.5556 13.2222V14.3333H45.4444V13.2222H46.5556Z" fill="#F9F726" />
        <path
            d="M19.8889 25.4445V23.2222H22.1111V22.1111H24.3333V21H26.5556V19.8889H28.7778V23.2222H26.57C26.5311 23.6156 26.5867 23.98 26.53 24.3522H24.3478C24.3056 24.7278 24.3689 25.0922 24.3089 25.4445H19.89H19.8889Z"
            fill="#FEF8B9" />
        <path d="M28.7778 19.8889H26.5556V18.7778H28.7778V19.8889Z" fill="#FCFBF7" />
        <path d="M28.7778 23.2222V22.1111H29.8889V23.2222H28.7778Z" fill="#3C0733" />
        <path d="M38.7778 57.6667V58.7778H33.2222V57.6667H35.4444V33.2222H36.5556V57.6667H38.7778Z"
            fill="#FCFBF7" />
        <path d="M52.1111 16.5555V17.6667H47.6667V16.5555H52.1111Z" fill="#118D0A" />
        <path d="M26.5556 19.8889V21H24.3333V19.8889H26.5556Z" fill="#FCFBF7" />
        <path d="M45.4444 18.7778V19.8889H43.2222V18.7778H45.4444Z" fill="#3C0733" />
        <path d="M47.6667 19.8889V21H45.4444V19.8889H47.6667Z" fill="#FCFBF7" />
        <path d="M24.3333 21V22.1111H22.1111V21H24.3333Z" fill="#FCFBF7" />
        <path d="M49.8889 21V22.1111H47.6667V21H49.8889Z" fill="#FCFBF7" />
        <path d="M22.1111 22.1111V23.2222H19.8889V22.1111H22.1111Z" fill="#FCFBF7" />
        <path d="M52.1111 22.1111V23.2222H49.8889V22.1111H52.1111Z" fill="#FCFBF7" />
        <path d="M19.8889 51H17.6667V49.8889H19.8889V51Z" fill="#FCFBF7" />
        <path d="M54.3333 51H52.1111V49.8889H54.3333V51Z" fill="#FCFBF7" />
        <path d="M22.1111 52.1111H19.8889V51H22.1111V52.1111Z" fill="#FCFBF7" />
        <path
            d="M34.3333 15.4445V16.5389H35.4278V17.6556H34.3422V18.7556H33.2256V17.6667H32.1122V16.5556H33.2233V15.4445H34.3344H34.3333Z"
            fill="#FFF5D3" />
        <path d="M33.2222 15.4445V16.5556H32.1111V15.4445H33.2222Z" fill="#EE072C" />
        <path d="M52.1111 52.1111H49.8889V51H52.1111V52.1111Z" fill="#FCFBF7" />
        <path d="M24.3333 53.2222H22.1111V52.1111H24.3333V53.2222Z" fill="#FCFBF7" />
        <path d="M49.8889 53.2222H47.6667V52.1111H49.8889V53.2222Z" fill="#FCFBF7" />
        <path d="M26.5556 54.3333H24.3333V53.2222H26.5556V54.3333Z" fill="#FCFBF7" />
        <path d="M47.6667 54.3333H45.4444V53.2222H47.6667V54.3333Z" fill="#FCFBF7" />
        <path d="M28.7778 55.4444H26.5556V54.3333H28.7778V55.4444Z" fill="#FCFBF7" />
        <path d="M45.4444 55.4444H43.2222V54.3333H45.4444V55.4444Z" fill="#FCFBF7" />
        <path d="M31 56.5556H28.7778V55.4445H31V56.5556Z" fill="#FCFBF7" />
        <path d="M43.2222 56.5556H41V55.4445H43.2222V56.5556Z" fill="#FCFBF7" />
        <path d="M33.2222 57.6667H31V56.5555H33.2222V57.6667Z" fill="#FCFBF7" />
        <path d="M41 57.6667H38.7778V56.5555H41V57.6667Z" fill="#FCFBF7" />
        <path d="M52.1111 15.4445H53.2222V16.5556H52.1111V15.4445Z" fill="#118D0A" />
        <path d="M32.1111 16.5555V17.6667H31V16.5555H32.1111Z" fill="#EE072C" />
        <path
            d="M36.5556 43.2222V35.4444H38.7778V34.3333H41V33.2222H43.2222V32.1111H45.4444V31H47.6667V29.8889H49.8889V31H48.7744C48.7911 31.7666 48.7544 32.4955 48.7989 33.2222H49.89V34.3366C50.6567 34.32 51.3856 34.3566 52.1122 34.3122V33.2211H53.2267C53.21 32.4544 53.2467 31.7255 53.2022 30.9989H52.1111V29.8877H49.8889V28.7766H52.1111V27.6655H56.5556V35.4433H55.4444V36.5544H53.2222V37.6655H51V38.7766H47.6667V37.6655H46.5556V36.5733C44.9833 36.5089 42.57 36.5311 42.1111 36.6111V37.6655H41V38.7766H39.8889V42.11H37.6667V43.2211H36.5556V43.2222Z"
            fill="#CD1372" />
        <path
            d="M36.5556 51V44.3333H37.6667V43.2222H41V44.3333H42.1111V45.4255C43.6833 45.49 46.0967 45.4678 46.5556 45.3878V44.3333H47.6667V43.2222H48.74C48.7633 43.1733 48.7767 43.1578 48.7767 43.1422C48.7767 42.0578 48.7767 40.9733 48.7767 39.8889H50.9989V38.7778H53.2211V37.6667H55.4433V36.5555H56.5544V43.2222H54.3322V44.3333H50.9989V45.4444H47.6656V46.5555H45.4433V47.6667H43.2211V48.7778H42.11V47.6667C41.8911 47.6667 41.7089 47.6644 41.5267 47.6667C41.35 47.67 41.1722 47.6789 40.9989 47.6844V49.8878H38.7767V50.9989H36.5544L36.5556 51Z"
            fill="#FD4D78" />
        <path d="M56.5556 44.3333V46.5555H54.3333V47.6666H53.2222V45.4444H54.3333V44.3333H56.5556Z"
            fill="#FFA4C8" />
        <path d="M56.5556 27.6667H52.1111V26.5555H56.5556V27.6667Z" fill="#B51E64" />
        <path d="M56.5556 26.5556H52.1111V25.4445H56.5556V26.5556Z" fill="#991553" />
        <path d="M56.5556 44.3333H54.3333V43.2222H56.5556V44.3333Z" fill="#FD6089" />
        <path d="M54.3333 47.6667V46.5555H56.5556V47.6667H54.3333Z" fill="#FAC5D2" />
        <path d="M54.3333 47.6667H56.5556V48.7778H54.3333V47.6667Z" fill="#F8D1D7" />
        <path d="M56.5556 36.5556H55.4444V35.4445H56.5556V36.5556Z" fill="#E73375" />
        <path
            d="M49.8889 22.1111V23.2222H52.1111V25.4444H49.8889V26.5555H47.6667V27.6667H45.4444V28.7778H43.2222V29.8889H41V31H38.7778V32.1111H36.5556V33.2222H35.4444V32.1111H33.2222V31H31V29.8889H28.7778V28.7778H26.5556V27.6667H24.3333V26.5555H22.1111V25.4444H24.3078C24.3678 25.0911 24.3056 24.7278 24.3467 24.3522H26.5289C26.5856 23.98 26.5289 23.6155 26.5689 23.2222H28.7767V24.3333H29.8878V26.5555H30.9989V27.6667H32.11V28.7778H34.3322V29.8889C35.44 29.8889 36.51 29.8889 37.58 29.8889C37.5956 29.8889 37.6144 29.8811 37.6278 29.8711C37.6422 29.8611 37.6533 29.8455 37.6667 29.8322V28.7789H39.8889V27.6678H41V26.5567H42.1111V24.3344H43.2222V21.0011H47.6667V22.1122H49.8889V22.1111Z"
            fill="#FF3E72" />
        <path d="M52.1111 51H49.8889V48.7778H54.3333V49.8889H52.1111V51Z" fill="#F9CDD5" />
        <path
            d="M35.4444 35.4444V43.2222H34.3333V42.1111H32.1111V41H29.8889V39.8733H28.7633V38.7777H24.3333V37.6666H23.2222V34.3333H22.1111V33.2222C21.0033 33.2222 19.9333 33.2222 18.8633 33.2222C18.8478 33.2222 18.8289 33.23 18.8156 33.24C18.8011 33.25 18.79 33.2655 18.7767 33.2789V34.3322H17.6656V36.5544H16.5544V35.4433H15.4433V27.6655H17.6656V28.7633C17.2722 28.8011 16.9089 28.7466 16.5733 28.7966V29.8889C16.7733 29.8889 16.9556 29.8866 17.1378 29.8889C17.3156 29.8922 17.4922 29.9011 17.6856 29.9077V31C17.8867 31 18.0689 31.0022 18.25 31C18.4267 30.9966 18.6033 30.9877 18.7967 30.9811V29.89C18.9978 29.89 19.18 29.8922 19.3622 29.89C19.5389 29.8866 19.7156 29.8777 19.8889 29.8711V28.7789H22.1111V29.89H24.3333V31.0011H26.5556V32.1122H28.7778V33.2233H31V34.3344H33.2222V35.4455H35.4444V35.4444Z"
            fill="#CD1372" />
        <path
            d="M35.4444 44.3333V51H33.2222V49.8889H31V48.7778H28.7778V47.6667H26.5556V46.5555H24.3333V45.4444H23.2222V44.3333H21.0156C20.9722 43.9389 21.0344 43.5755 20.9744 43.2222H16.5556V42.1111H15.4444V36.5555H16.5556V37.6667H18.7778V38.7778H24.3333V43.2389H25.4622V44.3067H28.7944V43.2289C29.1711 43.2067 29.5333 43.2467 29.8878 43.2055V42.1122H32.11V43.2233H34.3322V44.3344H35.4433L35.4444 44.3333ZM33.2111 45.4244H32.1078V44.3555H30.99V45.4567H29.9067V46.5411C30.2811 46.5811 30.6467 46.5211 31.0211 46.5822V47.6522H32.1211V46.5411H33.2111V45.4233V45.4244Z"
            fill="#FD4D78" />
        <path
            d="M24.3333 52.1111H22.1111V51H19.8889V49.8889H17.6667V48.7778H15.4444V46.5555H17.6667V47.6667H19.8889V48.7778C20.6256 48.7778 21.3256 48.7778 22.0244 48.7778C22.04 48.7778 22.0578 48.7867 22.0722 48.7944C22.0878 48.8044 22.1 48.8189 22.13 48.8455V49.8867C22.8489 49.8867 23.5478 49.8867 24.2478 49.8867C24.2633 49.8867 24.2811 49.8955 24.2956 49.9044C24.31 49.9144 24.3211 49.93 24.3333 49.9433V52.1078V52.1111Z"
            fill="#F9CBD4" />
        <path d="M17.6667 46.5556H15.4444V43.2222H16.5556V44.3333H17.6667V46.5556Z" fill="#FFA4C8" />
        <path d="M15.4444 25.4445H19.8889V26.5556H15.4444V25.4445Z" fill="#991553" />
        <path d="M15.4444 26.5555H19.8889V27.6667H15.4444V26.5555Z" fill="#B51E64" />
        <path d="M16.5556 36.5556H15.4444V35.4445H16.5556V36.5556Z" fill="#E73375" />
        <path d="M16.5556 43.2222H15.4444V42.1111H16.5556V43.2222Z" fill="#FD6089" />
        <path
            d="M31 22.1111H33.1967C33.2578 22.4633 33.1944 22.8278 33.2367 23.2033H36.5333C36.5933 22.87 36.5278 22.5055 36.5711 22.1311H37.6422C37.6978 21.7578 37.6433 21.3933 37.6811 21.0011H39.89V22.1122H38.7667V23.2311H37.6678V24.3344H31.0011V22.1122L31 22.1111Z"
            fill="#C70A28" />
        <path
            d="M43.2222 21V22.1111H42.1111V17.6822C41.7567 17.6455 41.3944 17.68 41 17.6611V16.5555H43.2222V17.6667H45.4444V18.7778H43.2222V21Z"
            fill="#0D1615" />
        <path d="M42.1111 18.7778V21H41V18.7778H42.1111Z" fill="#AD0261" />
        <path d="M31 22.1111V24.3333H29.8889V22.1111H31Z" fill="#0D1615" />
        <path d="M41 19.8889V21H39.8889V19.8889H41Z" fill="#C70A28" />
        <path d="M43.2222 15.4445H45.4444V16.5556H43.2222V15.4445Z" fill="#89CF0F" />
        <path d="M52.1111 15.4444V16.5555H47.6667V14.3333H48.7778V15.4444H52.1111Z" fill="#89CF0F" />
        <path d="M52.1111 15.4444H48.7778V14.3333H52.1111V15.4444Z" fill="#A2E430" />
        <path d="M47.6667 15.4445V16.5556H45.4444V15.4445H47.6667Z" fill="#118D0A" />
        <path d="M47.6667 15.4444H46.5556V14.3333H47.6667V15.4444Z" fill="#F9F726" />
        <path d="M19.8889 26.5556V25.4445H22.1111V26.5556H19.8889Z" fill="#FCFBF7" />
        <path d="M29.8889 23.2222V24.3333H28.7778V23.2222H29.8889Z" fill="#A52968" />
        <path
            d="M52.1111 48.7778H49.8889V49.8889H47.6667V51H45.4344V52.1178H43.2222V53.2222H41V54.3333H38.7933C38.7522 54.7267 38.8111 55.0911 38.7544 55.4444H36.5567V52.1111H38.7789V51H41.0011V49.8889H43.2233V48.7778H45.4456V47.6667H47.6678V46.5555H51.0011V47.6667H52.1122V48.7778H52.1111Z"
            fill="#FFA4C8" />
        <path
            d="M35.4444 52.1111V55.4444H33.2222V54.3333H32.1111V53.2378C32.5044 53.1966 32.8689 53.2555 33.2222 53.1989V52.1111H35.4444Z"
            fill="#FFA4C8" />
        <path
            d="M36.5556 55.4444H38.7533C38.81 55.0911 38.7511 54.7266 38.7922 54.3333H40.9989V56.5555H36.5544V55.4444H36.5556Z"
            fill="#F9C9D4" />
        <path d="M35.4444 33.2222V34.3333H33.2222V33.2222H35.4444Z" fill="#991553" />
        <path d="M36.5556 34.3333V33.2222H38.7778V34.3333H36.5556Z" fill="#991553" />
        <path d="M33.2222 34.3333H35.4444V35.4444H33.2222V34.3333Z" fill="#B51E64" />
        <path d="M36.5556 34.3333H38.7778V35.4444H36.5556V34.3333Z" fill="#B51E64" />
        <path d="M35.4444 52.1111H33.2222V51H35.4444V52.1111Z" fill="#FD6089" />
        <path d="M38.7778 51V52.1111H36.5556V51H38.7778Z" fill="#FD6089" />
        <path d="M33.2222 55.4445H35.4444V56.5556H33.2222V55.4445Z" fill="#FAC5D2" />
        <path d="M33.2222 56.5555H35.4444V57.6667H33.2222V56.5555Z" fill="#F8D1D7" />
        <path d="M36.5556 56.5555H38.7778V57.6667H36.5556V56.5555Z" fill="#F8D1D7" />
        <path d="M35.4444 44.3333H34.3333V43.2222H35.4444V44.3333Z" fill="#E73375" />
        <path d="M37.6667 43.2222V44.3333H36.5556V43.2222H37.6667Z" fill="#E73375" />
        <path d="M45.4444 16.5555H47.6667V17.6667H45.4444V16.5555Z" fill="#0D1615" />
        <path d="M43.2222 21V19.8889H45.4444V21H43.2222Z" fill="#A52968" />
        <path d="M49.8889 52.1111H47.6667V51H49.8889V52.1111Z" fill="#F8D1D7" />
        <path d="M26.5556 53.2222H24.3333V52.1111H26.5556V53.2222Z" fill="#F8D1D7" />
        <path d="M47.6667 51V53.2222H43.2222V52.1178H45.4344V51H47.6667Z" fill="#F9C9D4" />
        <path d="M31 55.4445H28.7778V54.3333H26.5556V53.2222H31V55.4445Z" fill="#F9CDD5" />
        <path d="M43.2222 53.2222H45.4444V54.3333H43.2222V53.2222Z" fill="#F8D1D7" />
        <path d="M41 55.4444V54.3333H43.2222V55.4444H41Z" fill="#F8D1D7" />
        <path d="M33.2222 55.4445V56.5556H31V55.4445H33.2222Z" fill="#F8D1D7" />
        <path d="M41 43.2222H39.8889V38.7778H41V43.2222Z" fill="#FCFBF7" />
        <path
            d="M48.7778 39.8889C48.7778 40.9733 48.7778 42.0578 48.7778 43.1422C48.7778 43.1578 48.7644 43.1733 48.7411 43.2222H47.6678V38.7778H48.7789V39.8889H48.7778Z"
            fill="#FCFBF7" />
        <path
            d="M42.1111 37.6667V36.6122C42.57 36.5322 44.9833 36.51 46.5556 36.5744V37.6667H42.1111Z"
            fill="#FCFBF7" />
        <path d="M52.1111 27.6667V28.7778H49.8889V27.6667H52.1111Z" fill="#B51E64" />
        <path d="M49.8889 28.7778V29.8889H47.6667V28.7778H49.8889Z" fill="#B51E64" />
        <path d="M47.6667 29.8889V31H45.4444V29.8889H47.6667Z" fill="#B51E64" />
        <path d="M49.8889 31V29.8889H52.1111V31H49.8889Z" fill="#FCFBF7" />
        <path d="M45.4444 31V32.1111H43.2222V31H45.4444Z" fill="#B51E64" />
        <path
            d="M49.8889 33.2222H48.7978C48.7533 32.4956 48.7911 31.7667 48.7733 31H49.8878V33.2222H49.8889Z"
            fill="#FCFBF7" />
        <path
            d="M52.1111 31H53.2022C53.2467 31.7267 53.2089 32.4556 53.2267 33.2222H52.1122V31H52.1111Z"
            fill="#FCFBF7" />
        <path d="M43.2222 32.1111V33.2222H41V32.1111H43.2222Z" fill="#B51E64" />
        <path d="M38.7778 34.3333V33.2222H41V34.3333H38.7778Z" fill="#B51E64" />
        <path
            d="M52.1111 33.2222V34.3133C51.3844 34.3578 50.6556 34.32 49.8889 34.3378V33.2233H52.1111V33.2222Z"
            fill="#FCFBF7" />
        <path d="M55.4444 36.5555V37.6667H53.2222V36.5555H55.4444Z" fill="#E73375" />
        <path d="M53.2222 37.6667V38.7778H51V37.6667H53.2222Z" fill="#E73375" />
        <path d="M48.7778 39.8889V38.7778H51V39.8889H48.7778Z" fill="#E73375" />
        <path d="M39.8889 42.1111V43.2222H37.6667V42.1111H39.8889Z" fill="#E73375" />
        <path d="M41 38.7778V37.6667H42.1111V38.7778H41Z" fill="#FCFBF7" />
        <path d="M46.5556 37.6667H47.6667V38.7778H46.5556V37.6667Z" fill="#FCFBF7" />
        <path
            d="M46.5556 44.3333V45.3878C46.0967 45.4678 43.6833 45.49 42.1111 45.4255V44.3333H46.5556Z"
            fill="#FCFBF7" />
        <path d="M54.3333 44.3333V45.4444H51V44.3333H54.3333Z" fill="#FD6089" />
        <path d="M51 46.5556H47.6667V45.4445H51V46.5556Z" fill="#FD6089" />
        <path d="M47.6667 46.5555V47.6667H45.4444V46.5555H47.6667Z" fill="#FD6089" />
        <path d="M45.4444 47.6667V48.7778H43.2222V47.6667H45.4444Z" fill="#FD6089" />
        <path d="M43.2222 48.7778V49.8889H41V48.7778H43.2222Z" fill="#FD6089" />
        <path d="M41 49.8889V51H38.7778V49.8889H41Z" fill="#FD6089" />
        <path d="M42.1111 44.3333H41V43.2222H42.1111V44.3333Z" fill="#FCFBF7" />
        <path d="M47.6667 43.2222V44.3333H46.5556V43.2222H47.6667Z" fill="#FCFBF7" />
        <path
            d="M42.1111 48.7778H41V47.6856C41.1733 47.6789 41.3511 47.67 41.5278 47.6678C41.71 47.6645 41.8922 47.6678 42.1111 47.6678V48.7789V48.7778Z"
            fill="#FCFBF7" />
        <path d="M51 46.5556V45.4445H53.2222V47.6667H51V46.5556Z" fill="#FCFBF7" />
        <path d="M52.1111 47.6667H54.3333V48.7778H52.1111V47.6667Z" fill="#FAC5D2" />
        <path d="M52.1111 27.6667H49.8889V26.5555H52.1111V27.6667Z" fill="#991553" />
        <path d="M52.1111 26.5556H49.8889V25.4445H52.1111V26.5556Z" fill="#FCFBF7" />
        <path
            d="M37.6667 28.7778V29.8311C37.6544 29.8444 37.6433 29.86 37.6278 29.87C37.6144 29.8789 37.5967 29.8878 37.58 29.8878C36.51 29.8878 35.44 29.8878 34.3322 29.8878V28.7767H37.6656L37.6667 28.7778Z"
            fill="#A52968" />
        <path d="M22.1111 26.5555H24.3333V27.6667H22.1111V26.5555Z" fill="#FCFBF7" />
        <path d="M49.8889 26.5555V27.6667H47.6667V26.5555H49.8889Z" fill="#FCFBF7" />
        <path d="M24.3333 27.6667H26.5556V28.7778H24.3333V27.6667Z" fill="#FCFBF7" />
        <path d="M34.3333 28.7778H32.1111V27.6667H34.3333V28.7778Z" fill="#A52968" />
        <path d="M39.8889 27.6667V28.7778H37.6667V27.6667H39.8889Z" fill="#A52968" />
        <path d="M45.4444 28.7778V27.6667H47.6667V28.7778H45.4444Z" fill="#FCFBF7" />
        <path d="M26.5556 28.7778H28.7778V29.8889H26.5556V28.7778Z" fill="#FCFBF7" />
        <path d="M43.2222 29.8889V28.7778H45.4444V29.8889H43.2222Z" fill="#FCFBF7" />
        <path d="M28.7778 29.8889H31V31H28.7778V29.8889Z" fill="#FCFBF7" />
        <path d="M41 31V29.8889H43.2222V31H41Z" fill="#FCFBF7" />
        <path d="M31 31H33.2222V32.1111H31V31Z" fill="#FCFBF7" />
        <path d="M38.7778 32.1111V31H41V32.1111H38.7778Z" fill="#FCFBF7" />
        <path d="M35.4444 33.2222H33.2222V32.1111H35.4444V33.2222Z" fill="#FCFBF7" />
        <path d="M38.7778 33.2222H36.5556V32.1111H38.7778V33.2222Z" fill="#FCFBF7" />
        <path d="M42.1111 25.4445V26.5556H41V25.4445H42.1111Z" fill="#A52968" />
        <path d="M42.1111 25.4444H41V24.3333H42.1111V25.4444Z" fill="#3C0733" />
        <path d="M41 26.5555V27.6667H39.8889V26.5555H41Z" fill="#A52968" />
        <path d="M31 26.5556H29.8889V25.4445H31V26.5556Z" fill="#A52968" />
        <path d="M31 25.4444H29.8889V24.3333H31V25.4444Z" fill="#3C0733" />
        <path d="M43.2222 23.2222V24.3333H42.1111V23.2222H43.2222Z" fill="#A52968" />
        <path d="M32.1111 27.6667H31V26.5555H32.1111V27.6667Z" fill="#A52968" />
        <path d="M43.2222 23.2222H42.1111V22.1111H43.2222V23.2222Z" fill="#3C0733" />
        <path d="M49.8889 51H47.6667V49.8889H49.8889V51Z" fill="#FAC5D2" />
        <path
            d="M29.8889 42.1111V43.2044C29.5344 43.2467 29.1711 43.2056 28.7956 43.2278V44.3056H25.4633V43.2378H24.3344V39.8878H25.4456V38.7767H28.7644V39.8722H29.89V42.11L29.8889 42.1111Z"
            fill="#FCFBF7" />
        <path
            d="M17.6667 27.6667H18.7778V28.7778H19.8889V29.87C19.7156 29.8767 19.5389 29.8855 19.3622 29.8889C19.18 29.8922 18.9978 29.8889 18.7967 29.8889V30.98C18.6033 30.9867 18.4267 30.9955 18.25 30.9989C18.0678 31.0022 17.8856 30.9989 17.6856 30.9989V29.9067C17.4922 29.9 17.3156 29.8911 17.1378 29.8878C16.9556 29.8844 16.7733 29.8878 16.5733 29.8878V28.7955C16.9089 28.7467 17.2722 28.8 17.6656 28.7622V27.6644L17.6667 27.6667Z"
            fill="#FCFBF7" />
        <path d="M22.1111 34.3333H23.2222V37.6666H22.1111V34.3333Z" fill="#FCFBF7" />
        <path
            d="M18.7778 34.3333V33.28C18.79 33.2667 18.8011 33.2511 18.8167 33.2411C18.83 33.2322 18.8478 33.2233 18.8644 33.2233C19.9344 33.2233 21.0044 33.2233 22.1122 33.2233V34.3344H18.7789L18.7778 34.3333Z"
            fill="#FCFBF7" />
        <path d="M18.7778 37.6666H17.6667V34.3333H18.7778V37.6666Z" fill="#FCFBF7" />
        <path d="M22.1111 28.7778H19.8889V27.6667H22.1111V28.7778Z" fill="#B51E64" />
        <path d="M24.3333 29.8889H22.1111V28.7778H24.3333V29.8889Z" fill="#B51E64" />
        <path d="M26.5556 31H24.3333V29.8889H26.5556V31Z" fill="#B51E64" />
        <path d="M28.7778 32.1111H26.5556V31H28.7778V32.1111Z" fill="#B51E64" />
        <path d="M31 33.2222H28.7778V32.1111H31V33.2222Z" fill="#B51E64" />
        <path d="M33.2222 33.2222V34.3333H31V33.2222H33.2222Z" fill="#B51E64" />
        <path d="M22.1111 37.6667H24.3333V38.7778H22.1111V37.6667Z" fill="#E73375" />
        <path d="M29.8889 42.1111V41H32.1111V42.1111H29.8889Z" fill="#E73375" />
        <path d="M34.3333 43.2222H32.1111V42.1111H34.3333V43.2222Z" fill="#E73375" />
        <path d="M17.6667 36.5555V37.6667H16.5556V36.5555H17.6667Z" fill="#E73375" />
        <path d="M25.4444 38.7778V39.8889H24.3333V38.7778H25.4444Z" fill="#E73375" />
        <path
            d="M17.6667 46.5556V44.3333H18.7778V43.2222H20.9744C21.0344 43.5756 20.9722 43.9389 21.0156 44.3333H22.1111V46.5678H20.9922V47.6667H18.7778V46.5556H17.6667Z"
            fill="#FCFBF7" />
        <path
            d="M33.2111 45.4245V46.5422H32.1211V47.6534H31.0211V46.5834C30.6467 46.5222 30.2811 46.5822 29.9067 46.5422V45.4578H30.99V44.3567H32.1078V45.4256H33.2111V45.4245Z"
            fill="#FCFBF7" />
        <path d="M22.1111 37.6667V38.7778H18.7778V37.6667H22.1111Z" fill="#FCFBF7" />
        <path d="M18.7778 43.2222V44.3333H16.5556V43.2222H18.7778Z" fill="#FD6089" />
        <path d="M24.3333 46.5555H26.5556V47.6667H24.3333V46.5555Z" fill="#FD6089" />
        <path d="M26.5556 47.6667H28.7778V48.7778H26.5556V47.6667Z" fill="#FD6089" />
        <path d="M28.7778 48.7778H31V49.8889H28.7778V48.7778Z" fill="#FD6089" />
        <path d="M31 49.8889H33.2222V51H31V49.8889Z" fill="#FD6089" />
        <path d="M22.1111 45.4444V44.3333H23.2222V45.4444H22.1111Z" fill="#FD6089" />
        <path d="M23.2222 45.4445H24.3333V46.5556H23.2222V45.4445Z" fill="#FD6089" />
        <path
            d="M23.2222 45.4445V46.5556H24.3333V47.6667H26.5556V48.7778H28.7778V49.8889H31V52.0956C30.6067 52.1367 30.2422 52.0778 29.8889 52.1345V53.2222H28.7778V52.1111H26.5556V51H24.3333V49.9467C24.3211 49.9333 24.31 49.9178 24.2956 49.9078C24.2822 49.8989 24.2644 49.89 24.2478 49.89C23.5478 49.89 22.8489 49.89 22.13 49.89V48.8489C22.1 48.8211 22.0878 48.8067 22.0722 48.7978C22.0578 48.7889 22.04 48.7811 22.0244 48.7811C21.3244 48.7811 20.6256 48.7811 19.8889 48.7811V47.67H20.9922V46.5711H22.1111V45.4478H23.2222V45.4445Z"
            fill="#FFA4C8" />
        <path d="M24.3333 51H26.5556V52.1111H24.3333V51Z" fill="#FAC5D2" />
        <path d="M17.6667 46.5555H18.7778V47.6667H17.6667V46.5555Z" fill="#FFA4C8" />
        <path d="M22.1111 27.6667H19.8889V26.5555H22.1111V27.6667Z" fill="#991553" />
        <path d="M19.8889 27.6667V28.7778H18.7778V27.6667H19.8889Z" fill="#CD1372" />
        <path d="M32.1111 24.3333H37.6667V25.4444H32.1111V24.3333Z" fill="#AD0261" />
        <path d="M37.6667 24.3333V23.23H38.7656V22.1111H39.8889V24.3333H37.6667Z" fill="#AD0261" />
        <path d="M39.8889 21H41V22.1111H39.8889V21Z" fill="#AD0261" />
        <path d="M32.1111 24.3333V25.4444H31V24.3333H32.1111Z" fill="#0D1615" />
        <path d="M45.4444 16.5555V17.6667H43.2222V16.5555H45.4444Z" fill="#118D0A" />
        <path d="M41 22.1111V21H42.1111V22.1111H41Z" fill="#901781" />
        <path d="M43.2222 54.3333H41V53.2222H43.2222V54.3333Z" fill="#FAC5D2" />
        <path
            d="M29.8889 53.2222V52.1344C30.2422 52.0778 30.6067 52.1367 31 52.0956V51H32.1111V52.1111H33.2222V53.1989C32.8689 53.2556 32.5044 53.1967 32.1111 53.2378V54.3333H31V53.2222H29.8889Z"
            fill="#FCFBF7" />
        <path d="M31 54.3333H33.2222V55.4444H31V54.3333Z" fill="#FAC5D2" />
        <path d="M33.2222 52.1111H32.1111V51H33.2222V52.1111Z" fill="#FFA4C8" />
        <path d="M26.5556 52.1111H28.7778V53.2222H26.5556V52.1111Z" fill="#FAC5D2" />
        <path
            d="M46.5556 37.6667V38.7778H47.6667V39.8889H46.5556V41H43.2222V42.1111H41V38.7778H42.1111V37.6667H46.5556Z"
            fill="#CD1372" />
        <path d="M41 42.1111H43.2222V43.2222H41V42.1111Z" fill="#E73375" />
        <path
            d="M42.1111 43.2222H43.2222V42.1111H46.5556V41H47.6667V43.2222H46.5556V44.3333H42.1111V43.2222Z"
            fill="#FD4D78" />
        <path d="M47.6667 41H46.5556V39.8889H47.6667V41Z" fill="#E73375" />
        <path d="M47.6667 28.7778V27.6667H49.8889V28.7778H47.6667Z" fill="#991553" />
        <path d="M45.4444 29.8889V28.7778H47.6667V29.8889H45.4444Z" fill="#991553" />
        <path d="M43.2222 31V29.8889H45.4444V31H43.2222Z" fill="#991553" />
        <path d="M52.1111 33.2222H49.8889V31H52.1111V33.2222Z" fill="#CD1372" />
        <path d="M41 32.1111V31H43.2222V32.1111H41Z" fill="#991553" />
        <path d="M38.7778 33.2222V32.1111H41V33.2222H38.7778Z" fill="#991553" />
        <path d="M37.6667 27.6667V28.7778H34.3333V27.6667H37.6667Z" fill="#3C0733" />
        <path d="M24.3333 28.7778H22.1111V27.6667H24.3333V28.7778Z" fill="#991553" />
        <path d="M26.5556 29.8889H24.3333V28.7778H26.5556V29.8889Z" fill="#991553" />
        <path d="M32.1111 27.6667V26.5555H34.3333V27.6667H32.1111Z" fill="#3C0733" />
        <path d="M39.8889 26.5555V27.6667H37.6667V26.5555H39.8889Z" fill="#3C0733" />
        <path d="M28.7778 31H26.5556V29.8889H28.7778V31Z" fill="#991553" />
        <path d="M31 32.1111H28.7778V31H31V32.1111Z" fill="#991553" />
        <path d="M33.2222 33.2222H31V32.1111H33.2222V33.2222Z" fill="#991553" />
        <path d="M41 26.5556H39.8889V25.4445H41V26.5556Z" fill="#3C0733" />
        <path d="M41 22.1111H42.1111V24.3333H41V22.1111Z" fill="#0D1615" />
        <path d="M41 25.4444H39.8889V24.3333H41V25.4444Z" fill="#0D1615" />
        <path d="M31 25.4445H32.1111V26.5556H31V25.4445Z" fill="#3C0733" />
        <path d="M22.1111 37.6666H21V36.5555H18.7778V34.3333H22.1111V37.6666Z" fill="#CD1372" />
        <path d="M18.7778 36.5555H21V37.6667H18.7778V36.5555Z" fill="#E73375" />
        <path d="M34.3333 25.4445H37.6667V26.5556H34.3333V25.4445Z" fill="#901781" />
        <path d="M39.8889 24.3333V25.4444H37.6667V24.3333H39.8889Z" fill="#901781" />
        <path d="M34.3333 25.4445V26.5556H32.1111V25.4445H34.3333Z" fill="#0D1615" />
        <path d="M41 24.3333H39.8889V22.1111H41V24.3333Z" fill="#901781" />
        <path d="M46.5556 41V42.1111H43.2222V41H46.5556Z" fill="#E73375" />
        <path d="M34.3333 26.5555H37.6667V27.6667H34.3333V26.5555Z" fill="#0D1615" />
        <path d="M37.6667 25.4445H39.8889V26.5556H37.6667V25.4445Z" fill="#0D1615" />
    </g>
    <defs>
        <filter id="filter0_d_2788_3721" x="0" y="0" width="73" height="73"
            filterUnits="userSpaceOnUse" color-interpolation-filters="sRGB">
            <feFlood flood-opacity="0" result="BackgroundImageFix" />
            <feColorMatrix in="SourceAlpha" type="matrix"
                values="0 0 0 0 0 0 0 0 0 0 0 0 0 0 0 0 0 0 127 0" result="hardAlpha" />
            <feOffset dx="1" dy="1" />
            <feComposite in2="hardAlpha" operator="out" />
            <feColorMatrix type="matrix" values="0 0 0 0 0 0 0 0 0 0 0 0 0 0 0 0 0 0 1 0" />
            <feBlend mode="normal" in2="BackgroundImageFix" result="effect1_dropShadow_2788_3721" />
            <feBlend mode="normal" in="SourceGraphic" in2="effect1_dropShadow_2788_3721"
                result="shape" />
        </filter>
        <clipPath id="clip0_2788_3721">
            <rect width="50" height="50" fill="white" transform="translate(11 11)" />
        </clipPath>
    </defs>
</svg>
    