<svg width="73" height="73" viewBox="0 0 73 73" fill="none" xmlns="http://www.w3.org/2000/svg">
    <g filter="url(#filter0_d_2788_4002)">
        <rect width="72" height="72" fill="#D3FBFE" />
        <rect x="1" y="1" width="70" height="70" stroke="#0D1615" stroke-width="2" />
    </g>
    <g clip-path="url(#clip0_2788_4002)">
        <path
            d="M13.439 21.946V20.8198C13.4524 20.8055 13.4634 20.7889 13.4805 20.777C13.4951 20.7663 13.5146 20.7568 13.5317 20.7568C16.7524 20.7568 19.9744 20.7568 23.1951 20.7568V33.8379H20.7561V32.6487H21.95V25.5266H18.3171V30.2703H17.1232V24.3243C17.9573 24.3243 18.7659 24.3291 19.5744 24.3232C20.3756 24.3172 21.1768 24.3493 21.9756 24.3017V21.946H13.439Z"
            fill="#0D1615" />
        <path
            d="M48.8049 20.7568H58.561V21.946C55.7463 21.946 52.9317 21.946 50.1158 21.946C50.0988 21.946 50.0793 21.9555 50.0646 21.9662C50.0488 21.9769 50.0378 21.9947 50.0244 22.009V24.3398H54.9024C54.9024 26.3103 54.9024 28.2451 54.9024 30.1799C54.9024 30.1966 54.8927 30.2156 54.8817 30.2299C54.8707 30.2453 54.8537 30.256 54.8378 30.2691H53.6829V25.5373H50.0244C50.0244 27.8943 50.0244 30.2251 50.0244 32.5559C50.0244 32.5726 50.0341 32.5916 50.0451 32.607C50.0561 32.6225 50.0732 32.6344 50.0878 32.6475H51.2427V33.8367H48.8036V20.7568H48.8049Z"
            fill="#0D1615" />
        <path
            d="M23.1951 20.7568V19.6271C23.75 19.5355 46.45 19.4974 48.8049 19.5866V20.7568H23.1951Z"
            fill="#0D1615" />
        <path
            d="M46.3659 55.2432V56.373C45.8134 56.4645 26.7354 56.5014 24.4146 56.4134V55.2432H46.3659Z"
            fill="#0D1615" />
        <path
            d="M31.7317 45.7298V42.1836C31.5415 42.1765 31.3488 42.1669 31.1549 42.1634C30.9549 42.1598 30.7537 42.1634 30.5122 42.1634V40.9742H41.4878V42.1087C41.4756 42.1194 41.4622 42.1336 41.4451 42.1443C41.4293 42.1539 41.4098 42.1634 41.3927 42.1634C40.6244 42.1634 39.8561 42.1634 39.0488 42.1634V45.7309H37.8293V42.1634H32.9512C32.9512 43.3478 32.9512 44.493 32.9512 45.6382C32.9512 45.6548 32.9415 45.6739 32.9317 45.6893C32.922 45.706 32.9061 45.719 32.8951 45.7309H31.7317V45.7298Z"
            fill="#0D1615" />
        <path
            d="M13.439 31.4594H12.2817C12.1903 30.9409 12.1585 23.9604 12.2403 21.9459H13.439V31.4594Z"
            fill="#0D1615" />
        <path
            d="M58.561 21.9459H59.7183C59.8098 22.4644 59.8415 29.4449 59.7598 31.4594H58.561V21.9459Z"
            fill="#0D1615" />
        <path
            d="M46.3658 50.4865H47.5232C47.611 50.9776 47.6354 53.5606 47.5646 55.2433H46.3658V50.4865Z"
            fill="#0D1615" />
        <path
            d="M24.4146 55.2433H23.2573C23.1695 54.7521 23.1451 52.1692 23.2158 50.4865H24.4146V55.2433Z"
            fill="#0D1615" />
        <path d="M47.5854 39.7838H45.1463V38.5946H47.5854V39.7838Z" fill="#0D1615" />
        <path
            d="M24.4146 39.7838V40.9516C23.6171 40.9992 22.8171 40.9587 21.9756 40.9778V39.785H24.4146V39.7838Z"
            fill="#0D1615" />
        <path
            d="M50.0244 39.7838V40.9516C49.2268 40.9992 48.4268 40.9587 47.5854 40.9778V39.785H50.0244V39.7838Z"
            fill="#0D1615" />
        <path d="M28.0732 48.1081V46.9189H30.5122V48.1081H28.0732Z" fill="#0D1615" />
        <path d="M40.2683 46.9189H42.7073V48.1081H40.2683V46.9189Z" fill="#0D1615" />
        <path d="M25.6342 49.2973V48.1081H28.0732V49.2973H25.6342Z" fill="#0D1615" />
        <path d="M42.7073 48.1081H45.1463V49.2973H42.7073V48.1081Z" fill="#0D1615" />
        <path d="M26.8537 38.5946V39.7838H24.4146V38.5946H26.8537Z" fill="#0D1615" />
        <path d="M14.6585 32.6487H13.439V31.4595H14.6585V32.6487Z" fill="#0D1615" />
        <path d="M58.561 31.4595V32.6487H57.3415V31.4595H58.561Z" fill="#0D1615" />
        <path d="M15.8781 33.8378H14.6585V32.6486H15.8781V33.8378Z" fill="#0D1615" />
        <path d="M57.3415 32.6486V33.8378H56.1219V32.6486H57.3415Z" fill="#0D1615" />
        <path d="M17.0976 35.027H15.8781V33.8378H17.0976V35.027Z" fill="#0D1615" />
        <path d="M56.1219 33.8378V35.027H54.9024V33.8378H56.1219Z" fill="#0D1615" />
        <path d="M18.3171 36.2162H17.0976V35.027H18.3171V36.2162Z" fill="#0D1615" />
        <path d="M53.6829 36.2162V37.4054H52.4634V36.2162H53.6829Z" fill="#0D1615" />
        <path d="M20.7561 38.5946H19.5366V37.4054H20.7561V38.5946Z" fill="#0D1615" />
        <path d="M28.0732 38.5946H26.8537V37.4054H28.0732V38.5946Z" fill="#0D1615" />
        <path d="M45.1463 38.5946H43.9268V37.4054H45.1463V38.5946Z" fill="#0D1615" />
        <path d="M52.4634 37.4054V38.5946H51.2439V37.4054H52.4634Z" fill="#0D1615" />
        <path d="M21.9756 39.7838H20.7561V38.5946H21.9756V39.7838Z" fill="#0D1615" />
        <path d="M54.9024 35.027V36.2162H53.6829V35.027H54.9024Z" fill="#0D1615" />
        <path d="M29.2927 39.7838H28.0732V38.5946H29.2927V39.7838Z" fill="#0D1615" />
        <path d="M43.9268 38.5946V39.7838H42.7073V38.5946H43.9268Z" fill="#0D1615" />
        <path d="M19.5366 37.4054H18.3171V36.2162H19.5366V37.4054Z" fill="#0D1615" />
        <path d="M51.2439 38.5946V39.7838H50.0244V38.5946H51.2439Z" fill="#0D1615" />
        <path d="M30.5122 40.973H29.2927V39.7838H30.5122V40.973Z" fill="#0D1615" />
        <path d="M42.7073 39.7838V40.973H41.4878V39.7838H42.7073Z" fill="#0D1615" />
        <path d="M39.0488 45.7297H40.2683V46.9189H39.0488V45.7297Z" fill="#0D1615" />
        <path d="M24.4146 50.4865V49.2973H25.6342V50.4865H24.4146Z" fill="#0D1615" />
        <path d="M45.1463 49.2973H46.3658V50.4865H45.1463V49.2973Z" fill="#0D1615" />
        <path d="M30.5122 46.9189V45.7297H31.7317V46.9189H30.5122Z" fill="#0D1615" />
        <path
            d="M43.9268 20.7568H47.5854V30.2846H46.3476V31.4595C46.1268 31.4595 45.9268 31.4571 45.7268 31.4595C45.5317 31.463 45.3366 31.4726 45.1244 31.4797V32.6522H43.9207V33.8462H42.6963V35.0401H41.472V36.2341H40.2842C40.2403 36.636 40.3061 37.0261 40.239 37.4268H39.0451V38.5934H30.5134V37.4042H29.2939V36.215H28.0744V35.0259H26.8549V33.8367H25.6354V32.6475H24.4159V31.4583H23.1964V21.946H25.6378V23.1411H26.8646V24.3374H28.0903V32.6665H29.3159V33.8414H30.5207V35.0377H31.7476V36.1984H32.9305C33.0024 34.7452 32.9781 31.9387 32.8866 31.4393H31.7463V24.3196H32.9634V23.1233H34.1903V21.9472C37.4183 21.9472 40.6256 21.9472 43.8329 21.9472C43.8512 21.9472 43.8707 21.9388 43.8854 21.9293C43.9024 21.9186 43.9146 21.902 43.9293 21.8901V20.7592L43.9268 20.7568ZM39.0378 26.6825H37.8268V25.51H36.6024V24.3505H35.3781V25.5278H34.1537V26.7217H32.9695V27.88C33.3817 27.9228 33.7817 27.8586 34.1915 27.924V29.0882H35.3951V30.2584H36.6195V29.0704H37.8439V27.8765H39.0366V26.6837L39.0378 26.6825Z"
            fill="#FDBF39" />
        <path
            d="M43.9268 20.7568V21.8877C43.9134 21.9008 43.9 21.9174 43.8829 21.9269C43.8671 21.9364 43.8476 21.9448 43.8305 21.9448C40.6232 21.9448 37.4159 21.9448 34.1878 21.9448V23.1209H32.961V24.3172H31.7439V31.4369H32.8842C32.9756 31.9363 32.9988 34.7428 32.9281 36.196H31.7451V35.0354H30.5183V33.839H29.3134V32.6641H28.0878V24.335H26.8622V23.1387H25.6354V21.9436H23.1939V20.7544H43.9256L43.9268 20.7568Z"
            fill="#FEFEF9" />
        <path
            d="M13.439 27.8919V26.7027H14.6585C14.6585 25.9131 14.6585 25.1639 14.6585 24.4147C14.6585 24.3981 14.6683 24.379 14.6793 24.3648C14.6902 24.3493 14.7085 24.3386 14.7476 24.3029H15.8817V23.1351H21.9744V24.3017C21.1756 24.3493 20.3744 24.3172 19.5732 24.3231C18.7646 24.3291 17.9561 24.3243 17.122 24.3243V30.2703H18.3159V31.4595H19.5354V32.6486H20.7549V33.8378H23.1939V35.027H21.9744V36.2162H20.7549V35.027H19.5354V33.8378H18.3159V32.6486H17.0963V31.4595H15.8768V30.2703H14.6573V27.8919H13.4378H13.439Z"
            fill="#FDBF39" />
        <path
            d="M21.9756 23.1351H15.8829V24.3029H14.7488C14.7098 24.3374 14.6915 24.3493 14.6805 24.3647C14.6695 24.379 14.6598 24.398 14.6598 24.4147C14.6598 25.1639 14.6598 25.9131 14.6598 26.7027H13.4402V21.9459H21.9768V23.1351H21.9756Z"
            fill="#FEFEF9" />
        <path d="M23.1951 31.4595H24.4146V32.6487H23.1951V31.4595Z" fill="#D55B02" />
        <path d="M23.1951 32.6486H24.4146V33.8378H23.1951V32.6486Z" fill="#963000" />
        <path
            d="M30.5122 38.5946H39.0439V37.428H40.2378C40.3049 37.0285 40.239 36.6372 40.2829 36.2353H41.4707V35.0413H42.6951V33.8474H43.9195V32.6534H45.1232V31.4809C45.3366 31.4737 45.5317 31.4642 45.7256 31.4607C45.9256 31.4571 46.1256 31.4607 46.3464 31.4607V30.2857H47.5842V20.7568H48.8037V31.4595H47.5805V32.6546H46.3549V33.8497H45.1293V35.014C44.7159 35.052 44.3146 34.9949 43.9037 35.0532V36.2198H42.6988V37.4149H41.4732V38.6101H40.2829C40.2403 39.0132 40.3049 39.4033 40.2427 39.7814H30.5134V38.5922L30.5122 38.5946Z"
            fill="#D55B02" />
        <path
            d="M58.561 26.7027V27.8919H57.3415V30.2703H56.1219V31.4595H54.9024V32.6487H53.6829V33.8379H52.4634V35.0271H51.2439V36.2162H50.0244V35.0271H48.8049V33.8379H51.2439V32.6487H52.4634V31.4595H53.6829V30.2703H54.8378C54.8524 30.2572 54.8695 30.2465 54.8817 30.2311C54.8927 30.2168 54.9024 30.1978 54.9024 30.1811C54.9024 28.2463 54.9024 26.3115 54.9024 24.341H50.0244V23.1364H56.139V24.3446H57.3415C57.3415 25.114 57.3415 25.8632 57.3415 26.6124C57.3415 26.629 57.35 26.6492 57.361 26.6635C57.3719 26.6789 57.389 26.6908 57.4037 26.7051H58.5597L58.561 26.7027Z"
            fill="#FDBF39" />
        <path
            d="M30.5122 39.7838H40.2415C40.3037 39.4056 40.239 39.0156 40.2817 38.6124H41.472V37.4173H42.6976V36.2222H43.9024V35.0556C44.3134 34.9973 44.7134 35.0544 45.1281 35.0163V33.8521H46.3537V32.657H47.5793V31.4619H48.8025V33.8402H47.5829V35.0294H46.3634V36.2186H45.1439V37.4078H43.9244V38.597H42.7049V39.7862H41.4854V40.9754H30.5098V39.7862L30.5122 39.7838Z"
            fill="#963000" />
        <path
            d="M58.561 26.7027H57.4049C57.3902 26.6896 57.3732 26.6777 57.3622 26.6611C57.3524 26.6468 57.3427 26.6278 57.3427 26.61C57.3427 25.8608 57.3427 25.1116 57.3427 24.3422H56.1402V23.134H50.0256V22.0078C50.039 21.9935 50.05 21.9769 50.0658 21.965C50.0805 21.9543 50.1 21.9448 50.1171 21.9448C52.9317 21.9448 55.7463 21.9448 58.5622 21.9448V26.7015L58.561 26.7027Z"
            fill="#FEFEF9" />
        <path
            d="M45.1464 49.2973V50.4865H46.3659V55.2433H24.4146V52.8649H28.0732C28.0732 52.6306 28.0707 52.4356 28.0732 52.2406C28.0768 52.0515 28.0866 51.8612 28.0939 51.6602H43.8976V50.471H41.5C41.4622 50.0679 41.5195 49.6779 41.4634 49.2985H40.2671V48.1093H42.7061V49.2985H45.1451L45.1464 49.2973Z"
            fill="#963000" />
        <path
            d="M30.5122 46.9189H31.7317V45.7297H32.8951C32.9061 45.7178 32.9207 45.7048 32.9317 45.6881C32.9415 45.6727 32.9512 45.6536 32.9512 45.637C32.9512 44.4918 32.9512 43.3466 32.9512 42.1622H35.3903V46.9261H36.6159V48.1081H39.0488V49.2973H40.2683V50.4865H25.6342V49.2973H28.0732V48.1081C28.8866 48.1081 29.6988 48.1081 30.522 48.1153C30.5317 48.497 30.5317 48.887 30.5317 49.2711H34.1561V48.1224C32.9317 48.1224 31.722 48.1224 30.522 48.1153C30.5122 47.7109 30.5122 47.3149 30.5122 46.9189Z"
            fill="#FDBF39" />
        <path
            d="M39.0488 48.1081H36.6159V46.9261H35.3903V42.1622H36.6098V43.3514H37.8293V46.9189H39.0488V48.1081Z"
            fill="#D55B02" />
        <path d="M37.8293 43.3514H36.6097V42.1622H37.8293V43.3514Z" fill="#963000" />
        <path d="M39.0488 46.9189H37.8293V45.7297H39.0488V46.9189Z" fill="#963000" />
        <path d="M13.439 27.8919H14.6585V30.2703H13.439V27.8919Z" fill="#D55B02" />
        <path d="M13.439 30.2703H14.6585V31.4595H13.439V30.2703Z" fill="#963000" />
        <path d="M57.3415 30.2703V27.8919H58.561V30.2703H57.3415Z" fill="#D55B02" />
        <path d="M57.3415 30.2703H58.561V31.4595H57.3415V30.2703Z" fill="#963000" />
        <path
            d="M25.6342 50.4865H40.2683V49.2973H41.4646C41.5207 49.6767 41.4622 50.0667 41.5012 50.4698H43.8988V51.659H28.0951C28.0878 51.8612 28.0781 52.0503 28.0744 52.2394C28.0707 52.4344 28.0744 52.6306 28.0744 52.8637H24.4159V50.4853H25.6354L25.6342 50.4865Z"
            fill="#D55B02" />
        <path d="M45.1463 38.5946V37.4054H46.3658V36.2162H47.5854V37.4054H48.8049V38.5946H45.1463Z"
            fill="#FDBF39" />
        <path d="M47.5854 38.5946H48.8049V39.7838H47.5854V38.5946Z" fill="#D55B02" />
        <path d="M21.9756 39.7838V38.5946H23.1951V39.7838H21.9756Z" fill="#963000" />
        <path d="M23.1951 39.7838V38.5946H24.4146V39.7838H23.1951Z" fill="#D55B02" />
        <path d="M48.8049 39.7838V38.5946H50.0244V39.7838H48.8049Z" fill="#963000" />
        <path d="M39.0488 48.1081V46.9189H40.2683V48.1081H39.0488Z" fill="#963000" />
        <path
            d="M24.4146 38.5946H23.1951V37.4054H24.4146V36.2162H25.6342V37.4054H26.8537V38.5946H24.4146Z"
            fill="#FDBF39" />
        <path d="M15.8781 32.6487H14.6585V31.4595H15.8781V32.6487Z" fill="#963000" />
        <path d="M57.3415 32.6487H56.1219V31.4595H57.3415V32.6487Z" fill="#963000" />
        <path d="M17.0976 33.8378H15.8781V32.6486H17.0976V33.8378Z" fill="#963000" />
        <path d="M56.1219 33.8378H54.9024V32.6486H56.1219V33.8378Z" fill="#963000" />
        <path d="M18.3171 35.027H17.0976V33.8378H18.3171V35.027Z" fill="#963000" />
        <path d="M54.9024 35.027H53.6829V33.8378H54.9024V35.027Z" fill="#963000" />
        <path d="M19.5366 36.2162H18.3171V35.027H19.5366V36.2162Z" fill="#963000" />
        <path d="M52.4634 37.4054H51.2439V36.2162H52.4634V37.4054Z" fill="#963000" />
        <path d="M53.6829 35.027V36.2162H52.4634V35.027H53.6829Z" fill="#963000" />
        <path d="M21.9756 38.5946H20.7561V37.4054H21.9756V38.5946Z" fill="#963000" />
        <path d="M19.5366 37.4054V36.2162H20.7561V37.4054H19.5366Z" fill="#963000" />
        <path d="M28.0732 37.4054H26.8537V36.2162H28.0732V37.4054Z" fill="#963000" />
        <path d="M29.2927 38.5946H28.0732V37.4054H29.2927V38.5946Z" fill="#963000" />
        <path d="M51.2439 38.5946H50.0244V37.4054H51.2439V38.5946Z" fill="#963000" />
        <path d="M30.5122 38.5946V39.7838H29.2927V38.5946H30.5122Z" fill="#963000" />
        <path
            d="M39.0378 26.6825V27.8753H37.8451V29.0692H36.6207V30.2572H35.3963V29.087H34.1927V27.9228C33.7829 27.8574 33.3829 27.9228 32.9707 27.8788V26.7205H34.1549V25.5266H35.3793V24.3493H36.6037V25.5088H37.8281V26.6813H39.039L39.0378 26.6825Z"
            fill="#FFFEF3" />
        <path d="M24.4146 33.8378V32.6486H25.6342V33.8378H24.4146Z" fill="#D55B02" />
        <path d="M25.6342 33.8378H26.8537V35.027H25.6342V33.8378Z" fill="#D55B02" />
        <path d="M29.2927 37.4054H28.0732V36.2162H29.2927V37.4054Z" fill="#D55B02" />
        <path d="M30.5122 38.5946H29.2927V37.4054H30.5122V38.5946Z" fill="#D55B02" />
        <path d="M28.0732 36.2162H26.8537V35.027H28.0732V36.2162Z" fill="#D55B02" />
        <path d="M15.8781 31.4595H14.6585V30.2703H15.8781V31.4595Z" fill="#D55B02" />
        <path d="M18.3171 30.2703H19.5366V31.4595H18.3171V30.2703Z" fill="#0D1615" />
        <path d="M17.0976 32.6487H15.8781V31.4595H17.0976V32.6487Z" fill="#D55B02" />
        <path d="M19.5366 31.4595H20.7561V32.6487H19.5366V31.4595Z" fill="#0D1615" />
        <path d="M18.3171 33.8378H17.0976V32.6486H18.3171V33.8378Z" fill="#D55B02" />
        <path d="M19.5366 35.027H18.3171V33.8378H19.5366V35.027Z" fill="#D55B02" />
        <path d="M23.1951 33.8378H24.4146V35.027H23.1951V33.8378Z" fill="#0D1615" />
        <path d="M20.7561 37.4054V36.2162H21.9756V37.4054H20.7561Z" fill="#D55B02" />
        <path d="M21.9756 36.2162V35.027H23.1951V36.2162H21.9756Z" fill="#FEFEF9" />
        <path d="M20.7561 36.2162H19.5366V35.027H20.7561V36.2162Z" fill="#D55B02" />
        <path d="M52.4634 31.4595V30.2703H53.6829V31.4595H52.4634Z" fill="#0D1615" />
        <path d="M57.3415 31.4595H56.1219V30.2703H57.3415V31.4595Z" fill="#D55B02" />
        <path d="M51.2439 32.6487V31.4595H52.4634V32.6487H51.2439Z" fill="#0D1615" />
        <path d="M56.1219 32.6487H54.9024V31.4595H56.1219V32.6487Z" fill="#D55B02" />
        <path d="M54.9024 33.8378H53.6829V32.6486H54.9024V33.8378Z" fill="#D55B02" />
        <path d="M47.5854 35.027V33.8378H48.8049V35.027H47.5854Z" fill="#0D1615" />
        <path d="M53.6829 35.027H52.4634V33.8378H53.6829V35.027Z" fill="#D55B02" />
        <path d="M48.8049 35.027H50.0244V36.2162H48.8049V35.027Z" fill="#FEFEF9" />
        <path d="M51.2439 37.4054H50.0244V36.2162H51.2439V37.4054Z" fill="#D55B02" />
        <path d="M52.4634 35.027V36.2162H51.2439V35.027H52.4634Z" fill="#D55B02" />
        <path d="M46.3658 36.2162V37.4054H45.1463V36.2162H46.3658Z" fill="#0D1615" />
        <path d="M47.5854 36.2162H46.3658V35.027H47.5854V36.2162Z" fill="#0D1615" />
        <path d="M39.0488 48.1081H40.2683V49.2973H39.0488V48.1081Z" fill="#D55B02" />
        <path d="M30.5317 48.1236H34.1561V49.2724H30.5317V48.1236Z" fill="#FEFEF9" />
        <path d="M48.8049 37.4054H47.5854V36.2162H48.8049V37.4054Z" fill="#FEFEF9" />
        <path d="M50.0244 37.4054V38.5946H48.8049V37.4054H50.0244Z" fill="#D55B02" />
        <path d="M21.9756 38.5946V37.4054H23.1951V38.5946H21.9756Z" fill="#D55B02" />
        <path d="M24.4146 36.2162V37.4054H23.1951V36.2162H24.4146Z" fill="#FEFEF9" />
        <path d="M25.6342 36.2162H24.4146V35.027H25.6342V36.2162Z" fill="#0D1615" />
        <path d="M26.8537 36.2162V37.4054H25.6342V36.2162H26.8537Z" fill="#0D1615" />
        <path d="M25.6342 35.027H24.4146V33.8378H25.6342V35.027Z" fill="#963000" />
        <path d="M26.8537 36.2162H25.6342V35.027H26.8537V36.2162Z" fill="#963000" />
        <path d="M24.4146 35.027V36.2162H23.1951V35.027H24.4146Z" fill="#FDBF39" />
        <path d="M23.1951 36.2162V37.4054H21.9756V36.2162H23.1951Z" fill="#FDBF39" />
        <path d="M48.8049 36.2162H47.5854V35.027H48.8049V36.2162Z" fill="#FDBF39" />
        <path d="M50.0244 37.4054H48.8049V36.2162H50.0244V37.4054Z" fill="#FDBF39" />
    </g>
    <defs>
        <filter id="filter0_d_2788_4002" x="0" y="0" width="73" height="73"
            filterUnits="userSpaceOnUse" color-interpolation-filters="sRGB">
            <feFlood flood-opacity="0" result="BackgroundImageFix" />
            <feColorMatrix in="SourceAlpha" type="matrix"
                values="0 0 0 0 0 0 0 0 0 0 0 0 0 0 0 0 0 0 127 0" result="hardAlpha" />
            <feOffset dx="1" dy="1" />
            <feComposite in2="hardAlpha" operator="out" />
            <feColorMatrix type="matrix" values="0 0 0 0 0 0 0 0 0 0 0 0 0 0 0 0 0 0 1 0" />
            <feBlend mode="normal" in2="BackgroundImageFix" result="effect1_dropShadow_2788_4002" />
            <feBlend mode="normal" in="SourceGraphic" in2="effect1_dropShadow_2788_4002"
                result="shape" />
        </filter>
        <clipPath id="clip0_2788_4002">
            <rect width="50" height="44" fill="white" transform="translate(11 16)" />
        </clipPath>
    </defs>
</svg>
    