<svg width="390" height="400" viewBox="0 0 390 400" fill="none" xmlns="http://www.w3.org/2000/svg">
    <g clip-path="url(#clip0_2572_3301)">
        <path d="M49.9998 380H40.4998C39.7198 375.38 39.3898 40.06 40.1598 20H49.9998V380Z"
            fill="black" />
        <path d="M350 20H359.5C360.28 24.62 360.61 359.94 359.84 380H350V20Z" fill="black" />
        <path d="M50 20V10.5C54.6 9.71999 330.16 9.39999 350 10.16V20H50Z" fill="black" />
        <path d="M350 380V389.5C345.4 390.28 69.84 390.6 50 389.84V380H350Z" fill="black" />
        <path
            d="M350 380H50V20H350V380ZM70 31C69.74 30.67 69.48 30.05 69.21 30.04C66.24 29.97 63.27 30 60.15 30V369.79H339.91C340.75 333.78 340.38 35.17 339.5 30H76.08C75.08 30 74.06 29.87 73.09 30.04C72.04 30.22 71.03 30.67 70 31Z"
            fill="#D9D9D9" />
        <path
            d="M329 30H339.5C340.38 35.18 340.75 333.79 339.91 369.79H60.1499V30C63.2699 30 66.2399 29.97 69.2099 30.04C69.4799 30.04 69.7399 30.66 69.9999 31C69.3199 34.11 70.8999 36.97 70.9999 40C68.8099 41 70.0599 42.9 70.0599 44.29C69.9899 131.6 69.9999 218.9 69.9999 306.21C69.9999 307.48 70.0899 308.75 70.1399 310H329.99V43.79C329.99 42.79 330.07 41.78 329.94 40.8C329.9 40.5 329.32 40.27 328.99 40V30H329ZM189.97 359.82H210.03V349.94H219.87V329.88H209.86V319.96C203.12 320.13 196.55 319.76 189.82 320.2V330.05H180.23V350.11H189.98V359.82H189.97Z"
            fill="#FFFFF3" />
        <path
            d="M71 40C70.9 36.97 69.32 34.11 70 31C71.03 30.67 72.04 30.21 73.09 30.04C74.06 29.88 75.08 30 76.08 30H329V40H71Z"
            fill="#FEFEE7" />
        <path
            d="M320 310H80V50.18C97.94 49.4 315.65 49.73 320 50.53V310ZM110 110H100C100 111.97 99.98 113.61 100 115.25C100.03 116.84 100.11 118.44 100.16 120H119.99V100C118.02 100 116.38 99.98 114.74 100C113.15 100.03 111.55 100.11 109.99 100.16V109.99L110 110ZM300 150V140C298.03 140 296.39 139.98 294.75 140C293.16 140.03 291.56 140.11 290 140.16V149.99H280C280 151.96 279.98 153.6 280 155.24C280.03 156.83 280.11 158.43 280.16 159.99H289.99V169.99C291.96 169.99 293.6 170.01 295.24 169.99C296.83 169.96 298.43 169.88 299.99 169.83V160H309.99C309.99 158.03 310.01 156.39 309.99 154.75C309.96 153.16 309.88 151.56 309.83 150H300ZM100 150H90C90 151.97 89.98 153.61 90 155.25C90.03 156.84 90.11 158.44 90.16 160H99.99V170C101.96 170 103.6 170.02 105.24 170C106.83 169.97 108.43 169.89 109.99 169.84V160.01H119.99C119.99 158.04 120.01 156.4 119.99 154.76C119.96 153.17 119.88 151.57 119.83 150.01H110V140.01C108.03 140.01 106.39 139.99 104.75 140.01C103.16 140.04 101.56 140.12 100 140.17V150ZM290 110V100C288.03 100 286.39 99.98 284.75 100C283.16 100.03 281.56 100.11 280 100.16V119.99H300C300 118.02 300.02 116.38 300 114.74C299.97 113.15 299.89 111.55 299.84 109.99H290.01L290 110ZM290 80H300C300 78.03 300.02 76.39 300 74.75C299.97 73.16 299.89 71.56 299.84 70H280.01V90C281.98 90 283.62 90.02 285.26 90C286.85 89.97 288.45 89.89 290.01 89.84V80.01L290 80ZM110 80V90C111.97 90 113.61 90.02 115.25 90C116.84 89.97 118.44 89.89 120 89.84V70.01H100C100 71.98 99.98 73.62 100 75.26C100.03 76.85 100.11 78.45 100.16 80.01H109.99L110 80ZM170 190V200H159.9V220.05H150V230H140.17C139.59 244.28 139.79 265.88 140.55 270.18H150.03V279.85H249.9C250.21 276.48 249.74 273.2 250.2 270.01H279.86C280.25 266.47 279.69 263.19 280.26 259.82H289.87C290.52 239.74 290.27 194.45 289.45 189.83H279.97V180.21H269.93V190.1H260.13V210.13H269.84V220.01C268.05 220.01 266.41 219.99 264.77 220.01C263.17 220.04 261.57 220.11 260 220.17V230H250V219.87H239.92V200H230V190H240V170H250V160H259.86C260.25 156.45 259.69 153.18 260.26 149.82H270.01C270.01 143.01 270.01 136.37 270.01 129.74C270.01 123.16 270.04 116.57 269.98 109.83H260.01C260.01 103.36 260.01 97.07 260.01 90.77C260.01 90.63 259.93 90.47 259.85 90.34C259.76 90.21 259.62 90.11 259.5 90H250.02V79.97C243.12 80.12 236.56 79.79 230.02 80.19V90.01H220.16C219.77 93.56 220.33 96.83 219.82 99.85H180.13C179.8 96.47 180.3 93.2 179.81 90.01H170.02V79.98C163.12 80.13 156.56 79.8 150.02 80.2V90.02H140.02C140.02 96.65 140.02 102.95 140.02 109.24C140.02 109.38 139.94 109.54 139.86 109.67C139.78 109.81 139.65 109.92 139.41 110.19H130.27V150.17H139.91C140.25 153.55 139.74 156.83 140.23 160.01H150.02V170.01H160.02V190.01H170.02L170 190Z"
            fill="#FFDB44" />
        <path
            d="M320 310V50.53C315.65 49.73 97.94 49.4 80 50.18V310H70.15C70.1 308.75 70.01 307.48 70.01 306.21C70.01 218.9 70 131.6 70.07 44.29C70.07 42.9 68.82 41 71.01 40H329.01C329.34 40.26 329.93 40.5 329.96 40.8C330.08 41.78 330.01 42.79 330.01 43.79V310H320.01H320Z"
            fill="#FFF0B0" />
        <path
            d="M189.97 359.82V350.11H180.22V330.05H189.81V320.2C196.55 319.76 203.12 320.12 209.85 319.96V329.88H219.86V349.94H210.02V359.82H189.96H189.97Z"
            fill="#FF4F96" />
        <path
            d="M150 160H140.21C139.72 156.82 140.23 153.54 139.89 150.16H130.25V110.18H139.39C139.63 109.91 139.76 109.8 139.84 109.66C139.92 109.53 140 109.37 140 109.23C140 102.93 140 96.64 140 90.01H150V109.76H160.17V100.13C163.55 99.78 166.82 100.31 170 99.8V90.01H179.79C180.27 93.19 179.77 96.47 180.11 99.85H219.8C220.32 96.84 219.75 93.56 220.14 90.01H230V99.87C233.54 100.24 236.82 99.71 240.18 100.25V109.91H250V90H259.48C259.6 90.11 259.74 90.21 259.83 90.34C259.91 90.46 259.99 90.62 259.99 90.77C259.99 97.07 259.99 103.36 259.99 109.83H269.96C270.02 116.57 269.98 123.16 269.99 129.74C269.99 136.37 269.99 143 269.99 149.82H260.24C259.68 153.18 260.24 156.46 259.84 160C256.55 160 253.26 160 249.91 159.93C249.83 156.72 249.83 153.45 249.83 150.21H230.1V159.87C236.8 159.87 243.39 159.87 249.9 159.94C249.98 163.26 249.98 166.51 249.98 170.01H149.98C149.98 166.51 149.98 163.26 150.06 159.94C156.57 159.87 163.16 159.87 169.77 159.87V150.1H150.14C150.14 153.46 150.14 156.73 149.99 160H150ZM170.14 130.14V139.78H179.89V130.14C176.53 130.14 173.26 130.14 170 130V120C168.03 120 166.39 119.98 164.75 120C163.16 120.03 161.56 120.11 160 120.16C160 123.67 160 126.83 159.86 130.13H150.22V139.88H159.86C159.86 136.52 159.86 133.25 160 129.99C163.33 129.99 166.67 129.99 170.14 130.13V130.14ZM240 130V120C238.03 120 236.39 119.98 234.75 120C233.16 120.03 231.56 120.11 230 120.16C230 123.67 230 126.83 229.86 130.13H220.22V139.88H229.86C229.86 136.52 229.86 133.25 230 129.99C233.33 129.99 236.67 129.99 240.14 130.13V139.77H249.89V130.13C246.53 130.13 243.26 130.13 240 129.99V130ZM190.09 159.84H210C210 158.04 210.02 156.4 210 154.77C209.97 153.17 209.89 151.58 209.85 150.17H190.1V159.85L190.09 159.84Z"
            fill="#FFFFE6" />
        <path
            d="M230 200H239.92V219.87H250V259.87C246.46 260.23 243.18 259.71 239.82 260.24V269.76H159.84V260.13C156.46 259.76 153.18 260.32 150 259.78V220.06H159.9V200.01H170V210.01H190V220.04C196.9 219.89 203.46 220.22 210 219.82V210H230V200Z"
            fill="#FFFFE6" />
        <path
            d="M260 230V220.17C261.57 220.12 263.17 220.04 264.77 220.01C266.41 219.98 268.05 220.01 269.84 220.01V210.13H260.13V190.1H269.93V180.21H279.97V189.83H289.45C290.27 194.45 290.52 239.74 289.87 259.82H280.26C279.69 263.18 280.26 266.46 279.86 270.01H260V230.01V230Z"
            fill="#FFFFE6" />
        <path
            d="M260 230V270H250.2C249.74 273.19 250.22 276.47 249.9 279.84H150.03V270.17H140.55C139.79 265.88 139.59 244.28 140.17 229.99H150V259.76C153.18 260.3 156.46 259.74 159.84 260.11V269.74H239.82V260.22C243.19 259.7 246.47 260.21 250 259.85V229.98H260V230Z"
            fill="#FFB648" />
        <path d="M240 180V190H160V180H240Z" fill="#EF9814" />
        <path d="M240 180H160V170H240V180Z" fill="#FFB648" />
        <path d="M170 190H230V200H170V190Z" fill="#8D425A" />
        <path d="M150 90V80.18C156.54 79.78 163.1 80.12 170 79.96V89.99H150V90Z" fill="#FFFFE6" />
        <path d="M230 90V80.18C236.54 79.78 243.1 80.12 250 79.96V89.99H230V90Z" fill="#FFFFE6" />
        <path
            d="M110 80H100.17C100.11 78.44 100.03 76.84 100.01 75.25C99.9799 73.61 100.01 71.97 100.01 70H110.01V80H110Z"
            fill="#E8557A" />
        <path d="M110 80V70H120V80H110Z" fill="#FF89A7" />
        <path d="M280 80V70H290V80H280Z" fill="#FF89A7" />
        <path
            d="M290 80V70H299.83C299.89 71.56 299.97 73.16 299.99 74.75C300.02 76.39 299.99 78.03 299.99 80H289.99H290Z"
            fill="#E8557A" />
        <path
            d="M110 80H120V89.83C118.44 89.89 116.84 89.97 115.25 89.99C113.61 90.02 111.97 89.99 110 89.99V79.99V80Z"
            fill="#E8557A" />
        <path
            d="M280 80H290V89.83C288.44 89.89 286.84 89.97 285.25 89.99C283.61 90.02 281.97 89.99 280 89.99V79.99V80Z"
            fill="#E8557A" />
        <path
            d="M110 150H119.83C119.89 151.56 119.97 153.16 119.99 154.75C120.02 156.39 119.99 158.03 119.99 160H109.99V150H110Z"
            fill="#FF89A7" />
        <path
            d="M290 160H280.17C280.11 158.44 280.03 156.84 280.01 155.25C279.98 153.61 280.01 151.97 280.01 150H290.01V160H290Z"
            fill="#FF89A7" />
        <path
            d="M110 160V169.83C108.44 169.89 106.84 169.97 105.25 169.99C103.61 170.02 101.97 169.99 100 169.99V159.99H110V160Z"
            fill="#E8557A" />
        <path
            d="M300 160V169.83C298.44 169.89 296.84 169.97 295.25 169.99C293.61 170.02 291.97 169.99 290 169.99V159.99H300V160Z"
            fill="#E8557A" />
        <path
            d="M290 110H299.83C299.89 111.56 299.97 113.16 299.99 114.75C300.02 116.39 299.99 118.03 299.99 120H289.99V110H290Z"
            fill="#E8557A" />
        <path d="M290 110V120H280V110H290Z" fill="#FF89A7" />
        <path d="M120 110V120H110V110H120Z" fill="#FF89A7" />
        <path
            d="M100 150V140.17C101.56 140.11 103.16 140.03 104.75 140.01C106.39 139.98 108.03 140.01 110 140.01V150.01H100V150Z"
            fill="#FF89A7" />
        <path
            d="M290 150V140.17C291.56 140.11 293.16 140.03 294.75 140.01C296.39 139.98 298.03 140.01 300 140.01V150.01H290V150Z"
            fill="#FF89A7" />
        <path
            d="M110 110V120H100.17C100.11 118.44 100.03 116.84 100.01 115.25C99.9799 113.61 100.01 111.97 100.01 110H110.01H110Z"
            fill="#E8557A" />
        <path
            d="M99.9999 160H90.1699C90.1099 158.44 90.0299 156.84 90.0099 155.25C89.9799 153.61 90.0099 151.97 90.0099 150H100.01V160H99.9999Z"
            fill="#E8557A" />
        <path
            d="M290 110H280V100.17C281.56 100.11 283.16 100.03 284.75 100.01C286.39 99.98 288.03 100.01 290 100.01V110.01V110Z"
            fill="#E8557A" />
        <path
            d="M120 110H110V100.17C111.56 100.11 113.16 100.03 114.75 100.01C116.39 99.98 118.03 100.01 120 100.01V110.01V110Z"
            fill="#E8557A" />
        <path
            d="M300 150H309.83C309.89 151.56 309.97 153.16 309.99 154.75C310.02 156.39 309.99 158.03 309.99 160H299.99V150H300Z"
            fill="#E8557A" />
        <path d="M150 90H170V99.79C166.82 100.3 163.54 99.77 160.17 100.12V109.75H150V90Z"
            fill="#EC7EA3" />
        <path d="M230 90H250V109.91H240.18V100.25C236.82 99.71 233.55 100.25 230 99.87V90.01V90Z"
            fill="#EC7EA3" />
        <path d="M150.15 159.87V150.1H169.78V159.87H150.15Z" fill="#EC7EA3" />
        <path
            d="M190.09 159.84V150.16H209.84C209.89 151.57 209.97 153.16 209.99 154.76C210.02 156.4 209.99 158.04 209.99 159.83H190.08L190.09 159.84Z"
            fill="black" />
        <path d="M249.85 159.87H230.12V150.21H249.85V159.87Z" fill="#EC7EA3" />
        <path d="M229.86 130.14V139.89H220.22V130.14H229.86Z" fill="black" />
        <path d="M159.86 130.14V139.89H150.22V130.14H159.86Z" fill="black" />
        <path d="M240.14 130.14H249.89V139.78H240.14V130.14Z" fill="black" />
        <path
            d="M240 130H230V120.17C231.56 120.11 233.16 120.03 234.75 120.01C236.39 119.98 238.03 120.01 240 120.01V130.01V130Z"
            fill="black" />
        <path
            d="M170 130H160V120.17C161.56 120.11 163.16 120.03 164.75 120.01C166.39 119.98 168.03 120.01 170 120.01V130.01V130Z"
            fill="black" />
        <path d="M170.14 130.14H179.89V139.78H170.14V130.14Z" fill="black" />
        <path d="M210 200H230V210H210V200Z" fill="#EB94A6" />
        <path d="M210 210V219.82C203.46 220.22 196.9 219.88 190 220.04V210.01H210V210Z"
            fill="#626366" />
        <path d="M170 200H190V210H170V200Z" fill="#EB94A6" />
        <path d="M190 210V200H210V210H190Z" fill="#A65268" />
        <path d="M100 160V150H110V160H100Z" fill="#FFE3EA" />
        <path d="M300 150V160H290V150H300Z" fill="#FFE3EA" />
    </g>
    <defs>
        <clipPath id="clip0_2572_3301">
            <rect width="390" height="400" fill="white" />
        </clipPath>
    </defs>
</svg>
    