<svg width="410" height="370" viewBox="0 0 410 370" fill="none" xmlns="http://www.w3.org/2000/svg">
    <g clip-path="url(#clip0_2572_3042)">
        <path
            d="M20 50V40.53C20.11 40.41 20.2 40.27 20.34 40.17C20.46 40.08 20.62 40 20.76 40C47.17 40 73.59 40 100 40V150H80V140H89.79V80.11H60V120H50.21V70C57.05 70 63.68 70.04 70.31 69.99C76.88 69.94 83.45 70.21 90 69.81V50H20Z"
            fill="black" />
        <path
            d="M310 40H390V50C366.92 50 343.84 50 320.75 50C320.61 50 320.45 50.08 320.33 50.17C320.2 50.26 320.11 50.41 320 50.53V70.13H360C360 86.7 360 102.97 360 119.24C360 119.38 359.92 119.54 359.83 119.66C359.74 119.79 359.6 119.88 359.47 119.99H350V80.2H320C320 100.02 320 119.62 320 139.22C320 139.36 320.08 139.52 320.17 139.65C320.26 139.78 320.4 139.88 320.52 139.99H329.99V149.99H309.99V40H310Z"
            fill="black" />
        <path d="M100 40V30.5C104.55 29.73 290.69 29.41 310 30.16V40H100Z" fill="black" />
        <path d="M290 330V339.5C285.47 340.27 129.03 340.58 110 339.84V330H290Z" fill="black" />
        <path
            d="M170 250V220.18C168.44 220.12 166.86 220.04 165.27 220.01C163.63 219.98 161.98 220.01 160 220.01V210.01H250V219.55C249.9 219.64 249.79 219.76 249.65 219.85C249.52 219.93 249.36 220.01 249.22 220.01C242.92 220.01 236.62 220.01 230 220.01V250.01H220V220.01H180C180 229.97 180 239.6 180 249.23C180 249.37 179.92 249.53 179.84 249.66C179.76 249.8 179.63 249.91 179.54 250.01H170V250Z"
            fill="black" />
        <path d="M20 130H10.51C9.75995 125.64 9.49995 66.94 10.17 50H20V130Z" fill="black" />
        <path d="M390 50H399.49C400.24 54.36 400.5 113.06 399.83 130H390V50Z" fill="black" />
        <path d="M290 290H299.49C300.21 294.13 300.41 315.85 299.83 330H290V290Z" fill="black" />
        <path d="M110 330H100.51C99.7898 325.87 99.5898 304.15 100.17 290H110V330Z" fill="black" />
        <path d="M300 200H280V190H300V200Z" fill="black" />
        <path d="M110 200V209.82C103.46 210.22 96.9 209.88 90 210.04V200.01H110V200Z" fill="black" />
        <path d="M320 200V209.82C313.46 210.22 306.9 209.88 300 210.04V200.01H320V200Z" fill="black" />
        <path d="M140 270V260H160V270H140Z" fill="black" />
        <path d="M240 260H260V270H240V260Z" fill="black" />
        <path d="M120 280V270H140V280H120Z" fill="black" />
        <path d="M260 270H280V280H260V270Z" fill="black" />
        <path d="M130 190V200H110V190H130Z" fill="black" />
        <path d="M30 140H20V130H30V140Z" fill="black" />
        <path d="M390 130V140H380V130H390Z" fill="black" />
        <path d="M40 150H30V140H40V150Z" fill="black" />
        <path d="M380 140V150H370V140H380Z" fill="black" />
        <path d="M50 160H40V150H50V160Z" fill="black" />
        <path d="M370 150V160H360V150H370Z" fill="black" />
        <path d="M60 170H50V160H60V170Z" fill="black" />
        <path d="M350 170V180H340V170H350Z" fill="black" />
        <path d="M80 190H70V180H80V190Z" fill="black" />
        <path d="M140 190H130V180H140V190Z" fill="black" />
        <path d="M280 190H270V180H280V190Z" fill="black" />
        <path d="M340 180V190H330V180H340Z" fill="black" />
        <path d="M90 200H80V190H90V200Z" fill="black" />
        <path d="M360 160V170H350V160H360Z" fill="black" />
        <path d="M150 200H140V190H150V200Z" fill="black" />
        <path d="M270 190V200H260V190H270Z" fill="black" />
        <path d="M70 180H60V170H70V180Z" fill="black" />
        <path d="M330 190V200H320V190H330Z" fill="black" />
        <path d="M160 210H150V200H160V210Z" fill="black" />
        <path d="M260 200V210H250V200H260Z" fill="black" />
        <path d="M230 250H240V260H230V250Z" fill="black" />
        <path d="M110 290V280H120V290H110Z" fill="black" />
        <path d="M280 280H290V290H280V280Z" fill="black" />
        <path d="M160 260V250H170V260H160Z" fill="black" />
        <path
            d="M270 40H300V120.12H289.85V130C288.04 130 286.4 129.98 284.76 130C283.16 130.03 281.56 130.11 279.82 130.17V140.03H269.95V150.07H259.91V160.11H249.87V170.15H240.13C239.77 173.53 240.31 176.81 239.76 180.18H229.97V189.99H160.01V179.99H150.01V169.99H140.01V159.99H130.01V149.99H120.01V139.99H110.01V129.99H100.01V50H120.03V60.05H130.09V70.11H140.14V140.15H150.19V150.03H160.07V160.09H170.13V169.85H179.83C180.42 157.63 180.22 134.03 179.47 129.83H170.12V69.96H180.1V59.9H190.16V50.01C216.63 50.01 242.93 50.01 269.23 50.01C269.38 50.01 269.54 49.94 269.66 49.86C269.8 49.77 269.9 49.63 270.02 49.53V40.02L270 40ZM229.91 89.83H219.98V79.97H209.94V70.22H199.9V80.12H189.86V90.16H180.15V99.9C183.53 100.26 186.81 99.72 190.17 100.27V110.06H200.04V119.9H210.08V109.91H220.12V99.87H229.9V89.84L229.91 89.83Z"
            fill="#FDBF39" />
        <path
            d="M270 40V49.51C269.89 49.62 269.78 49.76 269.64 49.84C269.51 49.92 269.35 49.99 269.21 49.99C242.91 49.99 216.61 49.99 190.14 49.99V59.88H180.08V69.94H170.1V129.81H179.45C180.2 134.01 180.39 157.61 179.81 169.83H170.11V160.07H160.05V150.01H150.17V140.13H140.12V70.09H130.07V60.03H120.01V49.98H99.9902V39.98H269.99L270 40Z"
            fill="#FEFEF9" />
        <path
            d="M20.0002 100V90H30.0002C30.0002 83.36 30.0002 77.06 30.0002 70.76C30.0002 70.62 30.0802 70.46 30.1702 70.34C30.2602 70.21 30.4102 70.12 30.7302 69.82H40.0302V60H89.9902V69.81C83.4402 70.21 76.8702 69.94 70.3002 69.99C63.6702 70.04 57.0402 70 50.2002 70V120H59.9902V130H69.9902V140H79.9902V150H99.9902V160H89.9902V170H79.9902V160H69.9902V150H59.9902V140H49.9902V130H39.9902V120H29.9902V100H19.9902H20.0002Z"
            fill="#FDBF39" />
        <path
            d="M89.9998 60H40.0398V69.82H30.7398C30.4198 70.11 30.2698 70.21 30.1798 70.34C30.0898 70.46 30.0098 70.62 30.0098 70.76C30.0098 77.06 30.0098 83.36 30.0098 90H20.0098V50H90.0098V60H89.9998Z"
            fill="#FEFEF9" />
        <path d="M100 130H110V140H100V130Z" fill="#D55B02" />
        <path d="M100 140H110V150H100V140Z" fill="#963000" />
        <path
            d="M160 190H229.96V180.19H239.75C240.3 176.83 239.76 173.54 240.12 170.16H249.86V160.12H259.9V150.08H269.94V140.04H279.81V130.18C281.56 130.12 283.16 130.04 284.75 130.01C286.39 129.98 288.03 130.01 289.84 130.01V120.13H299.99V40H309.99V130H299.96V140.05H289.91V150.1H279.86V159.89C276.47 160.21 273.18 159.73 269.81 160.22V170.03H259.93V180.08H249.88V190.13H240.12C239.77 193.52 240.3 196.8 239.79 199.98H160.01V189.98L160 190Z"
            fill="#D55B02" />
        <path
            d="M390 90V100H380V120H370V130H360V140H350V150H340V160H330V170H320V160H310V150H330V140H340V130H350V120H359.47C359.59 119.89 359.73 119.8 359.83 119.67C359.92 119.55 360 119.39 360 119.25C360 102.98 360 86.71 360 70.14H320V60.01H370.14V70.17H380C380 76.64 380 82.94 380 89.24C380 89.38 380.07 89.55 380.16 89.67C380.25 89.8 380.39 89.9 380.51 90.02H389.99L390 90Z"
            fill="#FDBF39" />
        <path
            d="M160 200H239.78C240.29 196.82 239.76 193.54 240.11 190.15H249.87V180.1H259.92V170.05H269.8V160.24C273.17 159.75 276.45 160.23 279.85 159.91V150.12H289.9V140.07H299.95V130.02H309.98V150.02H299.98V160.02H289.98V170.02H279.98V180.02H269.98V190.02H259.98V200.02H249.98V210.02H159.98V200.02L160 200Z"
            fill="#963000" />
        <path
            d="M390 90H380.52C380.4 89.89 380.26 89.79 380.17 89.65C380.09 89.53 380.01 89.37 380.01 89.22C380.01 82.92 380.01 76.62 380.01 70.15H370.15V59.99H320.01V50.52C320.12 50.4 320.21 50.26 320.34 50.16C320.46 50.07 320.62 49.99 320.76 49.99C343.84 49.99 366.92 49.99 390.01 49.99V89.99L390 90Z"
            fill="#FEFEF9" />
        <path
            d="M280 280V290H290V330H110V310H140C140 308.03 139.98 306.39 140 304.75C140.03 303.16 140.11 301.56 140.17 299.87H269.76V289.87H250.1C249.79 286.48 250.26 283.2 249.8 280.01H239.99V270.01H259.99V280.01H279.99L280 280Z"
            fill="#963000" />
        <path
            d="M160 260H170V250H179.54C179.63 249.9 179.75 249.79 179.84 249.65C179.92 249.52 180 249.36 180 249.22C180 239.59 180 229.96 180 220H200V260.06H210.05V270H230V280H240V290H120V280H140V270C146.67 270 153.33 270 160.08 270.06C160.16 273.27 160.16 276.55 160.16 279.78H189.88V270.12C179.84 270.12 169.92 270.12 160.08 270.06C160 266.66 160 263.33 160 260Z"
            fill="#FDBF39" />
        <path d="M230 270H210.05V260.06H200V220H210V230H220V260H230V270Z" fill="#D55B02" />
        <path d="M220 230H210V220H220V230Z" fill="#963000" />
        <path d="M230 260H220V250H230V260Z" fill="#963000" />
        <path d="M20 100H30V120H20V100Z" fill="#D55B02" />
        <path d="M20 120H30V130H20V120Z" fill="#963000" />
        <path d="M380 120V100H390V120H380Z" fill="#D55B02" />
        <path d="M380 120H390V130H380V120Z" fill="#963000" />
        <path
            d="M120 290H240V280H249.81C250.27 283.19 249.79 286.47 250.11 289.86H269.77V299.86H140.18C140.12 301.56 140.04 303.15 140.01 304.74C139.98 306.38 140.01 308.03 140.01 309.99H110.01V289.99H120.01L120 290Z"
            fill="#D55B02" />
        <path d="M280 190V180H290V170H300V180H310V190H280Z" fill="#FDBF39" />
        <path d="M300 190H310V200H300V190Z" fill="#D55B02" />
        <path d="M90 200V190H100V200H90Z" fill="#963000" />
        <path d="M100 200V190H110V200H100Z" fill="#D55B02" />
        <path d="M310 200V190H320V200H310Z" fill="#963000" />
        <path d="M230 270V260H240V270H230Z" fill="#963000" />
        <path d="M110 190H100V180H110V170H120V180H130V190H110Z" fill="#FDBF39" />
        <path d="M40 140H30V130H40V140Z" fill="#963000" />
        <path d="M380 140H370V130H380V140Z" fill="#963000" />
        <path d="M50 150H40V140H50V150Z" fill="#963000" />
        <path d="M370 150H360V140H370V150Z" fill="#963000" />
        <path d="M60 160H50V150H60V160Z" fill="#963000" />
        <path d="M360 160H350V150H360V160Z" fill="#963000" />
        <path d="M70 170H60V160H70V170Z" fill="#963000" />
        <path d="M340 180H330V170H340V180Z" fill="#963000" />
        <path d="M350 160V170H340V160H350Z" fill="#963000" />
        <path d="M90 190H80V180H90V190Z" fill="#963000" />
        <path d="M70 180V170H80V180H70Z" fill="#963000" />
        <path d="M140 180H130V170H140V180Z" fill="#963000" />
        <path d="M150 190H140V180H150V190Z" fill="#963000" />
        <path d="M330 190H320V180H330V190Z" fill="#963000" />
        <path d="M160 190V200H150V190H160Z" fill="#963000" />
        <path
            d="M229.91 89.83V99.86H220.13V109.9H210.09V119.89H200.05V110.05H190.18V100.26C186.82 99.71 183.54 100.26 180.16 99.89V90.15H189.87V80.11H199.91V70.21H209.95V79.96H219.99V89.82H229.92L229.91 89.83Z"
            fill="#FFFEF3" />
        <path d="M110 150V140H120V150H110Z" fill="#D55B02" />
        <path d="M120 150H130V160H120V150Z" fill="#D55B02" />
        <path d="M150 180H140V170H150V180Z" fill="#D55B02" />
        <path d="M160 190H150V180H160V190Z" fill="#D55B02" />
        <path d="M140 170H130V160H140V170Z" fill="#D55B02" />
        <path d="M40 130H30V120H40V130Z" fill="#D55B02" />
        <path d="M60 120H70V130H60V120Z" fill="black" />
        <path d="M50 140H40V130H50V140Z" fill="#D55B02" />
        <path d="M70 130H80V140H70V130Z" fill="black" />
        <path d="M60 150H50V140H60V150Z" fill="#D55B02" />
        <path d="M70 160H60V150H70V160Z" fill="#D55B02" />
        <path d="M100 150H110V160H100V150Z" fill="black" />
        <path d="M80 180V170H90V180H80Z" fill="#D55B02" />
        <path d="M90 170V160H100V170H90Z" fill="#FEFEF9" />
        <path d="M80 170H70V160H80V170Z" fill="#D55B02" />
        <path d="M340 130V120H350V130H340Z" fill="black" />
        <path d="M380 130H370V120H380V130Z" fill="#D55B02" />
        <path d="M330 140V130H340V140H330Z" fill="black" />
        <path d="M370 140H360V130H370V140Z" fill="#D55B02" />
        <path d="M360 150H350V140H360V150Z" fill="#D55B02" />
        <path d="M300 160V150H310V160H300Z" fill="black" />
        <path d="M350 160H340V150H350V160Z" fill="#D55B02" />
        <path d="M310 160H320V170H310V160Z" fill="#FEFEF9" />
        <path d="M330 180H320V170H330V180Z" fill="#D55B02" />
        <path d="M340 160V170H330V160H340Z" fill="#D55B02" />
        <path d="M290 170V180H280V170H290Z" fill="black" />
        <path d="M300 170H290V160H300V170Z" fill="black" />
        <path d="M230 270H240V280H230V270Z" fill="#D55B02" />
        <path d="M160.16 270.13H189.88V279.79H160.16V270.13Z" fill="#FEFEF9" />
        <path d="M310 180H300V170H310V180Z" fill="#FEFEF9" />
        <path d="M320 180V190H310V180H320Z" fill="#D55B02" />
        <path d="M90 190V180H100V190H90Z" fill="#D55B02" />
        <path d="M110 170V180H100V170H110Z" fill="#FEFEF9" />
        <path d="M120 170H110V160H120V170Z" fill="black" />
        <path d="M130 170V180H120V170H130Z" fill="black" />
        <path d="M120 160H110V150H120V160Z" fill="#963000" />
        <path d="M130 170H120V160H130V170Z" fill="#963000" />
        <path d="M110 160V170H100V160H110Z" fill="#FDBF39" />
        <path d="M100 170V180H90V170H100Z" fill="#FDBF39" />
        <path d="M310 170H300V160H310V170Z" fill="#FDBF39" />
        <path d="M320 180H310V170H320V180Z" fill="#FDBF39" />
    </g>
    <defs>
        <clipPath id="clip0_2572_3042">
            <rect width="410" height="370" fill="white" />
        </clipPath>
    </defs>
</svg>
    