<svg width="450" height="450" viewBox="0 0 450 450" fill="none" xmlns="http://www.w3.org/2000/svg">
    <g clip-path="url(#clip0_2572_3171)">
        <path d="M350 110H359.5C360.27 114.57 360.6 360.62 359.84 380H340V369.97H350V110Z"
            fill="black" />
        <path
            d="M300 400V409.75H100V330H110V340C110 359.75 110 379.5 110 399.25C110 399.39 110.09 399.55 110.17 399.67C110.26 399.8 110.41 399.89 110.53 400H299.99H300Z"
            fill="black" />
        <path
            d="M110 110H100.51C99.7502 105.67 99.5102 67.4401 100.14 50.1801H299.99V60.0001H289.99C230.25 60.0001 170.51 60.0001 110.77 60.0001C110.63 60.0001 110.47 60.0801 110.34 60.1601C110.2 60.2401 110.09 60.3701 109.99 60.4601V110H110Z"
            fill="black" />
        <path
            d="M130 180V130H140C140 146.42 140 162.84 140 179.26C140 179.4 139.91 179.56 139.82 179.68C139.73 179.81 139.58 179.9 139.46 180H130.01H130Z"
            fill="black" />
        <path d="M110 260V220H120V260H110Z" fill="black" />
        <path d="M89.9998 320H80.5098C79.7898 315.87 79.5898 294.15 80.1698 280H89.9998V320Z"
            fill="black" />
        <path d="M120 220V180H130V220H120Z" fill="black" />
        <path d="M340 380V390H320V380H340Z" fill="black" />
        <path d="M320 390V400H300V390H320Z" fill="black" />
        <path d="M300 60H310V70H300V60Z" fill="black" />
        <path d="M310 70H320V80H310V70Z" fill="black" />
        <path d="M90 280V270H100V280H90Z" fill="black" />
        <path d="M100 330H90V320H100V330Z" fill="black" />
        <path d="M130 130H120V120H130V130Z" fill="black" />
        <path d="M120 120H110V110H120V120Z" fill="black" />
        <path d="M340 100H350V110H340V100Z" fill="black" />
        <path d="M330 90H340V100H330V90Z" fill="black" />
        <path d="M320 80H330V90H320V80Z" fill="black" />
        <path d="M100 270V260H110V270H100Z" fill="black" />
        <path
            d="M320 80V90H330V100H340V110H350V369.97H340V380H320V390H300C300 370.25 300 350.5 300 330.75C300 330.61 299.91 330.45 299.83 330.33C299.74 330.2 299.59 330.11 299.47 330H290.01V320H280.01V280H290.01V270H300.01V260H310.01V220H320.01V180H329.84C330.45 164.86 330.23 134.2 329.5 130H320.01V120H310.01V80H320.01H320Z"
            fill="#FF5AA3" />
        <path d="M260 400H200V340H260V400Z" fill="#FF5AA3" />
        <path d="M100 330V320H260V330H100Z" fill="#B31A41" />
        <path d="M200 330H270V400H260V340H200V330Z" fill="#D8466B" />
        <path d="M200 390V400H120V390H200Z" fill="#E4BBE7" />
        <path
            d="M290 330H299.46C299.58 330.11 299.72 330.2 299.82 330.33C299.91 330.45 299.99 330.61 299.99 330.75C299.99 350.5 299.99 370.25 299.99 390V400H289.99V330H290Z"
            fill="#FF86BC" />
        <path d="M270 400V330H280V400H270Z" fill="#00B2B7" />
        <path d="M280 400V330H290V400H280Z" fill="#FFD2E6" />
        <path
            d="M120 390V400H110.54C110.42 399.89 110.28 399.8 110.18 399.67C110.09 399.55 110.01 399.39 110.01 399.25C110.01 379.5 110.01 359.75 110.01 340H120.01V390H120Z"
            fill="#FF5AA3" />
        <path d="M120 340H110V330H120V340Z" fill="#D8466B" />
        <path
            d="M120 120V110C173.08 110 226.15 110 279.23 110C279.37 110 279.54 109.92 279.66 109.84C279.79 109.75 279.89 109.61 280.01 109.49V70.01H110V60.47C110.09 60.39 110.21 60.26 110.35 60.17C110.48 60.09 110.64 60.01 110.78 60.01C170.52 60.01 230.26 60.01 290 60.01V120.01H120V120Z"
            fill="#B31A41" />
        <path d="M110 70H280V80H110V70Z" fill="#F7E6DB" />
        <path
            d="M280 100V109.48C279.89 109.6 279.79 109.74 279.65 109.83C279.53 109.91 279.37 109.99 279.22 109.99C226.14 109.99 173.07 109.99 119.99 109.99H109.99V99.99H279.99L280 100Z"
            fill="#EED8CD" />
        <path d="M290 120V60H300V120H290Z" fill="#FFD2E6" />
        <path d="M120 100H110V80H120V100Z" fill="#F0A6C0" />
        <path
            d="M120 220H130V180H139.45C139.57 179.89 139.71 179.8 139.81 179.68C139.9 179.56 139.99 179.4 139.99 179.26C139.99 162.84 139.99 146.42 139.99 130H299.99V180H289.99V220H279.99V260H269.99V270H259.99V280H250.13C249.76 283.54 250.29 286.82 249.78 290H239.99V280H219.99V290H209.99V280H189.99V290H159.99V280H169.99V270H179.99V250C206.4 250 232.82 250 259.23 250C259.37 250 259.53 249.92 259.65 249.83C259.78 249.74 259.87 249.6 259.99 249.47V240H269.99V210H279.99V170H289.99C289.99 160.03 289.99 150.4 289.99 140.77C289.99 140.63 289.92 140.46 289.83 140.34C289.74 140.21 289.6 140.11 289.48 139.99H159.95V170.03H150V209.99H140V229.99H130V239.99H120V219.99V220ZM240 270H250C250 268.03 250.02 266.39 250 264.75C249.97 263.16 249.89 261.56 249.84 260H230.01C230.01 261.97 229.99 263.61 230.01 265.25C230.04 266.84 230.12 268.44 230.17 270H240ZM210 260H200C200 261.97 199.98 263.61 200 265.25C200.03 266.84 200.11 268.44 200.16 270H219.99C219.99 268.03 220.01 266.39 219.99 264.75C219.96 263.16 219.88 261.56 219.83 260H210Z"
            fill="#8AFFF6" />
        <path d="M290 130H130V120H290V130Z" fill="#4BB8B0" />
        <path d="M100 270H110V260H120V270H130V280H140V290H90V280H100V270Z" fill="#8AFFF6" />
        <path d="M120 240H130V260H120V240Z" fill="#D43F72" />
        <path
            d="M250 320H90V300C143.08 300 196.16 300 249.24 300C249.38 300 249.54 300.08 249.66 300.17C249.79 300.26 249.88 300.41 250 300.53V320Z"
            fill="#26EAEF" />
        <path
            d="M250 320V300.53C249.89 300.41 249.8 300.27 249.66 300.17C249.54 300.08 249.38 300 249.24 300C196.16 300 143.08 300 90 300V290H249.79C250.3 286.82 249.77 283.54 250.14 280H260V320H250Z"
            fill="#00B2B7" />
        <path d="M300 120V70H310V120H300Z" fill="#FF86BC" />
        <path d="M320 130H329.49C330.22 134.2 330.44 164.86 329.83 180H320V130Z" fill="#FF86BC" />
        <path d="M310 220V260H300V220H310Z" fill="#FF86BC" />
        <path d="M280 280V320H270V280H280Z" fill="#FF86BC" />
        <path d="M320 180V220H310V180H320Z" fill="#FF86BC" />
        <path d="M300 260V270H290V260H300Z" fill="#FF86BC" />
        <path d="M290 270V280H280V270H290Z" fill="#FF86BC" />
        <path d="M290 330H280V320H290V330Z" fill="#FF86BC" />
        <path d="M310 120H320V130H310V120Z" fill="#FF86BC" />
        <path d="M200 390H190V340H200V390Z" fill="#A56C96" />
        <path d="M200 340H120V330H200V340Z" fill="#E1BBD2" />
        <path d="M270 330H260V320H270V330Z" fill="#00B2B7" />
        <path d="M130 340H190V390H130V340ZM170 380H180V350H140V380H170Z" fill="#B31A41" />
        <path d="M130 340V390H120V340H130Z" fill="#A56C96" />
        <path d="M270 330V320H280V330H270Z" fill="#FFD2E6" />
        <path d="M280 100H270V80H280V100Z" fill="#F0A6C0" />
        <path
            d="M270 80V100H120V80H130V90C131.97 90 133.61 90.02 135.25 90C136.84 89.97 138.44 89.89 140 89.84V80.01H150V90.01C151.97 90.01 153.61 90.03 155.25 90.01C156.84 89.98 158.44 89.9 160 89.85V80.02H170V90.02C171.97 90.02 173.61 90.04 175.25 90.02C176.84 89.99 178.44 89.91 180 89.86V80.03H190V90.03C191.97 90.03 193.61 90.05 195.25 90.03C196.84 90 198.44 89.92 200 89.87V80.04H210V90.04C211.97 90.04 213.61 90.06 215.25 90.04C216.84 90.01 218.44 89.93 220 89.88V80.05H230V90.05C231.97 90.05 233.61 90.07 235.25 90.05C236.84 90.02 238.44 89.94 240 89.89V80.06H250V90.06C251.97 90.06 253.61 90.08 255.25 90.06C256.84 90.03 258.44 89.95 260 89.9V80.07H270V80Z"
            fill="#EC7297" />
        <path
            d="M140 80V89.83C138.44 89.89 136.84 89.97 135.25 89.99C133.61 90.02 131.97 89.99 130 89.99V79.99H140V80Z"
            fill="#F0A6C0" />
        <path
            d="M160 80V89.83C158.44 89.89 156.84 89.97 155.25 89.99C153.61 90.02 151.97 89.99 150 89.99V79.99H160V80Z"
            fill="#F0A6C0" />
        <path
            d="M180 80V89.83C178.44 89.89 176.84 89.97 175.25 89.99C173.61 90.02 171.97 89.99 170 89.99V79.99H180V80Z"
            fill="#F0A6C0" />
        <path
            d="M200 80V89.83C198.44 89.89 196.84 89.97 195.25 89.99C193.61 90.02 191.97 89.99 190 89.99V79.99H200V80Z"
            fill="#F0A6C0" />
        <path
            d="M220 80V89.83C218.44 89.89 216.84 89.97 215.25 89.99C213.61 90.02 211.97 89.99 210 89.99V79.99H220V80Z"
            fill="#F0A6C0" />
        <path
            d="M260 80V89.83C258.44 89.89 256.84 89.97 255.25 89.99C253.61 90.02 251.97 89.99 250 89.99V79.99H260V80Z"
            fill="#F0A6C0" />
        <path
            d="M240 80V89.83C238.44 89.89 236.84 89.97 235.25 89.99C233.61 90.02 231.97 89.99 230 89.99V79.99H240V80Z"
            fill="#F0A6C0" />
        <path d="M290 130V120H300V130H290Z" fill="#00B2B7" />
        <path
            d="M150 210V170.04H159.95V140H240V150.02H230.2V170.07H240.1V179.85H260.15V170H270V210H220C220 208.05 220.02 206.41 220 204.77C219.97 203.17 219.89 201.57 219.84 200.16H160.1C159.79 203.53 160.26 206.81 159.8 210H150ZM190 150H180V160H170V180H190V170H200V150H190Z"
            fill="#B1FFFF" />
        <path
            d="M150 210H159.8C160.26 206.81 159.78 203.53 160.1 200.16H219.84C219.89 201.57 219.97 203.17 220 204.77C220.03 206.41 220 208.05 220 210H260V240H170V230H160V220H140V210H150Z"
            fill="#29D864" />
        <path
            d="M270 170H260.15V179.85H240.1V170.07H230.2V150.02H240V140H260V149.86C263.55 150.25 266.82 149.69 270 150.23V170Z"
            fill="#FFF189" />
        <path
            d="M180 240H260V249.47C259.89 249.59 259.8 249.73 259.66 249.83C259.54 249.92 259.38 250 259.24 250C232.83 250 206.41 250 180 250V240Z"
            fill="#EEFFFE" />
        <path d="M300 180V130H310V180H300Z" fill="#00B2B7" />
        <path d="M280 260V220H290V260H280Z" fill="#00B2B7" />
        <path d="M270 170V150.23C266.82 149.69 263.55 150.25 260 149.86V140H280V170H270Z"
            fill="#B1FFFF" />
        <path d="M270 170H280V210H270V170Z" fill="#EEFFFE" />
        <path d="M290 220V180H300V220H290Z" fill="#00B2B7" />
        <path
            d="M280 170V140H289.48C289.6 140.11 289.74 140.21 289.83 140.35C289.91 140.47 289.99 140.63 289.99 140.78C289.99 150.41 289.99 160.04 289.99 170.01H279.99L280 170Z"
            fill="#EEFFFE" />
        <path d="M260 240V210H270V240H260Z" fill="#EEFFFE" />
        <path d="M180 240V260H170V240H180Z" fill="#D43F72" />
        <path d="M160 290H140V280H160V290Z" fill="#3CD6CA" />
        <path d="M140 220H160V230H140V220Z" fill="#D43F72" />
        <path d="M170 260H180V270H170V260Z" fill="#3CD6CA" />
        <path
            d="M210 270H200.17C200.11 268.44 200.03 266.84 200.01 265.25C199.98 263.61 200.01 261.97 200.01 260H210.01V270H210Z"
            fill="#FF75A4" />
        <path
            d="M210 270V260H219.83C219.89 261.56 219.97 263.16 219.99 264.75C220.02 266.39 219.99 268.03 219.99 270H209.99H210Z"
            fill="#ED0C58" />
        <path
            d="M240 270H230.17C230.11 268.44 230.03 266.84 230.01 265.25C229.98 263.61 230.01 261.97 230.01 260H240.01V270H240Z"
            fill="#FF75A4" />
        <path
            d="M240 270V260H249.83C249.89 261.56 249.97 263.16 249.99 264.75C250.02 266.39 249.99 268.03 249.99 270H239.99H240Z"
            fill="#ED0C58" />
        <path d="M270 270V260H280V270H270Z" fill="#00B2B7" />
        <path d="M170 270V280H160V270H170Z" fill="#3CD6CA" />
        <path d="M260 280V270H270V280H260Z" fill="#00B2B7" />
        <path d="M200 290H190V280H200V290Z" fill="#FF75A4" />
        <path d="M200 290V280H210V290H200Z" fill="#ED0C58" />
        <path d="M130 240V230H140V240H130Z" fill="#D43F72" />
        <path d="M240 290H230V280H240V290Z" fill="#ED0C58" />
        <path d="M230 280V290H220V280H230Z" fill="#FF75A4" />
        <path d="M140 280H130V270H140V280Z" fill="#3CD6CA" />
        <path d="M120 260H130V270H120V260Z" fill="#3CD6CA" />
        <path d="M130 240H140V250H130V240Z" fill="#FF86BC" />
        <path d="M130 250H140V260H130V250Z" fill="#831F3F" />
        <path d="M260 280H270V320H260V280Z" fill="#FFD2E6" />
        <path d="M310 130H300V120H310V130Z" fill="#FFD2E6" />
        <path d="M310 180V130H320V180H310Z" fill="#FFD2E6" />
        <path d="M290 220H300V260H290V220Z" fill="#FFD2E6" />
        <path d="M300 220V180H310V220H300Z" fill="#FFD2E6" />
        <path d="M270 280V270H280V280H270Z" fill="#FFD2E6" />
        <path d="M280 270V260H290V270H280Z" fill="#FFD2E6" />
        <path d="M150 350H170V360H160V370H150V350Z" fill="#831F3F" />
        <path d="M150 350V370H140V350H150Z" fill="#FFD2E6" />
        <path d="M170 360V350H180V370H170V360Z" fill="#FFD2E6" />
        <path d="M150 370H170V380H150V370Z" fill="#330931" />
        <path d="M150 370V380H140V370H150Z" fill="#831F3F" />
        <path d="M170 380V370H180V380H170Z" fill="#831F3F" />
        <path d="M190 170V180H180V170H190Z" fill="#919288" />
        <path d="M200 160V170H190V160H200Z" fill="#919288" />
        <path d="M180 170H170V160H180V170Z" fill="#919288" />
        <path d="M190 150V160H180V150H190Z" fill="#919288" />
        <path d="M160 230H170V240H160V230Z" fill="#D43F72" />
        <path d="M160 240H170V260H160V240Z" fill="#9A4564" />
        <path d="M140 280V270H160V280H140Z" fill="#D43F72" />
        <path d="M140 240V230H150V240H140Z" fill="#FF86BC" />
        <path d="M150 240V230H160V240H150Z" fill="#9A4564" />
        <path d="M160 260H170V270H160V260Z" fill="#D43F72" />
        <path d="M130 260H140V270H130V260Z" fill="#D43F72" />
        <path d="M140 240H150V250H140V240Z" fill="#E1BBD2" />
        <path d="M140 250H150V240H160V260H140V250Z" fill="#EC7297" />
        <path d="M170 370H160V360H170V370Z" fill="#B31A41" />
        <path d="M140 260H150V270H140V260Z" fill="#831F3F" />
        <path d="M150 270V260H160V270H150Z" fill="#9A4564" />
    </g>
    <defs>
        <clipPath id="clip0_2572_3171">
            <rect width="450" height="450" fill="white" />
        </clipPath>
    </defs>
</svg>
    