<svg width="450" height="450" viewBox="0 0 450 450" fill="none" xmlns="http://www.w3.org/2000/svg">
    <g clip-path="url(#clip0_2572_2867)">
        <path
            d="M400 420V429.5C395.39 430.28 70.02 430.61 50 429.84V420H90V250H100V420H160V250H170V420H400Z"
            fill="black" />
        <path
            d="M70 30V20.5C74.6 19.72 360.13 19.39 380 20.16V30C363.58 30 347.16 30 330.74 30C330.6 30 330.44 30.09 330.32 30.18C330.19 30.27 330.1 30.42 330 30.54V39.99H320V29.99C310.03 29.99 300.4 29.99 290.77 29.99C290.63 29.99 290.46 30.06 290.34 30.15C290.21 30.24 290.11 30.38 289.99 30.5V39.98H279.99V30.15C265.84 29.57 244.12 29.77 239.99 30.49V49.98H229.99V29.98C228.02 29.98 226.38 29.96 224.74 29.98C223.15 30.01 221.55 30.09 219.99 30.14V49.97H209.99V30.14C195.84 29.56 174.12 29.76 169.99 30.48V39.97H159.99V29.97C150.02 29.97 140.39 29.97 130.76 29.97C130.62 29.97 130.45 30.04 130.33 30.13C130.2 30.22 130.1 30.36 129.98 30.48V39.96H119.98V29.96H69.98L70 30Z"
            fill="black" />
        <path
            d="M50 420H40.46C40.37 419.9 40.24 419.79 40.16 419.65C40.08 419.52 40 419.36 40 419.22C40 349.48 40 279.74 40 210H60V220H50V420Z"
            fill="black" />
        <path
            d="M410 210C410 279.74 410 349.48 410 419.22C410 419.36 409.9 419.51 409.73 420H400.01V220H390.01V210H410.01H410Z"
            fill="black" />
        <path d="M30.0002 200H20.5102C19.7502 195.58 19.4702 117.65 20.1702 100H30.0002V200Z"
            fill="black" />
        <path d="M420 100H429.49C430.25 104.42 430.53 182.35 429.83 200H420V100Z" fill="black" />
        <path d="M30 100V70H40V100H30Z" fill="black" />
        <path d="M410 70H420V100H410V70Z" fill="black" />
        <path d="M400 50H410V70H400V50Z" fill="black" />
        <path d="M40 70V50H50V70H40Z" fill="black" />
        <path d="M40 210H30V200H40V210Z" fill="black" />
        <path d="M420 200V210H410V200H420Z" fill="black" />
        <path d="M60 40V30H70V40H60Z" fill="black" />
        <path d="M390 40H400V50H390V40Z" fill="black" />
        <path d="M50 50V40H60V50H50Z" fill="black" />
        <path d="M380 30H390V40H380V30Z" fill="black" />
        <path
            d="M400 230V240H170V250H160V240.17C144.09 239.53 104.27 239.77 100 240.51V250H90V240.25H60C60 280.07 60 319.64 60 359.22C60 359.37 60.07 359.53 60.15 359.65C60.24 359.79 60.37 359.89 60.64 360.17H69.99C69.99 366.64 69.99 372.93 69.99 379.23C69.99 379.37 70.07 379.53 70.15 379.66C70.24 379.79 70.38 379.89 70.5 380H79.98V390H89.98V410H69.82V399.83H59.98C59.98 398.03 60 396.39 59.98 394.75C59.95 393.16 59.87 391.56 59.82 390H49.99V230H59.99V220H69.99V210H79.99V220H89.99V230.03C96.89 229.88 103.45 230.21 109.99 229.81V219.99H119.99V209.99H129.99V219.99H149.99V229.99C159.96 229.99 169.59 229.99 179.22 229.99C179.36 229.99 179.53 229.91 179.65 229.83C179.78 229.74 179.88 229.6 180 229.48V220H200V210H210V220H220V230C221.97 230 223.61 230.02 225.25 230C226.84 229.97 228.44 229.89 230 229.84V220.01H240V210.01H250V220.01H270V230.01C279.97 230.01 289.6 230.01 299.23 230.01C299.37 230.01 299.54 229.94 299.66 229.85C299.79 229.76 299.89 229.62 300.01 229.5V220.02H320.01V210.02H330.01V220.02H340.01V230.05C346.91 229.9 353.47 230.23 360.01 229.83V220.01H370.01V210.01H380.01V220.01H390.01V230.01H400.01L400 230Z"
            fill="#FAC800" />
        <path
            d="M400 340V390H389.98V400.05H379.93V410H170V390H190V380H200C259.75 380 319.51 380 379.26 380C379.4 380 379.56 379.91 379.68 379.82C379.81 379.72 379.9 379.58 380 379.46V340.01H400V340Z"
            fill="#FAC800" />
        <path d="M170 410H379.93V400.05H389.98V390H400V420H170V410Z" fill="#BA8817" />
        <path d="M160 260V410H150V260H160Z" fill="#C3C5C5" />
        <path d="M180 390H170V250H180V390Z" fill="#BDC556" />
        <path
            d="M90 390H80V380C80 336.92 80 293.85 80 250.77C80 250.63 80.08 250.47 80.16 250.34C80.25 250.21 80.39 250.11 80.51 250H89.99V390H90Z"
            fill="#BDC556" />
        <path
            d="M50 390H59.83C59.89 391.56 59.97 393.16 59.99 394.75C60.02 396.39 59.99 398.03 59.99 399.83H69.83V410H89.99V420H49.99V390H50Z"
            fill="#BA8817" />
        <path d="M110 260H100V250H110V260Z" fill="#C3C5C5" />
        <path d="M160 260H150V250H160V260Z" fill="#9FA185" />
        <path d="M100 410H110V420H100V410Z" fill="#C3C5C5" />
        <path d="M110 420V410H120V420H110Z" fill="#9FA185" />
        <path d="M120 420V410H130V420H120Z" fill="#B7B9AA" />
        <path d="M130 420V410H140V420H130Z" fill="#9FA185" />
        <path d="M140 420V410H150V420H140Z" fill="#B7B9AA" />
        <path d="M150 420V410H160V420H150Z" fill="#9FA185" />
        <path d="M210 40V50H200V60H160V40H210Z" fill="#FD7575" />
        <path d="M240 50V40H290V60H250V50H240Z" fill="#FD7575" />
        <path d="M120 40H150V60H120V40Z" fill="#E8E2E2" />
        <path d="M320 40H330V60H300V40H320Z" fill="#E8E2E2" />
        <path d="M70 40V30H120V40H70Z" fill="#D24040" />
        <path
            d="M380 30V40H330V30.55C330.11 30.43 330.2 30.29 330.32 30.19C330.44 30.1 330.6 30.01 330.74 30.01C347.16 30.01 363.58 30.01 380 30.01V30Z"
            fill="#D24040" />
        <path d="M280 40H240V30.51C244.13 29.79 265.85 29.59 280 30.17V40Z" fill="#D24040" />
        <path d="M210 40H170V30.51C174.13 29.79 195.85 29.59 210 30.17V40Z" fill="#D24040" />
        <path
            d="M320 40H290V30.52C290.11 30.4 290.21 30.26 290.35 30.17C290.47 30.09 290.63 30.01 290.78 30.01C300.41 30.01 310.04 30.01 320.01 30.01V40.01L320 40Z"
            fill="#FBFBF6" />
        <path
            d="M150 40H130V30.52C130.11 30.4 130.21 30.26 130.35 30.17C130.47 30.09 130.63 30.01 130.78 30.01C140.41 30.01 150.04 30.01 160.01 30.01V40.01H150.01L150 40Z"
            fill="#FBFBF6" />
        <path
            d="M230 40H220V30.17C221.56 30.11 223.16 30.03 224.75 30.01C226.39 29.98 228.03 30.01 230 30.01V40.01V40Z"
            fill="#FBFBF6" />
        <path d="M40 210V200H30V190H70V200H60V210H40Z" fill="#D24040" />
        <path d="M70 210V220H60V210H70Z" fill="#CC9A12" />
        <path d="M60 220V230H50V220H60Z" fill="#CC9A12" />
        <path
            d="M400 340H380C380 310.25 380 280.51 380 250.76C380 250.62 379.92 250.46 379.83 250.34C379.74 250.21 379.6 250.11 379.48 250H370.01V240H400.01V340H400Z"
            fill="#F8FF6B" />
        <path d="M420 200H410V210H390V200H380V190H420V200Z" fill="#D24040" />
        <path d="M390 220H380V210H390V220Z" fill="#CC9A12" />
        <path d="M400 230H390V220H400V230Z" fill="#CC9A12" />
        <path
            d="M70 190H30V140H80C80 156.42 80 172.84 80 189.26C80 189.4 79.91 189.56 79.82 189.68C79.73 189.81 79.58 189.9 79.46 190H70.01H70Z"
            fill="#B54343" />
        <path d="M80 140H30V100H90V120H80V140Z" fill="#D24040" />
        <path d="M420 190H370V140H420V190Z" fill="#B54343" />
        <path d="M420 140H370V120H360V100H420V140Z" fill="#D24040" />
        <path d="M40 70H50V60H100V80H40V70Z" fill="#D24040" />
        <path d="M40 80H90V100H40V80Z" fill="#AC1F1F" />
        <path d="M400 60V70H410V80H350V60H400Z" fill="#D24040" />
        <path d="M360 80H410V100H360V80Z" fill="#AC1F1F" />
        <path d="M400 60H340V40H390V50H400V60Z" fill="#FD7575" />
        <path d="M100 60H50V50H60V40H110V60H100Z" fill="#FD7575" />
        <path d="M180 390V250H170V240H210V250H200V340H190V390H180Z" fill="#F8FF6B" />
        <path
            d="M90 250H80.52C80.4 250.11 80.26 250.21 80.17 250.34C80.09 250.46 80.01 250.62 80.01 250.77C80.01 293.85 80.01 336.92 80.01 380H70.53C70.41 379.89 70.27 379.79 70.18 379.66C70.1 379.54 70.02 379.38 70.02 379.23C70.02 372.93 70.02 366.64 70.02 360.17H60.67C60.4 359.89 60.27 359.78 60.18 359.65C60.1 359.52 60.03 359.36 60.03 359.22C60.03 319.65 60.03 280.07 60.03 240.25H90.03V250H90Z"
            fill="#F8FF6B" />
        <path d="M220 240H360V250H220V240Z" fill="black" />
        <path d="M160 250H100V240.51C104.27 239.77 144.09 239.53 160 240.17V250Z" fill="black" />
        <path
            d="M300 220V229.48C299.89 229.6 299.79 229.74 299.65 229.83C299.53 229.91 299.37 229.99 299.22 229.99C289.59 229.99 279.96 229.99 269.99 229.99V219.99H299.99L300 220Z"
            fill="#CC9A12" />
        <path
            d="M180 220V229.48C179.89 229.6 179.79 229.74 179.65 229.83C179.53 229.91 179.37 229.99 179.22 229.99C169.59 229.99 159.96 229.99 149.99 229.99V219.99H179.99L180 220Z"
            fill="#CC9A12" />
        <path d="M150 220H130V210H150V220Z" fill="#CC9A12" />
        <path d="M200 210V220H180V210H200Z" fill="#CC9A12" />
        <path d="M270 220H250V210H270V220Z" fill="#CC9A12" />
        <path d="M320 210V220H300V210H320Z" fill="#CC9A12" />
        <path d="M110 220V229.82C103.46 230.22 96.9 229.88 90 230.04V220.01H110V220Z" fill="#CC9A12" />
        <path d="M360 220V229.82C353.46 230.22 346.9 229.88 340 230.04V220.01H360V220Z"
            fill="#CC9A12" />
        <path d="M220 240V250H210V240H220Z" fill="#BDC556" />
        <path d="M360 250V240H370V250H360Z" fill="#BDC556" />
        <path d="M240 210V220H230V210H240Z" fill="#CC9A12" />
        <path d="M220 220H210V210H220V220Z" fill="#CC9A12" />
        <path d="M120 210V220H110V210H120Z" fill="#CC9A12" />
        <path d="M90 220H80V210H90V220Z" fill="#CC9A12" />
        <path d="M380 210H370V200H380V210Z" fill="#CC9A12" />
        <path d="M330 210H320V200H330V210Z" fill="#CC9A12" />
        <path d="M250 210H240V200H250V210Z" fill="#CC9A12" />
        <path d="M210 210H200V200H210V210Z" fill="#CC9A12" />
        <path
            d="M230 220V229.83C228.44 229.89 226.84 229.97 225.25 229.99C223.61 230.02 221.97 229.99 220 229.99V219.99H230V220Z"
            fill="#CC9A12" />
        <path d="M370 210V220H360V210H370Z" fill="#CC9A12" />
        <path d="M130 210H120V200H130V210Z" fill="#CC9A12" />
        <path d="M340 220H330V210H340V220Z" fill="#CC9A12" />
        <path d="M80 210H70V200H80V210Z" fill="#CC9A12" />
        <path
            d="M380 340V379.45C379.89 379.57 379.81 379.72 379.68 379.81C379.56 379.9 379.4 379.99 379.26 379.99C319.51 379.99 259.75 379.99 200 379.99V339.99H210V369.99H370V339.99H380V340Z"
            fill="black" />
        <path d="M200 340V380H190V340H200Z" fill="#BDC556" />
        <path d="M110 320V260H120V320H110Z" fill="#E0E0C8" />
        <path d="M120 410H110V360H120V410Z" fill="#E0E0C8" />
        <path d="M110 320H120V340H110V320Z" fill="#686D6D" />
        <path d="M110 340H120V360H110V340Z" fill="#B7B9AA" />
        <path d="M150 410H140V260H150V410Z" fill="#E6E6D3" />
        <path d="M120 260H110V250H120V260Z" fill="#9FA185" />
        <path d="M150 260H140V250H150V260Z" fill="#B7B9AA" />
        <path d="M120 360V260H130V410H120V360Z" fill="#F0F0DC" />
        <path d="M130 410V260H140V410H130Z" fill="#D1D1AD" />
        <path d="M210 200H200V50H210V200Z" fill="black" />
        <path d="M200 60V80H150V60H200Z" fill="#D24040" />
        <path d="M160 60H150V40H160V60Z" fill="black" />
        <path d="M250 200H240V50H250V200Z" fill="black" />
        <path d="M250 80V60H300V80H250Z" fill="#D24040" />
        <path d="M300 60H290V40H300V60Z" fill="black" />
        <path d="M120 60H140V80H110V60H120Z" fill="#FBFBF6" />
        <path d="M140 80V60H150V80H140Z" fill="black" />
        <path d="M120 60H110V40H120V60Z" fill="black" />
        <path d="M310 60H340V80H310V60Z" fill="#FBFBF6" />
        <path d="M310 60V80H300V60H310Z" fill="black" />
        <path d="M340 60H330V40H340V60Z" fill="black" />
        <path d="M240 60V80H210V60H240Z" fill="#FBFBF6" />
        <path
            d="M80 210V200H70V190H79.45C79.57 189.89 79.71 189.8 79.81 189.68C79.9 189.56 79.99 189.4 79.99 189.26C79.99 172.84 79.99 156.42 79.99 140V120H89.99V210H79.99H80Z"
            fill="black" />
        <path d="M70 200V210H60V200H70Z" fill="black" />
        <path
            d="M380 340H370V250H379.47C379.59 250.11 379.73 250.21 379.82 250.34C379.91 250.46 379.99 250.62 379.99 250.76C379.99 280.51 379.99 310.25 379.99 340H380Z"
            fill="#BDC556" />
        <path d="M370 210H360V120H370V190H380V200H370V210Z" fill="black" />
        <path d="M380 210V200H390V210H380Z" fill="black" />
        <path d="M90 100V80H100V120H90V100Z" fill="black" />
        <path d="M360 80V120H350V80H360Z" fill="black" />
        <path d="M110 60V80H100V60H110Z" fill="black" />
        <path d="M340 80V60H350V80H340Z" fill="black" />
        <path d="M210 340H200V250H210V340Z" fill="#BDC556" />
        <path d="M220 250H360V260H220V250Z" fill="#88651A" />
        <path d="M130 260H120V250H130V260Z" fill="#B7B9AA" />
        <path d="M130 260V250H140V260H130Z" fill="#9FA185" />
        <path d="M300 210V220H270V210H300Z" fill="black" />
        <path d="M180 210V220H150V210H180Z" fill="black" />
        <path d="M130 210V200H150V210H130Z" fill="black" />
        <path d="M200 200V210H180V200H200Z" fill="black" />
        <path d="M250 210V200H270V210H250Z" fill="black" />
        <path d="M320 200V210H300V200H320Z" fill="black" />
        <path d="M90 220V210H110V220H90Z" fill="black" />
        <path d="M340 220V210H360V220H340Z" fill="black" />
        <path d="M220 250V340H210V250H220Z" fill="black" />
        <path d="M360 260V250H370V340H360V260Z" fill="black" />
        <path d="M230 220H220V210H230V220Z" fill="black" />
        <path d="M240 200V210H230V200H240Z" fill="black" />
        <path d="M210 210V200H220V210H210Z" fill="black" />
        <path d="M120 200V210H110V200H120Z" fill="black" />
        <path d="M330 200H320V120H330V200Z" fill="black" />
        <path d="M340 210H330V200H340V210Z" fill="black" />
        <path d="M130 200H120V120H130V200Z" fill="black" />
        <path d="M360 370H220V360H360V370Z" fill="#828A40" />
        <path d="M360 340H370V360H360V340Z" fill="#BF9B05" />
        <path d="M210 340H220V360H210V340Z" fill="#BF9B05" />
        <path d="M210 360H220V370H210V360Z" fill="#88651A" />
        <path d="M360 360H370V370H360V360Z" fill="#88651A" />
        <path d="M130 190V140H200V190H130Z" fill="#B54343" />
        <path d="M200 140H130V120H140V100H200V140Z" fill="#D24040" />
        <path d="M240 140V190H210V140H240Z" fill="#D8D8C7" />
        <path d="M240 140H210V100H240V140Z" fill="#FBFBF6" />
        <path d="M200 100H140V80H200V100Z" fill="#AC1F1F" />
        <path d="M130 190H200V200H180V210H150V200H130V190Z" fill="#D24040" />
        <path d="M240 100H210V80H240V100Z" fill="#E8E8C1" />
        <path d="M210 190H240V200H230V210H220V200H210V190Z" fill="#FBFBF6" />
        <path d="M320 140V190H250V140H320Z" fill="#B54343" />
        <path d="M320 140H250V100H310V120H320V140Z" fill="#D24040" />
        <path d="M310 100H250V80H310V100Z" fill="#AC1F1F" />
        <path d="M250 190H320V200H300V210H270V200H250V190Z" fill="#D24040" />
        <path d="M100 80H130V100H100V80Z" fill="#E8E8C1" />
        <path d="M130 100V80H140V120H130V100Z" fill="black" />
        <path d="M340 80H350V100H320V80H340Z" fill="#E8E8C1" />
        <path d="M320 80V120H310V80H320Z" fill="black" />
        <path d="M120 140V190H90V140H120Z" fill="#D8D8C7" />
        <path d="M120 140H90V120H100V100H130V120H120V140Z" fill="#FBFBF6" />
        <path d="M90 190H120V200H110V210H90V190Z" fill="#FBFBF6" />
        <path d="M330 190V140H360V190H330Z" fill="#D8D8C7" />
        <path d="M360 140H330V120H320V100H350V120H360V140Z" fill="#FBFBF6" />
        <path d="M330 190H360V210H340V200H330V190Z" fill="#FBFBF6" />
        <path d="M360 260V280H220V260H360Z" fill="#5F4B18" />
        <path d="M220 280H360V330H220V280Z" fill="#0D1615" />
        <path d="M220 330H360V340H220V330Z" fill="#B17F1B" />
        <path d="M220 340H360V360H220V340Z" fill="#E6DF57" />
    </g>
    <defs>
        <clipPath id="clip0_2572_2867">
            <rect width="450" height="450" fill="white" />
        </clipPath>
    </defs>
</svg>
    